<svg width="201" height="68" viewBox="0 0 201 68" fill="none" xmlns="http://www.w3.org/2000/svg">
<path d="M184.994 0.811986H16.0154C15.3995 0.811986 14.7909 0.811986 14.1766 0.815345C13.6624 0.818705 13.1522 0.828464 12.633 0.836678C11.5051 0.84995 10.3799 0.949178 9.26708 1.1335C8.15583 1.32183 7.07939 1.67689 6.07417 2.18667C5.07018 2.70076 4.1528 3.36877 3.35532 4.16647C2.55366 4.96192 1.8854 5.88135 1.37626 6.88942C0.865719 7.89547 0.511705 8.97356 0.32645 10.0864C0.139434 11.1979 0.0387984 12.3222 0.0254475 13.4492C0.00985985 13.9642 0.00821374 14.4809 0 14.996V53.821C0.00821374 54.3426 0.00985985 54.8478 0.0254475 55.3696C0.0388025 56.4965 0.139438 57.6207 0.32645 58.7321C0.511194 59.8457 0.865228 60.9244 1.37626 61.9308C1.88517 62.9356 2.55352 63.8513 3.35532 64.6424C4.14978 65.4436 5.06775 66.1121 6.07417 66.6222C7.07939 67.1334 8.15571 67.4905 9.26708 67.6818C10.3801 67.8646 11.5052 67.9639 12.633 67.9787C13.1522 67.9902 13.6624 67.9967 14.1766 67.9967C14.7909 68.0001 15.3995 68.0001 16.0154 68.0001H184.994C185.597 68.0001 186.211 68.0001 186.814 67.9967C187.326 67.9967 187.851 67.9902 188.363 67.9787C189.489 67.9647 190.612 67.8654 191.722 67.6818C192.837 67.4892 193.917 67.1321 194.928 66.6222C195.933 66.1118 196.85 65.4433 197.644 64.6424C198.444 63.8482 199.113 62.9332 199.629 61.9308C200.136 60.9236 200.487 59.845 200.669 58.7321C200.856 57.6206 200.96 56.4966 200.98 55.3696C200.987 54.8478 200.987 54.3426 200.987 53.821C201 53.2108 201 52.6039 201 51.9838V16.8298C201 16.2147 201 15.6045 200.987 14.996C200.987 14.4809 200.987 13.9642 200.98 13.4491C200.96 12.322 200.856 11.198 200.669 10.0864C200.486 8.97413 200.135 7.89614 199.629 6.88935C198.592 4.8688 196.948 3.22408 194.928 2.18652C193.917 1.67799 192.837 1.32302 191.722 1.13335C190.612 0.948214 189.489 0.848952 188.363 0.836442C187.851 0.828245 187.326 0.818402 186.814 0.815127C186.211 0.811768 185.597 0.811768 184.994 0.811768V0.811986Z" fill="#A6A6A6"/>
<path d="M14.1848 66.5306C13.673 66.5306 13.1736 66.524 12.6658 66.5126C11.614 66.4989 10.5646 66.4073 9.52624 66.2387C8.55804 66.0719 7.62012 65.7617 6.74341 65.3184C5.87473 64.8786 5.08244 64.3021 4.39686 63.6108C3.70137 62.9276 3.12233 62.1352 2.68271 61.2651C2.23824 60.3892 1.93064 59.4505 1.77063 58.4815C1.59783 57.4402 1.50434 56.3874 1.49096 55.332C1.48031 54.9778 1.46637 53.7983 1.46637 53.7983V14.9962C1.46637 14.9962 1.48122 13.8349 1.49104 13.4937C1.50385 12.44 1.5968 11.3887 1.76909 10.3491C1.92939 9.37747 2.23723 8.43599 2.68194 7.55731C3.11994 6.68775 3.69576 5.89479 4.38707 5.20917C5.0776 4.51703 5.87243 3.9375 6.74258 3.49172C7.61728 3.04976 8.55343 2.74177 9.51967 2.57806C10.5614 2.40768 11.6145 2.31557 12.67 2.30249L14.1856 2.28198H186.806L188.34 2.30331C189.386 2.31574 190.429 2.40704 191.461 2.57642C192.437 2.74218 193.383 3.05232 194.268 3.49664C196.011 4.39502 197.43 5.81635 198.325 7.5614C198.762 8.43402 199.065 9.36782 199.224 10.3311C199.398 11.3792 199.495 12.4387 199.515 13.5011C199.52 13.9767 199.52 14.4877 199.52 14.9962C199.534 15.6261 199.534 16.2256 199.534 16.8301V51.984C199.534 52.5943 199.534 53.1897 199.52 53.7901C199.52 54.3363 199.52 54.8367 199.514 55.3517C199.494 56.3951 199.398 57.4356 199.227 58.465C199.07 59.441 198.764 60.3871 198.32 61.2701C197.877 62.1308 197.301 62.9163 196.614 63.5977C195.928 64.2927 195.134 64.8726 194.263 65.3152C193.381 65.762 192.436 66.0733 191.461 66.2387C190.423 66.4082 189.374 66.4998 188.322 66.5126C187.83 66.524 187.315 66.5306 186.814 66.5306L184.994 66.534L14.1848 66.5306Z" fill="#323232"/>
<path fill-rule="evenodd" clip-rule="evenodd" d="M125.439 49.6513C122.693 49.6513 120.684 48.2932 120.452 46.2247L117.257 46.2245C117.459 49.9973 120.582 52.384 125.208 52.384C130.151 52.384 133.26 49.9399 133.26 46.0376C133.26 42.9866 131.482 41.2675 127.202 40.2554L124.904 39.6911C122.216 39.0268 121.117 38.1591 121.117 36.6844C121.117 34.8342 122.837 33.5629 125.352 33.5629C127.867 33.5629 129.587 34.8194 129.776 36.901H132.927C132.825 33.3021 129.804 30.8301 125.396 30.8301C120.943 30.8301 117.806 33.3021 117.806 36.901C117.806 39.8076 119.585 41.5989 123.415 42.524L126.118 43.1753C128.821 43.8396 129.963 44.809 129.963 46.428C129.963 48.2931 128.07 49.6513 125.439 49.6513ZM71.0552 46.3985H63.1045L61.1952 52.0364H57.8276L65.3584 31.1778H68.8572L76.3879 52.0364H72.9629L71.0552 46.3985ZM63.928 43.7968H70.2302L67.1234 34.647H67.0365L63.928 43.7968ZM86.3053 52.1953C90.1224 52.1953 92.6518 49.159 92.6518 44.4332C92.6518 39.7205 90.1076 36.6695 86.2479 36.6695C84.2619 36.6055 82.4014 37.6384 81.4057 39.358H81.3483V36.8286H78.3267V57.0671H81.4483V49.5346H81.5205C82.4739 51.2651 84.3323 52.2985 86.3053 52.1953ZM89.4434 44.4334C89.4434 41.3545 87.8522 39.3303 85.4246 39.3303C83.0395 39.3303 81.4353 41.3971 81.4353 44.4334C81.4353 47.4975 83.0395 49.5496 85.4246 49.5496C87.8523 49.5496 89.4434 47.5402 89.4434 44.4334ZM103.043 52.1953C106.86 52.1953 109.39 49.159 109.39 44.4332C109.39 39.7205 106.846 36.6695 102.986 36.6695C101 36.6054 99.1393 37.6384 98.1436 39.358H98.0862V36.8286H95.0647V57.067H98.1863V49.5346H98.2585C99.2119 51.2651 101.07 52.2985 103.043 52.1953ZM106.181 44.4334C106.181 41.3545 104.59 39.3303 102.162 39.3303C99.7774 39.3303 98.1732 41.3971 98.1732 44.4334C98.1732 47.4975 99.7774 49.5496 102.162 49.5496C104.59 49.5496 106.181 47.5402 106.181 44.4334ZM139.997 33.2299V36.8288H142.889V39.3008H139.997V47.6845C139.997 48.9869 140.576 49.5939 141.847 49.5939C142.19 49.5879 142.533 49.5638 142.874 49.5216V51.9789C142.302 52.0857 141.721 52.134 141.14 52.1232C138.061 52.1232 136.86 50.9668 136.86 48.0174V39.3008H134.649V36.8288H136.86V33.2299H139.997ZM151.776 36.6418C147.382 36.6418 144.564 39.6485 144.564 44.4334C144.564 49.2313 147.354 52.2249 151.776 52.2249C156.2 52.2249 158.99 49.2313 158.99 44.4334C158.99 39.6484 156.185 36.6418 151.776 36.6418ZM155.81 44.4333C155.81 41.1509 154.305 39.2137 151.776 39.2137C149.247 39.2137 147.744 41.1657 147.744 44.4333C147.744 47.7287 149.247 49.6512 151.776 49.6512C154.305 49.6512 155.81 47.7287 155.81 44.4333H155.81ZM164.541 36.829H161.564L161.564 52.0365H164.686V43.0163C164.582 42.1037 164.882 41.1913 165.507 40.5187C166.132 39.846 167.021 39.4803 167.938 39.5175C168.413 39.5036 168.887 39.5673 169.341 39.7061V36.7863C168.99 36.7077 168.631 36.6686 168.271 36.6699C166.555 36.6043 165.029 37.7511 164.613 39.4174H164.541V36.829ZM183.733 47.5697C183.313 50.3304 180.625 52.2249 177.185 52.2249C172.761 52.2249 170.015 49.2609 170.015 44.5055C170.015 39.7355 172.776 36.6418 177.054 36.6418C181.261 36.6418 183.907 39.532 183.907 44.143V45.2125H173.166V45.4012C173.066 46.5333 173.457 47.654 174.239 48.4782C175.022 49.3023 176.121 49.7505 177.257 49.7087C178.772 49.8506 180.2 48.9807 180.769 47.5697L183.733 47.5697ZM180.784 43.0309H173.181C173.178 42.0042 173.586 41.0189 174.313 40.2941C175.04 39.5693 176.027 39.1651 177.054 39.1712C178.072 39.1493 179.054 39.5534 179.762 40.2861C180.47 41.0187 180.84 42.0136 180.784 43.0309Z" fill="white"/>
<path fill-rule="evenodd" clip-rule="evenodd" d="M99.2599 14.9832H100.753V25.4993H99.2599V14.9832ZM67.0734 16.8508C66.1598 15.8861 64.8618 15.3819 63.5367 15.477H59.9164V25.4996H63.5367C66.5221 25.4996 68.2526 23.659 68.2526 20.4571C68.4197 19.139 67.9869 17.8155 67.0734 16.8508ZM63.3628 24.0821H61.4731V16.8934H63.3628C64.3048 16.8411 65.2209 17.2125 65.8605 17.9061C66.5001 18.5997 66.7963 19.5428 66.6681 20.4775C66.8064 21.4161 66.5144 22.3671 65.8732 23.0663C65.232 23.7656 64.3098 24.1387 63.3628 24.0821ZM70.0111 21.7142C69.8814 20.3584 70.5315 19.0464 71.6887 18.3283C72.8459 17.6102 74.3102 17.6102 75.4674 18.3283C76.6246 19.0464 77.2746 20.3584 77.1449 21.7142C77.2771 23.0713 76.6276 24.3859 75.4694 25.1056C74.3112 25.8252 72.8449 25.8252 71.6867 25.1056C70.5284 24.3859 69.879 23.0713 70.0111 21.7142ZM73.5804 19.1162C74.8729 19.1162 75.6095 20.075 75.6095 21.7145H75.6095C75.6095 23.3605 74.873 24.3185 73.5804 24.3185C72.2829 24.3185 71.553 23.3671 71.553 21.7145C71.553 20.075 72.2829 19.1162 73.5804 19.1162ZM86.6276 25.4993H85.0792L83.5159 19.9287H83.3978L81.8412 25.4993H80.3074L78.2226 17.9357H79.7366L81.0915 23.7072H81.2031L82.7581 17.9357H84.1901L85.7452 23.7072H85.8633L87.2116 17.9357H88.7043L86.6276 25.4993ZM91.8948 17.9358H90.4578L90.4578 25.4993H91.9505V21.0745C91.897 20.5712 92.0659 20.0695 92.413 19.7011C92.7602 19.3327 93.2509 19.1343 93.7565 19.1578C94.8605 19.1578 95.3887 19.7623 95.3887 20.9778V25.4993H96.8814V20.6029C96.9908 19.8634 96.758 19.1142 96.2487 18.567C95.7394 18.0197 95.0089 17.7337 94.2634 17.7898C93.3006 17.7115 92.3942 18.2526 92.0063 19.1373H91.8948V17.9358ZM104.505 18.3283C103.348 19.0464 102.698 20.3585 102.828 21.7143C102.696 23.0715 103.345 24.3861 104.503 25.1057C105.662 25.8253 107.128 25.8253 108.286 25.1057C109.445 24.3861 110.094 23.0715 109.962 21.7143C110.092 20.3585 109.442 19.0464 108.284 18.3283C107.127 17.6102 105.663 17.6102 104.505 18.3283ZM108.426 21.7145C108.426 20.075 107.689 19.1162 106.397 19.1162C105.099 19.1162 104.37 20.075 104.37 21.7145C104.37 23.3671 105.099 24.3185 106.397 24.3185C107.689 24.3185 108.426 23.3605 108.426 21.7145ZM114.347 21.1024C112.547 21.2139 111.534 21.9988 111.534 23.3603C111.536 24.0059 111.812 24.6202 112.292 25.0515C112.772 25.4828 113.413 25.6907 114.055 25.6239C114.971 25.6663 115.839 25.2126 116.327 24.4364H116.445V25.4993H117.882V20.3314C117.882 18.7337 116.812 17.7897 114.916 17.7897C113.2 17.7897 111.978 18.623 111.826 19.9222H113.271C113.436 19.3874 114.014 19.0815 114.847 19.0815C115.867 19.0815 116.396 19.5326 116.396 20.3314V20.9843L114.347 21.1024ZM116.396 22.7143V22.0819L114.549 22.2C113.507 22.2698 113.035 22.6241 113.035 23.2909C113.035 23.9716 113.625 24.3677 114.437 24.3677C114.918 24.4164 115.398 24.2679 115.767 23.9562C116.136 23.6445 116.363 23.1963 116.396 22.7143ZM122.983 17.8103C121.072 17.8103 119.844 19.3243 119.844 21.7143C119.844 24.11 121.059 25.6241 122.983 25.624C123.959 25.6599 124.874 25.1516 125.358 24.3043H125.476V25.4993H126.907V14.9832H125.414V19.1373H125.303C124.852 18.2829 123.948 17.7658 122.983 17.8103ZM121.386 21.7143C121.386 23.3186 122.142 24.2839 123.406 24.2839C124.665 24.2839 125.442 23.3047 125.442 21.7209C125.442 20.1445 124.656 19.1513 123.406 19.1513C122.15 19.1513 121.385 20.1232 121.385 21.7143H121.386ZM134.76 18.3283C133.603 19.0464 132.953 20.3584 133.083 21.7142C132.951 23.0713 133.6 24.3859 134.758 25.1056C135.917 25.8252 137.383 25.8252 138.541 25.1056C139.699 24.3859 140.349 23.0713 140.217 21.7142C140.346 20.3584 139.696 19.0464 138.539 18.3283C137.382 17.6102 135.918 17.6102 134.76 18.3283ZM138.681 21.7145C138.681 20.075 137.945 19.1162 136.652 19.1162C135.355 19.1162 134.625 20.075 134.625 21.7145C134.625 23.3671 135.355 24.3185 136.652 24.3185C137.945 24.3185 138.681 23.3605 138.681 21.7145ZM143.656 17.9358H142.219V25.4993H143.712V21.0745C143.659 20.5712 143.827 20.0695 144.175 19.7011C144.522 19.3327 145.012 19.1343 145.518 19.1578C146.622 19.1578 147.15 19.7623 147.15 20.9778V25.4993H148.643V20.6029C148.752 19.8634 148.52 19.1142 148.01 18.567C147.501 18.0197 146.77 17.7337 146.025 17.7898C145.062 17.7115 144.156 18.2526 143.768 19.1373H143.656V17.9358ZM157.078 16.0528V17.9703H158.716V19.2277H157.078V23.1169C157.078 23.9092 157.404 24.2561 158.147 24.2561C158.337 24.2555 158.527 24.244 158.716 24.2216V25.465C158.448 25.513 158.177 25.5385 157.904 25.5413C156.244 25.5413 155.583 24.9573 155.583 23.4991V19.2276H154.382V17.9703H155.583V16.0528H157.078ZM162.235 14.9832H160.755L160.755 25.4993H162.248V21.0819C162.202 20.5629 162.387 20.05 162.754 19.6803C163.121 19.3106 163.633 19.1218 164.152 19.1644C165.207 19.1644 165.77 19.7762 165.77 20.9843V25.4993H167.264V20.6161C167.363 19.8803 167.128 19.1388 166.625 18.5936C166.121 18.0483 165.4 17.756 164.659 17.7963C163.682 17.717 162.759 18.2589 162.353 19.1513H162.235V14.9832ZM175.968 23.4572C175.549 24.8839 174.168 25.8057 172.69 25.6454C171.682 25.672 170.712 25.254 170.04 24.5022C169.367 23.7504 169.058 22.7409 169.196 21.7414C169.062 20.7392 169.369 19.7281 170.038 18.9699C170.707 18.2118 171.673 17.7812 172.684 17.7899C174.788 17.7899 176.058 19.2277 176.058 21.6028V22.1236H170.717V22.2073C170.67 22.7686 170.861 23.3237 171.245 23.7362C171.628 24.1488 172.168 24.3804 172.731 24.3741C173.462 24.4618 174.172 24.0995 174.531 23.4572L175.968 23.4572ZM174.537 21.0197H170.717C170.71 20.4982 170.914 19.996 171.283 19.6271C171.652 19.2582 172.154 19.0538 172.675 19.0604C173.19 19.0486 173.686 19.2546 174.04 19.6278C174.395 20.0009 174.575 20.5064 174.537 21.0197Z" fill="white"/>
<path fill-rule="evenodd" clip-rule="evenodd" d="M38.888 15.4595C39.0506 17.583 38.3791 19.6863 37.0159 21.3227C35.6935 22.9675 33.6896 23.915 31.5791 23.8933C31.4449 21.8309 32.136 19.7997 33.5002 18.2471C34.8818 16.6735 36.8055 15.6782 38.888 15.4595ZM45.5626 27.9369C43.1349 29.4294 41.641 32.0616 41.6043 34.9111C41.6078 38.1351 43.5385 41.0446 46.5077 42.3004C45.9367 44.1555 45.0759 45.9087 43.9572 47.4949C42.455 49.7422 40.8798 51.9377 38.3798 51.9783C37.1908 52.0057 36.3882 51.6638 35.5519 51.3075C34.6795 50.9359 33.7705 50.5487 32.348 50.5487C30.8394 50.5487 29.8896 50.9484 28.9736 51.3339C28.1821 51.667 27.4157 51.9895 26.3356 52.0343C23.9547 52.1225 22.1352 49.6358 20.5782 47.4096C17.4664 42.8633 15.0433 34.5974 18.2918 28.9731C19.8173 26.2318 22.6695 24.4924 25.805 24.3911C27.1554 24.3633 28.4511 24.8837 29.5871 25.34C30.4559 25.689 31.2313 26.0005 31.8662 26.0005C32.4243 26.0005 33.1781 25.7013 34.0565 25.3527C35.4402 24.8035 37.1333 24.1315 38.8586 24.3126C41.5396 24.3965 44.0241 25.7397 45.5626 27.9369Z" fill="white"/>
</svg>
