<svg width="326" height="47" viewBox="0 0 326 47" fill="none" xmlns="http://www.w3.org/2000/svg">
<g clip-path="url(#clip0)">
<path d="M12.3268 38.4414C11.4929 38.4414 10.6778 38.6924 9.9845 39.1626C9.29119 39.6328 8.75082 40.3012 8.43172 41.0831C8.11262 41.865 8.02913 42.7255 8.1918 43.5556C8.35448 44.3857 8.756 45.1482 9.34562 45.7466C9.93523 46.3451 10.6864 46.7526 11.5043 46.9178C12.3221 47.0829 13.1698 46.9981 13.9401 46.6743C14.7105 46.3504 15.3689 45.8019 15.8322 45.0982C16.2955 44.3944 16.5427 43.5671 16.5427 42.7207C16.5396 41.5867 16.0944 40.5001 15.3045 39.6983C14.5145 38.8965 13.4439 38.4446 12.3268 38.4414ZM0 4.86206V9.14135H4.21597L11.8053 24.7453L8.63227 29.9875C8.28594 30.6076 8.10421 31.3083 8.1049 32.021C8.1049 34.8858 10.0347 36.3003 12.6509 36.3003H37.3014V32.1855H13.1664C13.0961 32.1899 13.0256 32.179 12.9596 32.1536C12.8937 32.1283 12.8338 32.089 12.784 32.0384C12.7341 31.9878 12.6954 31.927 12.6704 31.8601C12.6455 31.7932 12.6348 31.7216 12.6391 31.6502C12.6946 31.4651 12.7697 31.2866 12.863 31.1179L14.9695 27.7417H30.6755C31.4344 27.748 32.1803 27.5417 32.831 27.1455C33.4818 26.7493 34.0123 26.1785 34.3641 25.4959L41.9564 12.2454C42.1044 11.9089 42.1769 11.5432 42.1685 11.1748C42.1656 10.8995 42.1082 10.6275 41.9998 10.3751C41.8914 10.1226 41.7342 9.89485 41.5375 9.70522C41.3408 9.51559 41.1086 9.36796 40.8546 9.27111C40.6007 9.17425 40.3301 9.13013 40.0591 9.14135H8.85618L6.85277 4.86206H0ZM33.0825 38.4414C32.2488 38.442 31.434 38.6935 30.7411 39.1641C30.0481 39.6346 29.5082 40.3032 29.1896 41.0852C28.8709 41.8672 28.7879 42.7275 28.9509 43.5574C29.1139 44.3873 29.5156 45.1495 30.1054 45.7477C30.6951 46.3458 31.4463 46.7531 32.2641 46.918C33.0818 47.0829 33.9293 46.9979 34.6995 46.674C35.4697 46.35 36.128 45.8015 36.5911 45.0978C37.0542 44.3942 37.3014 43.5669 37.3014 42.7207C37.2983 41.5862 36.8527 40.4992 36.0621 39.6972C35.2715 38.8953 34.2002 38.4438 33.0825 38.4414Z" fill="#FFC83B"/>
<path d="M63.5811 16C65.4611 16 67.0711 16.47 68.4111 17.41C69.7711 18.33 70.8011 19.59 71.5011 21.19C72.2211 22.77 72.5811 24.54 72.5811 26.5C72.5811 28.46 72.2211 30.24 71.5011 31.84C70.8011 33.42 69.7711 34.68 68.4111 35.62C67.0711 36.54 65.4611 37 63.5811 37H56.4111C55.8911 37 55.4511 36.83 55.0911 36.49C54.7511 36.13 54.5811 35.69 54.5811 35.17V17.83C54.5811 17.31 54.7511 16.88 55.0911 16.54C55.4511 16.18 55.8911 16 56.4111 16H63.5811ZM63.2811 33.55C65.0811 33.55 66.4311 32.89 67.3311 31.57C68.2311 30.23 68.6811 28.54 68.6811 26.5C68.6811 24.46 68.2211 22.78 67.3011 21.46C66.4011 20.12 65.0611 19.45 63.2811 19.45H58.3311V33.55H63.2811ZM90.3607 28.6C90.3407 29.08 90.1507 29.47 89.7907 29.77C89.4307 30.07 89.0107 30.22 88.5307 30.22H78.6307C78.8707 31.4 79.4207 32.33 80.2807 33.01C81.1407 33.67 82.1107 34 83.1907 34C84.0107 34 84.6507 33.93 85.1107 33.79C85.5707 33.63 85.9307 33.47 86.1907 33.31C86.4707 33.13 86.6607 33.01 86.7607 32.95C87.1207 32.77 87.4607 32.68 87.7807 32.68C88.2007 32.68 88.5607 32.83 88.8607 33.13C89.1607 33.43 89.3107 33.78 89.3107 34.18C89.3107 34.72 89.0307 35.21 88.4707 35.65C87.9107 36.11 87.1607 36.5 86.2207 36.82C85.2807 37.14 84.3307 37.3 83.3707 37.3C81.6907 37.3 80.2207 36.95 78.9607 36.25C77.7207 35.55 76.7607 34.59 76.0807 33.37C75.4007 32.13 75.0607 30.74 75.0607 29.2C75.0607 27.48 75.4207 25.97 76.1407 24.67C76.8607 23.37 77.8107 22.38 78.9907 21.7C80.1707 21 81.4307 20.65 82.7707 20.65C84.0907 20.65 85.3307 21.01 86.4907 21.73C87.6707 22.45 88.6107 23.42 89.3107 24.64C90.0107 25.86 90.3607 27.18 90.3607 28.6ZM82.7707 23.95C80.4507 23.95 79.0807 25.04 78.6607 27.22H86.5207V27.01C86.4407 26.17 86.0307 25.45 85.2907 24.85C84.5507 24.25 83.7107 23.95 82.7707 23.95ZM97.2631 35.17C97.2631 35.69 97.0831 36.13 96.7231 36.49C96.3831 36.83 95.9531 37 95.4331 37C94.9331 37 94.5131 36.83 94.1731 36.49C93.8331 36.13 93.6631 35.69 93.6631 35.17V16.63C93.6631 16.11 93.8331 15.68 94.1731 15.34C94.5331 14.98 94.9731 14.8 95.4931 14.8C95.9931 14.8 96.4131 14.98 96.7531 15.34C97.0931 15.68 97.2631 16.11 97.2631 16.63V35.17ZM104.839 35.17C104.839 35.69 104.669 36.13 104.329 36.49C103.989 36.83 103.559 37 103.039 37C102.519 37 102.089 36.83 101.749 36.49C101.409 36.13 101.239 35.69 101.239 35.17V22.78C101.239 22.26 101.409 21.83 101.749 21.49C102.089 21.13 102.519 20.95 103.039 20.95C103.559 20.95 103.989 21.13 104.329 21.49C104.669 21.83 104.839 22.26 104.839 22.78V35.17ZM103.009 19C102.329 19 101.849 18.89 101.569 18.67C101.289 18.45 101.149 18.06 101.149 17.5V16.93C101.149 16.37 101.299 15.98 101.599 15.76C101.899 15.54 102.379 15.43 103.039 15.43C103.739 15.43 104.229 15.54 104.509 15.76C104.789 15.98 104.929 16.37 104.929 16.93V17.5C104.929 18.08 104.779 18.48 104.479 18.7C104.199 18.9 103.709 19 103.009 19ZM120.869 20.98C121.349 20.98 121.749 21.14 122.069 21.46C122.389 21.76 122.549 22.14 122.549 22.6C122.549 22.84 122.469 23.14 122.309 23.5L116.699 35.86C116.559 36.2 116.349 36.47 116.069 36.67C115.809 36.87 115.509 36.98 115.169 37L114.899 37.03C114.559 37.03 114.239 36.93 113.939 36.73C113.659 36.51 113.439 36.22 113.279 35.86L107.699 23.5C107.559 23.18 107.489 22.86 107.489 22.54C107.489 22.14 107.659 21.78 107.999 21.46C108.339 21.12 108.759 20.95 109.259 20.95C109.639 20.95 109.989 21.05 110.309 21.25C110.629 21.45 110.869 21.73 111.029 22.09L115.169 31.57L119.279 22.12C119.439 21.74 119.659 21.45 119.939 21.25C120.219 21.05 120.529 20.96 120.869 20.98ZM139.638 28.6C139.618 29.08 139.428 29.47 139.068 29.77C138.708 30.07 138.288 30.22 137.808 30.22H127.908C128.148 31.4 128.698 32.33 129.558 33.01C130.418 33.67 131.388 34 132.468 34C133.288 34 133.928 33.93 134.388 33.79C134.848 33.63 135.208 33.47 135.468 33.31C135.748 33.13 135.938 33.01 136.038 32.95C136.398 32.77 136.738 32.68 137.058 32.68C137.478 32.68 137.838 32.83 138.138 33.13C138.438 33.43 138.588 33.78 138.588 34.18C138.588 34.72 138.308 35.21 137.748 35.65C137.188 36.11 136.438 36.5 135.498 36.82C134.558 37.14 133.608 37.3 132.648 37.3C130.968 37.3 129.498 36.95 128.238 36.25C126.998 35.55 126.038 34.59 125.358 33.37C124.678 32.13 124.338 30.74 124.338 29.2C124.338 27.48 124.698 25.97 125.418 24.67C126.138 23.37 127.088 22.38 128.268 21.7C129.448 21 130.708 20.65 132.048 20.65C133.368 20.65 134.608 21.01 135.768 21.73C136.948 22.45 137.888 23.42 138.588 24.64C139.288 25.86 139.638 27.18 139.638 28.6ZM132.048 23.95C129.728 23.95 128.358 25.04 127.938 27.22H135.798V27.01C135.718 26.17 135.308 25.45 134.568 24.85C133.828 24.25 132.988 23.95 132.048 23.95ZM150.98 20.65C151.58 20.65 152.08 20.82 152.48 21.16C152.9 21.5 153.11 21.9 153.11 22.36C153.11 22.98 152.95 23.45 152.63 23.77C152.31 24.07 151.93 24.22 151.49 24.22C151.19 24.22 150.85 24.15 150.47 24.01C150.41 23.99 150.27 23.95 150.05 23.89C149.85 23.83 149.63 23.8 149.39 23.8C148.87 23.8 148.37 23.96 147.89 24.28C147.41 24.6 147.01 25.09 146.69 25.75C146.39 26.39 146.24 27.16 146.24 28.06V35.17C146.24 35.69 146.07 36.13 145.73 36.49C145.39 36.83 144.96 37 144.44 37C143.92 37 143.49 36.83 143.15 36.49C142.81 36.13 142.64 35.69 142.64 35.17V22.78C142.64 22.26 142.81 21.83 143.15 21.49C143.49 21.13 143.92 20.95 144.44 20.95C144.96 20.95 145.39 21.13 145.73 21.49C146.07 21.83 146.24 22.26 146.24 22.78V23.17C146.7 22.35 147.36 21.73 148.22 21.31C149.08 20.87 150 20.65 150.98 20.65ZM167.558 20.95C168.078 20.95 168.508 21.13 168.848 21.49C169.188 21.83 169.358 22.26 169.358 22.78V35.53C169.358 38.13 168.658 40.02 167.258 41.2C165.858 42.4 163.988 43 161.648 43C160.968 43 160.268 42.94 159.548 42.82C158.848 42.72 158.278 42.58 157.838 42.4C156.858 41.98 156.368 41.4 156.368 40.66C156.368 40.52 156.398 40.36 156.458 40.18C156.578 39.74 156.778 39.4 157.058 39.16C157.358 38.94 157.678 38.83 158.018 38.83C158.218 38.83 158.408 38.86 158.588 38.92C158.728 38.98 158.968 39.08 159.308 39.22C159.668 39.36 160.038 39.47 160.418 39.55C160.818 39.65 161.228 39.7 161.648 39.7C163.068 39.7 164.108 39.39 164.768 38.77C165.448 38.17 165.788 37.13 165.788 35.65V35.35C164.748 36.65 163.128 37.3 160.928 37.3C159.888 37.3 158.968 37.06 158.168 36.58C157.368 36.08 156.748 35.4 156.308 34.54C155.868 33.66 155.648 32.66 155.648 31.54V22.78C155.648 22.26 155.818 21.83 156.158 21.49C156.498 21.13 156.928 20.95 157.448 20.95C157.968 20.95 158.398 21.13 158.738 21.49C159.078 21.83 159.248 22.26 159.248 22.78V30.46C159.248 31.72 159.518 32.63 160.058 33.19C160.618 33.73 161.428 34 162.488 34C163.528 34 164.328 33.7 164.888 33.1C165.468 32.48 165.758 31.6 165.758 30.46V22.78C165.758 22.26 165.928 21.83 166.268 21.49C166.608 21.13 167.038 20.95 167.558 20.95ZM191.766 15.97C192.266 15.97 192.696 16.15 193.056 16.51C193.436 16.85 193.626 17.28 193.626 17.8V35.17C193.626 35.69 193.456 36.13 193.116 36.49C192.776 36.83 192.326 37 191.766 37C191.206 37 190.746 36.83 190.386 36.49C190.046 36.15 189.876 35.71 189.876 35.17V23.08L184.926 30.64C184.726 30.88 184.496 31.08 184.236 31.24C183.976 31.38 183.706 31.44 183.426 31.42C183.166 31.44 182.906 31.38 182.646 31.24C182.386 31.08 182.156 30.88 181.956 30.64L177.006 22.81V35.17C177.006 35.71 176.846 36.15 176.526 36.49C176.206 36.83 175.786 37 175.266 37C174.766 37 174.356 36.83 174.036 36.49C173.716 36.13 173.556 35.69 173.556 35.17V17.8C173.556 17.3 173.736 16.87 174.096 16.51C174.476 16.15 174.926 15.97 175.446 15.97C175.746 15.97 176.046 16.05 176.346 16.21C176.646 16.35 176.876 16.54 177.036 16.78L183.576 26.83L190.296 16.78C190.456 16.54 190.666 16.35 190.926 16.21C191.206 16.05 191.486 15.97 191.766 15.97ZM210.826 20.65C211.346 20.65 211.776 20.82 212.116 21.16C212.456 21.5 212.626 21.94 212.626 22.48V35.17C212.626 35.69 212.456 36.13 212.116 36.49C211.776 36.83 211.346 37 210.826 37C210.306 37 209.876 36.83 209.536 36.49C209.216 36.15 209.046 35.72 209.026 35.2C208.526 35.78 207.846 36.28 206.986 36.7C206.146 37.1 205.256 37.3 204.316 37.3C202.936 37.3 201.686 36.95 200.566 36.25C199.446 35.53 198.556 34.54 197.896 33.28C197.256 32.02 196.936 30.59 196.936 28.99C196.936 27.39 197.256 25.96 197.896 24.7C198.536 23.42 199.406 22.43 200.506 21.73C201.626 21.01 202.856 20.65 204.196 20.65C205.156 20.65 206.056 20.83 206.896 21.19C207.736 21.53 208.446 21.97 209.026 22.51V22.48C209.026 21.96 209.196 21.53 209.536 21.19C209.876 20.83 210.306 20.65 210.826 20.65ZM204.766 34C206.066 34 207.126 33.53 207.946 32.59C208.766 31.63 209.176 30.43 209.176 28.99C209.176 27.55 208.766 26.35 207.946 25.39C207.126 24.43 206.066 23.95 204.766 23.95C203.486 23.95 202.436 24.43 201.616 25.39C200.796 26.35 200.386 27.55 200.386 28.99C200.386 30.43 200.786 31.63 201.586 32.59C202.406 33.53 203.466 34 204.766 34ZM224.867 20.65C225.467 20.65 225.967 20.82 226.367 21.16C226.787 21.5 226.997 21.9 226.997 22.36C226.997 22.98 226.837 23.45 226.517 23.77C226.197 24.07 225.817 24.22 225.377 24.22C225.077 24.22 224.737 24.15 224.357 24.01C224.297 23.99 224.157 23.95 223.937 23.89C223.737 23.83 223.517 23.8 223.277 23.8C222.757 23.8 222.257 23.96 221.777 24.28C221.297 24.6 220.897 25.09 220.577 25.75C220.277 26.39 220.127 27.16 220.127 28.06V35.17C220.127 35.69 219.957 36.13 219.617 36.49C219.277 36.83 218.847 37 218.327 37C217.807 37 217.377 36.83 217.037 36.49C216.697 36.13 216.527 35.69 216.527 35.17V22.78C216.527 22.26 216.697 21.83 217.037 21.49C217.377 21.13 217.807 20.95 218.327 20.95C218.847 20.95 219.277 21.13 219.617 21.49C219.957 21.83 220.127 22.26 220.127 22.78V23.17C220.587 22.35 221.247 21.73 222.107 21.31C222.967 20.87 223.887 20.65 224.867 20.65ZM242.885 33.85C243.265 34.25 243.455 34.7 243.455 35.2C243.455 35.7 243.255 36.12 242.855 36.46C242.475 36.8 242.065 36.97 241.625 36.97C241.105 36.97 240.665 36.77 240.305 36.37L234.905 30.67L233.435 32.02V35.17C233.435 35.69 233.265 36.13 232.925 36.49C232.585 36.83 232.155 37 231.635 37C231.115 37 230.685 36.83 230.345 36.49C230.005 36.13 229.835 35.69 229.835 35.17V16.63C229.835 16.11 230.005 15.68 230.345 15.34C230.685 14.98 231.115 14.8 231.635 14.8C232.155 14.8 232.585 14.98 232.925 15.34C233.265 15.68 233.435 16.11 233.435 16.63V27.73L239.855 21.52C240.235 21.14 240.675 20.95 241.175 20.95C241.615 20.95 242.005 21.14 242.345 21.52C242.705 21.88 242.885 22.25 242.885 22.63C242.885 23.11 242.645 23.56 242.165 23.98L237.635 28.15L242.885 33.85ZM260.341 28.6C260.321 29.08 260.131 29.47 259.771 29.77C259.411 30.07 258.991 30.22 258.511 30.22H248.611C248.851 31.4 249.401 32.33 250.261 33.01C251.121 33.67 252.091 34 253.171 34C253.991 34 254.631 33.93 255.091 33.79C255.551 33.63 255.911 33.47 256.171 33.31C256.451 33.13 256.641 33.01 256.741 32.95C257.101 32.77 257.441 32.68 257.761 32.68C258.181 32.68 258.541 32.83 258.841 33.13C259.141 33.43 259.291 33.78 259.291 34.18C259.291 34.72 259.011 35.21 258.451 35.65C257.891 36.11 257.141 36.5 256.201 36.82C255.261 37.14 254.311 37.3 253.351 37.3C251.671 37.3 250.201 36.95 248.941 36.25C247.701 35.55 246.741 34.59 246.061 33.37C245.381 32.13 245.041 30.74 245.041 29.2C245.041 27.48 245.401 25.97 246.121 24.67C246.841 23.37 247.791 22.38 248.971 21.7C250.151 21 251.411 20.65 252.751 20.65C254.071 20.65 255.311 21.01 256.471 21.73C257.651 22.45 258.591 23.42 259.291 24.64C259.991 25.86 260.341 27.18 260.341 28.6ZM252.751 23.95C250.431 23.95 249.061 25.04 248.641 27.22H256.501V27.01C256.421 26.17 256.011 25.45 255.271 24.85C254.531 24.25 253.691 23.95 252.751 23.95ZM271.084 33.61C271.364 33.61 271.614 33.75 271.834 34.03C272.074 34.29 272.194 34.64 272.194 35.08C272.194 35.62 271.894 36.08 271.294 36.46C270.714 36.82 270.054 37 269.314 37C268.074 37 267.024 36.74 266.164 36.22C265.324 35.68 264.904 34.55 264.904 32.83V24.55H263.524C263.044 24.55 262.644 24.39 262.324 24.07C262.004 23.75 261.844 23.35 261.844 22.87C261.844 22.41 262.004 22.03 262.324 21.73C262.644 21.41 263.044 21.25 263.524 21.25H264.904V19.33C264.904 18.81 265.074 18.38 265.414 18.04C265.774 17.68 266.214 17.5 266.734 17.5C267.234 17.5 267.654 17.68 267.994 18.04C268.334 18.38 268.504 18.81 268.504 19.33V21.25H270.634C271.114 21.25 271.514 21.41 271.834 21.73C272.154 22.05 272.314 22.45 272.314 22.93C272.314 23.39 272.154 23.78 271.834 24.1C271.514 24.4 271.114 24.55 270.634 24.55H268.504V32.68C268.504 33.1 268.614 33.41 268.834 33.61C269.054 33.79 269.354 33.88 269.734 33.88C269.894 33.88 270.114 33.84 270.394 33.76C270.634 33.66 270.864 33.61 271.084 33.61Z" fill="white"/>
</g>
<defs>
<clipPath id="clip0">
<rect width="326" height="47" fill="white"/>
</clipPath>
</defs>
</svg>
