<svg width="220" height="65" viewBox="0 0 220 65" fill="none" xmlns="http://www.w3.org/2000/svg">
<rect width="219.375" height="65" rx="5" fill="#323232"/>
<path fill-rule="evenodd" clip-rule="evenodd" d="M8.125 0H211.25C215.737 0 219.375 3.63769 219.375 8.125V56.875C219.375 61.3623 215.737 65 211.25 65H8.125C3.63769 65 0 61.3623 0 56.875V8.125C0 3.63769 3.63769 0 8.125 0ZM218.075 8.12501C218.075 4.35567 215.019 1.30001 211.25 1.30001H8.12501C4.35567 1.30001 1.30001 4.35567 1.30001 8.12501V56.875C1.30001 60.6444 4.35567 63.7 8.12501 63.7H211.25C215.019 63.7 218.075 60.6444 218.075 56.875V8.12501Z" fill="#A6A6A6"/>
<path fill-rule="evenodd" clip-rule="evenodd" d="M77.5775 37.4724V40.3974H84.5975C84.4875 41.775 83.9148 43.075 82.9725 44.0861C81.5523 45.5327 79.5869 46.3118 77.5613 46.2311C73.2535 46.2311 69.7613 42.7389 69.7613 38.4311C69.7613 34.1233 73.2535 30.6311 77.5613 30.6311C79.5402 30.5988 81.4511 31.3527 82.875 32.7274L84.9388 30.6636C82.9968 28.6971 80.3412 27.6009 77.5775 27.6249C73.6433 27.4717 69.9407 29.4833 67.928 32.8672C65.9154 36.2511 65.9154 40.4649 67.928 43.8488C69.9407 47.2326 73.6433 49.2442 77.5775 49.0911C80.3917 49.2183 83.1232 48.1221 85.0688 46.0849C86.7713 44.2144 87.6802 41.7555 87.6038 39.2274C87.609 38.6115 87.5546 37.9965 87.4413 37.3911L77.5775 37.4724ZM95.5987 35.3433C91.7866 35.3523 88.7027 38.4483 88.7087 42.2604C88.7147 46.0725 91.8082 49.1588 95.6203 49.1558C99.4324 49.1528 102.521 46.0617 102.521 42.2496C102.548 40.4042 101.824 38.627 100.516 37.325C99.2083 36.0231 97.4277 35.3079 95.5824 35.3433H95.5987ZM103.854 42.2712C103.842 38.4612 106.918 35.3613 110.727 35.3433C112.573 35.3079 114.353 36.0231 115.661 37.325C116.969 38.627 117.693 40.4042 117.666 42.2496C117.666 46.0596 114.581 49.1498 110.771 49.1558C106.961 49.1617 103.866 46.0811 103.854 42.2712ZM106.652 44.0672C107.394 45.6205 109.01 46.5623 110.728 46.4422C111.805 46.4172 112.827 45.9579 113.562 45.1685C114.296 44.3791 114.68 43.3266 114.628 42.2497C114.623 40.5283 113.567 38.9844 111.964 38.3564C110.362 37.7284 108.538 38.144 107.365 39.4044C106.193 40.6648 105.91 42.5139 106.652 44.0672ZM91.5124 44.0797C92.2597 45.6321 93.8805 46.5692 95.5987 46.4423H95.5824C96.6603 46.4173 97.6823 45.958 98.4167 45.1686C99.151 44.3792 99.5353 43.3267 99.4824 42.2498C99.4778 40.527 98.4196 38.9824 96.8148 38.3558C95.2099 37.7292 93.3851 38.1482 92.2143 39.4121C91.0435 40.676 90.7651 42.5274 91.5124 44.0797ZM145.291 35.3436C147.985 35.4428 150.339 37.1948 151.206 39.7474L151.548 40.4786L142.301 44.2974C142.881 45.6172 144.208 46.4485 145.649 46.3936C147.04 46.3971 148.33 45.6688 149.045 44.4761L151.401 46.1011C150.119 48.021 147.958 49.1686 145.649 49.1561C143.813 49.183 142.046 48.4624 140.753 47.1599C139.459 45.8574 138.751 44.085 138.791 42.2499C138.679 40.4567 139.314 38.6971 140.545 37.3887C141.777 36.0804 143.495 35.3401 145.291 35.3436ZM141.781 42.0548C141.715 41.0394 142.06 40.04 142.738 39.2819C143.417 38.5237 144.372 38.0706 145.389 38.0248C146.46 37.9542 147.47 38.5296 147.956 39.4873L141.781 42.0548ZM137.312 48.75H134.274V28.4375H137.312V48.75ZM129.301 36.8875H129.187C128.261 35.8518 126.937 35.2607 125.547 35.2625C121.859 35.4414 118.96 38.484 118.96 42.1769C118.96 45.8697 121.859 48.9124 125.547 49.0912C126.941 49.1147 128.274 48.5197 129.187 47.4662H129.285V48.4575C129.285 51.1062 127.871 52.52 125.596 52.52C124.046 52.4837 122.672 51.5142 122.119 50.0662L119.47 51.1712C120.49 53.6523 122.914 55.266 125.596 55.25C129.155 55.25 132.096 53.1537 132.096 48.0512V35.75H129.301V36.8875ZM125.819 46.4418L125.824 46.4422H125.808L125.819 46.4418ZM128.557 45.1386C127.86 45.9278 126.871 46.3983 125.819 46.4418C123.648 46.2479 121.985 44.4293 121.985 42.2497C121.985 40.0685 123.651 38.2487 125.824 38.0572C126.874 38.1111 127.858 38.5866 128.552 39.3759C129.246 40.1652 129.593 41.2015 129.513 42.2497C129.602 43.3028 129.257 44.3467 128.557 45.1386ZM165.441 28.4372H158.177V48.7497H161.216V41.0472H165.457C167.818 41.2168 170.076 40.0535 171.308 38.0328C172.54 36.012 172.54 33.4723 171.308 31.4516C170.076 29.4309 167.818 28.2676 165.457 28.4372H165.441ZM161.2 38.1875H165.441L165.506 38.2362C167.431 38.2362 168.992 36.6757 168.992 34.7506C168.992 32.8255 167.431 31.265 165.506 31.265H161.2V38.1875ZM184.177 35.2621C181.917 35.127 179.791 36.3461 178.766 38.3658L181.464 39.4871C182.007 38.4856 183.09 37.8992 184.226 37.9921C185.005 37.9011 185.788 38.1269 186.4 38.6189C187.011 39.1108 187.399 39.8277 187.476 40.6083V40.8196C186.5 40.3028 185.412 40.0349 184.307 40.0396C181.399 40.0396 178.457 41.6646 178.457 44.6058C178.515 45.8729 179.083 47.0626 180.032 47.9043C180.981 48.746 182.23 49.1681 183.495 49.0746C185.054 49.1865 186.549 48.4388 187.395 47.1246H187.492V48.7496H190.417V40.9333C190.417 37.3746 187.72 35.3108 184.259 35.3108L184.177 35.2621ZM181.431 44.6713C181.431 45.89 182.812 46.3938 183.804 46.3938L183.885 46.4425C185.716 46.3979 187.234 45.0116 187.444 43.1925C186.601 42.7219 185.647 42.4862 184.681 42.51C183.154 42.51 181.431 43.0463 181.431 44.6713ZM201.077 35.7502L197.6 44.5577H197.502L193.895 35.7502H190.645L196.056 48.0676L192.969 54.9089H196.137L204.457 35.7502H201.077ZM176.8 48.75H173.761V28.4375H176.8V48.75Z" fill="white"/>
<path fill-rule="evenodd" clip-rule="evenodd" d="M112.466 19.8576C114.444 21.8243 117.639 21.8243 119.616 19.8576C121.541 17.8317 121.541 14.6524 119.616 12.6264C118.67 11.6737 117.384 11.1379 116.041 11.1379C114.699 11.1379 113.412 11.6737 112.466 12.6264C110.549 14.6556 110.549 17.8284 112.466 19.8576ZM75.8388 19.8907C76.6728 19.0199 77.1133 17.8452 77.0575 16.6407C77.0576 16.3955 77.0359 16.1508 76.9925 15.9094H72.2638V17.0794H75.79C75.7659 17.8164 75.4775 18.5201 74.9775 19.0619C73.8637 20.1386 72.2116 20.4394 70.7898 19.8245C69.368 19.2095 68.4558 17.7996 68.4775 16.2507C68.4421 15.2257 68.8259 14.2305 69.5403 13.4946C70.2548 12.7587 71.2382 12.3457 72.2638 12.3507C73.2841 12.2949 74.2712 12.7223 74.9288 13.5044L75.79 12.6432C75.374 12.1647 74.8505 11.7916 74.2625 11.5544C73.6309 11.2841 72.9508 11.1459 72.2638 11.1482C70.916 11.1181 69.6159 11.6476 68.6725 12.6107C67.2206 14.0721 66.7863 16.2614 67.5703 18.1664C68.3543 20.0714 70.2038 21.3208 72.2638 21.3369C73.6068 21.3848 74.9068 20.8589 75.8388 19.8907ZM80.1126 12.5777H84.5001V11.3752H78.8126V21.1252H84.5001V19.9227H80.1126V16.8352H84.1101V15.6652H80.1126V12.5777ZM89.8299 21.1252H88.5786V12.5777H85.8486V11.3752H92.6249V12.5777H89.8299V21.1252ZM97.4025 11.3752V21.1252H98.6537V11.3752H97.4025ZM104.211 21.1252H102.96V12.5777H100.23V11.3752H106.925V12.5777H104.211V21.1252ZM113.392 19.0448C114.857 20.5033 117.225 20.5033 118.69 19.0448C120.128 17.4591 120.128 15.0405 118.69 13.4548C117.225 11.9962 114.857 11.9962 113.392 13.4548C111.954 15.0405 111.954 17.4591 113.392 19.0448ZM122.818 11.3752V21.1252H124.085V13.179L129.041 21.1252H130.341V11.3752H129.09V18.964L124.345 11.3752H122.818Z" fill="white"/>
<path d="M119.616 19.8576L119.687 19.9286L119.689 19.9265L119.616 19.8576ZM112.466 19.8576L112.394 19.9263L112.396 19.9285L112.466 19.8576ZM119.616 12.6264L119.689 12.5575L119.687 12.5559L119.616 12.6264ZM112.466 12.6264L112.395 12.5559L112.394 12.5577L112.466 12.6264ZM77.0575 16.6407L76.9574 16.6406L76.9576 16.6453L77.0575 16.6407ZM75.8388 19.8907L75.9108 19.96L75.911 19.9599L75.8388 19.8907ZM76.9925 15.9094L77.0909 15.8918L77.0762 15.8094H76.9925V15.9094ZM72.2638 15.9094V15.8094H72.1638V15.9094H72.2638ZM72.2638 17.0794H72.1638V17.1794H72.2638V17.0794ZM75.79 17.0794L75.89 17.0827L75.8933 16.9794H75.79V17.0794ZM74.9775 19.0619L75.0471 19.134L75.051 19.1297L74.9775 19.0619ZM70.7898 19.8245L70.8295 19.7327L70.8295 19.7327L70.7898 19.8245ZM68.4775 16.2507L68.5776 16.2521L68.5775 16.2472L68.4775 16.2507ZM69.5403 13.4946L69.6121 13.5642L69.6121 13.5642L69.5403 13.4946ZM72.2638 12.3507L72.2633 12.4509L72.2692 12.4505L72.2638 12.3507ZM74.9288 13.5044L74.8522 13.5688L74.9224 13.6522L74.9995 13.5751L74.9288 13.5044ZM75.79 12.6432L75.8607 12.7139L75.9267 12.6479L75.8655 12.5776L75.79 12.6432ZM74.2625 11.5544L74.2232 11.6464L74.2251 11.6472L74.2625 11.5544ZM72.2638 11.1482L72.2615 11.2482L72.2641 11.2482L72.2638 11.1482ZM68.6725 12.6107L68.7435 12.6812L68.744 12.6807L68.6725 12.6107ZM67.5703 18.1664L67.6627 18.1284L67.6627 18.1284L67.5703 18.1664ZM72.2638 21.3369L72.2673 21.237L72.2646 21.2369L72.2638 21.3369ZM84.5001 12.5777V12.6777H84.6001V12.5777H84.5001ZM80.1126 12.5777V12.4777H80.0126V12.5777H80.1126ZM84.5001 11.3752H84.6001V11.2752H84.5001V11.3752ZM78.8126 11.3752V11.2752H78.7126V11.3752H78.8126ZM78.8126 21.1252H78.7126V21.2252H78.8126V21.1252ZM84.5001 21.1252V21.2252H84.6001V21.1252H84.5001ZM84.5001 19.9227H84.6001V19.8227H84.5001V19.9227ZM80.1126 19.9227H80.0126V20.0227H80.1126V19.9227ZM80.1126 16.8352V16.7352H80.0126V16.8352H80.1126ZM84.1101 16.8352V16.9352H84.2101V16.8352H84.1101ZM84.1101 15.6652H84.2101V15.5652H84.1101V15.6652ZM80.1126 15.6652H80.0126V15.7652H80.1126V15.6652ZM88.5786 21.1252H88.4786V21.2252H88.5786V21.1252ZM89.8299 21.1252V21.2252H89.9299V21.1252H89.8299ZM88.5786 12.5777H88.6786V12.4777H88.5786V12.5777ZM85.8486 12.5777H85.7486V12.6777H85.8486V12.5777ZM85.8486 11.3752V11.2752H85.7486V11.3752H85.8486ZM92.6249 11.3752H92.7249V11.2752H92.6249V11.3752ZM92.6249 12.5777V12.6777H92.7249V12.5777H92.6249ZM89.8299 12.5777V12.4777H89.7299V12.5777H89.8299ZM97.4025 21.1252H97.3025V21.2252H97.4025V21.1252ZM97.4025 11.3752V11.2752H97.3025V11.3752H97.4025ZM98.6537 21.1252V21.2252H98.7537V21.1252H98.6537ZM98.6537 11.3752H98.7537V11.2752H98.6537V11.3752ZM102.96 21.1252H102.86V21.2252H102.96V21.1252ZM104.211 21.1252V21.2252H104.311V21.1252H104.211ZM102.96 12.5777H103.06V12.4777H102.96V12.5777ZM100.23 12.5777H100.13V12.6777H100.23V12.5777ZM100.23 11.3752V11.2752H100.13V11.3752H100.23ZM106.925 11.3752H107.025V11.2752H106.925V11.3752ZM106.925 12.5777V12.6777H107.025V12.5777H106.925ZM104.211 12.5777V12.4777H104.111V12.5777H104.211ZM118.69 19.0448L118.761 19.1157L118.764 19.112L118.69 19.0448ZM113.392 19.0448L113.318 19.1121L113.322 19.1156L113.392 19.0448ZM118.69 13.4548L118.764 13.3875L118.761 13.3839L118.69 13.4548ZM113.392 13.4548L113.322 13.3838L113.318 13.3876L113.392 13.4548ZM122.818 21.1252H122.718V21.2252H122.818V21.1252ZM122.818 11.3752V11.2752H122.718V11.3752H122.818ZM124.085 21.1252V21.2252H124.185V21.1252H124.085ZM124.085 13.179L124.17 13.126L123.985 12.8297V13.179H124.085ZM129.041 21.1252L128.956 21.1781L128.986 21.2252H129.041V21.1252ZM130.341 21.1252V21.2252H130.441V21.1252H130.341ZM130.341 11.3752H130.441V11.2752H130.341V11.3752ZM129.09 11.3752V11.2752H128.99V11.3752H129.09ZM129.09 18.964L129.005 19.017L129.19 19.3125V18.964H129.09ZM124.345 11.3752L124.43 11.3222L124.4 11.2752H124.345V11.3752ZM119.546 19.7867C117.607 21.7146 114.475 21.7146 112.537 19.7867L112.396 19.9285C114.412 21.934 117.67 21.934 119.687 19.9285L119.546 19.7867ZM119.544 12.6953C121.432 14.6827 121.432 17.8014 119.544 19.7888L119.689 19.9265C121.651 17.8619 121.651 14.6221 119.689 12.5575L119.544 12.6953ZM116.041 11.2379C117.357 11.2379 118.618 11.7631 119.545 12.6968L119.687 12.5559C118.723 11.5844 117.41 11.0379 116.041 11.0379V11.2379ZM112.537 12.6968C113.464 11.7631 114.726 11.2379 116.041 11.2379V11.0379C114.672 11.0379 113.36 11.5844 112.395 12.5559L112.537 12.6968ZM112.539 19.789C110.658 17.7983 110.658 14.6858 112.539 12.6951L112.394 12.5577C110.44 14.6255 110.44 17.8585 112.394 19.9263L112.539 19.789ZM76.9576 16.6453C77.0122 17.8225 76.5817 18.9705 75.7666 19.8215L75.911 19.9599C76.764 19.0693 77.2145 17.8679 77.1574 16.6361L76.9576 16.6453ZM76.8941 15.9271C76.9364 16.1626 76.9576 16.4014 76.9575 16.6406L77.1575 16.6407C77.1576 16.3896 77.1353 16.1389 77.0909 15.8918L76.8941 15.9271ZM72.2638 16.0094H76.9925V15.8094H72.2638V16.0094ZM72.3638 17.0794V15.9094H72.1638V17.0794H72.3638ZM75.79 16.9794H72.2638V17.1794H75.79V16.9794ZM75.051 19.1297C75.5673 18.5702 75.8651 17.8436 75.89 17.0827L75.6901 17.0762C75.6668 17.7891 75.3878 18.4699 74.904 18.9941L75.051 19.1297ZM70.7501 19.9163C72.209 20.5472 73.9042 20.2385 75.047 19.1338L74.908 18.99C73.8233 20.0386 72.2142 20.3316 70.8295 19.7327L70.7501 19.9163ZM68.3775 16.2493C68.3552 17.8386 69.2912 19.2853 70.7501 19.9163L70.8295 19.7327C69.4448 19.1338 68.5563 17.7606 68.5775 16.2521L68.3775 16.2493ZM69.4686 13.4249C68.7352 14.1803 68.3413 15.2019 68.3776 16.2541L68.5775 16.2472C68.543 15.2494 68.9166 14.2806 69.6121 13.5642L69.4686 13.4249ZM72.2643 12.2507C71.2114 12.2455 70.202 12.6695 69.4686 13.4249L69.6121 13.5642C70.3076 12.8479 71.2649 12.4458 72.2633 12.4507L72.2643 12.2507ZM75.0053 13.4401C74.3275 12.6339 73.31 12.1934 72.2583 12.2508L72.2692 12.4505C73.2581 12.3965 74.2149 12.8107 74.8522 13.5688L75.0053 13.4401ZM75.7193 12.5725L74.8581 13.4337L74.9995 13.5751L75.8607 12.7139L75.7193 12.5725ZM74.2251 11.6472C74.7985 11.8784 75.3089 12.2422 75.7146 12.7088L75.8655 12.5776C75.4391 12.0872 74.9026 11.7048 74.2999 11.4617L74.2251 11.6472ZM72.2641 11.2482C72.9374 11.2459 73.6041 11.3814 74.2232 11.6464L74.3019 11.4625C73.6577 11.1868 72.9641 11.0459 72.2634 11.0482L72.2641 11.2482ZM68.744 12.6807C69.668 11.7373 70.9414 11.2187 72.2615 11.2482L72.266 11.0482C70.8905 11.0176 69.5638 11.5579 68.6011 12.5407L68.744 12.6807ZM67.6627 18.1284C66.8941 16.2606 67.3199 14.114 68.7435 12.6812L68.6016 12.5402C67.1213 14.0302 66.6785 16.2623 67.4778 18.2045L67.6627 18.1284ZM72.2646 21.2369C70.2449 21.2211 68.4314 19.9961 67.6627 18.1284L67.4778 18.2045C68.2771 20.1467 70.1628 21.4205 72.263 21.4369L72.2646 21.2369ZM75.7667 19.8213C74.8544 20.769 73.582 21.2838 72.2673 21.237L72.2602 21.4369C73.6317 21.4857 74.9591 20.9487 75.9108 19.96L75.7667 19.8213ZM84.5001 12.4777H80.1126V12.6777H84.5001V12.4777ZM84.4001 11.3752V12.5777H84.6001V11.3752H84.4001ZM78.8126 11.4752H84.5001V11.2752H78.8126V11.4752ZM78.9126 21.1252V11.3752H78.7126V21.1252H78.9126ZM84.5001 21.0252H78.8126V21.2252H84.5001V21.0252ZM84.4001 19.9227V21.1252H84.6001V19.9227H84.4001ZM80.1126 20.0227H84.5001V19.8227H80.1126V20.0227ZM80.0126 16.8352V19.9227H80.2126V16.8352H80.0126ZM84.1101 16.7352H80.1126V16.9352H84.1101V16.7352ZM84.0101 15.6652V16.8352H84.2101V15.6652H84.0101ZM80.1126 15.7652H84.1101V15.5652H80.1126V15.7652ZM80.0126 12.5777V15.6652H80.2126V12.5777H80.0126ZM88.5786 21.2252H89.8299V21.0252H88.5786V21.2252ZM88.4786 12.5777V21.1252H88.6786V12.5777H88.4786ZM85.8486 12.6777H88.5786V12.4777H85.8486V12.6777ZM85.7486 11.3752V12.5777H85.9486V11.3752H85.7486ZM92.6249 11.2752H85.8486V11.4752H92.6249V11.2752ZM92.7249 12.5777V11.3752H92.5249V12.5777H92.7249ZM89.8299 12.6777H92.6249V12.4777H89.8299V12.6777ZM89.9299 21.1252V12.5777H89.7299V21.1252H89.9299ZM97.5025 21.1252V11.3752H97.3025V21.1252H97.5025ZM98.6537 21.0252H97.4025V21.2252H98.6537V21.0252ZM98.5537 11.3752V21.1252H98.7537V11.3752H98.5537ZM97.4025 11.4752H98.6537V11.2752H97.4025V11.4752ZM102.96 21.2252H104.211V21.0252H102.96V21.2252ZM102.86 12.5777V21.1252H103.06V12.5777H102.86ZM100.23 12.6777H102.96V12.4777H100.23V12.6777ZM100.13 11.3752V12.5777H100.33V11.3752H100.13ZM106.925 11.2752H100.23V11.4752H106.925V11.2752ZM107.025 12.5777V11.3752H106.825V12.5777H107.025ZM104.211 12.6777H106.925V12.4777H104.211V12.6777ZM104.311 21.1252V12.5777H104.111V21.1252H104.311ZM118.619 18.9739C117.194 20.3936 114.889 20.3936 113.463 18.9739L113.322 19.1156C114.826 20.613 117.257 20.613 118.761 19.1156L118.619 18.9739ZM118.616 13.522C120.02 15.0696 120.02 17.43 118.616 18.9776L118.764 19.112C120.237 17.4881 120.237 15.0114 118.764 13.3876L118.616 13.522ZM113.463 13.5256C114.889 12.1059 117.194 12.1059 118.619 13.5256L118.761 13.3839C117.257 11.8865 114.826 11.8865 113.322 13.3839L113.463 13.5256ZM113.467 18.9776C112.063 17.43 112.063 15.0696 113.467 13.522L113.318 13.3876C111.845 15.0114 111.845 17.4881 113.318 19.112L113.467 18.9776ZM122.918 21.1252V11.3752H122.718V21.1252H122.918ZM124.085 21.0252H122.818V21.2252H124.085V21.0252ZM123.985 13.179V21.1252H124.185V13.179H123.985ZM129.126 21.0723L124.17 13.126L124 13.2319L128.956 21.1781L129.126 21.0723ZM130.341 21.0252H129.041V21.2252H130.341V21.0252ZM130.241 11.3752V21.1252H130.441V11.3752H130.241ZM129.09 11.4752H130.341V11.2752H129.09V11.4752ZM129.19 18.964V11.3752H128.99V18.964H129.19ZM124.26 11.4282L129.005 19.017L129.175 18.911L124.43 11.3222L124.26 11.4282ZM122.818 11.4752H124.345V11.2752H122.818V11.4752Z" fill="white"/>
<path d="M16.9649 12.2519C16.4352 12.8875 16.1679 13.7011 16.2174 14.5269V50.4719C16.1679 51.2978 16.4352 52.1114 16.9649 52.7469L17.0786 52.8607L37.2124 32.7432V32.2719L17.0786 12.1382L16.9649 12.2519Z" fill="url(#paint0_linear)"/>
<path d="M43.8749 39.4544L37.2124 32.7432V32.2719L43.8749 25.5444L44.0212 25.6257L51.9999 30.1594C54.2749 31.4432 54.2749 33.5557 51.9999 34.8557L44.0537 39.3732L43.8749 39.4544Z" fill="url(#paint1_linear)"/>
<path d="M44.0698 39.3568L37.2123 32.4993L16.9648 52.7468C17.9215 53.5877 19.3413 53.6287 20.3448 52.8443L44.0861 39.3568" fill="url(#paint2_linear)"/>
<path d="M44.0699 25.6422L20.3286 12.1547C19.3251 11.3702 17.9053 11.4112 16.9486 12.2522L37.2124 32.4997L44.0699 25.6422Z" fill="url(#paint3_linear)"/>
<path opacity="0.2" d="M43.8748 39.2109L20.3286 52.6172C19.365 53.3376 18.0422 53.3376 17.0786 52.6172L16.9648 52.7309L17.0786 52.8447C18.0403 53.5705 19.3668 53.5705 20.3286 52.8447L44.0698 39.3572L43.8748 39.2109Z" fill="black"/>
<path opacity="0.12" fill-rule="evenodd" clip-rule="evenodd" d="M43.8749 39.2105L51.9999 34.6118C52.8395 34.1973 53.4397 33.4171 53.6249 32.4993C53.5411 33.5139 52.9213 34.4064 51.9999 34.8393L44.0211 39.3568L43.8749 39.2105ZM16.2138 50.5603C16.2407 51.2753 16.5031 51.9648 16.9649 52.519L17.0786 52.649L16.9649 52.7627C16.4507 52.1458 16.1838 51.3611 16.2138 50.5603ZM16.2138 50.5603C16.2147 50.5361 16.2159 50.5119 16.2174 50.4877V50.244C16.211 50.3497 16.2099 50.4553 16.2138 50.5603Z" fill="black"/>
<path opacity="0.25" d="M20.3286 12.3822L51.9999 30.3872C52.8395 30.8017 53.4397 31.5819 53.6249 32.4997C53.5411 31.4851 52.9213 30.5926 51.9999 30.1597L20.3286 12.1547C18.0536 10.871 16.2011 11.9435 16.2011 14.5435V14.7872C16.2499 12.171 18.0699 11.0985 20.3286 12.3822V12.3822Z" fill="white"/>
<defs>
<linearGradient id="paint0_linear" x1="28.3939" y1="-12.2839" x2="-3.8452" y2="-3.70984" gradientUnits="userSpaceOnUse">
<stop stop-color="#00A0FF"/>
<stop offset="0.01" stop-color="#00A1FF"/>
<stop offset="0.26" stop-color="#00BEFF"/>
<stop offset="0.51" stop-color="#00D2FF"/>
<stop offset="0.76" stop-color="#00DFFF"/>
<stop offset="1" stop-color="#00E3FF"/>
</linearGradient>
<linearGradient id="paint1_linear" x1="54.9737" y1="15.9239" x2="15.6649" y2="15.9239" gradientUnits="userSpaceOnUse">
<stop stop-color="#FFE000"/>
<stop offset="0.41" stop-color="#FFBD00"/>
<stop offset="0.78" stop-color="#FFA500"/>
<stop offset="1" stop-color="#FF9C00"/>
</linearGradient>
<linearGradient id="paint2_linear" x1="16.3699" y1="21.9815" x2="-9.52681" y2="65.5422" gradientUnits="userSpaceOnUse">
<stop stop-color="#FF3A44"/>
<stop offset="1" stop-color="#C31162"/>
</linearGradient>
<linearGradient id="paint3_linear" x1="1.15364" y1="6.65566" x2="12.7127" y2="26.1077" gradientUnits="userSpaceOnUse">
<stop stop-color="#32A071"/>
<stop offset="0.07" stop-color="#2DA771"/>
<stop offset="0.48" stop-color="#15CF74"/>
<stop offset="0.8" stop-color="#06E775"/>
<stop offset="1" stop-color="#00F076"/>
</linearGradient>
</defs>
</svg>
