<svg width="201" height="29" viewBox="0 0 201 29" fill="none" xmlns="http://www.w3.org/2000/svg">
<g clip-path="url(#clip0)">
<path d="M39.2207 11C40.474 11 41.5474 11.3133 42.4407 11.94C43.3474 12.5533 44.034 13.3933 44.5007 14.46C44.9807 15.5133 45.2207 16.6933 45.2207 18C45.2207 19.3067 44.9807 20.4933 44.5007 21.56C44.034 22.6133 43.3474 23.4533 42.4407 24.08C41.5474 24.6933 40.474 25 39.2207 25H34.4407C34.094 25 33.8007 24.8867 33.5607 24.66C33.334 24.42 33.2207 24.1267 33.2207 23.78V12.22C33.2207 11.8733 33.334 11.5867 33.5607 11.36C33.8007 11.12 34.094 11 34.4407 11H39.2207ZM39.0207 22.7C40.2207 22.7 41.1207 22.26 41.7207 21.38C42.3207 20.4867 42.6207 19.36 42.6207 18C42.6207 16.64 42.314 15.52 41.7007 14.64C41.1007 13.7467 40.2074 13.3 39.0207 13.3H35.7207V22.7H39.0207ZM57.0738 19.4C57.0605 19.72 56.9338 19.98 56.6938 20.18C56.4538 20.38 56.1738 20.48 55.8538 20.48H49.2538C49.4138 21.2667 49.7805 21.8867 50.3538 22.34C50.9272 22.78 51.5738 23 52.2938 23C52.8405 23 53.2672 22.9533 53.5738 22.86C53.8805 22.7533 54.1205 22.6467 54.2938 22.54C54.4805 22.42 54.6072 22.34 54.6738 22.3C54.9138 22.18 55.1405 22.12 55.3538 22.12C55.6338 22.12 55.8738 22.22 56.0738 22.42C56.2738 22.62 56.3738 22.8533 56.3738 23.12C56.3738 23.48 56.1872 23.8067 55.8138 24.1C55.4405 24.4067 54.9405 24.6667 54.3138 24.88C53.6872 25.0933 53.0538 25.2 52.4138 25.2C51.2938 25.2 50.3138 24.9667 49.4738 24.5C48.6472 24.0333 48.0072 23.3933 47.5538 22.58C47.1005 21.7533 46.8738 20.8267 46.8738 19.8C46.8738 18.6533 47.1138 17.6467 47.5938 16.78C48.0738 15.9133 48.7072 15.2533 49.4938 14.8C50.2805 14.3333 51.1205 14.1 52.0138 14.1C52.8938 14.1 53.7205 14.34 54.4938 14.82C55.2805 15.3 55.9072 15.9467 56.3738 16.76C56.8405 17.5733 57.0738 18.4533 57.0738 19.4ZM52.0138 16.3C50.4672 16.3 49.5538 17.0267 49.2738 18.48H54.5138V18.34C54.4605 17.78 54.1872 17.3 53.6938 16.9C53.2005 16.5 52.6405 16.3 52.0138 16.3ZM61.6754 23.78C61.6754 24.1267 61.5554 24.42 61.3154 24.66C61.0887 24.8867 60.8021 25 60.4554 25C60.1221 25 59.8421 24.8867 59.6154 24.66C59.3887 24.42 59.2754 24.1267 59.2754 23.78V11.42C59.2754 11.0733 59.3887 10.7867 59.6154 10.56C59.8554 10.32 60.1487 10.2 60.4954 10.2C60.8287 10.2 61.1087 10.32 61.3354 10.56C61.5621 10.7867 61.6754 11.0733 61.6754 11.42V23.78ZM66.726 23.78C66.726 24.1267 66.6127 24.42 66.386 24.66C66.1593 24.8867 65.8727 25 65.526 25C65.1793 25 64.8927 24.8867 64.666 24.66C64.4393 24.42 64.326 24.1267 64.326 23.78V15.52C64.326 15.1733 64.4393 14.8867 64.666 14.66C64.8927 14.42 65.1793 14.3 65.526 14.3C65.8727 14.3 66.1593 14.42 66.386 14.66C66.6127 14.8867 66.726 15.1733 66.726 15.52V23.78ZM65.506 13C65.0527 13 64.7327 12.9267 64.546 12.78C64.3593 12.6333 64.266 12.3733 64.266 12V11.62C64.266 11.2467 64.366 10.9867 64.566 10.84C64.766 10.6933 65.086 10.62 65.526 10.62C65.9927 10.62 66.3193 10.6933 66.506 10.84C66.6927 10.9867 66.786 11.2467 66.786 11.62V12C66.786 12.3867 66.686 12.6533 66.486 12.8C66.2993 12.9333 65.9727 13 65.506 13ZM77.4126 14.32C77.7326 14.32 77.9992 14.4267 78.2126 14.64C78.4259 14.84 78.5326 15.0933 78.5326 15.4C78.5326 15.56 78.4792 15.76 78.3726 16L74.6326 24.24C74.5392 24.4667 74.3992 24.6467 74.2126 24.78C74.0392 24.9133 73.8392 24.9867 73.6126 25L73.4326 25.02C73.2059 25.02 72.9926 24.9533 72.7926 24.82C72.6059 24.6733 72.4592 24.48 72.3526 24.24L68.6326 16C68.5392 15.7867 68.4926 15.5733 68.4926 15.36C68.4926 15.0933 68.6059 14.8533 68.8326 14.64C69.0592 14.4133 69.3392 14.3 69.6726 14.3C69.9259 14.3 70.1592 14.3667 70.3726 14.5C70.5859 14.6333 70.7459 14.82 70.8526 15.06L73.6126 21.38L76.3526 15.08C76.4592 14.8267 76.6059 14.6333 76.7926 14.5C76.9792 14.3667 77.1859 14.3067 77.4126 14.32ZM89.9254 19.4C89.9121 19.72 89.7854 19.98 89.5454 20.18C89.3054 20.38 89.0254 20.48 88.7054 20.48H82.1054C82.2654 21.2667 82.6321 21.8867 83.2054 22.34C83.7787 22.78 84.4254 23 85.1454 23C85.6921 23 86.1187 22.9533 86.4254 22.86C86.7321 22.7533 86.9721 22.6467 87.1454 22.54C87.3321 22.42 87.4587 22.34 87.5254 22.3C87.7654 22.18 87.9921 22.12 88.2054 22.12C88.4854 22.12 88.7254 22.22 88.9254 22.42C89.1254 22.62 89.2254 22.8533 89.2254 23.12C89.2254 23.48 89.0387 23.8067 88.6654 24.1C88.2921 24.4067 87.7921 24.6667 87.1654 24.88C86.5387 25.0933 85.9054 25.2 85.2654 25.2C84.1454 25.2 83.1654 24.9667 82.3254 24.5C81.4987 24.0333 80.8587 23.3933 80.4054 22.58C79.9521 21.7533 79.7254 20.8267 79.7254 19.8C79.7254 18.6533 79.9654 17.6467 80.4454 16.78C80.9254 15.9133 81.5587 15.2533 82.3454 14.8C83.1321 14.3333 83.9721 14.1 84.8654 14.1C85.7454 14.1 86.5721 14.34 87.3454 14.82C88.1321 15.3 88.7587 15.9467 89.2254 16.76C89.6921 17.5733 89.9254 18.4533 89.9254 19.4ZM84.8654 16.3C83.3187 16.3 82.4054 17.0267 82.1254 18.48H87.3654V18.34C87.3121 17.78 87.0387 17.3 86.5454 16.9C86.0521 16.5 85.4921 16.3 84.8654 16.3ZM97.487 14.1C97.887 14.1 98.2203 14.2133 98.487 14.44C98.767 14.6667 98.907 14.9333 98.907 15.24C98.907 15.6533 98.8003 15.9667 98.587 16.18C98.3736 16.38 98.1203 16.48 97.827 16.48C97.627 16.48 97.4003 16.4333 97.147 16.34C97.107 16.3267 97.0136 16.3 96.867 16.26C96.7336 16.22 96.587 16.2 96.427 16.2C96.0803 16.2 95.747 16.3067 95.427 16.52C95.107 16.7333 94.8403 17.06 94.627 17.5C94.427 17.9267 94.327 18.44 94.327 19.04V23.78C94.327 24.1267 94.2136 24.42 93.987 24.66C93.7603 24.8867 93.4736 25 93.127 25C92.7803 25 92.4936 24.8867 92.267 24.66C92.0403 24.42 91.927 24.1267 91.927 23.78V15.52C91.927 15.1733 92.0403 14.8867 92.267 14.66C92.4936 14.42 92.7803 14.3 93.127 14.3C93.4736 14.3 93.7603 14.42 93.987 14.66C94.2136 14.8867 94.327 15.1733 94.327 15.52V15.78C94.6336 15.2333 95.0736 14.82 95.647 14.54C96.2203 14.2467 96.8336 14.1 97.487 14.1ZM108.539 14.3C108.885 14.3 109.172 14.42 109.399 14.66C109.625 14.8867 109.739 15.1733 109.739 15.52V24.02C109.739 25.7533 109.272 27.0133 108.339 27.8C107.405 28.6 106.159 29 104.599 29C104.145 29 103.679 28.96 103.199 28.88C102.732 28.8133 102.352 28.72 102.059 28.6C101.405 28.32 101.079 27.9333 101.079 27.44C101.079 27.3467 101.099 27.24 101.139 27.12C101.219 26.8267 101.352 26.6 101.539 26.44C101.739 26.2933 101.952 26.22 102.179 26.22C102.312 26.22 102.439 26.24 102.559 26.28C102.652 26.32 102.812 26.3867 103.039 26.48C103.279 26.5733 103.525 26.6467 103.779 26.7C104.045 26.7667 104.319 26.8 104.599 26.8C105.545 26.8 106.239 26.5933 106.679 26.18C107.132 25.78 107.359 25.0867 107.359 24.1V23.9C106.665 24.7667 105.585 25.2 104.119 25.2C103.425 25.2 102.812 25.04 102.279 24.72C101.745 24.3867 101.332 23.9333 101.039 23.36C100.745 22.7733 100.599 22.1067 100.599 21.36V15.52C100.599 15.1733 100.712 14.8867 100.939 14.66C101.165 14.42 101.452 14.3 101.799 14.3C102.145 14.3 102.432 14.42 102.659 14.66C102.885 14.8867 102.999 15.1733 102.999 15.52V20.64C102.999 21.48 103.179 22.0867 103.539 22.46C103.912 22.82 104.452 23 105.159 23C105.852 23 106.385 22.8 106.759 22.4C107.145 21.9867 107.339 21.4 107.339 20.64V15.52C107.339 15.1733 107.452 14.8867 107.679 14.66C107.905 14.42 108.192 14.3 108.539 14.3ZM124.677 10.98C125.01 10.98 125.297 11.1 125.537 11.34C125.79 11.5667 125.917 11.8533 125.917 12.2V23.78C125.917 24.1267 125.804 24.42 125.577 24.66C125.35 24.8867 125.05 25 124.677 25C124.304 25 123.997 24.8867 123.757 24.66C123.53 24.4333 123.417 24.14 123.417 23.78V15.72L120.117 20.76C119.984 20.92 119.83 21.0533 119.657 21.16C119.484 21.2533 119.304 21.2933 119.117 21.28C118.944 21.2933 118.77 21.2533 118.597 21.16C118.424 21.0533 118.27 20.92 118.137 20.76L114.837 15.54V23.78C114.837 24.14 114.73 24.4333 114.517 24.66C114.304 24.8867 114.024 25 113.677 25C113.344 25 113.07 24.8867 112.857 24.66C112.644 24.42 112.537 24.1267 112.537 23.78V12.2C112.537 11.8667 112.657 11.58 112.897 11.34C113.15 11.1 113.45 10.98 113.797 10.98C113.997 10.98 114.197 11.0333 114.397 11.14C114.597 11.2333 114.75 11.36 114.857 11.52L119.217 18.22L123.697 11.52C123.804 11.36 123.944 11.2333 124.117 11.14C124.304 11.0333 124.49 10.98 124.677 10.98ZM137.384 14.1C137.73 14.1 138.017 14.2133 138.244 14.44C138.47 14.6667 138.584 14.96 138.584 15.32V23.78C138.584 24.1267 138.47 24.42 138.244 24.66C138.017 24.8867 137.73 25 137.384 25C137.037 25 136.75 24.8867 136.524 24.66C136.31 24.4333 136.197 24.1467 136.184 23.8C135.85 24.1867 135.397 24.52 134.824 24.8C134.264 25.0667 133.67 25.2 133.044 25.2C132.124 25.2 131.29 24.9667 130.544 24.5C129.797 24.02 129.204 23.36 128.764 22.52C128.337 21.68 128.124 20.7267 128.124 19.66C128.124 18.5933 128.337 17.64 128.764 16.8C129.19 15.9467 129.77 15.2867 130.504 14.82C131.25 14.34 132.07 14.1 132.964 14.1C133.604 14.1 134.204 14.22 134.764 14.46C135.324 14.6867 135.797 14.98 136.184 15.34V15.32C136.184 14.9733 136.297 14.6867 136.524 14.46C136.75 14.22 137.037 14.1 137.384 14.1ZM133.344 23C134.21 23 134.917 22.6867 135.464 22.06C136.01 21.42 136.284 20.62 136.284 19.66C136.284 18.7 136.01 17.9 135.464 17.26C134.917 16.62 134.21 16.3 133.344 16.3C132.49 16.3 131.79 16.62 131.244 17.26C130.697 17.9 130.424 18.7 130.424 19.66C130.424 20.62 130.69 21.42 131.224 22.06C131.77 22.6867 132.477 23 133.344 23ZM146.745 14.1C147.145 14.1 147.478 14.2133 147.745 14.44C148.025 14.6667 148.165 14.9333 148.165 15.24C148.165 15.6533 148.058 15.9667 147.845 16.18C147.631 16.38 147.378 16.48 147.085 16.48C146.885 16.48 146.658 16.4333 146.405 16.34C146.365 16.3267 146.271 16.3 146.125 16.26C145.991 16.22 145.845 16.2 145.685 16.2C145.338 16.2 145.005 16.3067 144.685 16.52C144.365 16.7333 144.098 17.06 143.885 17.5C143.685 17.9267 143.585 18.44 143.585 19.04V23.78C143.585 24.1267 143.471 24.42 143.245 24.66C143.018 24.8867 142.731 25 142.385 25C142.038 25 141.751 24.8867 141.525 24.66C141.298 24.42 141.185 24.1267 141.185 23.78V15.52C141.185 15.1733 141.298 14.8867 141.525 14.66C141.751 14.42 142.038 14.3 142.385 14.3C142.731 14.3 143.018 14.42 143.245 14.66C143.471 14.8867 143.585 15.1733 143.585 15.52V15.78C143.891 15.2333 144.331 14.82 144.905 14.54C145.478 14.2467 146.091 14.1 146.745 14.1ZM158.757 22.9C159.01 23.1667 159.137 23.4667 159.137 23.8C159.137 24.1333 159.003 24.4133 158.737 24.64C158.483 24.8667 158.21 24.98 157.917 24.98C157.57 24.98 157.277 24.8467 157.037 24.58L153.437 20.78L152.457 21.68V23.78C152.457 24.1267 152.343 24.42 152.117 24.66C151.89 24.8867 151.603 25 151.257 25C150.91 25 150.623 24.8867 150.397 24.66C150.17 24.42 150.057 24.1267 150.057 23.78V11.42C150.057 11.0733 150.17 10.7867 150.397 10.56C150.623 10.32 150.91 10.2 151.257 10.2C151.603 10.2 151.89 10.32 152.117 10.56C152.343 10.7867 152.457 11.0733 152.457 11.42V18.82L156.737 14.68C156.99 14.4267 157.283 14.3 157.617 14.3C157.91 14.3 158.17 14.4267 158.397 14.68C158.637 14.92 158.757 15.1667 158.757 15.42C158.757 15.74 158.597 16.04 158.277 16.32L155.257 19.1L158.757 22.9ZM170.394 19.4C170.381 19.72 170.254 19.98 170.014 20.18C169.774 20.38 169.494 20.48 169.174 20.48H162.574C162.734 21.2667 163.101 21.8867 163.674 22.34C164.247 22.78 164.894 23 165.614 23C166.161 23 166.587 22.9533 166.894 22.86C167.201 22.7533 167.441 22.6467 167.614 22.54C167.801 22.42 167.927 22.34 167.994 22.3C168.234 22.18 168.461 22.12 168.674 22.12C168.954 22.12 169.194 22.22 169.394 22.42C169.594 22.62 169.694 22.8533 169.694 23.12C169.694 23.48 169.507 23.8067 169.134 24.1C168.761 24.4067 168.261 24.6667 167.634 24.88C167.007 25.0933 166.374 25.2 165.734 25.2C164.614 25.2 163.634 24.9667 162.794 24.5C161.967 24.0333 161.327 23.3933 160.874 22.58C160.421 21.7533 160.194 20.8267 160.194 19.8C160.194 18.6533 160.434 17.6467 160.914 16.78C161.394 15.9133 162.027 15.2533 162.814 14.8C163.601 14.3333 164.441 14.1 165.334 14.1C166.214 14.1 167.041 14.34 167.814 14.82C168.601 15.3 169.227 15.9467 169.694 16.76C170.161 17.5733 170.394 18.4533 170.394 19.4ZM165.334 16.3C163.787 16.3 162.874 17.0267 162.594 18.48H167.834V18.34C167.781 17.78 167.507 17.3 167.014 16.9C166.521 16.5 165.961 16.3 165.334 16.3ZM177.556 22.74C177.742 22.74 177.909 22.8333 178.056 23.02C178.216 23.1933 178.296 23.4267 178.296 23.72C178.296 24.08 178.096 24.3867 177.696 24.64C177.309 24.88 176.869 25 176.376 25C175.549 25 174.849 24.8267 174.276 24.48C173.716 24.12 173.436 23.3667 173.436 22.22V16.7H172.516C172.196 16.7 171.929 16.5933 171.716 16.38C171.502 16.1667 171.396 15.9 171.396 15.58C171.396 15.2733 171.502 15.02 171.716 14.82C171.929 14.6067 172.196 14.5 172.516 14.5H173.436V13.22C173.436 12.8733 173.549 12.5867 173.776 12.36C174.016 12.12 174.309 12 174.656 12C174.989 12 175.269 12.12 175.496 12.36C175.722 12.5867 175.836 12.8733 175.836 13.22V14.5H177.256C177.576 14.5 177.842 14.6067 178.056 14.82C178.269 15.0333 178.376 15.3 178.376 15.62C178.376 15.9267 178.269 16.1867 178.056 16.4C177.842 16.6 177.576 16.7 177.256 16.7H175.836V22.12C175.836 22.4 175.909 22.6067 176.056 22.74C176.202 22.86 176.402 22.92 176.656 22.92C176.762 22.92 176.909 22.8933 177.096 22.84C177.256 22.7733 177.409 22.74 177.556 22.74Z" fill="#323232"/>
<path d="M7.60024 23.7192C7.08613 23.7192 6.58356 23.874 6.15609 24.1642C5.72862 24.4543 5.39544 24.8667 5.1987 25.3491C5.00195 25.8316 4.95048 26.3625 5.05077 26.8747C5.15107 27.3869 5.39864 27.8574 5.76218 28.2266C6.12571 28.5959 6.58888 28.8474 7.09312 28.9493C7.59736 29.0511 8.12001 28.9989 8.595 28.799C9.06998 28.5992 9.47595 28.2607 9.76158 27.8265C10.0472 27.3923 10.1997 26.8818 10.1997 26.3596C10.1977 25.6599 9.92326 24.9894 9.43619 24.4947C8.94912 23.9999 8.28906 23.7211 7.60024 23.7192ZM0 3V5.64041H2.59942L7.27872 15.2684L5.32235 18.5029C5.10882 18.8855 4.99677 19.3179 4.99719 19.7576C4.99719 21.5253 6.18701 22.3981 7.80006 22.3981H22.9987V19.8591H8.11795C8.07456 19.8618 8.03109 19.8551 7.99044 19.8395C7.94979 19.8238 7.91287 19.7996 7.88213 19.7684C7.85139 19.7372 7.82754 19.6997 7.81214 19.6584C7.79674 19.6171 7.79014 19.5729 7.79279 19.5288C7.82705 19.4146 7.87334 19.3045 7.93085 19.2004L9.22965 17.1172H18.9134C19.3813 17.1211 19.8412 16.9938 20.2425 16.7494C20.6437 16.5049 20.9708 16.1527 21.1877 15.7315L25.8688 7.55567C25.9601 7.34806 26.0048 7.12243 25.9996 6.89511C25.9978 6.72521 25.9624 6.55741 25.8956 6.40165C25.8288 6.24589 25.7318 6.10534 25.6106 5.98833C25.4893 5.87133 25.3461 5.78024 25.1895 5.72047C25.0329 5.66071 24.8661 5.63349 24.699 5.64041H5.46041L4.22518 3H0ZM20.3975 23.7192C19.8835 23.7195 19.3811 23.8747 18.9538 24.1651C18.5266 24.4554 18.1937 24.8679 17.9973 25.3504C17.8008 25.8329 17.7496 26.3638 17.8501 26.8758C17.9506 27.3879 18.1983 27.8582 18.5619 28.2273C18.9255 28.5964 19.3887 28.8477 19.8929 28.9494C20.3971 29.0511 20.9196 28.9987 21.3945 28.7988C21.8694 28.5989 22.2752 28.2605 22.5608 27.8263C22.8463 27.3922 22.9987 26.8817 22.9987 26.3596C22.9968 25.6596 22.7221 24.9888 22.2346 24.494C21.7472 23.9992 21.0866 23.7206 20.3975 23.7192Z" fill="#FFC83B"/>
</g>
<defs>
<clipPath id="clip0">
<rect width="201" height="29" fill="white"/>
</clipPath>
</defs>
</svg>
