<svg width="28" height="36" viewBox="0 0 28 36" fill="none" xmlns="http://www.w3.org/2000/svg">
<path d="M13.9994 0C6.28051 0 2.58415e-06 5.94573 2.58415e-06 13.2539C2.58415e-06 15.1602 0.412139 16.9802 1.22434 18.664C4.72458 25.915 11.4355 33.5706 13.4094 35.744C13.5573 35.9065 13.7729 36 13.9998 36C14.2267 36 14.4423 35.9065 14.5901 35.744C16.5633 33.571 23.2742 25.9157 26.7756 18.664C27.5882 16.9802 28 15.1602 28 13.2539C27.9992 5.94573 21.7187 0 13.9994 0ZM13.9994 20.138C9.98973 20.138 6.72728 17.0495 6.72728 13.2536C6.72728 9.45723 9.98973 6.36868 13.9994 6.36868C18.009 6.36868 21.2715 9.45723 21.2715 13.2536C21.2719 17.0495 18.0095 20.138 13.9994 20.138Z" fill="#FFBB0E"/>
</svg>
