<svg height="511pt" viewBox="-18 0 511 511.99892" width="511pt" xmlns="http://www.w3.org/2000/svg"><path d="m191.925781 411.554688h86.871094l87.738281-87.738282c9.054688-9.058594 9.054688-23.742187 0-32.796875-9.054687-9.058593-23.742187-9.058593-32.796875 0l-82.144531 82.144531c-10.804688 10.804688-25.460938 16.875-40.742188 16.875h-18.925781zm0 0" fill="#ffae85"/><path d="m191.925781 411.554688h135.96875l81.015625-81.015626c9.058594-9.058593 9.058594-23.742187 0-32.800781-9.054687-9.054687-23.738281-9.054687-32.796875 0l-82.144531 82.144531c-10.804688 10.808594-25.460938 16.878907-40.742188 16.878907h-61.300781zm0 0" fill="#fecbaa"/><path d="m8.003906 504.5v-135.507812c14.722656-14.726563 22.996094-34.695313 22.996094-55.523438v-3.085938c0-11.570312 4.59375-22.675781 12.777344-30.859374 8.183594-8.183594 19.289062-12.777344 30.859375-12.777344h211.878906c8.960937 0 17.078125 3.628906 22.945313 9.507812 5.878906 5.867188 9.511718 13.976563 9.511718 22.9375 0 17.929688-14.53125 32.457032-32.457031 32.457032h-62.773437c-8.582032 0-16.359376 3.484374-21.984376 9.109374s-9.109374 13.402344-9.109374 21.984376c0 17.179687 13.925781 31.097656 31.09375 31.097656h80.902343c15.28125 0 29.9375-6.074219 40.75-16.878906l82.136719-82.136719c4.527344-4.535157 10.464844-6.792969 16.398438-6.792969 5.9375 0 11.875 2.257812 16.398437 6.792969 9.0625 9.050781 9.0625 23.738281 0 32.796875l-92.433594 92.433594c-14.441406 14.445312-34.023437 22.550781-54.441406 22.550781l-188.410156-.050781c-36.527344 0-72.144531 23.164062-94.304688 41.15625-14.085937 11.4375-22.734375 20.789062-22.734375 20.789062zm0 0" fill="#fedfc5"/><path d="m8.003906 504.5v-135.507812c14.722656-14.726563 22.996094-34.695313 22.996094-55.523438v-3.085938c0-11.570312 4.59375-22.675781 12.777344-30.859374 8.183594-8.183594 19.289062-12.777344 30.859375-12.777344h112.726562c-161.550781 39.558594-162.847656 166.660156-156.628906 216.964844-14.082031 11.4375-22.730469 20.789062-22.730469 20.789062zm0 0" fill="#fecbaa"/><path d="m259.988281 128.359375c12.875 51.773437-8.160156 60.296875-37.695312 90.691406-8.40625 8.652344-21.035157 11.792969-32.515625 8.085938-40.332032-13.019531-62.910156-10.695313-75.785156-62.464844-14.035157-56.433594.128906-110.109375 32.5625-152.960937 3.035156-4.003907 8.453124-5.355469 13.007812-3.234376 48.730469 22.664063 86.390625 63.453126 100.425781 119.882813zm0 0" fill="#1fc99a"/><path d="m259.984375 128.367188c9.960937 40.046874-.378906 54.210937-19.246094 72.648437 4.171875-12.171875 4.28125-27.367187-1.300781-49.828125-14.570312-58.582031-51.878906-102.117188-100.703125-128.386719 2.46875-3.773437 5.078125-7.46875 7.816406-11.085937 3.039063-4.011719 8.457031-5.359375 13.015625-3.238282 48.730469 22.667969 86.382813 63.453126 100.417969 119.890626zm0 0" fill="#19aa80"/><path d="m326.933594 214.027344c-28.679688 28.675781-42.476563 18.3125-73.855469 10.988281-8.929687-2.085937-15.925781-9.082031-18.011719-18.011719-7.324218-31.378906-17.6875-45.175781 10.992188-73.855468 31.261718-31.261719 71.78125-43.070313 112.40625-38.738282 3.800781.40625 6.800781 3.40625 7.207031 7.207032 4.335937 40.625-7.476563 81.144531-38.738281 112.410156zm0 0" fill="#34e8b1"/><path d="m326.929688 214.027344c-22.183594 22.183594-35.464844 21-54.871094 15.933594 9.566406-2.050782 19.507812-7.9375 31.949218-20.378907 32.453126-32.453125 46.195313-73.820312 44.167969-115.921875 3.425781.128906 6.855469.382813 10.289063.746094 3.800781.40625 6.804687 3.410156 7.210937 7.210938 4.332031 40.628906-7.480469 81.144531-38.746093 112.410156zm0 0" fill="#1fc99a"/><path d="m8 376.492188c1.917969 0 3.839844-.730469 5.304688-2.195313 16.246093-16.25 25.195312-37.851563 25.195312-60.828125v-3.085938c0-9.652343 3.757812-18.730468 10.585938-25.554687 6.824218-6.828125 15.902343-10.585937 25.554687-10.585937h76.257813c4.144531 0 7.5-3.355469 7.5-7.5 0-4.144532-3.355469-7.5-7.5-7.5h-76.257813c-13.660156 0-26.503906 5.320312-36.164063 14.976562-9.660156 9.660156-14.980468 22.503906-14.980468 36.164062v3.085938c0 18.972656-7.386719 36.804688-20.800782 50.222656-2.929687 2.929688-2.929687 7.679688 0 10.605469 1.464844 1.464844 3.386719 2.195313 5.304688 2.195313zm0 0"/><path d="m465.636719 289.515625c-5.796875-5.796875-13.503907-8.988281-21.703125-8.988281-8.199219 0-15.90625 3.191406-21.703125 8.988281l-5.621094 5.621094c-.742187-.9375-1.535156-1.84375-2.394531-2.699219-10.722656-10.726562-27.476563-11.828125-39.453125-3.332031-.886719-1.1875-1.855469-2.324219-2.921875-3.390625-5.796875-5.796875-13.503906-8.992188-21.703125-8.992188s-15.90625 3.195313-21.703125 8.992188l-3.289063 3.289062c-4.519531-17.109375-20.125-29.761718-38.632812-29.761718h-101.148438c-4.140625 0-7.5 3.355468-7.5 7.5 0 4.144531 3.359375 7.5 7.5 7.5h101.148438c13.761719 0 24.957031 11.195312 24.957031 24.953124 0 13.761719-11.195312 24.957032-24.957031 24.957032h-62.765625c-21.277344 0-38.59375 17.3125-38.59375 38.59375s17.316406 38.59375 38.59375 38.59375h80.902344c17.394531 0 33.746093-6.773438 46.046874-19.070313l82.144532-82.144531c6.117187-6.121094 16.070312-6.117188 22.191406 0 2.960938 2.960938 4.59375 6.902344 4.59375 11.09375s-1.632812 8.132812-4.597656 11.09375l-42.390625 42.394531c-2.929688 2.929688-2.929688 7.679688 0 10.605469 2.929687 2.929688 7.675781 2.929688 10.605469 0l42.394531-42.390625c5.796875-5.796875 8.988281-13.503906 8.988281-21.703125s-3.191406-15.90625-8.988281-21.703125zm-140.8125 21.007813c.054687-.050782.113281-.097657.171875-.152344l14.046875-14.050782c2.960937-2.960937 6.902343-4.59375 11.09375-4.59375 4.191406 0 8.132812 1.632813 11.097656 4.597657.972656.972656 1.785156 2.0625 2.460937 3.226562l-75.027343 75.03125c-4.96875 4.964844-10.808594 8.769531-17.363281 11.304688-.332032.128906-.640626.285156-.945313.453125h-22.980469c3.378906-2.296875 6.570313-4.921875 9.519532-7.875l40.964843-40.964844c12.925781-3.835938 23.128907-14.046875 26.960938-26.976562zm-101.078125 28.628906h51.25l-28.707032 28.707031c-9.449218 9.445313-22.003906 14.65625-35.363281 14.675781-6.476562-4.210937-10.773437-11.503906-10.773437-19.789062 0-13.011719 10.585937-23.59375 23.59375-23.59375zm116.34375 32.507812c-9.46875 9.464844-22.054688 14.679688-35.441406 14.679688h-6.585938c.40625-.386719.816406-.757813 1.210938-1.152344l82.144531-82.144531c6.117187-6.117188 16.074219-6.117188 22.191406 0 .867187.871093 1.609375 1.828125 2.242187 2.851562zm0 0"/><path d="m390.75 386.589844-28.164062 28.164062c-13.121094 13.121094-30.5625 20.347656-49.117188 20.347656-.003906 0-.011719 0-.015625 0l-188.410156-.042968c-62.289063 0-120.113281 61.71875-122.546875 64.347656-2.8125 3.039062-2.628906 7.78125.410156 10.59375 1.441406 1.339844 3.269531 2 5.09375 2 2.015625 0 4.027344-.808594 5.503906-2.402344.554688-.597656 55.847656-59.535156 111.535156-59.535156l188.410157.039062h.019531c22.558594 0 43.773438-8.785156 59.726562-24.738281l28.164063-28.164062c2.929687-2.929688 2.929687-7.675781 0-10.605469-2.933594-2.929688-7.679687-2.929688-10.609375-.003906zm0 0"/><path d="m170.382812 229.191406c5.421876 1.539063 11.027344 3.128906 17.089844 5.085938 3.898438 1.257812 7.921875 1.867187 11.925782 1.867187 10.476562 0 20.804687-4.179687 28.273437-11.867187 1.640625-1.6875 3.273437-3.324219 4.855469-4.886719 4.410156 6.390625 11.097656 11.121094 18.847656 12.929687 4.683594 1.09375 8.941406 2.25 13.0625 3.371094 9.507812 2.582032 17.941406 4.875 26.433594 4.875 12.488281 0 25.089844-4.957031 41.367187-21.238281 31.195313-31.191406 45.71875-73.28125 40.894531-118.507813-.777343-7.261718-6.609374-13.09375-13.867187-13.867187-35.488281-3.785156-69.03125 4.339844-96.902344 23.078125-5.945312-17.164062-14.253906-33.148438-24.769531-47.621094-2.4375-3.351562-7.128906-4.089844-10.480469-1.65625-3.351562 2.4375-4.089843 7.125-1.65625 10.476563 10.585938 14.566406 18.738281 30.824219 24.265625 48.355469-3.078125 2.609374-6.070312 5.359374-8.96875 8.257812-27.351562 27.355469-22.738281 44.320312-16.359375 67.804688.746094 2.746093 1.511719 5.570312 2.261719 8.523437-2.96875 2.859375-6.316406 6.128906-9.742188 9.65625-1.375 1.410156-2.910156 2.617187-4.550781 3.636719l-9.664062-38.867188c.410156-.417968.785156-.878906 1.097656-1.402344l15.699219-26.089843c2.136718-3.550781.988281-8.160157-2.5625-10.292969-3.546875-2.136719-8.15625-.992188-10.292969 2.558594l-8.988281 14.941406-18.199219-73.167969c-1-4.019531-5.066406-6.472656-9.089844-5.46875-4.019531 1-6.464843 5.066407-5.464843 9.089844l7.65625 30.785156-19.285157-6.433593c-3.929687-1.3125-8.175781.808593-9.488281 4.738281-1.308594 3.929687.8125 8.179687 4.742188 9.488281l28.316406 9.453125 20.964844 84.289063c-1.925782-.132813-3.851563-.480469-5.722657-1.085938-6.320312-2.039062-12.058593-3.664062-17.605469-5.238281-28.867187-8.1875-43.355468-12.296875-53.207031-51.898438-12.714843-51.117187-1.609375-103.191406 31.269531-146.625.894532-1.179687 2.519532-1.589843 3.859376-.960937 18.152343 8.441406 34.417968 19.363281 48.339843 32.464844 3.015625 2.835937 7.761719 2.695312 10.601563-.324219 2.839844-3.015625 2.691406-7.761719-.324219-10.601563-15.089844-14.199218-32.683594-26.019531-52.289063-35.140625-7.707031-3.585937-17.023437-1.265625-22.148437 5.511719-35.667969 47.117188-47.691406 103.691406-33.863281 159.296875 11.945312 48.042969 33.640625 54.191406 63.667968 62.707031zm80.980469-90.738281c24.402344-24.40625 56.304688-37.402344 91.082031-37.402344 5.019532 0 10.101563.269531 15.226563.816407.285156.03125.511719.261718.542969.542968 4.335937 40.628906-8.65625 78.386719-36.582032 106.3125-21.203124 21.203125-31.25 18.46875-53.261718 12.492188-4.050782-1.101563-8.636719-2.347656-13.585938-3.503906-.476562-.109376-.941406-.25-1.402344-.402344l18.988282-18.988282c.238281.023438.480468.039063.726562.039063h23.148438c4.144531 0 7.5-3.359375 7.5-7.5 0-4.144531-3.355469-7.5-7.5-7.5h-8.914063l37.460938-37.464844c2.929687-2.929687 2.929687-7.679687 0-10.605469-2.929688-2.929687-7.675781-2.929687-10.605469 0l-14.742188 14.738282-2.652343-11.886719c-.902344-4.042969-4.917969-6.585937-8.953125-5.6875-4.042969.898437-6.589844 4.910156-5.6875 8.953125l4.726562 21.1875-44.105468 44.105469c-.152344-.460938-.289063-.925781-.402344-1.402344-1.152344-4.945313-2.402344-9.535156-3.503906-13.585937-5.980469-22.011719-8.707032-32.058594 12.496093-53.257813zm0 0"/></svg>