<svg xmlns="http://www.w3.org/2000/svg" width="587" height="514" viewBox="0 0 587 514"><defs><mask id="b3awb" width="2" height="2" x="-1" y="-1"><path fill="#fff" d="M16 6h555v486H16z"/><path d="M26 6h535c5.523 0 10 4.477 10 10v420c0 5.523-4.477 10-10 10H134.227L83 492v-46H26c-5.523 0-10-4.477-10-10V16c0-5.523 4.477-10 10-10z"/></mask><filter id="b3awa" width="615" height="556" x="-14" y="-24" filterUnits="userSpaceOnUse"><feOffset dy="10" in="SourceGraphic" result="FeOffset1050Out"/><feGaussianBlur in="FeOffset1050Out" result="FeGaussianBlur1051Out" stdDeviation="8 8"/></filter></defs><g><g><g filter="url(#b3awa)"><path fill="none" d="M26 6h535c5.523 0 10 4.477 10 10v420c0 5.523-4.477 10-10 10H134.227L83 492v-46H26c-5.523 0-10-4.477-10-10V16c0-5.523 4.477-10 10-10z" mask="url(&quot;#b3awb&quot;)"/><path fill="#1e1f23" fill-opacity=".15" d="M26 6h535c5.523 0 10 4.477 10 10v420c0 5.523-4.477 10-10 10H134.227L83 492v-46H26c-5.523 0-10-4.477-10-10V16c0-5.523 4.477-10 10-10z"/></g><path fill="#fff" d="M26 6h535c5.523 0 10 4.477 10 10v420c0 5.523-4.477 10-10 10H134.227L83 492v-46H26c-5.523 0-10-4.477-10-10V16c0-5.523 4.477-10 10-10z"/></g></g></svg>