<?xml version="1.0" encoding="iso-8859-1"?>
<!-- Generator: Adobe Illustrator 19.0.0, SVG Export Plug-In . SVG Version: 6.00 Build 0)  -->
<svg version="1.1" id="Layer_1" xmlns="http://www.w3.org/2000/svg" xmlns:xlink="http://www.w3.org/1999/xlink" x="0px" y="0px"
	 viewBox="0 0 512.002 512.002" style="enable-background:new 0 0 512.002 512.002;" xml:space="preserve">
<path style="fill:#92949B;" d="M15.795,496.199c-44.058-239.642,106.323-342.658,106.323-342.658l120.573,66.479l49.303,49.293
	l44.491,80.709l21.978,39.875C358.463,389.897,255.447,540.268,15.795,496.199z"/>
<g>
	<path style="fill:#B5B6BA;" d="M15.795,496.199c171.443,0,320.691-146.178,320.691-146.178l21.978,39.875
		C358.463,389.897,255.447,540.268,15.795,496.199z"/>
	<path style="fill:#B5B6BA;" d="M341.015,220.296l-49.306-49.306L158.583,304.117c-13.615,13.615-13.615,35.691,0,49.306l0,0
		c13.615,13.615,35.691,13.615,49.306,0L341.015,220.296z"/>
</g>
<path style="fill:#E8B33F;" d="M490.082,90.606c18.959-18.969,18.959-49.715,0-68.674c-9.49-9.49-21.916-14.229-34.342-14.229
	c-12.426,0-24.852,4.74-34.342,14.229L282.021,161.31l24.667,24.667l44.017,44.007L490.082,90.606z M438.193,47.042
	c5.78-5.77,14.353-7.037,21.349-3.781c1.968,0.907,3.802,2.164,5.42,3.781c7.388,7.388,7.388,19.371,0,26.769
	c-7.388,7.388-19.371,7.388-26.769,0c-2.926-2.926-4.698-6.584-5.296-10.376C431.97,57.635,433.732,51.504,438.193,47.042z"/>
<path style="fill:#D39F37;" d="M306.688,185.977l-24.667-24.667L421.398,21.932c9.49-9.49,21.916-14.229,34.342-14.229
	c12.426,0,24.852,4.74,34.342,14.229c0,0-11.963,7.738-30.54,21.329c-6.996-3.256-15.569-1.989-21.349,3.781
	c-4.461,4.461-6.223,10.592-5.296,16.393c-37.835,29.654-87.231,72.703-124.901,120.893
	C307.563,184.885,307.12,185.441,306.688,185.977z"/>
<path d="M495.541,16.463c-21.946-21.947-57.657-21.948-79.604,0L276.56,155.841c-3.018,3.018-3.018,7.911,0,10.928l4.22,4.22
	l-39.45,39.451l-115.484-63.667c-2.557-1.411-5.69-1.259-8.099,0.392c-1.594,1.092-39.42,27.401-72.01,83.984
	c-19.072,33.114-32.368,69.796-39.519,109.027c-8.908,48.873-8.243,101.837,1.976,157.421c0.58,3.155,3.048,5.624,6.203,6.204
	c29.72,5.465,58.686,8.199,86.683,8.199c24.366,0,48.001-2.071,70.744-6.216c39.233-7.149,75.916-20.443,109.03-39.516
	c56.585-32.588,82.893-70.414,83.985-72.009c1.65-2.408,1.802-5.541,0.392-8.099l-63.668-115.486l39.45-39.45l4.22,4.22
	c1.508,1.508,3.487,2.264,5.464,2.264s3.956-0.754,5.464-2.264l58.83-58.83c3.018-3.018,3.018-7.911,0-10.928
	c-3.018-3.018-7.911-3.018-10.928,0l-53.365,53.365l-57.747-57.747L426.866,27.392c7.712-7.712,17.966-11.959,28.873-11.959
	c10.907,0,21.162,4.248,28.874,11.959c15.921,15.921,15.921,41.827,0,57.747l-64.576,64.576c-3.018,3.018-3.018,7.911,0,10.928
	c3.018,3.018,7.911,3.018,10.928,0l64.576-64.576C517.488,74.121,517.489,38.411,495.541,16.463z M330.086,220.296L202.425,347.958
	c-10.581,10.581-27.797,10.58-38.378,0c-5.126-5.126-7.948-11.94-7.948-19.19c0-7.249,2.822-14.062,7.948-19.189l48.732-48.732
	c3.018-3.018,3.018-7.911,0-10.928c-3.018-3.018-7.911-3.018-10.928,0l-48.732,48.732c-8.045,8.045-12.475,18.74-12.475,30.117
	c0,11.377,4.431,22.072,12.475,30.118s18.74,12.475,30.118,12.475s22.072-4.431,30.117-12.475l76.835-76.835l59.094,107.19
	c-7.986,10.113-33.086,38.993-76.852,64.043c-31.55,18.058-66.517,30.639-103.931,37.395c-45.332,8.186-94.44,7.801-146.043-1.139
	c-8.936-51.6-9.321-100.706-1.133-146.037c6.757-37.413,19.34-72.379,37.398-103.928c25.054-43.771,53.939-68.872,64.043-76.852
	l107.188,59.094l-12.129,12.129c-3.018,3.018-3.018,7.911,0,10.928c3.018,3.018,7.911,3.018,10.928,0l62.956-62.956L330.086,220.296
	z"/>
<path d="M470.427,79.272c10.392-10.392,10.392-27.303,0-37.694c-10.392-10.392-27.303-10.391-37.694,0
	c-10.392,10.392-10.392,27.303,0,37.694c5.196,5.196,12.021,7.795,18.847,7.795C458.405,87.067,465.231,84.468,470.427,79.272z
	 M440.382,60.425c0-2.991,1.164-5.803,3.28-7.918c2.183-2.183,5.051-3.275,7.919-3.275s5.735,1.092,7.918,3.275
	c4.367,4.367,4.367,11.471,0,15.838c-2.115,2.115-4.927,3.28-7.918,3.28s-5.804-1.164-7.919-3.28
	C441.546,66.229,440.382,63.417,440.382,60.425z"/>
<g>
</g>
<g>
</g>
<g>
</g>
<g>
</g>
<g>
</g>
<g>
</g>
<g>
</g>
<g>
</g>
<g>
</g>
<g>
</g>
<g>
</g>
<g>
</g>
<g>
</g>
<g>
</g>
<g>
</g>
</svg>
