<?xml version="1.0" encoding="iso-8859-1"?>
<!-- Generator: Adobe Illustrator 19.0.0, SVG Export Plug-In . SVG Version: 6.00 Build 0)  -->
<svg version="1.1" id="Layer_1" xmlns="http://www.w3.org/2000/svg" xmlns:xlink="http://www.w3.org/1999/xlink" x="0px" y="0px"
	 viewBox="0 0 512.001 512.001" style="enable-background:new 0 0 512.001 512.001;" xml:space="preserve">
<circle style="fill:#5F4D37;" cx="48.216" cy="343.813" r="40.62"/>
<path style="fill:#B39A7C;" d="M48.216,369.239c-14.022,0-25.429-11.408-25.429-25.429c0-14.023,11.408-25.43,25.429-25.43
	c14.023,0,25.43,11.408,25.43,25.43C73.646,357.832,62.238,369.239,48.216,369.239z"/>
<polygon style="fill:#E0E0E2;" points="57.107,186.159 407.641,159.002 394.48,267.282 106.413,330.181 "/>
<g>
	<polygon style="fill:#C6C5CA;" points="57.107,186.159 106.413,330.181 180.875,313.922 135.067,180.119 	"/>
	<path style="fill:#C6C5CA;" d="M246.117,274.048c-3.582,0-6.771-2.546-7.456-6.195c-0.775-4.123,1.94-8.093,6.063-8.866
		l77.209-14.493c4.124-0.774,8.094,1.94,8.866,6.063c0.775,4.123-1.94,8.093-6.063,8.866l-77.209,14.493
		C247.054,274.005,246.582,274.048,246.117,274.048z"/>
</g>
<path style="fill:#FF728B;" d="M469.224,161.117l10.841-25.792c2.709-6.446,10.132-9.474,16.575-6.765
	c6.446,2.709,9.474,10.13,6.765,16.574l-11.106,26.281L469.224,161.117z"/>
<path d="M510.487,132.577c-2.045-5.009-5.917-8.923-10.904-11.018c-2.503-1.052-5.142-1.585-7.842-1.585
	c-8.179,0-15.51,4.872-18.677,12.41l-10.841,25.791c-1.6,3.808,0.135,8.196,3.906,9.879l4.841,2.16l-38.079,81.031l-29.602,6.525
	l3.43-28.218c0.506-4.164-2.46-7.951-6.623-8.457c-4.164-0.501-7.951,2.459-8.457,6.623l-4.074,33.518l-275.907,60.815
	L66.493,190.128L399.28,164.84l-2.812,23.138c-0.506,4.164,2.46,7.951,6.623,8.457c0.312,0.037,7.596-0.341,8.457-6.623
	l3.178-26.145l15.019-1.141c4.182-0.317,7.316-3.967,6.998-8.149c-0.318-4.182-3.956-7.315-8.149-6.998L35.993,177.211
	c-4.182,0.317-7.316,3.967-6.998,8.149c0.303,3.987,3.633,7.02,7.566,7.02c0.192,0,0.388-0.007,0.583-0.021l13.7-1.041
	L96.728,325.34l-3.662,0.807c-7.064-17.871-24.498-30.552-44.85-30.552C21.629,295.594,0,317.223,0,343.81
	c0,7.381,1.626,14.468,4.834,21.064c1.834,3.773,6.378,5.345,10.151,3.51c3.773-1.835,5.344-6.38,3.51-10.151
	c-2.193-4.512-3.304-9.363-3.304-14.423c0-18.209,14.815-33.024,33.025-33.024c13.076,0,24.401,7.64,29.748,18.69l-31.383,6.918
	c-4.096,0.903-6.93,5.017-5.783,9.052c2.022,7.112,8.502,5.904,9.052,5.783l31.375-6.916c-0.163,10.798-5.569,20.82-14.55,26.887
	c-3.477,2.347-4.39,7.069-2.043,10.545c1.467,2.173,3.861,3.345,6.301,3.345c1.462,0,2.998-0.343,4.244-1.302
	c22.836-17.559,21.218-41.87,21.164-42.807l141.537-31.197l126.692,81.046c1.24,0.793,2.662,1.198,4.093,1.198
	c0.939,0,1.88-0.174,2.777-0.527c2.264-0.889,3.967-2.81,4.576-5.168l29.347-113.467l34.446-7.592
	c2.301-0.507,4.237-2.054,5.24-4.188l39.794-84.682l4.36,1.946c0.984,0.44,6.973,1.539,10.092-3.979l11.112-26.295
	C512.503,143.091,512.533,137.586,510.487,132.577z M363.933,372.388l-105.09-67.226l129.882-28.628L363.933,372.388z
	 M496.409,142.177l-8.089,19.143l-9.214-4.113l7.961-18.941c0.793-1.886,3.117-3.95,6.63-2.706
	C497.525,136.918,496.927,140.945,496.409,142.177z"/>
<path d="M46.194,376.775c-5.159-0.311-10.035-1.777-14.494-4.359c-3.632-2.1-8.277-0.862-10.379,2.768
	c-2.101,3.631-0.862,8.278,2.768,10.379c6.432,3.723,13.76,5.927,21.193,6.374c0.155,0.01,0.31,0.014,0.463,0.014
	c3.987,0,7.332-3.107,7.574-7.14C53.571,380.626,50.381,377.027,46.194,376.775z"/>
<g>
</g>
<g>
</g>
<g>
</g>
<g>
</g>
<g>
</g>
<g>
</g>
<g>
</g>
<g>
</g>
<g>
</g>
<g>
</g>
<g>
</g>
<g>
</g>
<g>
</g>
<g>
</g>
<g>
</g>
</svg>
