<svg id="_3" data-name="3" xmlns="http://www.w3.org/2000/svg" xmlns:xlink="http://www.w3.org/1999/xlink" width="50.426" height="49.848" viewBox="0 0 50.426 49.848">
  <defs>
    <linearGradient id="linear-gradient" x1="0.5" x2="0.879" y2="0.959" gradientUnits="objectBoundingBox">
      <stop offset="0" stop-color="#dd4725"/>
      <stop offset="0" stop-color="#d94625"/>
      <stop offset="0.325" stop-color="#d04426"/>
      <stop offset="1" stop-color="#8a4369"/>
    </linearGradient>
  </defs>
  <path id="Path_4" data-name="Path 4" d="M1552.193,635.3l11.068,8.3,22.88-10.5.276-1.271Z" transform="translate(-1535.991 -631.827)" fill="#e0e81c"/>
  <path id="Path_5" data-name="Path 5" d="M1565.469,647.827l1-3.916,22.91-10.6-1.585,6.074-18.693,9.9Z" transform="translate(-1539.183 -632.185)" fill="#0e76fe"/>
  <path id="Path_6" data-name="Path 6" d="M1569.359,650.783l19.486-10.111-9.956,43.13-6.48-31.737Z" transform="translate(-1540.12 -633.954)" fill="#079eff"/>
  <path id="Path_7" data-name="Path 7" d="M1550.309,644.665l-5.952-7.688,5.952-.579,11.077,8.266-.826,3.968Z" transform="translate(-1534.106 -632.926)" fill="url(#linear-gradient)"/>
  <path id="Path_8" data-name="Path 8" d="M1537.609,637.725l5.673-.647,5.4,7.75-9.333-3.593Z" transform="translate(-1532.483 -633.09)" fill="#db6627"/>
  <path id="Path_9" data-name="Path 9" d="M1530.86,638.673l5.243-.723,1.627,3.491Z" transform="translate(-1530.86 -633.299)" fill="#0037de"/>
</svg>
