<svg xmlns="http://www.w3.org/2000/svg" xmlns:xlink="http://www.w3.org/1999/xlink" width="274.388" height="323.277" viewBox="0 0 274.388 323.277">
  <defs>
    <linearGradient id="linear-gradient" x1="0.5" y1="1" x2="0.5" gradientUnits="objectBoundingBox">
      <stop offset="0" stop-color="gray" stop-opacity="0.251"/>
      <stop offset="0.54" stop-color="gray" stop-opacity="0.122"/>
      <stop offset="1" stop-color="gray" stop-opacity="0.102"/>
    </linearGradient>
  </defs>
  <g id="чел" transform="translate(-322.427 -160.748)">
    <g id="Group_28" data-name="Group 28">
      <path id="Path_452" data-name="Path 452" d="M771.537,564.127c-5.467-.781-15.572-9.371-15.572-9.371a7.7,7.7,0,0,0-6.708-3.413l-10.035-14.112a105.311,105.311,0,0,0-13.76-18.594q-1.289-1.429-2.663-2.772a74.941,74.941,0,0,0-8.7-7.419,51.778,51.778,0,0,1-5.732-4.967,66.38,66.38,0,0,1-4.686-5.185l-6.982-9.777-.469-.664a10.686,10.686,0,0,0,.141-2.9,5.028,5.028,0,0,0-.078-.679L667.477,450.4l-8.59-17.524h0c-.1.086-.445.375-.984.781l-.156-.445v-1.679A72.26,72.26,0,0,1,666.5,396.8a24.411,24.411,0,0,0,2.96-11.659q0-.492,0-.984l-.148-.164c-.273-.3-.9-1.007-1.7-2.046.1-.2.211-.414.312-.609,3.577-6.575,8.551-7.7,8.551-7.7,16.743-2.343,28.816-13.627,28.816-13.627,12.495-7.028,10.152-13.276,10.152-13.276L704.15,319.477l-7.028-14.408-1.945-6.622a111.687,111.687,0,0,0-2.694-13.065,7.964,7.964,0,0,0-13.948-2.952c-.094.125-.2.258-.289.4A12.5,12.5,0,0,0,680.48,299.5c3.9,3.327,7.3,6.739,7.3,6.739C694.81,308.185,699.5,344.4,699.5,344.4l-4.686,3.124a26.044,26.044,0,0,0-18.688,9.371h-14.7a.7.7,0,0,1,.063-.2l-2.436-.547-7.028-1.562-2.6-.586-.039.164-.734-.164v.1a43.72,43.72,0,0,1-2.655-4.865,2.115,2.115,0,0,0,.632,0,3.262,3.262,0,0,0,.141-.351h.25c1.086-2.343.148-5.271,1.2-7.661a28.414,28.414,0,0,1,1.874-2.913c1.562-2.694,1.374-6.068.914-9.16-.5-3.327-1.265-6.724-3.178-9.5s-5.217-4.8-8.59-4.365c-2.655.351-4.982,2.171-7.653,2.343a15.1,15.1,0,0,1-5.466-1.21,34.787,34.787,0,0,0-5.927-1.351c-1.335-.187-2.905-.211-3.8.781l-.078.1a2.289,2.289,0,0,0-.312.289,4.42,4.42,0,0,0-.781,1.484l-1.726,4.756a1.093,1.093,0,0,0,0,1.054c.156.2.429.25.64.383,1.367.882-.469,3.061.664,4.131.679.64,2.132.711,3.569.7a15.181,15.181,0,0,0,9.551,22.96v.781a31.93,31.93,0,0,1-.484,6.146h0l-1.14.1c-1.9.1-5.732.25-9.082.094a30.251,30.251,0,0,1-3.35-.32s-.133,1.421-.39,3.6l-.781.219A32.549,32.549,0,0,0,594.8,375.251L577.272,385.4s-7.809-1.945-30.37,17.524l-16.353,8.59s-24.982,7.356-20.312,14.744,28.035-8.949,28.035-8.949l9.371-4.28,28.426-12.495s9.371-6.247,16.353-8.59,14.018-9.371,14.018-9.371l1.757-.094.781-.047a6.571,6.571,0,0,1-.383.609,3.1,3.1,0,0,1-.226.3v62.685l-.125,1.741h.055l-1.874,25.5s.391,11.714-1.171,18.3,1.171,33.486,1.171,33.486,1.023,0,2.686-.117l-.047.781-.687,11.019s-1.312,4.248,6.247,6.458a18.257,18.257,0,0,1,4.889,2.241l8.715,5.709,8.957,5.466,1.812,3.8.086.187-1.905-1.164s-1.562,3.9,3.506,8.957a16.556,16.556,0,0,1,5.467,13.627s.781,9.371,5.466,7.028c0,0,7.4-1.562,7.028-14.408,0,0-2.952-10.7.484-15.22q.141-.187.3-.359c3.9-4.28-1.171-10.933-1.171-10.933s-9.02-3.639-9.527,2.405l-.375-.164c-1.624-.781-4.537-2.679-7.622-7.3,0,0-5.06-12.846-12.846-14.018l1.3-7.4.148-.851c2.679-1.265,4.85-2.9,5.943-5h0l.047-.094v-.2l.039-.078v-.062l.039-.086.047-.094v-.078l.055-.109.148-.078.055-.117.047-.1.063-.133.055-.109.063-.133.07-.141.055-.109.078-.164.055-.109.336-.726.047-.094.094-.2.07-.148.1-.226.062-.133.117-.266.047-.109.125-.273.063-.133.125-.281.055-.125.133-.3.055-.117.141-.312.047-.117.141-.328.047-.109.156-.351V509.4c2.491-5.794,5.623-14.127,5.467-19.063a11.377,11.377,0,0,0,0-1.179h-.094v-.078a1.58,1.58,0,0,0-.109-.469L664.44,493.3l12.495,13.627h.281l.078-.039h.07l.1-.047.078-.039.109-.055.094-.047.133-.07.086-.047.148-.078.094-.055.156-.078.109-.062.172-.094.109-.055.18-.1.125-.07.2-.109.133-.32.219-.125.117-.062.227-.125.133-.078.234-.133.125-.078.25-.148.133-.078.258-.156.125-.078.273-.164h.047l.437.508,5.466,6.341c5.467,2.343,17.915,14.018,17.915,14.018,1.437,3.444,7.52,8.364,10.629,10.722a19.416,19.416,0,0,0,2.819,1.734,33.217,33.217,0,0,1,6.294,5.107,80.183,80.183,0,0,0,9.192,7.809,40.972,40.972,0,0,1,7.958,8.028h0l.266.344c-1.859,6.247,8.778,12.6,8.778,12.6,3.9-.781,15.962,10.152,15.962,10.152s11.292,8.957,15.962-.781S771.537,564.127,771.537,564.127ZM750.9,553.694l-1.562-2.21h0a2.7,2.7,0,0,1,1.539,2.187Z" transform="translate(-187.228 -105.406)" fill="url(#linear-gradient)"/>
      <path id="Path_453" data-name="Path 453" d="M685.209,379.517s-39.4,22.952-30.979,9.941A32.729,32.729,0,0,0,659.7,370.95a24.084,24.084,0,0,0-.859-6.357l16.446-7.653a15.852,15.852,0,0,0,.594,6.708C678.18,371.786,685.209,379.517,685.209,379.517Z" transform="translate(-218.641 -122.393)" fill="#db8b8b"/>
      <path id="Path_454" data-name="Path 454" d="M677.47,363.658a14.931,14.931,0,0,1-16.181,7.3,24.078,24.078,0,0,0-.859-6.357l16.446-7.653A15.853,15.853,0,0,0,677.47,363.658Z" transform="translate(-220.258 -122.395)" opacity="0.1"/>
      <circle id="Ellipse_41" data-name="Ellipse 41" cx="14.916" cy="14.916" r="14.916" transform="translate(429.278 218.304)" fill="#db8b8b"/>
      <path id="Path_455" data-name="Path 455" d="M651.131,341.368a5.725,5.725,0,0,1,3.553,2.343c.984,1.562.961,3.7,2.343,4.92a4.951,4.951,0,0,0,3.631.922,17.509,17.509,0,0,1,3.834-.133,7.676,7.676,0,0,1,4.912,3.616,49.817,49.817,0,0,1,2.78,5.623,6.639,6.639,0,0,0,1.39,2.054,2.663,2.663,0,0,0,2.288.734c1.07-2.343.148-5.185,1.171-7.52a27.923,27.923,0,0,1,1.835-2.858c1.562-2.647,1.351-5.958.89-9-.492-3.272-1.242-6.607-3.124-9.324s-5.123-4.686-8.4-4.287c-2.608.344-4.9,2.132-7.52,2.288a15.089,15.089,0,0,1-5.4-1.187,34.171,34.171,0,0,0-5.818-1.328c-1.312-.18-2.85-.211-3.733.781a4.34,4.34,0,0,0-.781,1.453l-1.695,4.686a1.078,1.078,0,0,0,0,1.039c.156.187.422.242.625.383,1.343.867-.461,3.007.648,4.061S649.577,341,651.131,341.368Z" transform="translate(-216.472 -116.082)" opacity="0.1"/>
      <path id="Path_456" data-name="Path 456" d="M651.621,340.878a5.724,5.724,0,0,1,3.553,2.343c.984,1.562.961,3.7,2.343,4.92a4.951,4.951,0,0,0,3.631.921,17.506,17.506,0,0,1,3.834-.133,7.676,7.676,0,0,1,4.912,3.616,49.836,49.836,0,0,1,2.78,5.623,6.638,6.638,0,0,0,1.39,2.054,2.663,2.663,0,0,0,2.288.734c1.07-2.343.148-5.185,1.171-7.52a27.9,27.9,0,0,1,1.835-2.858c1.562-2.647,1.351-5.958.89-9-.492-3.272-1.242-6.607-3.124-9.324s-5.123-4.686-8.4-4.287c-2.608.344-4.9,2.132-7.52,2.288a15.088,15.088,0,0,1-5.4-1.187,34.175,34.175,0,0,0-5.818-1.328c-1.312-.18-2.85-.211-3.733.781a4.342,4.342,0,0,0-.781,1.453l-1.695,4.686a1.078,1.078,0,0,0,0,1.039c.156.187.422.242.625.383,1.343.867-.461,3.007.648,4.061S650.067,340.511,651.621,340.878Z" transform="translate(-216.58 -115.975)" fill="#472727"/>
      <path id="Path_457" data-name="Path 457" d="M742.57,362.169s-11.855,11.089-28.3,13.385c0,0-4.889,1.109-8.4,7.567a27.384,27.384,0,0,0-2.694,7.731l-17.649-29.9L684.43,359.1h29.449a25.583,25.583,0,0,1,18.36-9.176l4.592-3.061s-4.592-35.571-11.472-37.485c0,0-3.358-3.358-7.177-6.622a12.276,12.276,0,0,1-2.194-16.4c.094-.133.187-.266.289-.39,3.9-5.1,12.065-3.327,13.705,2.905a109.686,109.686,0,0,1,2.647,12.87l1.913,6.505,6.888,14.15,11.089,26.77S754.808,355.289,742.57,362.169Z" transform="translate(-225.516 -106.193)" fill="#db8b8b"/>
      <path id="Path_458" data-name="Path 458" d="M616.992,386.34l-2.3,20.3-5.162.289-1.726.094s-6.888,6.888-13.768,9.176-16.064,8.418-16.064,8.418l-27.918,12.214-9.176,4.209s-22.952,16.1-27.543,8.793,19.914-14.564,19.914-14.564l16.064-8.418c22.186-19.125,29.832-17.18,29.832-17.18l17.18-9.941a31.972,31.972,0,0,1,17.563-12.69A21.641,21.641,0,0,1,616.992,386.34Z" transform="translate(-187.91 -128.833)" fill="#db8b8b"/>
      <path id="Path_459" data-name="Path 459" d="M706.173,403.667a27.386,27.386,0,0,0-2.694,7.731L685.83,381.5a12.222,12.222,0,0,0,1.1-1.851,14.841,14.841,0,0,0,1.062-2.866l2.554.578,6.911,1.562,2.4.539a.88.88,0,0,1-.062.187C696.576,389.1,702.643,398.99,706.173,403.667Z" transform="translate(-225.822 -126.739)" opacity="0.1"/>
      <path id="Path_460" data-name="Path 460" d="M644.138,386.34l-2.3,20.3-5.162.289c2.194-3.9,3.686-14.244,4.365-19.859a21.637,21.637,0,0,1,3.092-.734Z" transform="translate(-215.055 -128.833)" opacity="0.1"/>
      <path id="Path_461" data-name="Path 461" d="M694.066,418.47a70.941,70.941,0,0,0-8.59,34.455v1.695s4.209,11.472,0,11.472-3.827,5.74-9.176,6.888-24.1,9.176-29.832,5.74-9.559-10.707-9.559-10.707v-62.35a3.075,3.075,0,0,0,.226-.3c3.3-4.686,5.131-24.209,5.131-24.209a29.73,29.73,0,0,0,3.3.32c3.288.156,7.028,0,8.918-.094l1.171-.07c3.3,2.585,7.809,2.96,10.043,2.96a16.934,16.934,0,0,1,2.343.172c6.458.906,8.426-7.677,8.426-7.677l2.554.578,6.911,1.562,2.4.539c-4.3,12.19,7.028,25.224,8.458,26.8l.148.164A23.929,23.929,0,0,1,694.066,418.47Z" transform="translate(-215.106 -126.735)" fill="#00afca"/>
      <path id="Path_462" data-name="Path 462" d="M645.575,382.731c0,5.068-1.21,21.866-8.645,24.295v-.133a3.075,3.075,0,0,0,.227-.3c3.3-4.686,5.131-24.209,5.131-24.209A29.73,29.73,0,0,0,645.575,382.731Z" transform="translate(-215.11 -127.966)" fill="#fff" opacity="0.3"/>
      <path id="Path_463" data-name="Path 463" d="M710.316,406.873c-13.994-.718-12.339-19.023-10.855-27.333l2.4.539C697.555,392.261,708.879,405.3,710.316,406.873Z" transform="translate(-228.598 -127.344)" fill="#fff" opacity="0.3"/>
    </g>
    <g id="Group_19" data-name="Group 19" transform="translate(429.996 254.992)" opacity="0.1">
      <path id="Path_464" data-name="Path 464" d="M699.269,414.815a.187.187,0,0,0-.148-.164c-3.124-.781.344.351-3.124-.781-.133-.047.187-.57.187-.57a23.927,23.927,0,0,1-2.905,12.042,70.94,70.94,0,0,0-8.59,34.455v1.687s4.209,11.472,0,11.472-3.827,5.74-9.176,6.888c-4.9,1.054-21.03,7.872-28.114,6.365.437.32.883.625,1.343.9,5.74,3.444,24.482-4.592,29.832-5.74s4.975-6.888,9.176-6.888,0-11.472,0-11.472v-1.695a70.942,70.942,0,0,1,8.59-34.455A23.927,23.927,0,0,0,699.269,414.815Z" transform="translate(-647.4 -389.732)"/>
      <path id="Path_465" data-name="Path 465" d="M661.835,383.51c-.18-.125-.367-.258-.539-.39h-.406A9.642,9.642,0,0,0,661.835,383.51Z" transform="translate(-650.355 -383.12)"/>
    </g>
    <g id="Group_27" data-name="Group 27">
      <path id="Path_466" data-name="Path 466" d="M795.859,608.711l-4.584,10.324a64.132,64.132,0,0,0-4.3-6.208h0a40.247,40.247,0,0,0-7.809-7.88,78.766,78.766,0,0,1-9.028-7.669,32.765,32.765,0,0,0-6.185-5.021,19.073,19.073,0,0,1-2.772-1.7c-3.046-2.343-9.028-7.145-10.441-10.527,0,0-12.237-11.472-17.594-13.768l-5.342-6.247-6.138-7.161,15.681-15.681,4.615,6.458,6.864,9.605a62.565,62.565,0,0,0,10.582,10.355,71.179,71.179,0,0,1,10.777,9.629A103.458,103.458,0,0,1,783.621,591.5l9.863,13.862.07.109,1.562,2.179Z" transform="translate(-233.674 -161.875)" fill="#db8b8b"/>
      <path id="Path_467" data-name="Path 467" d="M680.112,619.3l-6.122,14.533-4.967-5.357-2.046-4.3-1.781-3.741-8.8-5.357-8.59-5.607a17.956,17.956,0,0,0-4.8-2.2c-7.427-2.171-6.146-6.341-6.146-6.341l.679-10.824.469-7.536,20.3-2.3-1.015,5.74-1.281,7.263c7.653,1.148,12.62,13.768,12.62,13.768,3.022,4.537,5.888,6.419,7.489,7.169a5.867,5.867,0,0,0,1.312.476Z" transform="translate(-215.075 -171.319)" fill="#db8b8b"/>
      <path id="Path_468" data-name="Path 468" d="M813.67,624.612l-.18-.1h.109Z" transform="translate(-253.789 -181.009)" opacity="0.1"/>
      <path id="Path_469" data-name="Path 469" d="M814.179,628.491,809.6,638.815a64.134,64.134,0,0,0-4.3-6.208c.7.672,4.631,4.248,5.888.984a38.255,38.255,0,0,1,1.663-3.9,4.3,4.3,0,0,0,.57-2.226Z" transform="translate(-251.994 -181.655)" opacity="0.1"/>
      <path id="Path_470" data-name="Path 470" d="M799.8,608.154l-1.562-2.179-.07-.109L788.3,592a103.448,103.448,0,0,0-13.455-18.266,71.168,71.168,0,0,0-10.777-9.629,62.585,62.585,0,0,1-10.582-10.355l-6.841-9.566-4.615-6.458-.672.672,4.131,5.787,6.864,9.605a62.574,62.574,0,0,0,10.589,10.324,71.178,71.178,0,0,1,10.777,9.629A103.455,103.455,0,0,1,787.154,592l9.879,13.877.07.109,1.562,2.179.781,1.062-4.108,9.246c.43.679.672,1.078.672,1.078l4.592-10.324Z" transform="translate(-237.987 -161.998)" opacity="0.1"/>
      <path id="Path_471" data-name="Path 471" d="M688.585,628.826l-6.123,14.533L677.5,638l-2.046-4.3,5.873,3.9c5.771-3.608,3.545-12.831,3.28-13.862a5.863,5.863,0,0,0,1.312.476Z" transform="translate(-223.548 -180.842)" opacity="0.1"/>
      <path id="Path_472" data-name="Path 472" d="M684.39,623.134s2.866,10.152-3.249,13.963l-8.036-5.357s-1.562,3.827,3.444,8.8a16.259,16.259,0,0,1,5.357,13.385s.781,9.176,5.357,6.888c0,0,7.27-1.562,6.888-14.15,0,0-2.9-10.5.476-14.947q.141-.18.289-.352c3.827-4.209-1.148-10.707-1.148-10.707S684.772,617.019,684.39,623.134Z" transform="translate(-222.984 -179.93)" fill="#535461"/>
      <path id="Path_473" data-name="Path 473" d="M685.506,487.883c-4.209,0-3.827,5.74-9.176,6.888s-24.1,9.176-29.832,5.74S636.94,489.8,636.94,489.8v-.781c9.559,4.975,21.421,0,21.421,0,8.45,1.624,22.983-9.457,27.153-12.823v.2S689.708,487.883,685.506,487.883Z" transform="translate(-215.112 -148.519)" opacity="0.1"/>
      <path id="Path_474" data-name="Path 474" d="M638.267,582.586l20.3-2.3-1.015,5.74c-6.287,2.921-15.338,3.819-19.726,4.092Z" transform="translate(-215.307 -171.322)" opacity="0.1"/>
      <path id="Path_475" data-name="Path 475" d="M741.946,543.653c-.961,7.028-8.817,13.065-14.158,16.4l-6.138-7.161,15.681-15.681Z" transform="translate(-233.669 -161.884)" opacity="0.1"/>
      <path id="Path_476" data-name="Path 476" d="M657.35,489.744s-11.855,4.975-21.421,0l-1.913,26.013s.383,11.472-1.148,17.961,1.148,32.893,1.148,32.893,23.717-.383,28.3-9.176c0,0,9.941-19.89,8.036-26.77l20.656,4.592,12.245,13.369s21.038-9.941,19.125-22.186l-28.309-33.26L685.658,476S667.3,491.658,657.35,489.744Z" transform="translate(-214.116 -148.475)" fill="#6c63ff"/>
      <path id="Path_477" data-name="Path 477" d="M703.25,548.627l-12.237-13.385-20.663-4.576c.047.172.086.352.125.539a7.6,7.6,0,0,1,.109,1.109c.32,7.958-8.262,25.13-8.262,25.13-4.592,8.8-28.3,9.176-28.3,9.176s-2.718-26.38-1.156-32.885,1.148-17.961,1.148-17.961l1.843-25.044.07-.961a20.57,20.57,0,0,0,8.59,2.187,33.284,33.284,0,0,0,12.425-2.023l.406-.164q.336.062.687.1c8.216.906,21.39-8.887,25.974-12.534,1.039-.828,1.64-1.335,1.64-1.335l8.418,17.181,28.3,33.275a9.147,9.147,0,0,1,.109,1.156C722.968,539.326,703.25,548.627,703.25,548.627Z" transform="translate(-214.113 -148.475)" fill="#00afca" opacity="0.1"/>
      <path id="Path_478" data-name="Path 478" d="M683.988,377.37c-8.52,15.392-21.085,6.872-24.568,4.045l1.171-.07c3.3,2.585,7.809,2.96,10.043,2.96a16.918,16.918,0,0,1,2.343.172c6.458.906,8.426-7.677,8.426-7.677Z" transform="translate(-220.037 -126.743)" fill="#fff" opacity="0.3"/>
      <path id="Path_479" data-name="Path 479" d="M812.109,625a7.536,7.536,0,0,1,6.693,3.342s9.933,8.372,15.283,9.152c0,0,16.064,6.888,11.472,16.446s-15.681.781-15.681.781-11.854-10.707-15.681-9.941c0,0-10.519-6.31-8.59-12.432,0,0,4.608,4.686,6,1.085a38.128,38.128,0,0,1,1.656-3.9C814,628.058,814.381,626.145,812.109,625Z" transform="translate(-252.009 -181.113)" fill="#535461"/>
      <path id="Path_480" data-name="Path 480" d="M655.794,493.481c-4,1.164-12.042,2.718-18.9-.851l-.125,1.71C645.087,497.362,654.286,494.067,655.794,493.481Z" transform="translate(-215.075 -152.118)" opacity="0.1"/>
      <path id="Path_481" data-name="Path 481" d="M669.9,492a13.673,13.673,0,0,1-6.177.523s-.844.351-2.249.781C663.914,493.718,666.851,493.117,669.9,492Z" transform="translate(-220.486 -151.98)" opacity="0.1"/>
      <path id="Path_482" data-name="Path 482" d="M736.966,527.611c-.367,11.347-19.234,20.265-19.234,20.265l-.266-.289c5.224-2.866,18.641-11.245,17.095-21.132l-28.309-33.283L698.49,477.3c1.039-.828,1.64-1.335,1.64-1.335l8.418,17.18,28.3,33.275A9.141,9.141,0,0,1,736.966,527.611Z" transform="translate(-228.596 -148.466)" opacity="0.1"/>
      <path id="Path_483" data-name="Path 483" d="M673.579,546c1.913,6.888-8.036,26.77-8.036,26.77-1.359,2.6-4.381,4.467-7.973,5.8,4.561-1.359,8.629-3.428,10.269-6.568,0,0,8.825-17.649,8.247-25.451Z" transform="translate(-219.631 -163.81)" opacity="0.1"/>
      <path id="Path_484" data-name="Path 484" d="M667,418.91c-5.388,0-9.754,6.247-9.754,13.963s4.365,13.963,9.754,13.963,9.754-6.247,9.754-13.963S672.392,418.91,667,418.91Zm0,22.186c-3.171,0-5.748-3.678-5.748-8.223s2.569-8.223,5.748-8.223,5.748,3.678,5.748,8.223S670.174,441.1,667,441.1Z" transform="translate(-219.561 -135.968)" fill="#fff" opacity="0.3"/>
      <path id="Path_485" data-name="Path 485" d="M738.6,286.094v1.343a3.147,3.147,0,0,1-.055.718,23.7,23.7,0,0,1-3.9,11.222c-.148.226-.3.445-.461.664a23.053,23.053,0,0,1-18.742,9.668,14.847,14.847,0,0,1-1.562-.055c-.515-.055-.961-.078-1.437-.141h0A23.155,23.155,0,0,1,696.1,299.136c-.125-.18-.242-.375-.351-.554v-.039a23.794,23.794,0,0,1-3.491-12.448,24.208,24.208,0,0,1,.25-3.5l.125-.781a23.615,23.615,0,0,1,12.4-16.852l.844-.414a22.928,22.928,0,0,1,17.579-.679,22.3,22.3,0,0,1,2.163.937h0A23.53,23.53,0,0,1,737,277.184c.078.18.141.351.2.531a23.912,23.912,0,0,1,1.4,8.379Z" transform="translate(-227.231 -101.69)" fill="#f88787"/>
      <path id="Path_486" data-name="Path 486" d="M740.673,278.32a16.077,16.077,0,0,1-4.576.664h-.875a8.247,8.247,0,0,1-1.093-.094,19.577,19.577,0,0,1-8.5-3.124h0c-6.818-6.95-13.495-9.324-17.1-10.152l.843-.414a35.107,35.107,0,0,1,15.291,8.746,15.9,15.9,0,0,0,5.357,3.342,18.628,18.628,0,0,0,4.241,1.023c.312,0,.617.063.922.086h.617a15.462,15.462,0,0,0,4.686-.594A4.316,4.316,0,0,0,740.673,278.32Z" transform="translate(-230.795 -102.295)" fill="#fff" opacity="0.5"/>
      <path id="Path_487" data-name="Path 487" d="M738.594,292.319a3.146,3.146,0,0,1-.055.718,31.5,31.5,0,0,0-6.365-3.124l-.586-.211a78.875,78.875,0,0,0-16.4-3.624c-13.12-1.671-19.664-.109-22.78,1.374l.125-.781c3.374-1.484,10.019-2.835,22.733-1.218a80.869,80.869,0,0,1,16.4,3.585l.586.211A32.466,32.466,0,0,1,738.594,292.319Z" transform="translate(-227.264 -106.572)" fill="#fff" opacity="0.5"/>
      <path id="Path_488" data-name="Path 488" d="M737.872,284.833a6.153,6.153,0,0,1-.07.64q-.2,1.6-.578,3.35-.289,1.32-.64,2.538c-.062.211-.125.422-.187.625a27.067,27.067,0,0,1-13.776,16.728,28.351,28.351,0,0,1-3.124,1.359l-1.437-.141h0a28.309,28.309,0,0,0,4.358-1.765c4.685-2.343,10.613-7.13,13.5-16.54.063-.187.117-.383.172-.578q.328-1.132.594-2.343.383-1.757.586-3.436a5.943,5.943,0,0,1,.07-.64,28.477,28.477,0,0,0,0-5.826,3.83,3.83,0,0,0-.07-.6,19.609,19.609,0,0,0-5.2-11.23,20.019,20.019,0,0,0-3.124-2.663,22.3,22.3,0,0,1,2.163.937h0q.687.6,1.359,1.312a20.3,20.3,0,0,1,5.318,11.659,5.12,5.12,0,0,0,.07.594,29.019,29.019,0,0,1,.016,6.021Z" transform="translate(-232.883 -102.1)" fill="#fff" opacity="0.5"/>
      <path id="Path_489" data-name="Path 489" d="M735.527,307.172c-.148.226-.3.445-.461.664a31.166,31.166,0,0,0-3.124-8.129,1.563,1.563,0,0,0-.273-.344,2.142,2.142,0,0,0-.523-.351c-3.007-1.492-11.987,1.007-18.664,4.615-5.139,2.78-11.862,3.272-15.541,3.3l-.351-.554v-.039c3.514,0,10.418-.422,15.619-3.233,6.247-3.358,15.541-6.247,19.117-4.686a3.029,3.029,0,0,1,.539.3,2.226,2.226,0,0,1,.609.656,32.166,32.166,0,0,1,3.053,7.794Z" transform="translate(-228.18 -109.477)" fill="#fff" opacity="0.5"/>
    </g>
  </g>
</svg>
