<svg xmlns="http://www.w3.org/2000/svg" xmlns:xlink="http://www.w3.org/1999/xlink" width="1600" height="3053" viewBox="0 0 1600 3053">
  <defs>
    <linearGradient id="linear-gradient" x1="0.892" y1="-0.032" x2="0.232" y2="0.729" gradientUnits="objectBoundingBox">
      <stop offset="0" stop-color="#ab3a4c"/>
      <stop offset="0.182" stop-color="#ac3a4c"/>
      <stop offset="1" stop-color="#fa3c0c"/>
    </linearGradient>
    <linearGradient id="linear-gradient-2" x1="0.5" x2="0.879" y2="0.959" gradientUnits="objectBoundingBox">
      <stop offset="0" stop-color="#dd4725"/>
      <stop offset="0" stop-color="#d94625"/>
      <stop offset="0.325" stop-color="#d04426"/>
      <stop offset="1" stop-color="#8a4369"/>
    </linearGradient>
    <clipPath id="clip-bg">
      <rect width="1600" height="3053"/>
    </clipPath>
  </defs>
  <g id="bg" clip-path="url(#clip-bg)">
    <rect width="1600" height="3053" fill="#fff"/>
    <path id="header" d="M0,0H1600V900H0Z" fill="rgba(69,86,193,0.74)"/>
    <g id="_2" data-name="2">
      <path id="header-2" data-name="header" d="M0,0H1600V900H0Z" transform="translate(0 900)" fill="rgba(77,193,69,0.74)"/>
      <g id="nav" transform="translate(-5 1)">
        <circle id="Ellipse_4" data-name="Ellipse 4" cx="6" cy="6" r="6" transform="translate(22 315)" fill="#414141"/>
        <circle id="Ellipse_5" data-name="Ellipse 5" cx="6" cy="6" r="6" transform="translate(54 357)" fill="#dedede"/>
        <circle id="Ellipse_6" data-name="Ellipse 6" cx="6" cy="6" r="6" transform="translate(69 415)" fill="#dedede"/>
        <circle id="Ellipse_7" data-name="Ellipse 7" cx="6" cy="6" r="6" transform="translate(52 473)" fill="#dedede"/>
        <circle id="Ellipse_10" data-name="Ellipse 10" cx="6" cy="6" r="6" transform="translate(22 515)" fill="#dedede"/>
      </g>
    </g>
    <g id="главная">
      <g id="logo" transform="translate(-733.086 -655.052)">
        <g id="_1" data-name="1" transform="translate(849.159 729.228)">
          <path id="Path_1" data-name="Path 1" d="M1535.186,539.228l85.621,13.886L1579.5,631.6l-1.959-60.827Z" transform="translate(-1535.186 -539.228)" fill="#0e6eff"/>
          <path id="Path_15" data-name="Path 15" d="M1628.492,600.631l12.763-24.069-38.815,9.82,1.063,30.625Z" transform="translate(-1560.824 -553.296)" fill="#0a87ff"/>
          <path id="Path_14" data-name="Path 14" d="M1604.967,659.764l24.387-46.219-25.291,16.588Z" transform="translate(-1560.965 -567.397)" fill="#079eff"/>
        </g>
        <g id="_2-2" data-name="2" transform="translate(834.78 754.47)">
          <path id="Path_10" data-name="Path 10" d="M1594.535,667.845l13.627-41.791L1593.3,659.111Z" transform="translate(-1541.627 -597.12)" fill="#073dd3"/>
          <path id="Path_11" data-name="Path 11" d="M1591.127,643.468l-4.1-32.645,25.03-29.854h3.169L1604.6,613.9Z" transform="translate(-1539.379 -580.969)" fill="#ff5e0e"/>
          <path id="Path_12" data-name="Path 12" d="M1580.66,602.452l1.24,8.407,25.047-29.891-9.864.217-24.35,17.869Z" transform="translate(-1534.258 -580.969)" fill="url(#linear-gradient)"/>
          <path id="Path_13" data-name="Path 13" d="M1551.338,599.189l-38.557-17.554,62.757-.306Z" transform="translate(-1512.78 -581.098)" fill="#ffd312"/>
        </g>
        <g id="_3" data-name="3" transform="translate(846.383 787.108)">
          <path id="Path_4" data-name="Path 4" d="M1552.193,634.761l9.352,7.014,19.333-8.874.233-1.074Z" transform="translate(-1538.503 -631.827)" fill="#e0e81c"/>
          <path id="Path_5" data-name="Path 5" d="M1565.469,645.577l.842-3.309,19.358-8.953-1.339,5.132-15.8,8.367Z" transform="translate(-1543.259 -632.36)" fill="#0e76fe"/>
          <path id="Path_6" data-name="Path 6" d="M1569.359,649.215l16.465-8.543-8.413,36.443-5.476-26.817Z" transform="translate(-1544.652 -634.995)" fill="#079eff"/>
          <path id="Path_7" data-name="Path 7" d="M1549.386,643.383l-5.029-6.5,5.029-.489,9.36,6.985-.7,3.353Z" transform="translate(-1535.696 -633.465)" fill="url(#linear-gradient-2)"/>
          <path id="Path_8" data-name="Path 8" d="M1537.609,637.625l4.793-.547,4.567,6.549-7.886-3.036Z" transform="translate(-1533.278 -633.708)" fill="#db6627"/>
          <path id="Path_9" data-name="Path 9" d="M1530.861,638.561l4.431-.611,1.374,2.95Z" transform="translate(-1530.861 -634.02)" fill="#0037de"/>
        </g>
      </g>
      <text id="Молодежь_-_это_будущее_Казахстана_" data-name="Молодежь - это 
будущее Казахстана
" transform="translate(110 334)" fill="#fff" font-size="75" font-family="Panton-Bold, Panton" font-weight="700" letter-spacing="0.025em"><tspan x="0" y="71">Молодежь - это </tspan><tspan x="0" y="156">будущее Казахстана</tspan><tspan x="0" y="241"></tspan></text>
      <g id="undraw_young_and_happy_hfpe" transform="translate(765.96 231.783)">
        <path id="Path_16" data-name="Path 16" d="M516.688,141.893c-44.779-1.847-87.427-19.006-128.152-37.783S307.446,64.528,263.76,54.577c-28.111-6.4-60.257-7.3-82.93,10.59-21.795,17.221-28.838,46.942-32.623,74.525-2.851,20.749-4.525,42.588,3.28,62.011,5.418,13.486,15.042,24.825,21.7,37.741,23.158,44.949,6.787,100.371-18.3,144.265-11.762,20.582-25.427,40.227-34.512,62.143s-13.284,47.026-5.334,69.379c7.874,22.159,26.645,38.8,46.979,50.512,41.3,23.777,89.946,30.554,137.416,34.436,105.043,8.527,210.653,4.861,315.98,1.139,38.974-1.389,78.128-2.778,116.473-9.916,21.3-3.972,43.278-10.277,58.735-25.506,19.629-19.326,24.493-52.081,11.34-76.288-22.057-40.651-83.027-50.748-98.463-94.378-8.483-24.013.228-50.762,12.565-73.032,26.451-47.776,70.8-89.691,73.133-144.3,1.605-37.5-19.712-75.066-52.674-92.808-34.546-18.6-82.459-16.263-107.935,14.527C602.351,131.324,556.23,143.525,516.688,141.893Z" transform="translate(-75.963 -51.39)" fill="rgba(255,255,255,0.74)"/>
        <path id="Path_18" data-name="Path 18" d="M345.684,653.876s-.359,34.2-3.961,38.847-22.437.214-22.437.214l1.382-37.582a61.837,61.837,0,0,1-2.986-20.446c0-1.811.09-3.456.194-4.79.2-2.765.477-4.4.477-4.4l-9.1-29.847c-.85-9.746-12.49-29.032-12.49-29.032s.636,26.674,2.965,32.813,2.765,30.269,2.765,30.269,6.352,30.912,6.774,32.819,5.716,10.583,5.716,10.583-1.058,10.583.214,12.49,6.56,16.728,5.288,19.479-24.131-1.064-24.131-3.18c0-1.113-1.659-6.034-3.228-10.417l-1.009-2.806c-.954-2.606-1.694-4.555-1.694-4.555s-8.82-21.469-13.431-37.527c-.194-.691-.373-1.327-.553-1.97-.207-.76-.4-1.5-.581-2.226a59.431,59.431,0,0,1-1.458-7.327,14.694,14.694,0,0,1-.062-3.663c1.479-9.954-8.046-32.391-8.046-32.391s-10.8-34.3-12.7-35.992-4.237-18.2-5.081-25.4c-.194-1.687-.532-3.788-.94-6.021-.138-.795-.29-1.6-.442-2.419-1.293-6.67-2.882-13.576-2.882-13.576l23.744-15.67,62.452-6.774s1.742,13.382,3.933,28.133c.152,1.023.311,2.074.47,3.1,2.074,13.866,4.514,28.216,6.18,33.331,3.594,11.011,3.594,43.824,4.659,60.545A344.121,344.121,0,0,1,345.684,653.876Z" transform="translate(-128.036 -184.626)" fill="#414458"/>
        <path id="Path_19" data-name="Path 19" d="M222.54,470.656l7.859,40.126h3.733l-7.465-41.522Z" transform="translate(-66.298 -143.278)" opacity="0.1"/>
        <path id="Path_20" data-name="Path 20" d="M248.892,540.765c-.138-.795-.29-1.6-.442-2.419,3.657-.747,11.931-3.795,10.645-16.016h2.537S264.037,538.429,248.892,540.765Z" transform="translate(-129.455 -194.556)" opacity="0.1"/>
        <path id="Path_21" data-name="Path 21" d="M361.94,533.379c-4.742.871-19.562,3.422-22.665,1.735-3.7-2.011-7.355-12.912-7.355-12.912l3.387-.532s-2.986,15.988,26.163,8.606C361.622,531.3,361.781,532.336,361.94,533.379Z" transform="translate(-155.062 -194.368)" opacity="0.1"/>
        <path id="Path_22" data-name="Path 22" d="M336.45,513.654c-4.272,2.482-14.3,3.677-25.976,4.147-1.065.041-2.136.083-3.228.111-18.926.594-41.024-.477-49.831-.982-2.482-.138-3.905-.235-3.905-.235l7.728-5.343,12.7-4.659,26.723-5.24,34.243-.954.346,2.938Z" transform="translate(-130.895 -187.89)" fill="#33363d"/>
        <path id="Path_23" data-name="Path 23" d="M331.989,518.811c-1.064.042-2.136.083-3.228.111-1.341-5.682-5.571-14.765-5.571-14.765l3.594-.477Z" transform="translate(-152.378 -188.868)" fill="#63667e"/>
        <path id="Path_24" data-name="Path 24" d="M114.864,535.518s-1.493,1.728-3.788,4.064c-6.968,7.085-21.311,19.741-23.757,6.733C84.781,532.829,96.221,524.2,101.4,521c1.465-.906,2.426-1.382,2.426-1.382Z" transform="translate(-79.59 -193.687)" fill="#fbbfbf"/>
        <path id="Path_25" data-name="Path 25" d="M283.669,313.781s-8.094-5.081-9.6-4.6,0,7.292,0,7.292a19.811,19.811,0,0,1-8.813,8.585,123.886,123.886,0,0,0-12.546,7.534,22.486,22.486,0,0,0-17.281,5.716,13.824,13.824,0,0,1-11.191,1.908c-6.276-1.742-6.587-10.313-5.716-13.569.691-2.558,11.156-9.193,15.663-11.958h0c1.244-.76,2.032-1.223,2.032-1.223s20.336-.691,24.926-9.366a16.942,16.942,0,0,1,6.1-6.525h0l.118-.062.581-.346.187-.1a18.284,18.284,0,0,1,6.912-2.171C284.968,301.235,283.669,313.781,283.669,313.781Z" transform="translate(-120.103 -125.036)" fill="#ced7e7"/>
        <path id="Path_26" data-name="Path 26" d="M283.669,313.781s-8.094-5.081-9.6-4.6,0,7.292,0,7.292a19.811,19.811,0,0,1-8.813,8.585,123.886,123.886,0,0,0-12.546,7.534,22.486,22.486,0,0,0-17.281,5.716,13.824,13.824,0,0,1-11.191,1.908c-6.276-1.742-6.587-10.313-5.716-13.569.691-2.558,11.156-9.193,15.663-11.958h0c1.244-.76,2.032-1.223,2.032-1.223s20.336-.691,24.926-9.366a16.942,16.942,0,0,1,6.1-6.525h0l.118-.062.581-.346.187-.1a18.284,18.284,0,0,1,6.912-2.171C284.968,301.235,283.669,313.781,283.669,313.781Z" transform="translate(-120.103 -125.036)" fill="#f5e50d" opacity="0.1"/>
        <path id="Path_27" data-name="Path 27" d="M335.267,503.5h0c-3.809-3.6-27.518,2.958-27.518,2.958s-16.327,4.687-28.783,5.447a47.047,47.047,0,0,1-5.094.062c-5.233-.27-10.686,1.846-15.262,4.382l-1.154.691c-2.482-.138-3.905-.235-3.905-.235l7.728-5.343,12.7-4.659,26.723-5.24,34.243-.954Z" transform="translate(-130.908 -187.927)" opacity="0.1"/>
        <path id="Path_28" data-name="Path 28" d="M117.527,539.583c1.583-10.548-6.6-16.679-9.677-18.58,1.465-.906,2.426-1.382,2.426-1.382l11.06,15.9S119.822,537.246,117.527,539.583Z" transform="translate(-86.041 -193.724)" opacity="0.1"/>
        <path id="Path_29" data-name="Path 29" d="M379.584,332.563s-16.942,2.074-23.709,11-21.387,8.046-21.387,8.046-12.7,6.774-25.4,7.2c-7.541.249-11.06,2.143-12.663,3.643a28.374,28.374,0,0,1-4.244,3.366A12.533,12.533,0,0,0,285.9,378.4a130.147,130.147,0,0,1,.726,14.018c-.152,13.133,2.136,36.041,2.136,36.041s5.081,19.9,1.265,16.306-27.518,2.958-27.518,2.958-16.327,4.687-28.783,5.454a46.977,46.977,0,0,1-5.094.055c-5.233-.27-10.686,1.846-15.262,4.389a62.059,62.059,0,0,0-10.984,7.887c-4.051-10.044-2.364-22.963-1.037-29.64a18.836,18.836,0,0,0-.47-9.276l-6.117-19.617s-13.334,4.548-19.686,16.4S139.721,458.1,134,459.583a8.784,8.784,0,0,0-5.364,4.763,21.961,21.961,0,0,1-5.606,7.064,27.012,27.012,0,0,0-5.53,6.38c3.816-14.4-10.368-21.387-10.368-21.387s5.71-1.908,8.039-9.511S128.3,431.443,128.3,431.443s11.011-19.479,17.364-22.658,17.785-18.414,17.785-18.414c2.323-17.149,13.133-26.039,13.133-26.039s11.861-5.081,13.133-9.276a41.931,41.931,0,0,1,3.629-7c1.617-2.723,3.456-5.62,4.942-7.88s2.654-4,2.654-4l19.009-.18,3.456-.035,10.126-19.064s3.6-3.594,9.843.636a10.016,10.016,0,0,0,6.083,1.673,17.62,17.62,0,0,0,8-2.516c24.138-6.567,34.3,5.862,34.3,5.862s16.721-1.417,17.564,0,9.525,0,9.525,0l23.08-2.267,35.571-5.71Z" transform="translate(-85.819 -130.767)" fill="#00afca"/>
        <path id="Path_30" data-name="Path 30" d="M279.837,318.231l-10.8,17.778s-29.426,21.387-25.188,4.659a27.933,27.933,0,0,0,.726-8.606c-.062-1.127-.194-2.253-.359-3.366a54.607,54.607,0,0,0-4.037-13.375c-.214-.512-.435-1-.691-1.486-.332-.691-.657-1.382-.982-2.032a67.561,67.561,0,0,0-4.638-7.97s31.969-26.039,33.027-9.739a33.359,33.359,0,0,0,2.488,10.707l.249.574a33.227,33.227,0,0,0,7.527,10.666A22.51,22.51,0,0,0,279.837,318.231Z" transform="translate(-124.953 -123.134)" fill="#f1acac"/>
        <path id="Path_31" data-name="Path 31" d="M238.51,345.694l4.977,14.813,20.246,3.283,11.613-12.774s6.67-9.525,7.092-9.739,1.479-9.311,1.479-9.311l1.244-5.143-7.832-2.634-11.011,11.958-4.5,2.765-5,1.217-16.589,4.839Z" transform="translate(-126.386 -133.992)" fill="#00afca"/>
        <path id="Path_32" data-name="Path 32" d="M287.882,315.624s-5.53-.055-7,.422a6.033,6.033,0,0,0-2.6,2.26,19.8,19.8,0,0,1-8.813,8.592,123.9,123.9,0,0,0-12.546,7.534,22.458,22.458,0,0,0-17.281,5.716,14.094,14.094,0,0,1-7.832,2.392c1.617-2.723,3.456-5.62,4.942-7.88,6.829-.747,21.283-3.394,21.283-3.394l.38-.788c1.341-2.765,5.882-12.1,7.555-14.924,1.949-3.29,8.06-13.569,8.253-13.894l-6,5.488,3.207-7.728h0l.118-.062.581-.346.187-.1a18.283,18.283,0,0,1,6.912-2.17c7.569,4.839,8.647,13.2,8.73,16.97a16.894,16.894,0,0,1-.076,1.915Z" transform="translate(-124.317 -125.6)" opacity="0.1"/>
        <path id="Path_33" data-name="Path 33" d="M241.082,321.688l1.569,3.456s-.131.111-.408.318c-.214-.511-.435-1-.691-1.486-.332-.691-.657-1.382-.982-2.032.166-.1.318-.2.47-.283Z" transform="translate(-127.022 -133.281)" opacity="0.1"/>
        <path id="Path_34" data-name="Path 34" d="M281.812,323.476a21.11,21.11,0,0,1-7.085,5.841,123.232,123.232,0,0,0-12.546,7.541A22.465,22.465,0,0,0,249.2,339.5c-.062-1.127-.194-2.253-.359-3.366,6.8-1.051,14.454-2.454,14.454-2.454s5.958-12.38,7.935-15.712c.691-1.12,1.825-3.076,3.055-5.157a33.227,33.227,0,0,0,7.527,10.666Z" transform="translate(-129.465 -130.54)" opacity="0.1"/>
        <path id="Path_35" data-name="Path 35" d="M283.669,313.8s-5.53-.055-7.009.422a5.947,5.947,0,0,0-2.592,2.267,19.811,19.811,0,0,1-8.813,8.585,123.892,123.892,0,0,0-12.546,7.534,22.485,22.485,0,0,0-17.281,5.716,13.824,13.824,0,0,1-11.191,1.908c-6.276-1.742-6.587-10.313-5.716-13.569.691-2.558,11.156-9.193,15.663-11.958h0l1.569,3.491a97.967,97.967,0,0,1-10.251,6.878c-6.753,4.044-3.339,8.412-3.339,8.412a34.894,34.894,0,0,1,7.362-.484c3.5.235,24.3-3.574,24.3-3.574s5.958-12.387,7.935-15.712,8.06-13.569,8.253-13.894l-6,5.53,3.207-7.728h0l.118-.062.581-.346.187-.1a18.283,18.283,0,0,1,6.912-2.17C284.968,301.251,283.669,313.8,283.669,313.8Z" transform="translate(-120.103 -125.051)" fill="#00afca"/>
        <path id="Path_36" data-name="Path 36" d="M269.413,304.814a24.152,24.152,0,0,1-29.923,9.021,70.164,70.164,0,0,0-5.62-10s31.969-26.039,33.027-9.739A33.359,33.359,0,0,0,269.413,304.814Z" transform="translate(-124.953 -123.184)" opacity="0.1"/>
        <path id="Path_37" data-name="Path 37" d="M268.386,280.4q0,.906-.062,1.783a24.193,24.193,0,1,1,.062-1.783Z" transform="translate(-120.67 -113.238)" fill="#fbbfbf"/>
        <path id="Path_38" data-name="Path 38" d="M199.31,403.69s5.316,9.947,11.855,15.421,10.368,13.977,10.368,13.977S219.632,416.6,199.31,403.69Z" transform="translate(-114.282 -158.29)" opacity="0.1"/>
        <path id="Path_39" data-name="Path 39" d="M187.36,438.905s18.663-4.659,28.057,0Z" transform="translate(-110.592 -168.478)" opacity="0.1"/>
        <path id="Path_40" data-name="Path 40" d="M177.56,476.912,197.64,470S184.776,479.207,177.56,476.912Z" transform="translate(-107.566 -178.599)" opacity="0.1"/>
        <path id="Path_41" data-name="Path 41" d="M127.33,519.14s8.682-.422,11.433,2.329C138.763,521.469,130.3,522.1,127.33,519.14Z" transform="translate(-92.056 -193.62)" opacity="0.1"/>
        <path id="Path_42" data-name="Path 42" d="M411.329,325.41S391.864,336.967,391,355.6Z" transform="translate(-173.268 -134.382)" opacity="0.1"/>
        <path id="Path_43" data-name="Path 43" d="M436.178,350.7s-24.138,4.873-28.161,7.41-12.7,3.809-12.7,3.809S430.248,357.267,436.178,350.7Z" transform="translate(-174.592 -142.141)" opacity="0.1"/>
        <path id="Path_44" data-name="Path 44" d="M318.156,481.679c-1.756,1.825-23.426,6.968-42.794,11.267a48.7,48.7,0,0,1-5.281.062c-5.426-.276-11.06,1.9-15.829,4.514-5.848,1.244-9.629,2.025-9.629,2.025s-6.366-5.018,2.412-16.348,10.32-29.2,10.32-29.2l39.082-10s10.541,14.516,15.587,16.845S321.405,478.319,318.156,481.679Z" transform="translate(-127.472 -170.532)" opacity="0.1"/>
        <path id="Path_45" data-name="Path 45" d="M317.36,482.872c-1.7,1.783-22.6,6.774-41.273,10.956a46.969,46.969,0,0,1-5.094.055c-5.233-.27-10.686,1.846-15.262,4.389-5.64,1.2-9.29,1.963-9.29,1.963s-6.138-4.873,2.329-15.9,9.947-28.375,9.947-28.375L296.4,446.23s10.161,14.1,15.027,16.368S320.47,479.616,317.36,482.872Z" transform="translate(-128.057 -171.217)" fill="#00afca"/>
        <path id="Path_46" data-name="Path 46" d="M300.228,699.6l-10.88,6.442a59.442,59.442,0,0,1-1.458-7.327C289.473,700.04,300.228,699.6,300.228,699.6Z" transform="translate(-141.5 -248.03)" opacity="0.1"/>
        <path id="Path_47" data-name="Path 47" d="M290.86,710.632c3.843-.733,12.967-2.558,17.972-4.272-4.534,2.212-12.739,5.91-17.4,6.221C291.219,711.938,291.04,711.275,290.86,710.632Z" transform="translate(-142.414 -250.389)" opacity="0.1"/>
        <path id="Path_48" data-name="Path 48" d="M320.07,704a8.4,8.4,0,0,1-3.2,1.6C318.812,704.691,320.07,704,320.07,704Z" transform="translate(-150.431 -249.66)" opacity="0.1"/>
        <path id="Path_49" data-name="Path 49" d="M325.609,779.5a72.489,72.489,0,0,1-11.06-.463l-1.009-2.806c3.173.339,9.47.871,12.069.1C329.155,775.279,330.219,779.136,325.609,779.5Z" transform="translate(-149.403 -271.937)" opacity="0.1"/>
        <path id="Path_50" data-name="Path 50" d="M364.582,697.013c-.511-.069-8.737-1-14.032-1.023,0-1.811.09-3.456.194-4.79C354.393,692.741,364.036,696.827,364.582,697.013Z" transform="translate(-160.806 -245.708)" opacity="0.1"/>
        <path id="Path_51" data-name="Path 51" d="M341.557,817.1c-.954,3.933-16.354,3.242-16.354,3.242l-1.272,1.687s-5.924,2.17-10.368.9-17.972-1-17.972-1v-4.348c0-5.661,6.352-7.514,6.352-7.514s5.343-4.445,7.2-8.944a67.046,67.046,0,0,1,4.016-8.094s-4.97-6.034,8.364-7.6c13.133-1.521,7.984,10.4,7.839,10.735.214-.194,5.143-4.624,7.88-3.228,1.977,1.016,3.767,10.638,4.327,17.606A25.878,25.878,0,0,1,341.557,817.1Z" transform="translate(-143.866 -274.759)" fill="#ced7e7"/>
        <path id="Path_52" data-name="Path 52" d="M341.557,828.389c-.954,3.933-16.354,3.242-16.354,3.242l-1.272,1.687s-5.924,2.17-10.368.9-17.972-1-17.972-1v-4.147c8.143.4,24.442.94,28.105-.947,0,0,4.389-1.113,5.4-1.852.85-.629,9.795-3.553,12.442-4.417A24.76,24.76,0,0,1,341.557,828.389Z" transform="translate(-143.866 -286.049)" opacity="0.1"/>
        <path id="Path_53" data-name="Path 53" d="M391.405,810.856C377.38,812.39,370.074,809,370.074,809a9.442,9.442,0,0,1-4.389-6.56c-.74-4.6-7.783-9.255-7.783-9.255s-8.675.843-9.739-1.7a11.466,11.466,0,0,1-.29-3.3c0-6.822,1.707-21.151,3.677-20.944,2.323.256,9.5,9.767,10.223,10.721-.629-1.023-6.878-11.675,6.981-12.94,0,0,11.322-6.4,10.161,8.523l4.763,10.265s9.373,13.824,11.7,13.341c1.113-.228,3.456,2.537,4.078,5.661C400.122,806.218,398.732,810.054,391.405,810.856Z" transform="translate(-159.966 -268.08)" fill="#ced7e7"/>
        <path id="Path_54" data-name="Path 54" d="M255.176,270.711c0,.6,1.465,3.106,1.424,3.691l-16.8-1.493,3.816,1.493c-.383.164,10.185-3.71,9.769-3.691-.659-.027.384-1.78,0-2.316-.327-.5-7.213,3.314-7.342,2.73l14.177,3.276c-.346-1.313-.878-2.827-2.35-3.318a9.242,9.242,0,0,1-1.265-.373c-.919-.435-1.113-1.458-1.424-2.316-.691-2-2.537-3.594-4.534-4.839a8.184,8.184,0,0,0-4.6-1.479,3.988,3.988,0,0,0-2.426.871c-1.445,1.223-1.244,2.876-1.071,4.617s.636,3.6.124,5.343a19.844,19.844,0,0,0-1.217,3.366c-.111.947.2,1.908.145,2.855-.022,1.053.885-4.946-.145-4.728-.09-.574-2.578,6.138-3.138,5.827s.246-2.712,0-3.456c-.165-.463-1.309.7-1.279,0,.1-1.88.187-3.767.276-5.647-.558,4.205,3.656-4.078,2.488,0-.144.709,2.133-.955,1.652-.415a3.821,3.821,0,0,1-3.138.415c-.428-.27,4.378-5.233,4.23-5.717-.883-2.19-9.082-.119-8.779-2.461-.767,3.062-5.516,21.027-7,23.9a4.32,4.32,0,0,1-2.924,2.606,5.012,5.012,0,0,0-1.3.214,1.528,1.528,0,0,0-.449.325,24.072,24.072,0,0,1,4.766-26.412,24.456,24.456,0,0,1,26.521-5.436c9.064,3.693,1.762,2.769,1.789,12.556Z" transform="translate(-120.698 -113.29)" fill="#2f2e41"/>
        <path id="Path_56" data-name="Path 56" d="M391.405,821.812c-14.025,1.534-21.331-1.859-21.331-1.859a9.442,9.442,0,0,1-4.389-6.56c-.74-4.6-7.783-9.255-7.783-9.255s-8.675.843-9.739-1.7a11.466,11.466,0,0,1-.29-3.3c3.207.767,10.6,2.53,12.884,3.187,2.972.843,11.654,14.924,11.654,14.924,8.357,4.4,22.188-1.244,27.041-3.456C400.122,817.174,398.732,821.01,391.405,821.812Z" transform="translate(-159.966 -279.037)" opacity="0.1"/>
        <path id="Path_57" data-name="Path 57" d="M320.835,796.48s-4.272,6.553,16.2,3.166" transform="translate(-151.536 -278.215)" opacity="0.1"/>
        <path id="Path_58" data-name="Path 58" d="M368,782.377s21.594,4.693,17.142-4.417" transform="translate(-166.182 -272.497)" opacity="0.1"/>
        <path id="Path_74" data-name="Path 74" d="M521.321,767.612H440.8a6.726,6.726,0,0,1-6.691-7.514l19.6-166.586.408-3.518a6.733,6.733,0,0,1,6.684-5.944H503.08a6.733,6.733,0,0,1,6.691,6.014l.353,3.339,17.9,166.759a6.733,6.733,0,0,1-6.7,7.451Z" transform="translate(-186.508 -212.623)" fill="#4e5a86"/>
        <path id="Path_75" data-name="Path 75" d="M466.747,612.464s2.958,75.572-8.468,104.375c0,0,1.189,6.138,4.4,0s14.225-70.077,8.931-103.311C471.614,613.521,470.529,609.92,466.747,612.464Z" transform="translate(-193.999 -221.115)" opacity="0.1"/>
        <path id="Path_76" data-name="Path 76" d="M487.267,612.464s2.958,75.572-8.468,104.375c0,0,1.189,6.138,4.4,0s14.225-70.077,8.931-103.311C492.134,613.521,491.076,609.92,487.267,612.464Z" transform="translate(-200.321 -221.115)" opacity="0.1"/>
        <path id="Path_77" data-name="Path 77" d="M538.183,612.464s-2.965,75.572,8.468,104.375c0,0-1.2,6.138-4.41,0S528,646.756,533.289,613.521C533.289,613.521,534.353,609.92,538.183,612.464Z" transform="translate(-216.675 -221.115)" opacity="0.1"/>
        <path id="Path_78" data-name="Path 78" d="M517.641,612.464s-2.965,75.572,8.468,104.375c0,0-1.2,6.138-4.41,0s-14.219-70.084-8.931-103.318C512.768,613.521,513.832,609.92,517.641,612.464Z" transform="translate(-210.351 -221.115)" opacity="0.1"/>
        <rect id="Rectangle_1" data-name="Rectangle 1" width="38.266" height="333.883" transform="translate(276.017 13.423)" fill="#4e5a86"/>
        <path id="Path_79" data-name="Path 79" d="M356.94,385.76Z" transform="translate(-107.712 -117.883)" fill="none" stroke="#c1272d" stroke-miterlimit="10" stroke-width="1"/>
        <path id="Path_80" data-name="Path 80" d="M518.9,593.432a5.158,5.158,0,0,1-1.32.173h-54.3a5.01,5.01,0,0,1-.795-.062l.408-3.518a6.733,6.733,0,0,1,6.684-5.945h42.275a6.732,6.732,0,0,1,6.691,6.014Z" transform="translate(-195.28 -213.448)" opacity="0.1"/>
        <rect id="Rectangle_2" data-name="Rectangle 2" width="38.66" height="6.67" transform="translate(276.018 342.226)" opacity="0.1"/>
        <rect id="Rectangle_3" data-name="Rectangle 3" width="64.464" height="35.246" rx="8" transform="translate(262.916 343.592)" fill="#4e5a86"/>
        <rect id="Rectangle_4" data-name="Rectangle 4" width="5.502" height="318.006" transform="translate(278.579 13.423)" opacity="0.1"/>
        <rect id="Rectangle_5" data-name="Rectangle 5" width="5.502" height="318.006" transform="translate(287.795 13.423)" opacity="0.1"/>
        <rect id="Rectangle_6" data-name="Rectangle 6" width="5.502" height="318.006" transform="translate(297.011 13.423)" opacity="0.1"/>
        <rect id="Rectangle_7" data-name="Rectangle 7" width="5.502" height="318.006" transform="translate(306.233 13.423)" opacity="0.1"/>
        <path id="Path_81" data-name="Path 81" d="M529.188,300.212s-12.594-3.919-10.686,9.947,6.774,14.716,6.774,14.716,4.23-.954,4.763-6.456S529.188,300.212,529.188,300.212Z" transform="translate(-212.495 -126.538)" fill="#fbbfbf"/>
        <g id="Group_2" data-name="Group 2" transform="translate(527.555 511.056) rotate(-45)" opacity="0.1">
          <path id="Path_82" data-name="Path 82" d="M921.546,721.042c10.6,15.642,7.209,71.646,7.209,71.646s-53.224-17.626-63.856-33.269a34.225,34.225,0,1,1,56.681-38.377Z" transform="translate(-859.011 -706.001)" fill="#6c63ff"/>
          <path id="Path_83" data-name="Path 83" d="M921.546,721.042c10.6,15.642,7.209,71.646,7.209,71.646s-53.224-17.626-63.856-33.269a34.225,34.225,0,1,1,56.681-38.377Z" transform="translate(-859.011 -706.001)" opacity="0.1"/>
          <path id="Path_84" data-name="Path 84" d="M881.05,714.6s39.911,30.815,54.718,80.784" transform="translate(-865.816 -708.656)" fill="none" stroke="#535461" stroke-miterlimit="10" stroke-width="1"/>
          <path id="Path_85" data-name="Path 85" d="M967.715,770s-28.34-4.839-8.986,42.1c0,0,19.693-7.5,21.228-26.177A14.9,14.9,0,0,0,968.1,770.08Z" transform="translate(-887.713 -725.718)" fill="#6c63ff"/>
          <path id="Path_86" data-name="Path 86" d="M971.173,770s5.4,25.963-9.373,42.165" transform="translate(-890.75 -725.762)" fill="none" stroke="#535461" stroke-miterlimit="10" stroke-width="1"/>
        </g>
        <g id="Group_3" data-name="Group 3" transform="translate(315.314 81.075)" opacity="0.1">
          <path id="Path_87" data-name="Path 87" d="M526.05,535.333S568.616,426.81,649.994,385.758c34.16-17.225,62.252-44.515,79.249-78.8A297.221,297.221,0,0,0,748.75,256.25" transform="translate(-514.023 -190.029)" fill="none" stroke="#535461" stroke-miterlimit="10" stroke-width="2"/>
          <path id="Path_88" data-name="Path 88" d="M898.8,200.492C890.4,211.324,846.42,227.5,846.42,227.5s4.77-46.616,13.175-57.441a24.813,24.813,0,1,1,39.21,30.417Z" transform="translate(-612.945 -160.449)" fill="#6c63ff"/>
          <path id="Path_89" data-name="Path 89" d="M875.521,319.985c-12.94,4.521-58.651-5.806-58.651-5.806s29.343-36.531,42.282-41.052a24.817,24.817,0,0,1,16.368,46.858Z" transform="translate(-603.82 -194.81)" fill="#6c63ff"/>
          <path id="Path_90" data-name="Path 90" d="M763.265,466.325c-13.458-2.627-47.695-34.617-47.695-34.617s43.776-16.728,57.227-14.094a24.817,24.817,0,1,1-9.525,48.711Z" transform="translate(-572.542 -239.768)" fill="#6c63ff"/>
          <path id="Path_91" data-name="Path 91" d="M647.318,557.062C633.618,556.744,594.46,531,594.46,531s40.312-23.882,54.019-23.564a24.818,24.818,0,0,1-1.161,49.623Z" transform="translate(-535.146 -267.589)" fill="#6c63ff"/>
          <path id="Path_92" data-name="Path 92" d="M754.889,277.365c1.908,13.569,32.018,49.471,32.018,49.471s19.043-42.815,17.135-56.39a24.82,24.82,0,1,0-49.156,6.92Z" transform="translate(-584.606 -187.816)" fill="#6c63ff"/>
          <path id="Path_93" data-name="Path 93" d="M622.342,382.224c5.882,12.394,45.324,37.63,45.324,37.63s5.364-46.554-.525-58.934a24.815,24.815,0,0,0-44.826,21.3Z" transform="translate(-543.003 -217.974)" fill="#6c63ff"/>
          <path id="Path_94" data-name="Path 94" d="M509.583,506.622c3.7,13.2,38.349,44.757,38.349,44.757s13.133-44.978,9.442-58.174a24.821,24.821,0,1,0-47.794,13.417Z" transform="translate(-508.651 -257.6)" fill="#6c63ff"/>
        </g>
        <g id="Group_4" data-name="Group 4" transform="translate(296.629 117.248)" opacity="0.1">
          <path id="Path_95" data-name="Path 95" d="M515.86,332.185s15.38-39.213,44.778-54.033a63.842,63.842,0,0,0,28.631-28.465,107.316,107.316,0,0,0,7.051-18.318" transform="translate(-511.332 -206.92)" fill="none" stroke="#535461" stroke-miterlimit="10" stroke-width="2"/>
          <path id="Path_96" data-name="Path 96" d="M650.546,211c-3.041,3.912-18.926,9.753-18.926,9.753s1.721-16.838,4.763-20.737A8.986,8.986,0,1,1,650.546,211Z" transform="translate(-547.075 -195.998)" fill="#6c63ff"/>
          <path id="Path_97" data-name="Path 97" d="M642.116,254.316c-4.673,1.631-21.186-2.074-21.186-2.074s10.6-13.2,15.269-14.834a8.986,8.986,0,1,1,5.917,16.928Z" transform="translate(-543.775 -208.563)" fill="#6c63ff"/>
          <path id="Path_98" data-name="Path 98" d="M601.555,307.273c-4.839-.954-17.225-12.511-17.225-12.511s15.808-6.041,20.668-5.087a8.986,8.986,0,1,1-3.456,17.6Z" transform="translate(-532.473 -224.891)" fill="#6c63ff"/>
          <path id="Path_99" data-name="Path 99" d="M559.672,340.05c-4.949-.118-19.092-9.415-19.092-9.415s14.564-8.633,19.513-8.516a8.986,8.986,0,0,1-.422,17.93Z" transform="translate(-518.965 -234.941)" fill="#6c63ff"/>
          <path id="Path_100" data-name="Path 100" d="M598.49,238.714c.691,4.9,11.571,17.875,11.571,17.875s6.912-15.47,6.221-20.37a8.986,8.986,0,1,0-17.758,2.5Z" transform="translate(-536.798 -205.845)" fill="#6c63ff"/>
          <path id="Path_101" data-name="Path 101" d="M550.72,277.125c2.129,4.472,16.389,13.6,16.389,13.6s1.935-16.818-.194-21.29a8.986,8.986,0,0,0-16.2,7.693Z" transform="translate(-521.902 -217.256)" fill="#6c63ff"/>
          <path id="Path_102" data-name="Path 102" d="M509.828,321.609c1.341,4.763,13.825,16.168,13.825,16.168s4.8-16.251,3.415-21.02a8.986,8.986,0,1,0-17.281,4.839Z" transform="translate(-509.309 -231.112)" fill="#6c63ff"/>
        </g>
        <g id="Group_5" data-name="Group 5" transform="translate(432.495 405.703)" opacity="0.1">
          <path id="Path_103" data-name="Path 103" d="M703.25,792.984s.65-42.11,22.983-66.3a63.772,63.772,0,0,0,16.838-36.69,107.411,107.411,0,0,0,.173-19.631" transform="translate(-685.948 -643.976)" fill="none" stroke="#535461" stroke-miterlimit="10" stroke-width="2"/>
          <path id="Path_104" data-name="Path 104" d="M773.557,643.25c-1.472,4.707-14.3,15.767-14.3,15.767s-4.286-16.382-2.813-21.11a8.986,8.986,0,0,1,17.115,5.336Z" transform="translate(-702.277 -632.19)" fill="#6c63ff"/>
          <path id="Path_105" data-name="Path 105" d="M780.808,685.524c-3.809,3.166-20.578,5.468-20.578,5.468s5.295-16.078,9.1-19.251a8.986,8.986,0,0,1,11.474,13.783Z" transform="translate(-703.542 -643.87)" fill="#6c63ff"/>
          <path id="Path_106" data-name="Path 106" d="M759.833,748.988c-4.887.816-20.523-5.668-20.523-5.668s12.691-11.2,17.571-12.02a8.986,8.986,0,0,1,2.952,17.689Z" transform="translate(-697.082 -662.779)" fill="#6c63ff"/>
          <path id="Path_107" data-name="Path 107" d="M732.536,794.207c-4.68,1.624-21.186-2.122-21.186-2.122s10.645-13.154,15.318-14.813a8.986,8.986,0,1,1,5.869,16.935Z" transform="translate(-688.449 -676.76)" fill="#6c63ff"/>
          <path id="Path_108" data-name="Path 108" d="M733.448,687.892c2.364,4.355,17.1,12.684,17.1,12.684s1.016-16.894-1.382-21.248a8.986,8.986,0,0,0-15.753,8.564Z" transform="translate(-695.009 -645.457)" fill="#6c63ff"/>
          <path id="Path_109" data-name="Path 109" d="M702,740.156c3.56,3.456,20.115,6.981,20.115,6.981s-4.085-16.424-7.645-19.873a8.986,8.986,0,0,0-12.442,12.891Z" transform="translate(-684.875 -660.914)" fill="#6c63ff"/>
          <path id="Path_110" data-name="Path 110" d="M679.575,796.522c2.924,4,18.663,10.285,18.663,10.285s-1.251-16.887-4.147-20.882a8.986,8.986,0,0,0-14.467,10.6Z" transform="translate(-678.219 -678.668)" fill="#6c63ff"/>
        </g>
        <g id="Group_6" data-name="Group 6" transform="matrix(0.883, 0.469, -0.469, 0.883, 366.026, 378.703)" opacity="0.1">
          <path id="Path_111" data-name="Path 111" d="M553.3,783.4s.65-42.116,22.983-66.309a63.773,63.773,0,0,0,16.838-36.69,107.33,107.33,0,0,0,.173-19.624" transform="translate(-535.3 -633.181)" fill="none" stroke="#535461" stroke-miterlimit="10" stroke-width="2"/>
          <path id="Path_112" data-name="Path 112" d="M623.607,633.12c-1.472,4.728-14.3,15.774-14.3,15.774s-4.286-16.375-2.813-21.1a8.986,8.986,0,1,1,17.115,5.329Z" transform="translate(-551.629 -620.852)" fill="#6c63ff"/>
          <path id="Path_113" data-name="Path 113" d="M630.878,675.947c-3.809,3.173-20.578,5.468-20.578,5.468s5.295-16.078,9.1-19.244a8.986,8.986,0,0,1,11.474,13.776Z" transform="translate(-552.9 -633.085)" fill="#6c63ff"/>
          <path id="Path_114" data-name="Path 114" d="M609.833,739.322c-4.887.809-20.523-5.675-20.523-5.675s12.691-11.2,17.571-12.014a8.986,8.986,0,1,1,2.952,17.688Z" transform="translate(-546.419 -651.897)" fill="#6c63ff"/>
          <path id="Path_115" data-name="Path 115" d="M582.626,784.623c-4.68,1.631-21.186-2.122-21.186-2.122s10.617-13.182,15.29-14.82a8.986,8.986,0,1,1,5.9,16.935Z" transform="translate(-537.814 -665.968)" fill="#6c63ff"/>
          <path id="Path_116" data-name="Path 116" d="M583.205,677.759c2.364,4.355,17.1,12.684,17.1,12.684s1.016-16.894-1.383-21.248a8.986,8.986,0,1,0-15.718,8.564Z" transform="translate(-544.068 -634.109)" fill="#6c63ff"/>
          <path id="Path_117" data-name="Path 117" d="M551.61,730.119c3.56,3.456,20.115,6.988,20.115,6.988s-4.085-16.43-7.645-19.873a8.986,8.986,0,1,0-12.442,12.885Z" transform="translate(-533.769 -649.669)" fill="#6c63ff"/>
          <path id="Path_118" data-name="Path 118" d="M529.313,786.506c2.924,4,18.663,10.285,18.663,10.285s-1.251-16.887-4.147-20.882a8.986,8.986,0,1,0-14.467,10.6Z" transform="translate(-527.26 -667.443)" fill="#6c63ff"/>
        </g>
        <path id="Path_119" data-name="Path 119" d="M477.895,125.191c1.382,4.258-2.364,19.078-2.364,19.078s-11.668-9.864-13.036-14.143a8.094,8.094,0,1,1,15.4-4.935Z" transform="translate(-195.141 -71.642)" fill="#58ff5e" opacity="0.86"/>
        <path id="Path_120" data-name="Path 120" d="M394.94,262.49c1.382,4.258-2.364,19.078-2.364,19.078s-11.682-9.864-13.05-14.122a8.1,8.1,0,1,1,15.414-4.956Z" transform="translate(-169.613 -113.457)" fill="#58ff5e" opacity="0.86"/>
        <path id="Path_121" data-name="Path 121" d="M569.8,202.041c1.382,4.258-2.371,19.078-2.371,19.078S555.754,211.262,554.385,207a8.1,8.1,0,1,1,15.414-4.963Z" transform="translate(-223.489 -94.994)" fill="#58ff5e" opacity="0.86"/>
        <path id="Path_122" data-name="Path 122" d="M660.253,305.67c1.383,4.251-2.364,19.071-2.364,19.071s-11.682-9.857-13.064-14.115a8.093,8.093,0,1,1,15.409-4.957Z" transform="translate(-251.354 -126.646)" fill="#58ff5e" opacity="0.86"/>
        <path id="Path_123" data-name="Path 123" d="M599.2,132.544c-2.274,3.85-15.836,10.894-15.836,10.894s-.38-15.276,1.894-19.126a8.1,8.1,0,1,1,13.942,8.233Z" transform="translate(-232.529 -71.986)" fill="#58ff5e" opacity="0.86"/>
        <path id="Path_124" data-name="Path 124" d="M820.446,115.855c-2.274,3.85-15.836,10.894-15.836,10.894s-.373-15.283,1.9-19.126a8.093,8.093,0,1,1,13.937,8.233Z" transform="translate(-300.698 -66.834)" fill="#58ff5e" opacity="0.86"/>
        <path id="Path_125" data-name="Path 125" d="M373.552,157.11c-4.327,1.127-18.912-3.456-18.912-3.456s10.514-11.094,14.841-12.221a8.1,8.1,0,0,1,4.071,15.677Z" transform="translate(-162.064 -78.421)" fill="#58ff5e" opacity="0.86"/>
        <path id="Path_126" data-name="Path 126" d="M577.635,411.844c-2.274,3.85-15.836,10.894-15.836,10.894s-.38-15.276,1.894-19.126a8.1,8.1,0,0,1,13.942,8.233Z" transform="translate(-225.886 -157.065)" fill="#58ff5e" opacity="0.86"/>
        <g id="hair" transform="translate(102.541 134.466)">
          <path id="Path_177" data-name="Path 177" d="M1.6,19.377S-3.158,7.011,3.739,2.968l1.9,5.47S23-2.027,27.521.352L23.24,6.059s20.215,0,21.641,7.848l-7.135.238s7.61,4.994,7.848,13.08l-15.22.951,7.372,4.281S10.16,36.262,3.5,25.323Z" transform="matrix(0.995, -0.105, 0.105, 0.995, 1.116, 4.766)" fill="#2f2e41"/>
          <path id="Path_178" data-name="Path 178" d="M772.982,285.488s5.786,10.963,13.5,8.222,0-12.79,0-12.79l-5.143-2.436Z" transform="translate(-772.982 -264.93)" fill="#2f2e41"/>
        </g>
        <g id="Flag_of_Kazakhstan" transform="matrix(0.985, -0.174, 0.174, 0.985, 107.087, 212.198)">
          <g id="sun" transform="translate(0 0)">
            <circle id="Ellipse_1" data-name="Ellipse 1" cx="12" cy="12" r="12" transform="translate(19.161 19.161)" fill="#fec50c"/>
            <g id="r16" transform="translate(4.661 4.661)">
              <g id="r4" transform="translate(7.762 7.762)">
                <path id="r" d="M.981,5.1a.9.9,0,0,0,.981-.99A35.451,35.451,0,0,0,.981,0,35.451,35.451,0,0,0,0,4.112.9.9,0,0,0,.981,5.1Z" transform="translate(17.757 0)" fill="#fec50c"/>
                <path id="Path_127" data-name="Path 127" d="M.981,5.1a.9.9,0,0,0,.981-.99A35.452,35.452,0,0,0,.981,0,35.452,35.452,0,0,0,0,4.112.9.9,0,0,0,.981,5.1Z" transform="translate(37.477 17.757) rotate(90)" fill="#fec50c"/>
                <path id="Path_128" data-name="Path 128" d="M.981,5.1a.9.9,0,0,0,.981-.99A35.452,35.452,0,0,0,.981,0,35.452,35.452,0,0,0,0,4.112.9.9,0,0,0,.981,5.1Z" transform="translate(19.72 37.477) rotate(180)" fill="#fec50c"/>
                <path id="Path_129" data-name="Path 129" d="M.981,5.1a.9.9,0,0,0,.981-.99A35.452,35.452,0,0,0,.981,0,35.452,35.452,0,0,0,0,4.112.9.9,0,0,0,.981,5.1Z" transform="translate(0 19.72) rotate(-90)" fill="#fec50c"/>
              </g>
              <g id="Group_7" data-name="Group 7" transform="translate(16.359 2.017) rotate(22.5)">
                <path id="r-2" data-name="r" d="M.981,5.1a.9.9,0,0,0,.981-.99A35.452,35.452,0,0,0,.981,0,35.452,35.452,0,0,0,0,4.112.9.9,0,0,0,.981,5.1Z" transform="translate(17.757 0)" fill="#fec50c"/>
                <path id="Path_130" data-name="Path 130" d="M.981,5.1a.9.9,0,0,0,.981-.99A35.452,35.452,0,0,0,.981,0,35.452,35.452,0,0,0,0,4.112.9.9,0,0,0,.981,5.1Z" transform="translate(37.477 17.757) rotate(90)" fill="#fec50c"/>
                <path id="Path_131" data-name="Path 131" d="M.981,5.1a.9.9,0,0,0,.981-.99A35.452,35.452,0,0,0,.981,0,35.452,35.452,0,0,0,0,4.112.9.9,0,0,0,.981,5.1Z" transform="translate(19.72 37.477) rotate(180)" fill="#fec50c"/>
                <path id="Path_132" data-name="Path 132" d="M.981,5.1a.9.9,0,0,0,.981-.99A35.452,35.452,0,0,0,.981,0,35.452,35.452,0,0,0,0,4.112.9.9,0,0,0,.981,5.1Z" transform="translate(0 19.72) rotate(-90)" fill="#fec50c"/>
              </g>
              <g id="Group_8" data-name="Group 8" transform="translate(26.5 0) rotate(45)">
                <path id="r-3" data-name="r" d="M.981,5.1a.9.9,0,0,0,.981-.99A35.452,35.452,0,0,0,.981,0,35.452,35.452,0,0,0,0,4.112.9.9,0,0,0,.981,5.1Z" transform="translate(17.757 0)" fill="#fec50c"/>
                <path id="Path_133" data-name="Path 133" d="M.981,5.1a.9.9,0,0,0,.981-.99A35.452,35.452,0,0,0,.981,0,35.452,35.452,0,0,0,0,4.112.9.9,0,0,0,.981,5.1Z" transform="translate(37.477 17.757) rotate(90)" fill="#fec50c"/>
                <path id="Path_134" data-name="Path 134" d="M.981,5.1a.9.9,0,0,0,.981-.99A35.452,35.452,0,0,0,.981,0,35.452,35.452,0,0,0,0,4.112.9.9,0,0,0,.981,5.1Z" transform="translate(19.72 37.477) rotate(180)" fill="#fec50c"/>
                <path id="Path_135" data-name="Path 135" d="M.981,5.1a.9.9,0,0,0,.981-.99A35.452,35.452,0,0,0,.981,0,35.452,35.452,0,0,0,0,4.112.9.9,0,0,0,.981,5.1Z" transform="translate(0 19.72) rotate(-90)" fill="#fec50c"/>
              </g>
              <g id="Group_9" data-name="Group 9" transform="translate(36.642 2.017) rotate(67.5)">
                <path id="r-4" data-name="r" d="M.981,5.1a.9.9,0,0,0,.981-.99A35.452,35.452,0,0,0,.981,0,35.452,35.452,0,0,0,0,4.112.9.9,0,0,0,.981,5.1Z" transform="translate(17.757 0)" fill="#fec50c"/>
                <path id="Path_136" data-name="Path 136" d="M.981,5.1a.9.9,0,0,0,.981-.99A35.452,35.452,0,0,0,.981,0,35.452,35.452,0,0,0,0,4.112.9.9,0,0,0,.981,5.1Z" transform="translate(37.477 17.757) rotate(90)" fill="#fec50c"/>
                <path id="Path_137" data-name="Path 137" d="M.981,5.1a.9.9,0,0,0,.981-.99A35.452,35.452,0,0,0,.981,0,35.452,35.452,0,0,0,0,4.112.9.9,0,0,0,.981,5.1Z" transform="translate(19.719 37.477) rotate(180)" fill="#fec50c"/>
                <path id="Path_138" data-name="Path 138" d="M.981,5.1a.9.9,0,0,0,.981-.99A35.452,35.452,0,0,0,.981,0,35.452,35.452,0,0,0,0,4.112.9.9,0,0,0,.981,5.1Z" transform="translate(0 19.719) rotate(-90)" fill="#fec50c"/>
              </g>
            </g>
            <g id="Group_13" data-name="Group 13" transform="translate(10.34 0) rotate(11.25)">
              <g id="r4-2" data-name="r4" transform="translate(7.762 7.762)">
                <path id="r-5" data-name="r" d="M.981,5.1a.9.9,0,0,0,.981-.99A35.452,35.452,0,0,0,.981,0,35.452,35.452,0,0,0,0,4.112.9.9,0,0,0,.981,5.1Z" transform="translate(17.757 0)" fill="#fec50c"/>
                <path id="Path_139" data-name="Path 139" d="M.981,5.1a.9.9,0,0,0,.981-.99A35.452,35.452,0,0,0,.981,0,35.452,35.452,0,0,0,0,4.112.9.9,0,0,0,.981,5.1Z" transform="translate(37.477 17.757) rotate(90)" fill="#fec50c"/>
                <path id="Path_140" data-name="Path 140" d="M.981,5.1a.9.9,0,0,0,.981-.99A35.452,35.452,0,0,0,.981,0,35.452,35.452,0,0,0,0,4.112.9.9,0,0,0,.981,5.1Z" transform="translate(19.72 37.477) rotate(180)" fill="#fec50c"/>
                <path id="Path_141" data-name="Path 141" d="M.981,5.1a.9.9,0,0,0,.981-.99A35.452,35.452,0,0,0,.981,0,35.452,35.452,0,0,0,0,4.112.9.9,0,0,0,.981,5.1Z" transform="translate(0 19.72) rotate(-90)" fill="#fec50c"/>
              </g>
              <g id="Group_10" data-name="Group 10" transform="translate(16.359 2.017) rotate(22.5)">
                <path id="r-6" data-name="r" d="M.981,5.1a.9.9,0,0,0,.981-.99A35.452,35.452,0,0,0,.981,0,35.452,35.452,0,0,0,0,4.112.9.9,0,0,0,.981,5.1Z" transform="translate(17.757 0)" fill="#fec50c"/>
                <path id="Path_142" data-name="Path 142" d="M.981,5.1a.9.9,0,0,0,.981-.99A35.452,35.452,0,0,0,.981,0,35.452,35.452,0,0,0,0,4.112.9.9,0,0,0,.981,5.1Z" transform="translate(37.477 17.757) rotate(90)" fill="#fec50c"/>
                <path id="Path_143" data-name="Path 143" d="M.981,5.1a.9.9,0,0,0,.981-.99A35.452,35.452,0,0,0,.981,0,35.452,35.452,0,0,0,0,4.112.9.9,0,0,0,.981,5.1Z" transform="translate(19.72 37.477) rotate(180)" fill="#fec50c"/>
                <path id="Path_144" data-name="Path 144" d="M.981,5.1a.9.9,0,0,0,.981-.99A35.452,35.452,0,0,0,.981,0,35.452,35.452,0,0,0,0,4.112.9.9,0,0,0,.981,5.1Z" transform="translate(0 19.72) rotate(-90)" fill="#fec50c"/>
              </g>
              <g id="Group_11" data-name="Group 11" transform="translate(26.5 0) rotate(45)">
                <path id="r-7" data-name="r" d="M.981,5.1a.9.9,0,0,0,.981-.99A35.452,35.452,0,0,0,.981,0,35.452,35.452,0,0,0,0,4.112.9.9,0,0,0,.981,5.1Z" transform="translate(17.758 0)" fill="#fec50c"/>
                <path id="Path_145" data-name="Path 145" d="M.981,5.1a.9.9,0,0,0,.981-.99A35.452,35.452,0,0,0,.981,0,35.452,35.452,0,0,0,0,4.112.9.9,0,0,0,.981,5.1Z" transform="translate(37.477 17.758) rotate(90)" fill="#fec50c"/>
                <path id="Path_146" data-name="Path 146" d="M.981,5.1a.9.9,0,0,0,.981-.99A35.452,35.452,0,0,0,.981,0,35.452,35.452,0,0,0,0,4.112.9.9,0,0,0,.981,5.1Z" transform="translate(19.72 37.477) rotate(180)" fill="#fec50c"/>
                <path id="Path_147" data-name="Path 147" d="M.981,5.1a.9.9,0,0,0,.981-.99A35.452,35.452,0,0,0,.981,0,35.452,35.452,0,0,0,0,4.112.9.9,0,0,0,.981,5.1Z" transform="translate(0 19.72) rotate(-90)" fill="#fec50c"/>
              </g>
              <g id="Group_12" data-name="Group 12" transform="translate(36.642 2.017) rotate(67.5)">
                <path id="r-8" data-name="r" d="M.981,5.1a.9.9,0,0,0,.981-.99A35.452,35.452,0,0,0,.981,0,35.452,35.452,0,0,0,0,4.112.9.9,0,0,0,.981,5.1Z" transform="translate(17.757 0)" fill="#fec50c"/>
                <path id="Path_148" data-name="Path 148" d="M.981,5.1a.9.9,0,0,0,.981-.99A35.452,35.452,0,0,0,.981,0,35.452,35.452,0,0,0,0,4.112.9.9,0,0,0,.981,5.1Z" transform="translate(37.477 17.757) rotate(90)" fill="#fec50c"/>
                <path id="Path_149" data-name="Path 149" d="M.981,5.1a.9.9,0,0,0,.981-.99A35.452,35.452,0,0,0,.981,0,35.452,35.452,0,0,0,0,4.112.9.9,0,0,0,.981,5.1Z" transform="translate(19.72 37.477) rotate(180)" fill="#fec50c"/>
                <path id="Path_150" data-name="Path 150" d="M.981,5.1a.9.9,0,0,0,.981-.99A35.452,35.452,0,0,0,.981,0,35.452,35.452,0,0,0,0,4.112.9.9,0,0,0,.981,5.1Z" transform="translate(0 19.72) rotate(-90)" fill="#fec50c"/>
              </g>
            </g>
          </g>
          <g id="bird" transform="translate(3.316 32.943)">
            <path id="Path_151" data-name="Path 151" d="M5.577,0a3.719,3.719,0,0,0-.939.158c-.419.056-.82.2-1.237.271L3.234.455,2.955.482a1.033,1.033,0,0,1,.03.232.749.749,0,0,1-.03.223.543.543,0,0,1-.119.187.656.656,0,0,1-.2.158.619.619,0,0,1-.232.056.6.6,0,0,1-.241-.03.675.675,0,0,1-.223-.137,1.922,1.922,0,0,1-.25.045,1.031,1.031,0,0,1-.235,0,2.46,2.46,0,0,1-.25-.083,1.441,1.441,0,0,1-.232-.122,2.119,2.119,0,0,0-.826.66A1,1,0,0,0,0,2.146a1.3,1.3,0,0,0,.128.621c.033.056.059-.205.161-.241a1.578,1.578,0,0,1,.595-.3c.181-.092.158.006.083.149-.018.074-.119.357.018.214A5.8,5.8,0,0,1,2.91,2.221c.945-.1,1.894-.119,2.842-.131.892.012,1.784.024,2.676.056A6.518,6.518,0,0,0,9.7,2.182c.1-.027.259-.033.318-.092a1.607,1.607,0,0,0-.624-.14h-1.7a5.141,5.141,0,0,1-1.412-.232c-.119-.048-.229-.161-.342-.039a2.026,2.026,0,0,1-.529.113A2.044,2.044,0,0,1,4.5,1.635c.208-.288.458-.541.687-.809C5,.8,4.822.758,4.637.714,4.961.491,5.262.238,5.577,0Z" transform="translate(20.127 24.213)" fill="#fec50c"/>
            <path id="Path_152" data-name="Path 152" d="M18.5,27.294c-.646.388-1.139-.3-1.679-.506-.386.209-.422.91-.782,1.242-.431.491-.96-.137-.92-.621-.516.435-.777,1.42-1.61,1.288-.4-.322-.689-1-.991-.229-.246.377-.9.912-1.241.344-.105-.5-.357-1.093-.63-.3a1.063,1.063,0,0,1-1.372.732c-.319-.261.256-1.224-.15-1.156-.606.4-.959,1.4-1.805,1.317-.329-.369.2-.994-.161-1.4-.426.546-.9,1.346-1.633,1.4-.356-.288.014-1.115-.213-1.237-.755.453-1.552,1.26-2.5,1.007.37-1.416,1.917-1.912,3.217-2.023,2.238-.275,4.592.231,6.745-.577.348-.212,1.191-.512.891-1-.266-.388.691-.236.784-.689-.057-.573.439-.495.924-.545,2.174-.094,4.322.364,6.489.442a1.456,1.456,0,0,1-1.951,1.472c-.451.073-1.126-1.036-.994-.229-.091.423-.027.983-.414,1.265M0,25.132c.5.461.856-.087,1.327-.287a17.828,17.828,0,0,0,4.312-2.439,6.379,6.379,0,0,1,2.64-1.784c2.154-.651,4.444-.572,6.607-1.173,1.647-2.255,4.444-3.059,6.787-4.355a1.46,1.46,0,0,0,.9-1.074A10.824,10.824,0,0,1,26.124,10.5a3.322,3.322,0,0,1,2.267-.417,3.782,3.782,0,0,1-1.219,2.37c.521-.011.969-.341,1.5-.322.18.943-.839,1.437-1.38,2.025.3.07,1.458.158.828.46A26.242,26.242,0,0,0,25.653,16.2c.684.123.762.268.066.516-.376.255-1.1.344-1.171.842.517.318-.238.633-.529.736-.557.13-1.141.371-.4.794a1.472,1.472,0,0,1-1.37.471c.149.479.364,1.015-.258,1.226a9.61,9.61,0,0,1-4.781,1.995,10.269,10.269,0,0,0,6.312-1.428c.247-.292,1.541-.606.817-.851-.341-.142-1.072-.3-1.121-.559,1.013-.625,2.289-.4,3.378-.774.028-.353-.829-.255-1.148-.335-.762-.062-.717-.257.017-.329a7.333,7.333,0,0,0,2.764-.9c-.637-.295-1.437-.035-2.117-.276,1.151-.5,2.51-.554,3.543-1.311.471-.524-.6-.36-.916-.347-.638.111-.933-.194-.208-.459,1.237-.912,2.8-1.5,3.672-2.827.206-.3.485-1.188-.172-.867-.863.287-1.623,1.258-2.607.957a21.572,21.572,0,0,0,5.108-5.292c.068-.6-.873-.665-1.118-.194-1.245,1.2-2.372,2.616-3.967,3.369A24.983,24.983,0,0,0,33.34,5.333c.236-.538.871-1.185.526-1.782a1.035,1.035,0,0,0-1.538.511A21.125,21.125,0,0,1,29.38,7.83c1.09-2.08,2.218-4.294,2.246-6.693,0-.494-.1-1.221-.773-1.129-.532.1-.405.891-.625,1.294-.483,1.639-.709,3.414-1.7,4.849a10.728,10.728,0,0,0,.313-4.065c-.14-.6-1.11-.343-.985.252A21.225,21.225,0,0,1,17.6,16.321a22.106,22.106,0,0,1-7.679,2.587,17.85,17.85,0,0,0-2.192.311c-1.671,1.281-2.683,3.425-4.8,4.1-.948.471-2.185.567-2.863,1.448A.763.763,0,0,0,0,25.132" transform="translate(21.096 0)" fill="#fec50c"/>
            <path id="Path_153" data-name="Path 153" d="M27.429,19.148a11.86,11.86,0,0,1-.9,1.726c-1.208-1.1-2.958-1.063-4.49-1.136a5.561,5.561,0,0,1-3.618-1.086A26.774,26.774,0,0,0,15.4,16.03a7.424,7.424,0,0,1-2.952-1.362c-1.8-1.47-2.836-3.651-4.6-5.167a10.279,10.279,0,0,0-1.109-.868c-.358.087-.2.859-.633.466-.238-.169-.834-.186-.887.051a4.872,4.872,0,0,1,1.153,2.429c-.367.038-1.021-.078-1.2.059A7.515,7.515,0,0,0,7,13.534c-.341.055-1.013.025-1.143.162a5.239,5.239,0,0,0,2.386,1.31c.189.249-.276.73.115.943.227.093.976.248.46.506a.421.421,0,0,0,.23.782c.286.146.929.182.979.435-.254.258-1.043.564-.371.806a4.64,4.64,0,0,0,2.061.6c-.36.3-.8.475-1.173.759a28.379,28.379,0,0,0,5.3,2.222,16.868,16.868,0,0,0,2.2.607,18.029,18.029,0,0,1-6.254-1.65c-1.026-.45-2.059-.885-3.11-1.272.461-.24.994-.3,1.472-.506a8.584,8.584,0,0,1-2.949-.81c.134-.239.641-.25.921-.371.527-.126.854-.28.111-.325a6.987,6.987,0,0,1-2.27-.564c.043-.271.734-.177,1.015-.294a2.109,2.109,0,0,0,1.032-.35c-1.159-.481-2.675-.14-3.583-1.164-.209-.39.65-.076.895-.141a4.748,4.748,0,0,0,1.882-.053A13.888,13.888,0,0,1,2.42,12.361c-.143-.22-.571-.823-.226-.9,1,.133,1.728,1.227,2.8,1.056.142-.192-.623-.507-.814-.781A20.46,20.46,0,0,1,0,7.185c-.075-.587.847-.675,1.09-.221a17.841,17.841,0,0,0,3.765,3.281c.528.256-.3-.3-.414-.506A26.644,26.644,0,0,1,.8,4.572C.625,4.232.34,3.619.855,3.438a1.01,1.01,0,0,1,1.287.536C3.153,5.25,3.9,6.766,5.158,7.829,4.084,5.746,2.938,3.552,2.91,1.155,2.935.69,2.965-.013,3.6.007c.529-.08.446.6.619.92.521,1.761.749,3.668,1.795,5.223a11.724,11.724,0,0,1-.345-3.98.513.513,0,0,1,.863-.3c.259.634.313,1.417.549,2.1a21.175,21.175,0,0,0,8.289,11.348,21.829,21.829,0,0,0,11,3.776c.354.031.71.042,1.064.063" transform="translate(0 0.024)" fill="#fec50c"/>
            <circle id="Ellipse_2" data-name="Ellipse 2" cx="0.211" cy="0.211" r="0.211" transform="translate(22.241 24.842)" fill="#fec50c"/>
            <circle id="Ellipse_3" data-name="Ellipse 3" cx="0.086" cy="0.086" r="0.086" transform="translate(22.348 24.933)" fill="#fec50c" stroke="#00afca" stroke-width="0.381"/>
          </g>
        </g>
      </g>
      <g id="scroll">
        <path id="Path_179" data-name="Path 179" d="M1629.527,472.647l-39.66,39.251-39.251-39.251" transform="translate(-790 354)" fill="none" stroke="#064e5d" stroke-linecap="round" stroke-linejoin="round" stroke-width="2"/>
        <path id="Path_180" data-name="Path 180" stroke="#064e5d" d="M1629.527,472.647l-39.66,39.251-39.251-39.251" fill="none" transform="translate(-790 334)" stroke-linecap="round" stroke-linejoin="round" stroke-width="2" opacity="0.65"/>
      </g>
      <g id="Group_14" data-name="Group 14" transform="translate(8)">
        <text id="Главная_" data-name="Главная   " transform="translate(832 98)" fill="#fff" font-size="25" font-family="Panton-Bold, Panton" font-weight="700" letter-spacing="0.025em"><tspan x="0" y="0" xml:space="preserve">Главная   </tspan></text>
        <text id="Наука" transform="translate(965 98)" fill="#fff" font-size="25" font-family="Panton-Bold, Panton" font-weight="700" letter-spacing="0.025em"><tspan x="0" y="0">Наука</tspan></text>
        <text id="Здоровье" transform="translate(1078 98)" fill="#fff" font-size="25" font-family="Panton-Bold, Panton" font-weight="700" letter-spacing="0.025em"><tspan x="0" y="0">Здоровье</tspan></text>
        <text id="Спорт" transform="translate(1234 98)" fill="#fff" font-size="25" font-family="Panton-Bold, Panton" font-weight="700" letter-spacing="0.025em"><tspan x="0" y="0">Спорт</tspan></text>
        <text id="Власть" transform="translate(1345 98)" fill="#fff" font-size="25" font-family="Panton-Bold, Panton" font-weight="700" letter-spacing="0.025em"><tspan x="0" y="0">Власть</tspan></text>
      </g>
      <line id="Line_1" data-name="Line 1" y2="177" transform="translate(101.5 333.5)" fill="none" stroke="#d43b2b" stroke-width="3"/>
      <g id="nav-2" data-name="nav" transform="translate(-5 929)">
        <circle id="Ellipse_4-2" data-name="Ellipse 4" cx="6" cy="6" r="6" transform="translate(22 315)" fill="#dedede"/>
        <circle id="Ellipse_5-2" data-name="Ellipse 5" cx="6" cy="6" r="6" transform="translate(54 357)" fill="#414141"/>
        <circle id="Ellipse_6-2" data-name="Ellipse 6" cx="6" cy="6" r="6" transform="translate(69 415)" fill="#dedede"/>
        <circle id="Ellipse_7-2" data-name="Ellipse 7" cx="6" cy="6" r="6" transform="translate(52 473)" fill="#dedede"/>
        <circle id="Ellipse_10-2" data-name="Ellipse 10" cx="6" cy="6" r="6" transform="translate(22 515)" fill="#dedede"/>
      </g>
      <text id="_2019" data-name="2019" transform="translate(102 623)" fill="#fff" font-size="175" font-family="Panton-Bold, Panton" font-weight="700" letter-spacing="0.03em" opacity="0.25"><tspan x="0" y="165">2019</tspan></text>
    </g>
  </g>
</svg>
