<svg xmlns="http://www.w3.org/2000/svg" width="699.338" height="381.917" viewBox="0 0 699.338 381.917">
  <g id="undraw_hamburger_91cc" transform="translate(-0.001 0)">
    <path id="Path_363" data-name="Path 363" d="M538.465,652.639q97.9-1.155,195.784,1.324c5.614.142,11.439.325,16.4,1.812s8.773,4.676,7.417,7.74q-38.213,1.13-76.5.7c-5.559,2.723-11.663,6.824-8.246,10.5,2.364,2.541,8.2,3.3,13.3,3.3,9.243.011,18.524-1.506,27.63-.616s18.193,5.68,15.526,10.652c-2.026,3.776-9.711,5.645-16.705,5.979s-14.155-.36-20.992.534c-6.5.85-12.125,3.058-18.206,4.6-9.591,2.431-20.223,3.182-30.683,3.822-80.322,4.907-161.31,4.868-242.1,4.824-32.709-.018-65.863-.068-97.449-4.843-18-2.722-35.258-6.949-53.489-9.142-21.778-2.62-44.285-2.264-66.555-2.186q-58.645.207-117.192-2.26c-2.9-.123-6.47-.537-7.254-2.113-.915-1.839,2.8-3.275,5.936-4.009a344.659,344.659,0,0,1,54.072-8.066c9.222-.648,18.725-.979,27.207-3.113s15.891-6.612,15.811-11.833c-.024-1.593-.7-3.3.633-4.7,1.765-1.868,6.108-2.3,9.856-2.5,41.54-2.258,83.306-3.2,125.034-2.822,14.678.133,29.417.428,43.992-.561,11.942-.81,23.639-2.473,35.408-3.87,15.8-1.874,84.548-11.584,94.577-3.706,7.508,5.9-7.992,7.17,12.143,9.577C501.343,653.753,520.683,652.849,538.465,652.639Z" transform="translate(-59 -325.898)" fill="#f2f2f2"/>
    <path id="Path_364" data-name="Path 364" d="M401.2,596.828s-24.2,47.89-3.6,47.89,280.132,1.03,287.341-12.359c5.051-9.38,2.266-42.773.146-61.928a14.645,14.645,0,0,0-15.367-13.013c-56.13,3.1-265.822,14.579-264.91,13.146,1.8-2.832.515-2.06.515-2.06S397.081,594.768,401.2,596.828Z" transform="translate(-175.811 -297.023)" fill="#3f3d56"/>
    <path id="Path_365" data-name="Path 365" d="M692.544,570.432a14.645,14.645,0,0,0-15.367-13.013c-56.13,3.1-265.822,14.579-264.911,13.147,1.8-2.832.515-2.06.515-2.06s-1.839,5.863-3.345,12.265c.213-.021.373.18-.322,1.4q-.093.414-.183.828c8.4.83,209.8-10.2,264.641-13.225a14.645,14.645,0,0,1,15.367,13.013c1.576,14.241,3.519,36.35,2.337,50.612a3.08,3.08,0,0,0,1.122-1.043C697.449,622.98,694.665,589.587,692.544,570.432Z" transform="translate(-182.757 -297.023)" opacity="0.1"/>
    <path id="Path_366" data-name="Path 366" d="M423.3,489.484c-2.683-.822-6.078-1.884-5.772-3.615.163-.92,1.394-1.638,2.285-2.409,1.719-1.487,2.183-3.581.336-5.017s-6.295-1.628-7.924-.108c-.838.782-.788,1.762-1.22,2.645-1.35,2.754-6.812,3.963-11.452,5.033s-9.831,3.061-9.4,5.91c.476,3.108,7.634,5.866,4.754,8.516-1.044.961-3.241,1.5-3.709,2.6-.329.774.332,1.56.973,2.267l4.558,5.022c1.814,2,3.682,4.172,3.075,6.4-1.2,4.408-10.99,6.095-18.746,5.6-2.84-.181-6.179-.43-8.131.764a2.661,2.661,0,0,0-1,3.579c1.287,3.156,5.4,5.889,10.672,7.086-5.9,1.165-8.224,6.075-4.147,8.781a12.132,12.132,0,0,1-7.23.207c-2.016,1.856-.831,4.4,1.726,6.028s6.18,2.538,9.688,3.4l-3.283,3.07c2.376,1.856,7.506,1.2,10.966.029s7.214-2.747,11.09-2.134c3.636.576,6.385,3,10.087,2.585a6.5,6.5,0,0,0,5.128-3.757l3.8-6.764c5.408.846,11.095-2.86,8.923-5.815,6.052.65,12.009-3.28,10.022-6.612a19.37,19.37,0,0,1,6.6,8.4c.5,1.353.8,2.784,2.149,3.931a7.139,7.139,0,0,0,6.245,1.13c-1.1,2.14-2,4.636.27,6.452s8.812,1.3,8.523-.924a31.466,31.466,0,0,0,11.656,2.994c4.322.111,9.052-1.534,9.446-4a60.385,60.385,0,0,0,18.877,3.038c.546-1.648,4.356-2.181,7.2-1.779s5.491,1.371,8.426,1.372,6.09-1.764,4.588-3.206a60.656,60.656,0,0,0,18.8.949c5.922-.629,11.535-2.123,17.532-2.445a41.874,41.874,0,0,1,17.847,2.819c1.966.824,4.41,1.862,6.57,1.215a7.846,7.846,0,0,0,2.653-1.79c3.582-2.718,10.907-2.2,16.558-1.128s12.225,2.355,17.176.466c1.868-.713,3.245-1.814,5.232-2.412,7.119-2.143,15.641,3.348,23.2,1.768,2.461-.515,4.457-1.745,7.064-1.9,4.623-.269,7.679,2.864,12.174,3.538,4.664.7,9.721-2.139,8.583-4.818a41.873,41.873,0,0,0,13.239-1.84l-2.117-3.811c5.276-.085,9.158-3.867,6.713-6.542,5.291-1.008,9.475-3.72,10.563-6.847s-.963-6.548-5.178-8.636c-2.487-1.232-5.754-2.1-7.176-3.8-1.024-1.222-.875-2.644-1.273-3.98-.872-2.924-4.65-5.506-9.53-6.512a51.427,51.427,0,0,1-6.358-1.279c-1.919-.675-3.305-2.138-2.2-3.259a22.482,22.482,0,0,1,2.445-1.483c2.96-2.186-2.115-4.953-6.449-6.18l10.348-.338L682,481.872c-4.094,3.33-14.714,2.629-17.374-1.146,3.324,1.091,7.782-.3,9.407-2.288s1.226-4.292.792-6.469A3.139,3.139,0,0,0,673.1,469.4c-1.013-.482-2.626-.684-2.959-1.413s.971-1.4,1.166-2.163c.373-1.461-2.984-2.1-5.252-2.811-5.349-1.667-7.94-6.35-14.026-6.2-6.039.151-7.727,4.762-7.731,8.218s-2.048,8.077-8.092,8.014a16.562,16.562,0,0,1-6.445-1.724l-17.31-7.466a41.452,41.452,0,0,0-7.109-2.549,55.428,55.428,0,0,0-11.117-1L570,459.761a11.279,11.279,0,0,0-3.673.316,6.881,6.881,0,0,0-2.656,1.981c-3.372,3.166-11.3,4.406-17.021,2.662-1.517-.462-2.876-1.1-4.484-1.448-5.063-1.1-10.376.933-15.637,1.666-8.624,1.2-19.34-.867-25.557,2.755-2.073,1.208-3.172,2.859-5.093,4.146s-5.387,2.16-7.809,1.188c.3,2.362.581,4.826-1.017,7.011s-5.7,3.968-9.728,3.417c-2.138-.565-1.97-2.362-.958-3.579s2.562-2.459,2.058-3.775-2.789-2.064-4.5-2.974-2.853-2.634-1.035-3.474c-1.225-1.574-5.628-1.382-7.564-.062s-2.13,3.179-2.341,4.9-.671,3.6-2.915,4.752c-3.824,1.96-11.166.943-13.7,3.5-.806.811-.853,1.79-1.314,2.684-2.058,3.994-10.94,5.028-18.2,5.354a8.909,8.909,0,0,0-.1,2.52C429.237,492.224,425.1,490.036,423.3,489.484Z" transform="translate(-169.06 -261.45)" fill="#61ab43"/>
    <path id="Path_367" data-name="Path 367" d="M840.622,498.635c.434,2.177.833,4.485-.792,6.469a4.968,4.968,0,0,1-.813.77l6.558-.214,2.222-10.074c-1.7,1.379-4.512,2.065-7.419,2.129a6.463,6.463,0,0,1,.243.921Z" transform="translate(-334.861 -275.163)" opacity="0.1"/>
    <path id="Path_368" data-name="Path 368" d="M837.829,516.622c-.258-1.362-2.5-2.744-5.018-3.732a10.216,10.216,0,0,1-7.092.622C827.554,516.117,833.175,517.257,837.829,516.622Z" transform="translate(-330.158 -281.283)" opacity="0.1"/>
    <path id="Path_369" data-name="Path 369" d="M843.671,530.021l-.17.77-10.348.338c4.333,1.227,9.409,3.994,6.449,6.18a22.488,22.488,0,0,0-2.445,1.483c-1.108,1.122.279,2.584,2.2,3.259a51.422,51.422,0,0,0,6.358,1.278c4.88,1.007,8.658,3.588,9.53,6.512.4,1.336.249,2.758,1.273,3.98,1.422,1.7,4.688,2.564,7.176,3.8.24.119.47.243.7.37a9.4,9.4,0,0,0,4.482-4.687c1.088-3.127-.963-6.548-5.178-8.636-2.487-1.232-5.754-2.1-7.176-3.8-1.024-1.222-.875-2.644-1.273-3.98-.872-2.924-4.65-5.506-9.53-6.512C845.046,530.24,844.359,530.13,843.671,530.021Z" transform="translate(-332.787 -287.342)" opacity="0.1"/>
    <path id="Path_370" data-name="Path 370" d="M376.78,597.54c.805-1.715,2.863-3.238,5.82-3.821a19.691,19.691,0,0,1-7.8-3.517,11.779,11.779,0,0,1-3.58-.448c-2.016,1.856-.831,4.4,1.726,6.028A18.577,18.577,0,0,0,376.78,597.54Z" transform="translate(-169.06 -308.467)" opacity="0.1"/>
    <path id="Path_371" data-name="Path 371" d="M405.935,500.312a34.44,34.44,0,0,1,4.518-1.346c4.64-1.07,10.1-2.279,11.452-5.034.433-.883.382-1.863,1.22-2.645,1.629-1.519,6.077-1.327,7.924.108s1.383,3.53-.336,5.017c-.892.771-2.123,1.489-2.285,2.409-.306,1.731,3.089,2.793,5.772,3.615a11.408,11.408,0,0,1,3.494,1.843c.022-.184.045-.367.062-.548,7.261-.326,16.143-1.36,18.2-5.354.461-.895.508-1.873,1.314-2.684,2.536-2.553,9.878-1.536,13.7-3.5,2.244-1.15,2.7-3.033,2.915-4.752s.4-3.578,2.341-4.9,6.34-1.512,7.564.062c-1.818.84-.676,2.564,1.035,3.474s4,1.669,4.5,2.974-1.047,2.558-2.058,3.775-1.18,3.013.958,3.579c4.029.551,8.13-1.232,9.728-3.417s1.322-4.649,1.017-7.011c2.422.972,5.888.1,7.809-1.188s3.02-2.938,5.093-4.146c6.217-3.622,16.933-1.553,25.557-2.755,5.261-.733,10.574-2.764,15.637-1.666,1.607.348,2.967.986,4.484,1.448,5.721,1.744,13.649.5,17.021-2.662a6.88,6.88,0,0,1,2.656-1.981,11.279,11.279,0,0,1,3.673-.316l24.215.55a55.429,55.429,0,0,1,11.117,1,41.446,41.446,0,0,1,7.109,2.549l17.31,7.466A16.563,16.563,0,0,0,647.1,486c6.044.063,8.088-4.558,8.092-8.014s1.692-8.067,7.731-8.218c6.087-.152,8.677,4.531,14.026,6.2,2.267.706,5.625,1.35,5.252,2.811-.173.678-1.229,1.274-1.218,1.922a7.968,7.968,0,0,0,3.944-2.261c1.625-1.984,1.226-4.292.792-6.469A3.139,3.139,0,0,0,684,469.4c-1.013-.482-2.626-.684-2.959-1.413s.971-1.4,1.166-2.163c.373-1.461-2.984-2.1-5.252-2.811-5.349-1.667-7.94-6.35-14.026-6.2-6.039.151-7.727,4.762-7.731,8.218s-2.048,8.077-8.092,8.014a16.562,16.562,0,0,1-6.445-1.724l-17.31-7.466a41.455,41.455,0,0,0-7.109-2.549,55.436,55.436,0,0,0-11.117-1l-24.215-.55a11.281,11.281,0,0,0-3.673.316,6.88,6.88,0,0,0-2.656,1.981c-3.372,3.166-11.3,4.406-17.021,2.662-1.517-.462-2.876-1.1-4.484-1.448-5.063-1.1-10.376.933-15.637,1.666-8.624,1.2-19.34-.867-25.557,2.755-2.073,1.208-3.172,2.859-5.093,4.146s-5.387,2.16-7.809,1.188c.3,2.362.581,4.826-1.017,7.011s-5.7,3.968-9.728,3.417c-2.138-.565-1.97-2.362-.958-3.579s2.562-2.459,2.058-3.775-2.789-2.064-4.5-2.974-2.853-2.634-1.035-3.473c-1.225-1.574-5.628-1.382-7.564-.062s-2.13,3.18-2.341,4.9-.671,3.6-2.915,4.752c-3.824,1.96-11.166.943-13.7,3.5-.806.811-.853,1.79-1.314,2.684-2.058,3.994-10.94,5.028-18.2,5.354-.018.182-.04.365-.062.549a11.407,11.407,0,0,0-3.494-1.843c-2.683-.822-6.078-1.884-5.772-3.615.163-.92,1.394-1.638,2.285-2.409,1.719-1.487,2.183-3.581.336-5.017s-6.295-1.628-7.924-.108c-.838.782-.788,1.762-1.22,2.645-1.35,2.754-6.812,3.964-11.452,5.033s-9.831,3.061-9.4,5.91C401.527,494.982,408.459,497.7,405.935,500.312Z" transform="translate(-179.963 -261.45)" opacity="0.1"/>
    <path id="Path_372" data-name="Path 372" d="M383.38,568.8a10.173,10.173,0,0,0-3.592,1.406c.7.031,1.387.076,2.052.118,7.756.5,17.542-1.191,18.746-5.6.607-2.224-1.261-4.4-3.075-6.4l-2.187-2.409a37.567,37.567,0,0,1-13.484,1.452c-2.84-.181-6.179-.43-8.131.764a2.661,2.661,0,0,0-1,3.579C373.995,564.869,378.111,567.6,383.38,568.8Z" transform="translate(-169.84 -296.501)" opacity="0.1"/>
    <ellipse id="Ellipse_34" data-name="Ellipse 34" cx="77.242" cy="50.98" rx="77.242" ry="50.98" transform="translate(373.054 154.817)" fill="#ea565c"/>
    <path id="Path_373" data-name="Path 373" d="M700.491,451.7s-35.016,3.6-24.718-11.329,23.173-20.083,29.352-15.963,8.754,15.448,7.724,15.448-15.963-8.754-21.113-2.06S700.491,451.7,700.491,451.7Z" transform="translate(-276.458 -249.506)" fill="#fff" opacity="0.2"/>
    <path id="Path_374" data-name="Path 374" d="M750.1,469.637s28.916,20.075,11.374,24.7-30.664.143-32.669-7.008,3.421-17.424,4.2-16.753,6.409,17.041,14.677,15.316S750.1,469.637,750.1,469.637Z" transform="translate(-295.728 -265.986)" fill="#fff" opacity="0.2"/>
    <path id="Path_375" data-name="Path 375" d="M772.44,436.368s2.282-35.127,15.29-22.484,15.94,26.2,10.848,31.6-16.691,6.057-16.52,5.041,11.292-14.281,5.55-20.474S772.44,436.368,772.44,436.368Z" transform="translate(-311.315 -245.298)" fill="#fff" opacity="0.2"/>
    <ellipse id="Ellipse_35" data-name="Ellipse 35" cx="77.242" cy="50.98" rx="77.242" ry="50.98" transform="translate(294.266 150.182)" fill="#ea565c"/>
    <path id="Path_376" data-name="Path 376" d="M578.594,444.527s-35.016,3.6-24.717-11.329,23.173-20.083,29.352-15.963,8.754,15.448,7.724,15.448-15.963-8.754-21.113-2.06S578.594,444.527,578.594,444.527Z" transform="translate(-233.347 -246.97)" fill="#fff" opacity="0.2"/>
    <path id="Path_377" data-name="Path 377" d="M628.2,462.467s28.916,20.075,11.374,24.7-30.664.143-32.669-7.008,3.421-17.424,4.2-16.753,6.409,17.041,14.677,15.316S628.2,462.467,628.2,462.467Z" transform="translate(-252.618 -263.451)" fill="#fff" opacity="0.2"/>
    <path id="Path_378" data-name="Path 378" d="M650.543,429.2s2.282-35.127,15.29-22.484,15.94,26.2,10.848,31.6-16.691,6.057-16.52,5.041,11.292-14.281,5.55-20.474S650.543,429.2,650.543,429.2Z" transform="translate(-268.205 -242.762)" fill="#fff" opacity="0.2"/>
    <ellipse id="Ellipse_36" data-name="Ellipse 36" cx="77.242" cy="50.98" rx="77.242" ry="50.98" transform="translate(201.061 146.062)" fill="#ea565c"/>
    <path id="Path_379" data-name="Path 379" d="M434.388,438.153s-35.016,3.6-24.718-11.329,23.173-20.083,29.352-15.963,8.754,15.448,7.724,15.448-15.963-8.754-21.113-2.06S434.388,438.153,434.388,438.153Z" transform="translate(-182.347 -244.716)" fill="#fff" opacity="0.2"/>
    <path id="Path_380" data-name="Path 380" d="M484,456.093s28.916,20.075,11.374,24.7-30.664.143-32.669-7.008,3.421-17.424,4.2-16.753,6.409,17.041,14.677,15.316S484,456.093,484,456.093Z" transform="translate(-201.618 -261.196)" fill="#fff" opacity="0.2"/>
    <path id="Path_381" data-name="Path 381" d="M506.337,422.823s2.282-35.127,15.29-22.484,15.94,26.2,10.848,31.6-16.691,6.057-16.52,5.041,11.292-14.281,5.55-20.474S506.337,422.823,506.337,422.823Z" transform="translate(-217.205 -240.508)" fill="#fff" opacity="0.2"/>
    <path id="Path_382" data-name="Path 382" d="M502.713,392.286c16.825,9.352,27.518,23.355,27.518,39.009,0,28.155-34.582,50.98-77.242,50.98a108.278,108.278,0,0,1-39.94-7.336c13.437,7.468,30.782,11.971,49.724,11.971,42.66,0,77.242-22.824,77.242-50.98C540.015,417.421,525.071,401.218,502.713,392.286Z" transform="translate(-184.213 -238.63)" opacity="0.1"/>
    <path id="Path_383" data-name="Path 383" d="M646.919,397.863c16.825,9.352,27.518,23.355,27.518,39.009,0,28.155-34.582,50.98-77.242,50.98a108.276,108.276,0,0,1-39.94-7.336c13.436,7.468,30.782,11.971,49.724,11.971,42.66,0,77.242-22.825,77.242-50.98C684.221,423,669.277,406.8,646.919,397.863Z" transform="translate(-235.213 -240.603)" opacity="0.1"/>
    <path id="Path_384" data-name="Path 384" d="M768.816,405.831c16.825,9.352,27.518,23.355,27.518,39.009,0,28.155-34.583,50.98-77.242,50.98a108.278,108.278,0,0,1-39.94-7.336c13.437,7.468,30.782,11.971,49.724,11.971,42.66,0,77.242-22.824,77.242-50.98C806.118,430.966,791.174,414.763,768.816,405.831Z" transform="translate(-278.323 -243.421)" opacity="0.1"/>
    <path id="Path_385" data-name="Path 385" d="M413.065,417.59s66.428-71.063,229.152-41.711c128.634,23.2,23,63.139-26.9,78.853a179.293,179.293,0,0,1-44.635,8.036C514.385,465.668,372.779,468.26,413.065,417.59Z" transform="translate(-181.705 -230.315)" fill="#714b4f"/>
    <path id="Path_386" data-name="Path 386" d="M615.32,454.078a179.292,179.292,0,0,1-44.635,8.036c-45.607,2.349-147.195,4.494-162.716-21.714-19.6,42.361,109.569,39.9,162.716,37.163a179.292,179.292,0,0,0,44.635-8.036c36.578-11.518,103.092-36.05,85.35-57.467C688.726,428.867,643.279,445.274,615.32,454.078Z" transform="translate(-181.707 -245.623)" opacity="0.1"/>
    <line id="Line_13" data-name="Line 13" x2="18.023" y2="35.532" transform="translate(373.229 145.822)" fill="none" stroke="#000" stroke-miterlimit="10" stroke-width="2" opacity="0.1"/>
    <line id="Line_14" data-name="Line 14" x2="15.448" y2="29.867" transform="translate(317.615 158.696)" fill="none" stroke="#000" stroke-miterlimit="10" stroke-width="2" opacity="0.1"/>
    <line id="Line_15" data-name="Line 15" x2="24.203" y2="35.532" transform="translate(405.671 145.822)" fill="none" stroke="#000" stroke-miterlimit="10" stroke-width="2" opacity="0.1"/>
    <line id="Line_16" data-name="Line 16" y1="20.598" x2="162.209" transform="translate(317.615 171.054)" fill="none" stroke="#000" stroke-miterlimit="10" stroke-width="2" opacity="0.1"/>
    <line id="Line_17" data-name="Line 17" x2="11.329" y2="15.963" transform="translate(473.644 152.517)" fill="none" stroke="#000" stroke-miterlimit="10" stroke-width="2" opacity="0.1"/>
    <line id="Line_18" data-name="Line 18" x2="7.209" y2="14.934" transform="translate(285.688 171.054)" fill="none" stroke="#000" stroke-miterlimit="10" stroke-width="2" opacity="0.1"/>
    <path id="Path_387" data-name="Path 387" d="M701.657,331.783s21.168,12.134,27.023,13.935,35.581,8.557,18.466,17.115S638.6,380.849,595.815,414.178l-38.734,22.069s-7.657-3.6-4.054-9.008,37.383-83.663,37.383-83.663l56.3-.083s16.665-9.458,31.978-9.458S701.657,331.783,701.657,331.783Z" transform="translate(-233.377 -217.233)" fill="#fad375"/>
    <path id="Path_388" data-name="Path 388" d="M509.685,346.079s98.185-.45,99.086-1.351,21.619-1.378,25.672,4.477,5.4,8.558,0,9.458-183.31,93.231-183.31,93.231-9.909.9-4.954-9.008S509.685,346.079,509.685,346.079Z" transform="translate(-195.439 -221.619)" fill="#f6c964"/>
    <path id="Path_389" data-name="Path 389" d="M404.074,344.333s-16.665,116.625,1.351,111.22,59.9-102.689,136.92-105.842c0,0,5.4-1.8-1.351-5.4s-55.849,1.828-55.849,1.828Z" transform="translate(-178.555 -221.225)" fill="#fad375"/>
    <path id="Path_390" data-name="Path 390" d="M509.318,386.935c0,5.546-26.744,19.053-59.734,19.053S389.85,392.48,389.85,386.935s26.743-7.724,59.734-7.724S509.318,381.389,509.318,386.935Z" transform="translate(-176.008 -234.006)" fill="#61ab43"/>
    <path id="Path_391" data-name="Path 391" d="M509.318,386.935c0,5.546-26.744,19.053-59.734,19.053S389.85,392.48,389.85,386.935s26.743-7.724,59.734-7.724S509.318,381.389,509.318,386.935Z" transform="translate(-176.008 -234.006)" opacity="0.1"/>
    <ellipse id="Ellipse_37" data-name="Ellipse 37" cx="59.734" cy="10.041" rx="59.734" ry="10.041" transform="translate(213.842 142.63)" fill="#61ab43"/>
    <path id="Path_392" data-name="Path 392" d="M620.858,372.594c0,5.546-26.744,19.053-59.734,19.053s-59.734-13.507-59.734-19.053,26.744-7.724,59.734-7.724S620.858,367.048,620.858,372.594Z" transform="translate(-215.456 -228.934)" fill="#61ab43"/>
    <path id="Path_393" data-name="Path 393" d="M620.858,372.594c0,5.546-26.744,19.053-59.734,19.053s-59.734-13.507-59.734-19.053,26.744-7.724,59.734-7.724S620.858,367.048,620.858,372.594Z" transform="translate(-215.456 -228.934)" opacity="0.1"/>
    <ellipse id="Ellipse_38" data-name="Ellipse 38" cx="59.734" cy="10.041" rx="59.734" ry="10.041" transform="translate(285.934 133.361)" fill="#61ab43"/>
    <path id="Path_394" data-name="Path 394" d="M732.4,358.254c0,5.546-26.744,19.053-59.734,19.053S612.93,363.8,612.93,358.254s26.744-7.724,59.734-7.724S732.4,352.707,732.4,358.254Z" transform="translate(-254.903 -223.863)" fill="#61ab43"/>
    <path id="Path_395" data-name="Path 395" d="M732.4,358.254c0,5.546-26.744,19.053-59.734,19.053S612.93,363.8,612.93,358.254s26.744-7.724,59.734-7.724S732.4,352.707,732.4,358.254Z" transform="translate(-254.903 -223.863)" opacity="0.1"/>
    <ellipse id="Ellipse_39" data-name="Ellipse 39" cx="59.734" cy="10.041" rx="59.734" ry="10.041" transform="translate(358.027 124.092)" fill="#61ab43"/>
    <path id="Path_396" data-name="Path 396" d="M411.464,303.625s-24.568-4-12-24,16.8-42.413,22.282-47.421c6.132-5.6,132.7-103.765,231.305,4.861A144.923,144.923,0,0,1,678.2,276.334a22.926,22.926,0,0,0,3.793,6.437c4,4,7.427,15.426,0,21.139S455.743,331.906,411.464,303.625Z" transform="translate(-178.143 -165.735)" fill="#3f3d56"/>
    <path id="Path_397" data-name="Path 397" d="M592.479,238.339a9.61,9.61,0,0,1-5.142,1.714c-2.84,0-5.142-.767-5.142-1.714s2.3-1.714,5.142-1.714A9.61,9.61,0,0,1,592.479,238.339Z" transform="translate(-244.033 -183.579)" fill="#f2f2f2"/>
    <path id="Path_398" data-name="Path 398" d="M528.834,221.544a9.611,9.611,0,0,1-5.142,1.714c-2.84,0-5.142-.767-5.142-1.714s2.3-1.714,5.142-1.714A9.611,9.611,0,0,1,528.834,221.544Z" transform="translate(-221.524 -177.639)" fill="#f2f2f2"/>
    <path id="Path_399" data-name="Path 399" d="M701.969,244.888a9.611,9.611,0,0,1-5.419.1c-2.71-.848-4.678-2.268-4.4-3.171s2.709-.948,5.419-.1A9.611,9.611,0,0,1,701.969,244.888Z" transform="translate(-282.912 -185.165)" fill="#f2f2f2"/>
    <path id="Path_400" data-name="Path 400" d="M584.4,199.806a9.611,9.611,0,0,1-5.419.1c-2.71-.848-4.678-2.268-4.4-3.171s2.709-.948,5.419-.1a9.61,9.61,0,0,1,4.4,3.171Z" transform="translate(-241.333 -169.221)" fill="#f2f2f2"/>
    <path id="Path_401" data-name="Path 401" d="M712.576,215.718a9.61,9.61,0,0,1-5.419.1c-2.71-.848-4.678-2.268-4.4-3.171s2.709-.948,5.419-.1A9.611,9.611,0,0,1,712.576,215.718Z" transform="translate(-286.663 -174.849)" fill="#f2f2f2"/>
    <path id="Path_402" data-name="Path 402" d="M686.178,214.472a9.61,9.61,0,0,1-5.142,1.714c-2.84,0-5.142-.767-5.142-1.714s2.3-1.714,5.142-1.714a9.611,9.611,0,0,1,5.142,1.714Z" transform="translate(-277.171 -175.138)" fill="#f2f2f2"/>
    <path id="Path_403" data-name="Path 403" d="M610.158,198.561a9.611,9.611,0,0,1-5.142,1.714c-2.84,0-5.142-.767-5.142-1.714s2.3-1.714,5.142-1.714a9.611,9.611,0,0,1,5.142,1.714Z" transform="translate(-250.286 -169.511)" fill="#f2f2f2"/>
    <path id="Path_404" data-name="Path 404" d="M668.5,198.561a9.611,9.611,0,0,1-5.142,1.714c-2.84,0-5.142-.767-5.142-1.714s2.3-1.714,5.142-1.714a9.611,9.611,0,0,1,5.142,1.714Z" transform="translate(-270.918 -169.511)" fill="#f2f2f2"/>
    <path id="Path_405" data-name="Path 405" d="M646.4,233.035a9.61,9.61,0,0,1-5.142,1.714c-2.84,0-5.142-.767-5.142-1.714s2.3-1.714,5.142-1.714A9.611,9.611,0,0,1,646.4,233.035Z" transform="translate(-263.103 -181.703)" fill="#f2f2f2"/>
    <path id="Path_406" data-name="Path 406" d="M587.75,223.9a9.61,9.61,0,0,1,2.7-4.7c2.119-1.891,4.348-2.851,4.978-2.144s-.577,2.812-2.7,4.7a9.611,9.611,0,0,1-4.978,2.144Z" transform="translate(-245.998 -176.577)" fill="#f2f2f2"/>
    <path id="Path_407" data-name="Path 407" d="M547.971,214.182a9.611,9.611,0,0,1,2.7-4.7c2.119-1.891,4.348-2.851,4.978-2.144s-.577,2.812-2.7,4.7A9.61,9.61,0,0,1,547.971,214.182Z" transform="translate(-231.93 -173.138)" fill="#f2f2f2"/>
    <path id="Path_408" data-name="Path 408" d="M479.023,261.916a9.611,9.611,0,0,1,2.7-4.7c2.119-1.891,4.348-2.851,4.978-2.144s-.577,2.812-2.7,4.7a9.611,9.611,0,0,1-4.978,2.144Z" transform="translate(-207.545 -190.02)" fill="#f2f2f2"/>
    <path id="Path_409" data-name="Path 409" d="M631.948,208.878a9.611,9.611,0,0,1,2.7-4.7c2.119-1.891,4.348-2.851,4.978-2.144s-.577,2.812-2.7,4.7A9.611,9.611,0,0,1,631.948,208.878Z" transform="translate(-261.629 -171.262)" fill="#f2f2f2"/>
    <path id="Path_410" data-name="Path 410" d="M616.036,240.7a9.61,9.61,0,0,1,2.7-4.7c2.119-1.891,4.348-2.851,4.978-2.144s-.577,2.812-2.7,4.7A9.61,9.61,0,0,1,616.036,240.7Z" transform="translate(-256.001 -182.517)" fill="#f2f2f2"/>
    <path id="Path_411" data-name="Path 411" d="M897.541,637.975s-7.823,2.347-11.734,7.04c0,0-7.04,3.129-11.343,2.347s-12.125,7.04-5.867,9.387,44.589,8.6,45.371,6.649.782-21.9.782-21.9Z" transform="translate(-344.496 -325.521)" fill="#575a89"/>
    <path id="Path_412" data-name="Path 412" d="M994.336,632.779s-7.307,3.648-10.359,8.941c0,0-6.4,4.286-10.775,4.25s-10.744,9.008-4.177,10.251,45.4.862,45.84-1.2-2.97-21.715-2.97-21.715Z" transform="translate(-379.842 -323.683)" fill="#575a89"/>
    <circle id="Ellipse_40" data-name="Ellipse 40" cx="17.601" cy="17.601" r="17.601" transform="translate(548.156 8.743)" fill="#ffb9b9"/>
    <path id="Path_413" data-name="Path 413" d="M946.431,199.851s1.956,13.3,5.476,14.863a25.985,25.985,0,0,1,6.649,4.693l-9.778,4.694-19.165-1.173s1.565-8.6-1.173-12.907S946.431,199.851,946.431,199.851Z" transform="translate(-366.398 -170.574)" fill="#ffb9b9"/>
    <path id="Path_414" data-name="Path 414" d="M1004.129,297.279s9,23.077,0,45.371-12.907,25.815-12.907,25.815l-2.738-29.335,3.148-2.856s1.906-8.9.357-14.169.8-21.7.8-21.7Z" transform="translate(-387.722 -205.03)" fill="#ffb9b9"/>
    <path id="Path_415" data-name="Path 415" d="M902.995,366.819s-11.343,25.814-10.169,38.331,10.169,65.318,10.169,65.318-1.173,68.056,2.347,68.056,20.339,6.258,20.339,1.956S929.2,432.92,929.2,432.92s19.948,45.371,21.9,48.891,14.472,58.669,18.774,58.669,17.6-3.911,16.427-6.649-14.472-63.754-21.9-79.4-5.867-74.706-5.867-74.706l-12.516-27.379Z" transform="translate(-353.861 -224.505)" fill="#3f3d56"/>
    <path id="Path_416" data-name="Path 416" d="M918.762,172.88s-10.952-.782-11.734-3.52-2.347-5.085-1.565-5.085,1.174-1.956,1.174-1.956.782-.391,1.173,0,.782-2.738.782-2.738.391-1.173.782-.391.391.391.782-.782,2.347-1.956,2.347-1.956,7.432.391,8.6-1.173,14.472-.391,17.21,1.565,14.863,9,12.907,14.863-9,18.774-9,20.73-2.738,1.565-3.52-.391-7.04-4.3-7.04-5.476-3.52-12.125-5.476-11.343-4.3,7.04-5.085,5.867S918.762,172.88,918.762,172.88Z" transform="translate(-358.285 -154.554)" fill="#3f3d56"/>
    <path id="Path_417" data-name="Path 417" d="M971.33,249.975S955.3,226.507,950.6,225.334s-15.254-4.3-15.254-4.3-10.56,1.565-13.689,3.129-14.863,4.3-15.254,9,3.129,49.673,1.173,53.976-8.6,45.371-5.476,44.589.782-10.952,14.472-11.343,21.121-8.6,26.206,1.173,19.556,17.21,19.556,17.21a94.624,94.624,0,0,1,1.565-9.387c1.173-5.476-3.129-18.774-3.129-18.774s.391-30.9,1.956-34.419S971.33,249.975,971.33,249.975Z" transform="translate(-356.881 -178.064)" fill="#00afca"/>
    <path id="Path_418" data-name="Path 418" d="M996.951,264.6l5.867.782s-.391,7.823,1.173,10.169,4.3,14.472,2.738,14.863-15.645,2.738-15.645,2.738l-.784-17.992Z" transform="translate(-388.364 -193.473)" fill="#00afca"/>
    <path id="Path_419" data-name="Path 419" d="M887.231,286.387s-3.911,25.423-5.867,28.552-11.734,46.935-11.734,46.935-16.079,22.361-8.257,21.97,16.079-20.405,16.079-20.405,24.25-44.2,24.25-48.891,5.867-28.161,5.867-28.161Z" transform="translate(-342.009 -201.178)" fill="#ffb9b9"/>
    <path id="Path_420" data-name="Path 420" d="M912.246,233.134l-7.04,2.738s-9,32.073-7.04,34.81,25.423-1.173,25.814-2.347S919.678,233.134,912.246,233.134Z" transform="translate(-355.681 -182.344)" fill="#00afca"/>
    <path id="Path_421" data-name="Path 421" d="M155.594,561.532c0,38.108,23.907,68.945,53.452,68.945" transform="translate(-93.161 -298.486)" fill="#46455b"/>
    <path id="Path_422" data-name="Path 422" d="M238.293,630.053c0-38.536,26.679-69.72,59.649-69.72" transform="translate(-122.409 -298.062)" fill="#6c63ff"/>
    <path id="Path_423" data-name="Path 423" d="M185.557,566.877c0,36.2,15.245,65.49,34.085,65.49" transform="translate(-103.758 -300.376)" fill="#6c63ff"/>
    <path id="Path_424" data-name="Path 424" d="M238.293,619.456c0-49.241,30.837-89.086,68.945-89.086" transform="translate(-122.409 -287.465)" fill="#46455b"/>
    <path id="Path_425" data-name="Path 425" d="M220.895,666.713s7.58-.233,9.865-1.86,11.661-3.569,12.227-.96,11.392,12.976,2.834,13.045-19.885-1.333-22.166-2.722S220.895,666.713,220.895,666.713Z" transform="translate(-116.256 -334.236)" fill="#a8a8a8"/>
    <path id="Path_426" data-name="Path 426" d="M245.974,678.265c-8.558.069-19.885-1.333-22.165-2.722-1.736-1.058-2.428-4.853-2.66-6.6l-.253.01s.48,6.114,2.76,7.5,13.607,2.791,22.165,2.722c2.47-.02,3.324-.9,3.277-2.2C248.755,677.759,247.813,678.25,245.974,678.265Z" transform="translate(-116.256 -336.472)" opacity="0.2"/>
  </g>
</svg>
