<svg xmlns="http://www.w3.org/2000/svg" width="589.546" height="471.209" viewBox="0 0 589.546 471.209">
  <g id="undraw_teaching_f1cm" transform="translate(0)">
    <rect id="Rectangle_13" data-name="Rectangle 13" width="53.462" height="16.163" rx="7.43" transform="translate(120.519 80.814)" fill="#6c63ff" opacity="0.1"/>
    <rect id="Rectangle_14" data-name="Rectangle 14" width="53.462" height="16.163" rx="7.43" transform="translate(176.467 96.977)" fill="#6c63ff" opacity="0.1"/>
    <rect id="Rectangle_15" data-name="Rectangle 15" width="53.462" height="16.163" rx="7.43" transform="translate(232.416 113.14)" fill="#6c63ff" opacity="0.1"/>
    <rect id="Rectangle_16" data-name="Rectangle 16" width="53.462" height="16.163" rx="7.43" transform="translate(120.519 56.57)" fill="#6c63ff" opacity="0.1"/>
    <rect id="Rectangle_17" data-name="Rectangle 17" width="53.462" height="16.163" rx="7.43" transform="translate(176.467 72.733)" fill="#6c63ff" opacity="0.1"/>
    <rect id="Rectangle_18" data-name="Rectangle 18" width="53.462" height="16.163" rx="7.43" transform="translate(232.416 88.896)" fill="#6c63ff" opacity="0.1"/>
    <rect id="Rectangle_19" data-name="Rectangle 19" width="53.462" height="16.163" rx="7.43" transform="translate(294.581 80.814)" fill="#6c63ff" opacity="0.1"/>
    <rect id="Rectangle_20" data-name="Rectangle 20" width="53.462" height="16.163" rx="7.43" transform="translate(350.529 96.977)" fill="#6c63ff" opacity="0.1"/>
    <rect id="Rectangle_21" data-name="Rectangle 21" width="53.462" height="16.163" rx="7.43" transform="translate(406.477 113.14)" fill="#6c63ff" opacity="0.1"/>
    <rect id="Rectangle_22" data-name="Rectangle 22" width="53.462" height="16.163" rx="7.43" transform="translate(294.581 56.57)" fill="#6c63ff" opacity="0.1"/>
    <rect id="Rectangle_23" data-name="Rectangle 23" width="53.462" height="16.163" rx="7.43" transform="translate(350.529 72.733)" fill="#6c63ff" opacity="0.1"/>
    <rect id="Rectangle_24" data-name="Rectangle 24" width="53.462" height="16.163" rx="7.43" transform="translate(406.477 88.896)" fill="#6c63ff" opacity="0.1"/>
    <rect id="Rectangle_25" data-name="Rectangle 25" width="53.462" height="16.163" rx="7.43" transform="translate(120.519 24.244)" fill="#6c63ff" opacity="0.1"/>
    <rect id="Rectangle_26" data-name="Rectangle 26" width="53.462" height="16.163" rx="7.43" transform="translate(176.467 40.407)" fill="#6c63ff" opacity="0.1"/>
    <rect id="Rectangle_27" data-name="Rectangle 27" width="53.462" height="16.163" rx="7.43" transform="translate(232.416 56.57)" fill="#6c63ff" opacity="0.1"/>
    <rect id="Rectangle_28" data-name="Rectangle 28" width="53.462" height="16.163" rx="7.43" transform="translate(120.519)" fill="#6c63ff" opacity="0.1"/>
    <rect id="Rectangle_29" data-name="Rectangle 29" width="53.462" height="16.163" rx="7.43" transform="translate(176.467 16.163)" fill="#6c63ff" opacity="0.1"/>
    <rect id="Rectangle_30" data-name="Rectangle 30" width="53.462" height="16.163" rx="7.43" transform="translate(232.416 32.326)" fill="#6c63ff" opacity="0.1"/>
    <rect id="Rectangle_31" data-name="Rectangle 31" width="53.462" height="16.163" rx="7.43" transform="translate(294.581 24.244)" fill="#6c63ff" opacity="0.1"/>
    <rect id="Rectangle_32" data-name="Rectangle 32" width="53.462" height="16.163" rx="7.43" transform="translate(350.529 40.407)" fill="#6c63ff" opacity="0.1"/>
    <rect id="Rectangle_33" data-name="Rectangle 33" width="53.462" height="16.163" rx="7.43" transform="translate(406.477 56.57)" fill="#6c63ff" opacity="0.1"/>
    <rect id="Rectangle_34" data-name="Rectangle 34" width="53.462" height="16.163" rx="7.43" transform="translate(294.581)" fill="#6c63ff" opacity="0.1"/>
    <rect id="Rectangle_35" data-name="Rectangle 35" width="53.462" height="16.163" rx="7.43" transform="translate(350.529 16.163)" fill="#6c63ff" opacity="0.1"/>
    <rect id="Rectangle_36" data-name="Rectangle 36" width="53.462" height="16.163" rx="7.43" transform="translate(406.477 32.326)" fill="#6c63ff" opacity="0.1"/>
    <rect id="Rectangle_37" data-name="Rectangle 37" width="53.462" height="16.163" rx="7.43" transform="translate(120.519 368.637)" fill="#6c63ff" opacity="0.1"/>
    <rect id="Rectangle_38" data-name="Rectangle 38" width="53.462" height="16.163" rx="7.43" transform="translate(176.467 384.8)" fill="#6c63ff" opacity="0.1"/>
    <rect id="Rectangle_39" data-name="Rectangle 39" width="53.462" height="16.163" rx="7.43" transform="translate(232.416 400.963)" fill="#6c63ff" opacity="0.1"/>
    <rect id="Rectangle_40" data-name="Rectangle 40" width="53.462" height="16.163" rx="7.43" transform="translate(120.519 344.393)" fill="#6c63ff" opacity="0.1"/>
    <rect id="Rectangle_41" data-name="Rectangle 41" width="53.462" height="16.163" rx="7.43" transform="translate(176.467 360.556)" fill="#6c63ff" opacity="0.1"/>
    <rect id="Rectangle_42" data-name="Rectangle 42" width="53.462" height="16.163" rx="7.43" transform="translate(232.416 376.719)" fill="#6c63ff" opacity="0.1"/>
    <rect id="Rectangle_43" data-name="Rectangle 43" width="53.462" height="16.163" rx="7.43" transform="translate(294.581 368.637)" fill="#6c63ff" opacity="0.1"/>
    <rect id="Rectangle_44" data-name="Rectangle 44" width="53.462" height="16.163" rx="7.43" transform="translate(350.529 384.8)" fill="#6c63ff" opacity="0.1"/>
    <rect id="Rectangle_45" data-name="Rectangle 45" width="53.462" height="16.163" rx="7.43" transform="translate(406.477 400.963)" fill="#6c63ff" opacity="0.1"/>
    <rect id="Rectangle_46" data-name="Rectangle 46" width="53.462" height="16.163" rx="7.43" transform="translate(294.581 344.393)" fill="#6c63ff" opacity="0.1"/>
    <rect id="Rectangle_47" data-name="Rectangle 47" width="53.462" height="16.163" rx="7.43" transform="translate(350.529 360.556)" fill="#6c63ff" opacity="0.1"/>
    <rect id="Rectangle_48" data-name="Rectangle 48" width="53.462" height="16.163" rx="7.43" transform="translate(406.477 376.719)" fill="#6c63ff" opacity="0.1"/>
    <rect id="Rectangle_49" data-name="Rectangle 49" width="53.462" height="16.163" rx="7.43" transform="translate(120.519 312.067)" fill="#6c63ff" opacity="0.1"/>
    <rect id="Rectangle_50" data-name="Rectangle 50" width="53.462" height="16.163" rx="7.43" transform="translate(176.467 328.23)" fill="#6c63ff" opacity="0.1"/>
    <rect id="Rectangle_51" data-name="Rectangle 51" width="53.462" height="16.163" rx="7.43" transform="translate(232.416 344.393)" fill="#6c63ff" opacity="0.1"/>
    <rect id="Rectangle_52" data-name="Rectangle 52" width="53.462" height="16.163" rx="7.43" transform="translate(120.519 287.823)" fill="#6c63ff" opacity="0.1"/>
    <rect id="Rectangle_53" data-name="Rectangle 53" width="53.462" height="16.163" rx="7.43" transform="translate(176.467 303.986)" fill="#6c63ff" opacity="0.1"/>
    <rect id="Rectangle_54" data-name="Rectangle 54" width="53.462" height="16.163" rx="7.43" transform="translate(232.416 320.149)" fill="#6c63ff" opacity="0.1"/>
    <rect id="Rectangle_55" data-name="Rectangle 55" width="53.462" height="16.163" rx="7.43" transform="translate(294.581 312.067)" fill="#6c63ff" opacity="0.1"/>
    <rect id="Rectangle_56" data-name="Rectangle 56" width="53.462" height="16.163" rx="7.43" transform="translate(350.529 328.23)" fill="#6c63ff" opacity="0.1"/>
    <rect id="Rectangle_57" data-name="Rectangle 57" width="53.462" height="16.163" rx="7.43" transform="translate(406.477 344.393)" fill="#6c63ff" opacity="0.1"/>
    <rect id="Rectangle_58" data-name="Rectangle 58" width="53.462" height="16.163" rx="7.43" transform="translate(294.581 287.823)" fill="#6c63ff" opacity="0.1"/>
    <rect id="Rectangle_59" data-name="Rectangle 59" width="53.462" height="16.163" rx="7.43" transform="translate(350.529 303.986)" fill="#6c63ff" opacity="0.1"/>
    <rect id="Rectangle_60" data-name="Rectangle 60" width="53.462" height="16.163" rx="7.43" transform="translate(406.477 320.149)" fill="#6c63ff" opacity="0.1"/>
    <ellipse id="Ellipse_30" data-name="Ellipse 30" cx="272.593" cy="22.379" rx="272.593" ry="22.379" transform="translate(27.272 426.451)" fill="#6c63ff" opacity="0.1"/>
    <path id="Path_244" data-name="Path 244" d="M178.443,253.375c25.705,11.14,40.476,34.191,40.476,34.191s-26.911,4.973-52.623-6.161-40.476-34.191-40.476-34.191S152.731,242.235,178.443,253.375Z" transform="translate(-125.82 -137.251)" fill="#6c63ff"/>
    <path id="Path_245" data-name="Path 245" d="M332.913,177.271C340.864,164.216,354.4,158,354.4,158s.622,14.882-7.3,27.9-21.5,19.228-21.5,19.228S324.956,190.251,332.913,177.271Z" transform="translate(-201.403 -103.917)" fill="#6c63ff"/>
    <path id="Path_246" data-name="Path 246" d="M241.922,187.2c5.688,20.3,21.366,33.668,21.366,33.668s6.459-19.563.771-39.873-21.372-33.668-21.372-33.668S236.227,166.893,241.922,187.2Z" transform="translate(-168.859 -99.88)" fill="#46455b"/>
    <rect id="Rectangle_61" data-name="Rectangle 61" width="453.182" height="226.902" rx="7.21" transform="translate(73.895 86.409)" fill="#3f3d56"/>
    <path id="Path_247" data-name="Path 247" d="M118.87,482H572.052v9.194a4.482,4.482,0,0,1-4.482,4.482H123.352a4.482,4.482,0,0,1-4.482-4.482Z" transform="translate(-44.975 -182.366)" opacity="0.1"/>
    <rect id="Rectangle_62" data-name="Rectangle 62" width="33.569" height="16.785" rx="2.5" transform="translate(118.032 282.85)" fill="#6c63ff"/>
    <rect id="Rectangle_63" data-name="Rectangle 63" width="23.001" height="2.487" rx="1.243" transform="translate(160.926 297.148)" fill="#6c63ff"/>
    <path id="Path_248" data-name="Path 248" d="M329.411,274.885c16.405,3.027,33.14,0,49.477-2.051l49.651-6.216c2.008-.255,4.93-1.455,6.111,1,.665,1.374.218,4.352.267,5.931.131,4.352.118,8.7,0,13.055-.224,8.318-.833,16.617-1.61,24.9-1.511,16.206-3.649,32.326-4.718,48.594-.547,8.28-.821,16.586-.578,24.866.056,1.977.137,3.954.255,5.924.131,2.207,1.119,5.483-1.287,6.956-1.374.845-4.078.8-5.651,1.051-2.487.392-4.973.7-7.51.957-16.716,1.672-33.65.976-50.428.877l-50.664-.261-12.358-.068c-1.119,0-5.153.671-5.843-.659-.292-.566.485-3.214.622-3.923q.286-1.753.622-3.5c1.442-8.175,3.146-16.3,4.861-24.418,3.686-17.406,7.46-34.9,8.977-52.678.752-8.921.255-17.922,1.175-26.824.429-4.134.939-13.359,6.44-13.726,4.662-.311,9.461,0,14.136,0a.932.932,0,0,0,0-1.865c-4.414,0-8.834-.118-13.247-.031-2.934.056-4.973.752-6.372,3.45-3.574,6.925-3.208,16.163-3.32,23.722-.267,18.1-3.046,35.807-6.664,53.505-1.821,8.908-3.786,17.785-5.595,26.7-.852,4.258-1.666,8.529-2.412,12.812-.348,2.039-2.107,6.533-.56,8.4s6.31.864,8.442.877l14.833.087,28.422.162c18.364.106,36.789.622,55.146.081,8.765-.261,18.028-.622,26.563-2.717,2.543-.622,3.767-1.79,3.867-4.5.149-4.2-.535-8.535-.622-12.756-.622-36.118,7.864-71.732,6.994-107.862-.056-2.456.87-8.647-1.815-10.133-1.206-.671-2.773-.3-4.041-.155-2.424.28-4.843.622-7.267.908l-31.486,3.929c-10.064,1.243-20.123,2.586-30.206,3.73-10.674,1.243-21.453,1.983-32.089,0-1.175-.218-1.678,1.579-.5,1.8Z" transform="translate(-188.906 -144.102)" fill="#6c63ff"/>
    <path id="Path_249" data-name="Path 249" d="M319.454,311.886l124.218-6.092c1.2-.062,1.206-1.927,0-1.865l-124.218,6.092C318.26,310.077,318.254,311.942,319.454,311.886Z" transform="translate(-198.742 -159.128)" fill="#6c63ff"/>
    <path id="Path_250" data-name="Path 250" d="M381.044,288.343a3.108,3.108,0,0,0,1.1,5.017c1.672.765,3.637.124,5.3-.292,2.487-.622,4.973-1.175,7.528-1.629a102.674,102.674,0,0,1,16.841-1.566c2.574-.031,5.129.087,7.7.2,1.865.075,3.873.224,5.452-.932,1.8-1.318,2.387-3.891.622-5.5-2.487-2.269-7.845-.951-10.717-.715a240.338,240.338,0,0,0-31,4.625c-1.169.249-.678,2.051.5,1.8q10.114-2.182,20.384-3.506,5.048-.622,10.114-1.051c1.591-.131,3.183-.249,4.774-.342.622-.037,1.281-.106,1.915-.087,1.971.043,2.2-.311,1.02,2.07-1.051,2.107-.715,1.865-2.536,1.8-.771,0-1.542-.087-2.312-.124q-2.369-.1-4.737-.106-5.042,0-10.058.485c-2.835.273-5.663.659-8.467,1.156-1.753.311-3.494.671-5.228,1.069-.765.18-1.535.367-2.3.559-.367.1-.74.187-1.107.28q-2.039.709-3.475-1.865c.833-.864-.479-2.188-1.318-1.318Z" transform="translate(-222.064 -150.958)" fill="#6c63ff"/>
    <path id="Path_251" data-name="Path 251" d="M399.743,333.806c-9-.348-18.712,2.083-24.636,9.325-4.637,5.663-7.279,15.38-2.368,21.758,5.278,6.838,16.853,5.632,23.834,2.717,7.385-3.108,15.467-9.517,17.686-17.537,2.766-10.015-6.216-17.586-15.572-17.7a.933.933,0,0,0,0,1.865c5.334.062,10.568,2.35,13.055,7.317,2.6,5.234.361,10.73-3.108,14.92-5.558,6.67-14.248,11.7-23.1,11.556-5.315-.081-11.19-1.9-12.837-7.51a17.356,17.356,0,0,1,2.039-13.539c5.11-8.7,15.51-11.65,25.046-11.277,1.2.044,1.2-1.821,0-1.865Z" transform="translate(-218.246 -169.89)" fill="#6c63ff"/>
    <path id="Path_252" data-name="Path 252" d="M401.422,353.11a2.424,2.424,0,0,0-3.257,2.487c.186,2.424,2.86,3.108,4.868,2.965,1.734-.149,3.761-.789,3.152-2.959a2.785,2.785,0,0,0-1.517-1.753,3.512,3.512,0,0,0-1.753-.218c-.23,0-2.337.771-1.442-.155L400,353.284a1.529,1.529,0,0,1,.448,1.243.939.939,0,0,0,1.4.8,1.243,1.243,0,0,1,1.685,1.455.939.939,0,0,0,1.7.721c.622-1.119,1.374-3.344.441-4.513-.622-.789-1.821-.553-2.567-.093a8.993,8.993,0,0,0-1.281,1.1c-.752.665-1.243.976-.964-.3.466-2.319,2.679-4.165,4.7-5.091l-1.368-1.051a19.656,19.656,0,0,1-3.761,7.367l1.591.659a4.153,4.153,0,0,1,2.536-4.047h-.914l.485.8c-.18,1.175,1.616,1.678,1.8.491.236-1.535-.734-3.531-2.53-2.779a5.855,5.855,0,0,0-3.214,5.539c0,.746,1.057,1.324,1.6.665a21.918,21.918,0,0,0,4.233-8.2A.945.945,0,0,0,404.648,347a10.425,10.425,0,0,0-4.526,3.941c-.758,1.243-1.71,3.183-.939,4.613a1.977,1.977,0,0,0,2.7.765,7.272,7.272,0,0,0,1.56-1.243c.23-.205.485-.559.79-.622.273-.186.261-.081-.043.329a3.389,3.389,0,0,1-.541,1.815l1.7.715a3.108,3.108,0,0,0-4.42-3.562l1.4.808a3.388,3.388,0,0,0-.7-2.194.945.945,0,0,0-1.461-.193,2.439,2.439,0,0,0,.062,3.612c.889.678,1.324,0,2.3-.155,3.313-.429,1.38,1.063.211,1.113a4.407,4.407,0,0,1-1.56-.112q-1.946-.659-.242-1.7c1.113.454,1.591-1.349.5-1.8Z" transform="translate(-228.858 -175.38)" fill="#6c63ff"/>
    <path id="Path_253" data-name="Path 253" d="M395.357,361.682c.765,2.487-2.393,3.307-3.892,4.165a8.667,8.667,0,0,0-2.692,2.356c-1.567,2.1-2.151,4.774-2.667,7.292-.236,1.175,1.56,1.672,1.8.5a21.141,21.141,0,0,1,1.573-5.365c1.119-2.225,2.723-2.971,4.812-4.115s3.6-2.915,2.86-5.327C396.806,360.04,395,360.531,395.357,361.682Z" transform="translate(-224.292 -180.546)" fill="#6c63ff"/>
    <path id="Path_254" data-name="Path 254" d="M399.949,360.37a1.8,1.8,0,0,0-1.554,1.865c0,.74.491,1.212.827,1.8a14.234,14.234,0,0,1,1.8,3.923c.3,1.337.591,3.73-.106,4.973-1.287,2.306-3.612,1.865-5.595,1.865-1.865,0-3.307.622-3.245-1.977.037-1.461,1.057-2.94,1.865-4.09l-1.7-.224a32.491,32.491,0,0,1,.566,5.756c0,.864,1.324,1.343,1.734.466a36.01,36.01,0,0,0,2.368-6.552l-1.834-.249.323,4.725a.939.939,0,0,0,1.734.472,2.114,2.114,0,0,0,.466-.839c.062-.292-.51-2.263-.74-1.56l1.828.249.131-4.488-1.865.249a9.288,9.288,0,0,1,.348,3.916c-.118,1.038,1.629,1.274,1.865.249l1.169-6.03-1.7.218a4.121,4.121,0,0,1,.317,2.685c-.137,1.194,1.728,1.181,1.865,0a6.552,6.552,0,0,0-.572-3.624.939.939,0,0,0-1.7.224l-1.175,6.03,1.834.249a10.171,10.171,0,0,0-.416-4.408.932.932,0,0,0-1.828.242l-.131,4.488a.937.937,0,0,0,1.834.249l.1-.3a.945.945,0,0,0-.236-.908c-1.933-2.1-2.325,1.243-3,2.17l1.741.472-.323-4.725a.938.938,0,0,0-1.834-.249,33.419,33.419,0,0,1-2.176,6.111l1.741.472a35.151,35.151,0,0,0-.622-6.254c-.162-.858-1.287-.821-1.7-.224-1.243,1.79-3.394,5.7-1.734,7.845,1.448,1.865,6.005,1.144,7.951,1.026,3.071-.174,4.184-2.12,4.519-5.017a12.282,12.282,0,0,0-.23-4.153c-.168-.734-1.865-5.383-2.375-5.29,1.181-.218.678-2.02-.5-1.8Z" transform="translate(-225.776 -180.484)" fill="#6c63ff"/>
    <path id="Path_255" data-name="Path 255" d="M396.856,365.547l-5.091,6.72,1.61.939,3.73-5.4-1.7-.721-1.859,7.093a.939.939,0,0,0,1.7.721,32.756,32.756,0,0,1,2.841-4L396.532,370a10.151,10.151,0,0,1-2.344,4.308l1.56.908a8.33,8.33,0,0,1,.678-2.487c.479-1.075-1.038-2.027-1.61-.945a21.883,21.883,0,0,1-1.8,2.822l1.7.224.379-1.772-1.7-.224.274,1.554a.939.939,0,0,0,1.56.41,18.564,18.564,0,0,0,3.73-5.626h-1.6a8.376,8.376,0,0,1,.876,2.487c.224,1.119,1.71.7,1.828-.249a50.56,50.56,0,0,0,.41-6.279h-1.865v3.91c0,1.013,1.66,1.312,1.834.249a7.124,7.124,0,0,1,.914-2.673h-1.635a4.146,4.146,0,0,1,.622,2.114.932.932,0,0,0,1.865,0l.236-1.243h-1.8c.18,1.1.864,7.3-1.567,6.571-.41-.1-.528-.075-.354.068l.553-1.181,1.3-2.754-1.741-.472c.112,1.281.23,3.108-.541,4.2a3.22,3.22,0,0,1-3.512.721,6.216,6.216,0,0,1-1.623-1.7l-1.274,1.243c1.032.752,2.7,2.6,4.034,2.7,1.013.081,1.865-.758,2.53-1.43a10.835,10.835,0,0,0,3.04-7.976.932.932,0,1,0-1.865,0v2.126a.932.932,0,1,0,1.865,0v-5.216a.932.932,0,1,0-1.865,0,22.385,22.385,0,0,1-.323,3.73l1.834.249a42.927,42.927,0,0,1-.205-4.47.932.932,0,0,0-1.828-.249c-.28,1.187-.622,2.356-.951,3.519l1.7-.224-.131-.5c-.087-1.187-1.952-1.194-1.865,0a3.413,3.413,0,0,0,.385,1.442.942.942,0,0,0,1.7-.224c.354-1.169.671-2.337.951-3.519l-1.834-.249a42.953,42.953,0,0,0,.205,4.47c.093.957,1.635,1.368,1.828.249a25.69,25.69,0,0,0,.392-4.252h-1.865v5.216h1.865v-2.126h-1.865a8.964,8.964,0,0,1-2.269,6.391,7.646,7.646,0,0,1-.783.771c-.441.423-.845.361-1.2-.193a15.534,15.534,0,0,1-2.567-1.865c-.771-.553-1.828.541-1.281,1.274,1.43,1.9,3.562,4.022,6.216,3.108,2.791-.988,3.17-4.768,2.959-7.255-.068-.827-1.305-1.386-1.734-.466-.622,1.312-1.243,2.617-1.865,3.935a3.478,3.478,0,0,0-.559,1.641c.205,1.4,1.9,1.169,2.947,1.088,4.047-.3,3.407-6.042,2.94-8.927-.155-.957-1.548-.808-1.8,0a5.489,5.489,0,0,0-.3,1.766H402.2a7.391,7.391,0,0,0-.877-3.052.939.939,0,0,0-1.61,0,9.065,9.065,0,0,0-1.107,3.108l1.865.249v-3.91a.932.932,0,0,0-1.865,0,50.547,50.547,0,0,1-.41,6.279l1.834-.249a10.673,10.673,0,0,0-1.063-2.909.939.939,0,0,0-1.61,0,17.008,17.008,0,0,1-3.438,5.247l1.56.41-.274-1.554c-.143-.827-1.312-.852-1.7-.224a4.09,4.09,0,0,0-.566,3.208c.155.883,1.274.789,1.7.224a21.813,21.813,0,0,0,1.8-2.816l-1.61-.945a10.6,10.6,0,0,0-.87,2.928c-.112.821.864,1.678,1.56.908a12.433,12.433,0,0,0,2.822-5.135c.23-.845-.939-1.647-1.56-.908a35.612,35.612,0,0,0-3.108,4.352l1.7.721,1.9-7.068a.939.939,0,0,0-1.7-.721l-3.73,5.4c-.7,1,.9,1.865,1.61.939l5.073-6.714c.721-.957-.9-1.865-1.61-.945Z" transform="translate(-226.294 -181.471)" fill="#6c63ff"/>
    <path id="Path_256" data-name="Path 256" d="M526.914,363.27c7.46-4.563,13.39-11.37,19.98-17.064,7.149-6.173,14.652-11.923,22.379-17.369,15.007-10.568,30.765-20.023,46.512-29.454a.932.932,0,0,0-.939-1.61c-15.746,9.43-31.511,18.867-46.518,29.454-7.081,4.973-13.993,10.245-20.62,15.84-7.211,6.092-13.633,13.676-21.758,18.594-1.026.622-.087,2.238.939,1.61Z" transform="translate(-277.042 -156.758)" fill="#6c63ff"/>
    <path id="Path_257" data-name="Path 257" d="M694.265,253.847c-8.081.821-16.785,2.878-21.758,9.946-4.3,6.08-4.2,16.685-.168,22.926,4.582,7.093,13.943,7.348,21.217,5.054s14.8-6.316,14.733-15.007c-.037-4.662-1.722-9.517-3.581-13.745-1.6-3.649-4.445-6.838-8.747-6.434-1.187.112-1.2,1.977,0,1.865,5.763-.535,7.615,6.31,8.983,10.63,1.243,4.034,2.393,8.809.441,12.818s-6.658,6.055-10.68,7.522c-4.352,1.579-9.132,2.543-13.676,1.243-9-2.518-11.488-13.925-8.9-22.019,2.984-9.325,13.552-12.066,22.162-12.936,1.181-.118,1.193-1.983,0-1.865Z" transform="translate(-331.447 -140.178)" fill="#6c63ff"/>
    <path id="Path_258" data-name="Path 258" d="M714.265,369.847c-8.081.821-16.785,2.878-21.758,9.946-4.3,6.08-4.2,16.685-.168,22.926,4.582,7.093,13.944,7.348,21.217,5.054s14.8-6.316,14.733-15.007c-.037-4.662-1.722-9.517-3.581-13.745-1.6-3.649-4.445-6.838-8.747-6.434-1.187.112-1.2,1.977,0,1.865,5.763-.535,7.615,6.31,8.983,10.63,1.243,4.034,2.393,8.809.441,12.818s-6.658,6.055-10.68,7.522c-4.352,1.579-9.132,2.543-13.676,1.243-9-2.518-11.488-13.925-8.9-22.019,2.984-9.325,13.552-12.066,22.162-12.936,1.181-.118,1.194-1.983,0-1.865Z" transform="translate(-339.014 -184.067)" fill="#6c63ff"/>
    <path id="Path_259" data-name="Path 259" d="M689.713,263.708l5.887,6.714a.939.939,0,0,0,1.554-.417c1.243-3.27,1.007-6.658,1.3-10.1a33.24,33.24,0,0,1,2.642-10.3,34.768,34.768,0,0,1,13.912-15.945c1.026-.622.087-2.238-.939-1.61A36.5,36.5,0,0,0,700,247.508a35.726,35.726,0,0,0-3.108,9.866c-.621,4.034-.056,8.262-1.548,12.135l1.56-.417-5.856-6.7c-.8-.9-2.107.423-1.318,1.318Z" transform="translate(-339.085 -131.881)" fill="#6c63ff"/>
    <path id="Path_260" data-name="Path 260" d="M532.051,413.185q48.1-1.467,96.219-.622a.933.933,0,0,0,0-1.865q-48.109-.858-96.219.622C530.851,411.357,530.845,413.222,532.051,413.185Z" transform="translate(-279.177 -199.406)" fill="#6c63ff"/>
    <path id="Path_261" data-name="Path 261" d="M697.8,384.175A192.663,192.663,0,0,1,729.3,400c1.019.622,1.958-.976.939-1.61a194.715,194.715,0,0,0-31.915-16.014c-1.113-.441-1.6,1.361-.491,1.8Z" transform="translate(-342.004 -188.784)" fill="#6c63ff"/>
    <path id="Path_262" data-name="Path 262" d="M719.052,371.533a76.151,76.151,0,0,0-18.283,46.331c-.05,1.2,1.815,1.2,1.865,0A74.063,74.063,0,0,1,720.37,372.85C721.147,371.943,719.835,370.619,719.052,371.533Z" transform="translate(-343.353 -184.591)" fill="#6c63ff"/>
    <path id="Path_263" data-name="Path 263" d="M329.667,402.178l69.482-.908,7.988-.106c1.436,0,2.872-.05,4.308-.056a3.426,3.426,0,0,1,3.344,3.73c-.093,4.352-2.828,4.2-6.409,4.352l-8.635.392-35.16,1.548c-6.3.28-12.6.622-18.9.839-5.682.174-16.486-1.678-13.962-9.946.348-1.15-1.448-1.641-1.8-.5-1.243,4.066.957,8.193,4.5,10.326,5.029,3.021,11.656,2,17.207,1.747L394.8,411.64l10.481-.466c2.686-.124,6.422.423,8.89-.827,2.9-1.461,3.407-7.261,1.579-9.7-.939-1.243-2.257-1.355-3.73-1.411-3.867-.149-7.8.106-11.675.155l-21.521.286-49.179.622a.933.933,0,0,0,0,1.865Z" transform="translate(-202.596 -195.17)" fill="#6c63ff"/>
    <g id="Michel" transform="translate(399.062 139.635)">
      <path id="Path_264" data-name="Path 264" d="M776.495,763.485c-1.567.982-3.357,1.535-4.973,2.4a6.8,6.8,0,0,0-3.649,3.954,2.486,2.486,0,0,0,.081,1.691,3.281,3.281,0,0,0,1.741,1.38,26.413,26.413,0,0,0,20.894.236,27.51,27.51,0,0,1,3.606-1.43,23.426,23.426,0,0,1,4.619-.473,35.5,35.5,0,0,0,4.855-.622,4.271,4.271,0,0,0,2.2-.914,4.084,4.084,0,0,0,.988-2.375,19.55,19.55,0,0,0-3.108-13.85,4.677,4.677,0,0,0-1.355-1.436,5.227,5.227,0,0,0-2.157-.578c-3.108-.379-6.366-1.075-9.505-1.15-2.25-.05-3.382,1.019-4.973,2.567C782.469,756.175,780.548,760.955,776.495,763.485Z" transform="translate(-767.762 -467.656)" fill="#323444"/>
      <path id="Path_265" data-name="Path 265" d="M855.277,762.845c0,3.046.367,6.272,2.213,8.7a11.494,11.494,0,0,0,3.021,2.642c3.9,2.487,9.076,3.4,13.191,1.293a3.918,3.918,0,0,0,1.641-1.38c.622-1.082.292-2.431-.056-3.624l-5.955-20.639c-3.848.59-9.505,1.007-12.924,2.959C853.928,754.21,855.277,760.122,855.277,762.845Z" transform="translate(-800.735 -467.476)" fill="#323444"/>
      <path id="Path_266" data-name="Path 266" d="M774.337,562.916c-.361,1.138-1.666,1.666-2.381,2.623a4.98,4.98,0,0,0-.448,4.053,10.718,10.718,0,0,0,2.729,5.377,6.447,6.447,0,0,0,5.595,1.9,4.662,4.662,0,0,0,3.8-4.184,7.919,7.919,0,0,0-.584-2.692l-4.24-12.259a.464.464,0,0,0-.765-.336c-1,.472-3.009.97-3.593,2.008S774.76,561.791,774.337,562.916Z" transform="translate(-769.098 -394.63)" fill="#fbb3b2"/>
      <path id="Path_267" data-name="Path 267" d="M773,559.161a20.1,20.1,0,0,0,4.352-1.747c1.448-.6,3.264-.827,4.482.168.348.286.684.677,1.138.671a44.508,44.508,0,0,0-2.785-8.852.69.69,0,0,0-.242-.342.7.7,0,0,0-.528,0l-4.184,1.094c-1.548.4-1.728.28-1.61,1.8C773.653,552.633,774,559.161,773,559.161Z" transform="translate(-769.744 -391.49)" fill="#323444"/>
      <path id="Path_268" data-name="Path 268" d="M770.738,422.79a5.893,5.893,0,0,0-.622,3.276,111.368,111.368,0,0,0,.87,16.48c.193,1.305.435,2.611.559,3.929a45.305,45.305,0,0,1,.087,5.514l-.622,23.933c-.075,2.928-.224,6.073-2.033,8.374a4,4,0,0,0-.727,2.654c.472,6.005,1.467,11.961,2.455,17.9a11.059,11.059,0,0,1,10.034.479,110.445,110.445,0,0,0,5.153-30.461c.143-5.091-.074-10.214.709-15.243,1.312-8.467.777-17.151-.186-25.668-.3-2.7-.951-5.477-2.679-7.565a11.469,11.469,0,0,0-6.216-3.581C775.22,422.206,773.163,422.828,770.738,422.79Z" transform="translate(-767.942 -343.643)" fill="#5b5583"/>
      <path id="Path_269" data-name="Path 269" d="M770.738,422.79a5.893,5.893,0,0,0-.622,3.276,111.368,111.368,0,0,0,.87,16.48c.193,1.305.435,2.611.559,3.929a45.305,45.305,0,0,1,.087,5.514l-.622,23.933c-.075,2.928-.224,6.073-2.033,8.374a4,4,0,0,0-.727,2.654c.472,6.005,1.467,11.961,2.455,17.9a11.059,11.059,0,0,1,10.034.479,110.445,110.445,0,0,0,5.153-30.461c.143-5.091-.074-10.214.709-15.243,1.312-8.467.777-17.151-.186-25.668-.3-2.7-.951-5.477-2.679-7.565a11.469,11.469,0,0,0-6.216-3.581C775.22,422.206,773.163,422.828,770.738,422.79Z" transform="translate(-767.942 -343.643)" opacity="0.1"/>
      <path id="Path_270" data-name="Path 270" d="M783.243,529.494a109.789,109.789,0,0,0,6.54,63.557,17.238,17.238,0,0,1,1.517,4.7c.342,3.046-1.063,5.974-1.865,8.921-1.865,6.7-.79,13.838.4,20.695q.746,4.289,1.535,8.573c.516,2.785,1.013,5.812-.28,8.336,1.113,4.638,1.772,9.232,2.885,13.869a2.636,2.636,0,0,1,.106,1.138,3.351,3.351,0,0,1-1.138,1.523,6.8,6.8,0,0,0-1.734,6.509c2.841-2.039,6.8-1.324,10.046,0s6.44,3.108,9.946,3.108c-.51-4.115-1-8.436.516-12.3.883-2.238,2.437-4.352,2.393-6.745-.044-2.145-1.355-4.059-1.672-6.179a15.641,15.641,0,0,1,.149-3.954c.833-7.609-.112-15.292-1.057-22.889a13.677,13.677,0,0,0-1.044-4.352,6.424,6.424,0,0,1-1.088-2.754c0-1.163.939-2.107,1.287-3.214.622-2.039-.522-4.812,1.2-6.074,4.538-3.332,2.8-11.289,2.7-16.915q-.118-7.28-.622-14.547a61.961,61.961,0,0,1,3.431,25.077c-.2,2.785-.566,5.713.522,8.287.833,1.977,2.487,3.606,2.934,5.7a23.86,23.86,0,0,1,.143,3.947,4.067,4.067,0,0,0,1.647,3.419c.087,5.993.622,12.4.715,18.395a45.379,45.379,0,0,0,.746,9.138,11.644,11.644,0,0,1,.46,2.947,12.314,12.314,0,0,1-.982,3.624,20.782,20.782,0,0,0,3.108,19.178c1.467-2.6,4.526-3.985,7.509-4.2a27.24,27.24,0,0,1,8.821,1.293,17.276,17.276,0,0,1,2.064-10.506,8.6,8.6,0,0,0,1.088-2.337c.336-1.579-.448-3.152-.87-4.712-.69-2.487-.448-5.166-.286-7.764a122.876,122.876,0,0,0-1.15-26.059,22.081,22.081,0,0,0-1.187-4.973c-.224-.572-.5-1.119-.684-1.7a13.381,13.381,0,0,1-.5-3.183l-.715-9.946c-.5-6.969,1.784-13.85,3.382-20.651.715-3.046,1.492-6.086,1.971-9.182.653-4.215.758-8.523,1.716-12.682.858-3.73,2.406-7.367,2.729-11.19.5-5.924-1.964-11.65-4.352-17.083-.995-2.238-4.755-2.014-7.174-2.412-17.151-2.816-35.216-2.835-51.392,3.512A12.79,12.79,0,0,0,783.243,529.494Z" transform="translate(-772.85 -380.94)" fill="#3c354c"/>
      <path id="Path_271" data-name="Path 271" d="M802.83,353.979l1.9,7.4a19.769,19.769,0,0,1,.852,5.228,3.861,3.861,0,0,1-.417,1.865,4.445,4.445,0,0,1-1.181,1.206c-1.3.988-2.2,3.295-3.686,3.979.765,1.33,1.822.466,3.2,1.131,2.431,1.181,4.656,2.878,7.292,3.463a16.266,16.266,0,0,0,7.565-.622,26.126,26.126,0,0,0,9.8-4.557c2.816-2.294,4.42-4.32,4.407-7.945-3.108.367-5.875-2.773-7.248-5.595a15.2,15.2,0,0,1-1.044-3.351L822.6,348.85c-1.815.4-3.295,1.7-5.029,2.375a18.259,18.259,0,0,1-5.713.827,61.544,61.544,0,0,0-10.17,1.318c-.46.093-1.038.385-.926.833" transform="translate(-780.073 -315.76)" fill="#fbb3b2"/>
      <path id="Path_272" data-name="Path 272" d="M802.83,353.979l1.9,7.4a19.769,19.769,0,0,1,.852,5.228,3.861,3.861,0,0,1-.417,1.865,4.445,4.445,0,0,1-1.181,1.206c-1.3.988-2.2,3.295-3.686,3.979.765,1.33,1.822.466,3.2,1.131,2.431,1.181,4.656,2.878,7.292,3.463a16.266,16.266,0,0,0,7.565-.622,26.126,26.126,0,0,0,9.8-4.557c2.816-2.294,4.42-4.32,4.407-7.945-3.108.367-5.875-2.773-7.248-5.595a15.2,15.2,0,0,1-1.044-3.351L822.6,348.85c-1.815.4-3.295,1.7-5.029,2.375a18.259,18.259,0,0,1-5.713.827,61.544,61.544,0,0,0-10.17,1.318c-.46.093-1.038.385-.926.833" transform="translate(-780.073 -315.76)" opacity="0.1"/>
      <circle id="Ellipse_31" data-name="Ellipse 31" cx="16.461" cy="16.461" r="16.461" transform="translate(14.465 9.374)" fill="#fbb3b2"/>
      <path id="Path_273" data-name="Path 273" d="M813.166,373.717a14.922,14.922,0,0,1,3.73-4.973c2.319-2.033,5.489-3.68,6.036-6.714l5.023,5.85a2.7,2.7,0,0,1,.622.957,2.412,2.412,0,0,1-.472,1.933,20.13,20.13,0,0,1-5.054,4.836,153.517,153.517,0,0,0-12.178,10.742,1.244,1.244,0,0,1-.653.4,1.175,1.175,0,0,1-.678-.193,28.278,28.278,0,0,1-8.684-7.062c-.18-.218-.4-.466-.7-.448a.9.9,0,0,0-.466.242c-1.672,1.368-3.5,3-5.645,2.791a13.371,13.371,0,0,0,4.936-8.7,16.443,16.443,0,0,1,.709-3.4,3.55,3.55,0,0,1,2.425-2.3c-1.355,2.07-.429,5,1.392,6.676a13.726,13.726,0,0,0,6.167,2.99C811.792,377.739,812.414,375.346,813.166,373.717Z" transform="translate(-777.708 -320.747)" fill="#323444"/>
      <path id="Path_274" data-name="Path 274" d="M785.64,530c2.344.578,4.563,1.56,6.838,2.288a32.68,32.68,0,0,0,12.837,1.349,6.931,6.931,0,0,0,3.73-1.187c.292-.236.56-.516.87-.734a6.088,6.088,0,0,1,1.672-.69c5.7-1.784,10.475-5.632,15.106-9.4.149-.124.317-.28.3-.479a.623.623,0,0,0-.186-.354l-2.437-2.8c-6.391,1.088-12.937.678-19.42.516a28.2,28.2,0,0,0-3.991.106c-1.281.149-2.543.472-3.8.746-4.793,1.044-9.691,1.442-14.547,2.126a2.245,2.245,0,0,0-.964.3,2.169,2.169,0,0,0-.516.572l-1.7,2.393A7.53,7.53,0,0,0,778,527.5c-.4,1.865.435,2.487,2.02,2.244A14.757,14.757,0,0,1,785.64,530Z" transform="translate(-771.598 -379.759)" fill="#323444"/>
      <path id="Path_275" data-name="Path 275" d="M802.01,387.095a30.28,30.28,0,0,0-6.409-5,9.082,9.082,0,0,0-3.108-1.243,3.88,3.88,0,0,0-3.183.783c-.553.491-.9,1.175-1.436,1.691a7.143,7.143,0,0,1-2.275,1.287,40.352,40.352,0,0,0-7.994,4.557,18.338,18.338,0,0,0-3.624,3.344c-2.816,3.606-3.239,8.51-3.164,13.086.056,3.183,3.108,5.545,5.209,7.926a58.405,58.405,0,0,1,5.334,7.46c1.131,1.79,2.313,3.73,2.169,5.862-.118,1.747-1.138,3.388-.976,5.129.056.622.255,1.194.311,1.8a20.209,20.209,0,0,1-.5,3.73c-.168,1.759.4,3.506.435,5.278a16.785,16.785,0,0,1-.46,3.6c-1.193,5.682-2.692,11.395-2.387,17.195l-3.444.622a2.909,2.909,0,0,1-.665,4.644c5.377,1.8,11.19.889,16.89.883,4.718,0,9.418.622,14.13.535s9.573-.939,13.459-3.606c1.057-.721,2.027-1.567,3.139-2.194a15.487,15.487,0,0,1,4.756-1.554,47.19,47.19,0,0,1,9.325-.833c1.529,0,3.2.062,4.414-.858,1.343-1.019,1.685-2.866,1.865-4.538.18-1.766.292-3.537.323-5.309a22.885,22.885,0,0,0-.218-4.128,27.075,27.075,0,0,0-.727-2.959l-2.344-8.255c-.97-3.407.379-7.143.665-10.674a2.677,2.677,0,0,0-.559-2.337c-.23-.193-.547-.323-.622-.622a1.063,1.063,0,0,1,.149-.833,46.016,46.016,0,0,1,4.812-6.925,141.561,141.561,0,0,0,7.957-12.228,39.344,39.344,0,0,0-10.531-23.548,11.4,11.4,0,0,0-4.407-3.251,13.058,13.058,0,0,0-3.506-.566c-4.874-.329-9.946-.622-14.192-3.071a2.7,2.7,0,0,0-1.013-.429c-.939-.106-1.622.821-2.232,1.554-1.567,1.865-3.873,2.934-5.9,4.308C807.691,379.964,804.739,383.5,802.01,387.095Z" transform="translate(-768.914 -324.34)" fill="#5b5583"/>
      <path id="Path_276" data-name="Path 276" d="M889.354,420.967c.97,3.071.876,6.353,1.193,9.555a37.173,37.173,0,0,0,1.013,5.725,9.138,9.138,0,0,0,1.181,2.916,12.835,12.835,0,0,1,1.716,2.412,5.826,5.826,0,0,1,.255,1.94l.075,4.289a15.426,15.426,0,0,1-1.013,6.677l-2.679,8.15c-1.448,4.414-2.934,8.9-5.545,12.738a3.674,3.674,0,0,1-1.6,1.5,7.765,7.765,0,0,1-1.61.249,4.14,4.14,0,0,0-3.413,4.022,9.446,9.446,0,0,0-2.294-2.344l-5.452-4.352a23.3,23.3,0,0,0-6.074-3.935,16.467,16.467,0,0,0,11.451-13.838,6.217,6.217,0,0,1,.622-2.723c.454-.734,1.293-1.293,1.355-2.157.075-1.088-1.156-1.908-1.156-3,0-.721.535-1.318.771-2a5.01,5.01,0,0,0,0-2.555l-.752-4.177a3.19,3.19,0,0,0-.373-1.194,7.726,7.726,0,0,0-.933-.982c-1.293-1.448-.721-3.73,0-5.514a52.706,52.706,0,0,1,6.353-11.146,38.1,38.1,0,0,0,2.53-3.618c.659-1.144.808-2.729,1.5-3.73C887.377,416.23,888.59,418.549,889.354,420.967Z" transform="translate(-804.594 -340.365)" fill="#5b5583"/>
      <path id="Path_277" data-name="Path 277" d="M862.655,505.033a3,3,0,0,0-.709.746,6.285,6.285,0,0,1-2.816,2.008c.622.448,1.187.889,1.772,1.343a77.635,77.635,0,0,1,11.811,11.3c.392-1.4,2.735-1.3,3.307-2.636a2.582,2.582,0,0,0,.124-1.194,36.416,36.416,0,0,0-.9-6.216,7.036,7.036,0,0,0-1.243-2.909,7.46,7.46,0,0,0-3.519-1.989C868.529,504.8,864.644,503.834,862.655,505.033Z" transform="translate(-802.331 -374.637)" fill="#323444"/>
      <path id="Path_278" data-name="Path 278" d="M846.182,512.03c-1.865,1.38-3.5,3.108-5.595,4.053-1.48.671-3.164.964-4.457,1.964a4.429,4.429,0,0,0,4.227,2.288,10.046,10.046,0,0,0,4.731-1.734c1.113-.684,2.418-1.479,3.63-1,.187.945-.622,1.834-.622,2.791a2.813,2.813,0,0,0,1.579,2.157c3.73,2.406,8.529,2.207,12.974,1.927a1.168,1.168,0,0,0,.715-.211,1.126,1.126,0,0,0,.267-.821c.056-.982.081-1.958.087-2.94a4.215,4.215,0,0,0-1.8-4.153,50.729,50.729,0,0,0-7.771-5.5C851.41,509.264,848.638,510.2,846.182,512.03Z" transform="translate(-793.629 -376.748)" fill="#fbb3b2"/>
      <path id="Path_279" data-name="Path 279" d="M824.062,326.084c-2.76.329-4.768,2.487-4.488,4.83s2.741,3.96,5.5,3.624,4.768-2.487,4.488-4.824S826.823,325.755,824.062,326.084Zm.939,7.808c-2.337.28-4.42-1.094-4.662-3.071s1.467-3.8,3.8-4.084,4.42,1.094,4.662,3.071-1.467,3.8-3.8,4.084Z" transform="translate(-787.355 -307.131)" fill="#3c354c"/>
      <path id="Path_280" data-name="Path 280" d="M802.422,328.684c-2.76.329-4.768,2.487-4.488,4.824s2.741,3.96,5.5,3.63,4.768-2.487,4.488-4.83S805.183,328.355,802.422,328.684Zm.939,7.8c-2.337.28-4.42-1.094-4.656-3.065s1.461-3.8,3.8-4.09,4.42,1.094,4.656,3.071-1.467,3.8-3.8,4.084Z" transform="translate(-779.168 -308.114)" fill="#3c354c"/>
      <path id="Path_281" data-name="Path 281" d="M663.129,259.64l6,1.281-.591,1.579-5.657-1.66Z" transform="translate(-649.864 -237.871)" fill="#3c354c"/>
      <path id="Path_282" data-name="Path 282" d="M713.7,253.18l-5.533,2.667.951,1.392,5.1-2.953Z" transform="translate(-666.999 -235.426)" fill="#3c354c"/>
      <path id="Path_283" data-name="Path 283" d="M687.31,260.754l4.209-.5-.218,1.044-3.612.242Z" transform="translate(-659.107 -238.101)" fill="#3c354c"/>
      <path id="Path_284" data-name="Path 284" d="M793.78,316.862a6.676,6.676,0,0,0,.621-2.717,5.806,5.806,0,0,1,.286-1.654,4.627,4.627,0,0,1,1.355-1.734,12.537,12.537,0,0,1,7.46-2.6,17.245,17.245,0,0,1,8.629,1.865,6.716,6.716,0,0,1,2.145,1.591c.87,1.063,1.057,2.437,1.933,3.487a5.079,5.079,0,0,0,4.762,1.492c.3-1.082-.093-2.225.062-3.332a16.118,16.118,0,0,1,.989-2.76,6.784,6.784,0,0,0-3.338-7.833,12.887,12.887,0,0,1-2.971-1.865,14.054,14.054,0,0,1-1.461-2.549c-1.386-2.219-4.973-3.257-7.7-2.232-.858.323-1.616.814-2.487,1.163a20.5,20.5,0,0,1-5.234,1.007,16.032,16.032,0,0,0-5.073,1.33,5.681,5.681,0,0,0-3.177,3.431c-.168.671-.13,1.368-.3,2.033-.858,3.376-6.4,5.017-6.708,8.461a4.937,4.937,0,0,0,1.411,3.45c.584.69,1.983,2.536,2.971,2.8s1.741-.671,2.686-.995C792.133,318.236,793.034,318.137,793.78,316.862Z" transform="translate(-773.739 -295.621)" fill="#cbceda"/>
    </g>
    <path id="Path_285" data-name="Path 285" d="M912.81,682c0,31.232,19.594,56.508,43.808,56.508" transform="translate(-423.579 -302.173)" fill="#46455b"/>
    <path id="Path_286" data-name="Path 286" d="M983.28,738.132c0-31.586,21.87-57.142,48.893-57.142" transform="translate(-450.241 -301.791)" fill="#6c63ff"/>
    <path id="Path_287" data-name="Path 287" d="M938.35,686.56c0,29.671,12.5,53.679,27.931,53.679" transform="translate(-433.242 -303.898)" fill="#6c63ff"/>
    <path id="Path_288" data-name="Path 288" d="M983.28,728.469c0-40.357,25.276-73.019,56.508-73.019" transform="translate(-450.241 -292.128)" fill="#46455b"/>
    <ellipse id="Ellipse_32" data-name="Ellipse 32" cx="10.891" cy="1.84" rx="10.891" ry="1.84" transform="translate(520.251 443.453)" fill="#6c63ff" opacity="0.1"/>
    <path id="Path_289" data-name="Path 289" d="M968.46,771.507s6.216-.193,8.081-1.523,9.555-2.928,10.021-.789,9.325,10.636,2.319,10.692-16.3-1.094-18.165-2.232S968.46,771.507,968.46,771.507Z" transform="translate(-444.634 -334.768)" fill="#a8a8a8"/>
    <path id="Path_290" data-name="Path 290" d="M989.012,781.18c-7.012.056-16.293-1.094-18.165-2.232-1.424-.864-1.989-3.979-2.182-5.408h-.205s.392,5.011,2.263,6.148,11.152,2.288,18.165,2.232c2.027,0,2.723-.74,2.686-1.8C991.293,780.764,990.553,781.168,989.012,781.18Z" transform="translate(-444.634 -336.807)" opacity="0.2"/>
    <path id="Path_291" data-name="Path 291" d="M148.31,711.36c0,24.866,15.585,44.958,34.85,44.958" transform="translate(-134.329 -313.281)" fill="#46455b"/>
    <path id="Path_292" data-name="Path 292" d="M204.37,756.011c0-25.127,17.406-45.461,38.9-45.461" transform="translate(-155.54 -312.975)" fill="#6c63ff"/>
    <path id="Path_293" data-name="Path 293" d="M168.62,715c0,23.623,9.946,42.707,22.224,42.707" transform="translate(-142.013 -314.658)" fill="#6c63ff"/>
    <path id="Path_294" data-name="Path 294" d="M204.37,748.323c0-32.108,20.11-58.093,44.958-58.093" transform="translate(-155.54 -305.287)" fill="#46455b"/>
    <ellipse id="Ellipse_33" data-name="Ellipse 33" cx="8.666" cy="1.467" rx="8.666" ry="1.467" transform="translate(38.654 448.693)" fill="#6c63ff" opacity="0.1"/>
    <path id="Path_295" data-name="Path 295" d="M192.58,782.542s4.942-.155,6.428-1.243,7.609-2.331,7.976-.622,7.429,8.461,1.865,8.5-12.968-.87-14.453-1.772S192.58,782.542,192.58,782.542Z" transform="translate(-151.079 -339.188)" fill="#a8a8a8"/>
    <path id="Path_296" data-name="Path 296" d="M208.929,790.3c-5.595.044-12.968-.87-14.453-1.778-1.131-.684-1.579-3.164-1.734-4.3h-.162s.311,3.985,1.8,4.892,8.877,1.815,14.453,1.772c1.61,0,2.17-.584,2.138-1.436C210.745,789.945,210.129,790.262,208.929,790.3Z" transform="translate(-151.079 -340.848)" opacity="0.2"/>
  </g>
</svg>
