<?xml version="1.0" encoding="UTF-8"?>
<!DOCTYPE svg PUBLIC "-//W3C//DTD SVG 1.1//EN" "http://www.w3.org/Graphics/SVG/1.1/DTD/svg11.dtd">
<!-- Creator: CorelDRAW X5 -->
<svg xmlns="http://www.w3.org/2000/svg" xml:space="preserve" width="210mm" height="297mm" style="shape-rendering:geometricPrecision; text-rendering:geometricPrecision; image-rendering:optimizeQuality; fill-rule:evenodd; clip-rule:evenodd"
viewBox="0 0 210 297"
 xmlns:xlink="http://www.w3.org/1999/xlink">
 <defs>
  <style type="text/css">
   <![CDATA[
    .str0 {stroke:#2B2A29;stroke-width:0.1693}
    .str3 {stroke:#11070F;stroke-width:0.1693}
    .str1 {stroke:#2B2A29;stroke-width:0.2}
    .str2 {stroke:#2B2A29;stroke-width:0.2;stroke-linecap:round}
    .str6 {stroke:#E31E24;stroke-width:0.2}
    .str5 {stroke:#FEFEFE;stroke-width:0.2;stroke-linecap:round}
    .str4 {stroke:#050505;stroke-width:0.2;stroke-linecap:round}
    .fil5 {fill:none}
    .fil19 {fill:#2B2A29}
    .fil24 {fill:#FEFEFE}
    .fil21 {fill:#050505}
    .fil2 {fill:#11070F}
    .fil47 {fill:#110712}
    .fil10 {fill:#12070F}
    .fil11 {fill:#161169}
    .fil13 {fill:#161358}
    .fil0 {fill:#180E19}
    .fil12 {fill:#181758}
    .fil9 {fill:#1B1730}
    .fil43 {fill:#261B45}
    .fil51 {fill:#2A223A}
    .fil34 {fill:#3C365C}
    .fil49 {fill:#3E385C}
    .fil50 {fill:#3F3E5D}
    .fil42 {fill:#403E62}
    .fil35 {fill:#413B5E}
    .fil46 {fill:#413B61}
    .fil44 {fill:#434A63}
    .fil48 {fill:#646696}
    .fil53 {fill:#848B9D}
    .fil16 {fill:#8990A3}
    .fil33 {fill:#8A91A4}
    .fil41 {fill:#8B909F}
    .fil3 {fill:#8D6364}
    .fil32 {fill:#8D6468}
    .fil36 {fill:#8D6769}
    .fil39 {fill:#8E6768}
    .fil52 {fill:#8E91A2}
    .fil37 {fill:#8F91A7}
    .fil45 {fill:#906667}
    .fil23 {fill:#926869}
    .fil22 {fill:#956865}
    .fil31 {fill:#95696E}
    .fil38 {fill:#976A67}
    .fil6 {fill:#986F6B}
    .fil30 {fill:#B4B7BE}
    .fil25 {fill:#B8B8B8}
    .fil40 {fill:#C7A29A}
    .fil28 {fill:#C8A39B}
    .fil15 {fill:#CBA29C}
    .fil29 {fill:#CC9F9A}
    .fil17 {fill:#CEA19C}
    .fil1 {fill:#CFA29D}
    .fil27 {fill:#D0A39E}
    .fil26 {fill:#D1A8A2}
    .fil4 {fill:#D4A4A1}
    .fil18 {fill:#D7A0A3}
    .fil8 {fill:#FDDBCF}
    .fil20 {fill:#FDFDFD}
    .fil14 {fill:#FEDCD0}
    .fil7 {fill:#A55E54}
   ]]>
  </style>
 </defs>
 <g id="Слой_x0020_1">
  <metadata id="CorelCorpID_0Corel-Layer"/>
  <path class="fil0 str0" d="M82.7303 122.992c1.1479,-0.8147 2.1568,-1.5069 3.0267,-2.0764 -2.5454,-5.8906 -3.9514,-8.7025 -3.9514,-8.7025 -0.5419,-0.8535 -1.4241,-0.9712 -2.6468,-0.353 -0.58,0.4048 -1.3028,0.6705 -1.9408,1.1017 -0.8678,0.5863 -1.7429,1.011 -2.1762,2.0155 -0.4734,1.1214 -0.2097,2.0617 0.2351,3.1172 1.5065,3.575 2.4598,6.3683 3.4439,8.1518 1.9981,-1.6945 3.3346,-2.7792 4.0095,-3.2543z"/>
  <path class="fil1" d="M98.1392 114.318c-1.8935,2.2498 -3.5135,4.3768 -4.8602,6.381 1.1173,0.2234 2.4333,0.1494 3.9479,-0.2222 1.3676,-0.2988 2.365,-0.0287 2.9923,0.8104 0.0528,1.2065 0.3469,1.9318 0.8823,2.1762 0.5371,0.166 0.9436,0.4158 1.2193,0.7494 0.7975,0.0619 1.3659,-0.1146 1.7056,-0.5294 0.2725,-0.3465 0.6502,-0.4787 1.133,-0.3966 0.3608,-0.0979 0.8954,-0.392 1.6038,-0.8823 0.4364,-0.7603 1.078,-1.2647 1.9251,-1.5134 1.908,-0.7288 3.8835,-0.7631 5.9267,-0.1027 0.039,0.8016 -0.5106,1.8255 -1.6487,3.0715 -0.626,0.9019 -1.3122,2.3135 -2.0585,4.2347 -0.1988,0.4589 -0.4341,1.3999 -0.7058,2.8231 3.2036,-4.8885 5.5612,-8.2163 7.0733,-9.9836 3.5614,-4.6508 7.3142,-8.1175 11.2582,-10.3998 1.1925,-0.5381 2.5568,-1.3258 4.0927,-2.3632 -2.3574,-1.7871 -3.9955,-4.0892 -4.9143,-6.9063 -1.0842,-4.0288 -1.643,-8.1314 -1.6763,-12.3081 -0.558,-5.5272 -0.8371,-8.2909 -0.8371,-8.2909 -0.8904,-1.4119 -1.2574,-2.0492 -0.8342,-1.3782 -1.1324,0.2948 -1.5652,0.7089 -1.5652,0.7089 -5.491,5.0958 -8.3699,7.5103 -8.3699,7.5103 -1.3826,3.2918 -1.9405,5.0712 -1.9405,5.0712 -3.927,3.3171 -6.842,5.3873 -8.3449,6.6108 -1.4457,-0.3385 -2.1686,-0.5078 -2.1686,-0.5078 0.961,4.0364 1.5222,7.4303 1.6838,10.1819 0.4176,3.2377 0.3309,5.3069 -0.2601,6.2076 0.0797,-1.2708 -0.0583,-2.3363 -0.681,-2.9297 -0.6867,0.0532 -1.7442,0.4815 -2.906,1.0183 -0.5738,0.3637 -1.1313,0.75 -1.6727,1.1589z"/>
  <path class="fil2 str0" d="M127.903 37.1988c-2.3921,-0.224 -3.5881,-0.3361 -3.5881,-0.3361 4.2725,-1.2296 8.4641,-3.8912 12.3083,-7.9852 -2.6333,3.1951 -6.029,5.969 -8.7202,8.3213z"/>
  <path class="fil2 str0" d="M140.317 52.072c-9.0513,-5.1115 -13.577,-7.6673 -13.577,-7.6673 7.4331,-0.9792 14.2413,-3.5671 20.4246,-7.7635 -9.1143,7.3539 -14.3382,10.6307 -14.3382,10.6307 4.8159,3.2001 7.4906,4.8001 7.4906,4.8001z"/>
  <path class="fil3" d="M121.446 87.6762c0.1052,-3.7017 0.0935,-6.22 -0.0354,-7.5551 -1.0739,4.1968 -3.2043,7.7634 -6.3911,10.6997 2.7251,-2.1788 4.2606,-3.3003 4.6061,-3.3643 -0.1112,3.0633 -0.8317,7.151 -2.1614,12.263 2.0841,-5.1802 3.4113,-9.1947 3.9818,-12.0433z"/>
  <path class="fil4" d="M121.411 80.1211c-0.1156,-2.7866 -0.3098,-5.4689 -0.5823,-8.0471 -0.9926,3.5926 -1.6657,6.9043 -2.8194,9.6686 1.7427,-2.5977 1.2881,-2.3301 1.8373,-2.932 0.0068,2.4937 -0.1255,4.4052 -0.397,5.7345 -0.3676,1.0752 -1.5753,2.3388 -3.6232,3.7908 -0.2666,0.8145 -0.5355,1.6428 -0.8065,2.4849 3.2172,-2.9872 5.3476,-6.5538 6.3911,-10.6997z"/>
  <path class="fil2 str1" d="M135.552 58.5801c-0.621,-0.9153 -1.6318,-2.1264 -3.0324,-3.6337 3.6332,1.9155 7.6762,2.8902 12.1294,2.9238 -3.0936,0.5893 -6.1259,1.0927 -9.097,0.7099z"/>
  <path class="fil5 str2" d="M106.589 95.9516c0,0 0.7171,-0.3513 2.1513,-1.0538 5.6848,-3.2727 8.7546,-5.9439 9.7428,-8.0133"/>
  <path class="fil2 str1" d="M123.164 61.8055c0.5554,-0.7222 2.3119,-1.0405 3.2687,-0.1542 -0.8521,-2.5291 -1.2782,-3.7936 -1.2782,-3.7936 0.1059,0.6003 0.0027,1.159 -0.3098,1.6763 -0.6583,-2.1228 -1.4818,-4.1814 -2.4702,-6.1757 0.3883,2.783 0.6515,5.5987 0.7895,8.4472z"/>
  <path class="fil2 str1" d="M120.829 72.074c0.4121,-1.6437 0.7214,-3.3241 0.928,-5.0411 0.1277,5.268 0.0443,10.5657 -0.2501,15.0926 -0.2136,-4.6823 -0.4396,-8.2996 -0.6779,-10.0515z"/>
  <path class="fil6" d="M108.873 94.7765c-0.0388,0.5553 -0.0583,0.833 -0.0583,0.833 -1.4395,1.2163 -2.9964,2.4095 -4.6705,3.5796 -1.2493,0.0034 -2.0075,0.0052 -2.0075,0.0052 -0.1073,-0.431 -0.1611,-0.6464 -0.1611,-0.6464 -1.7927,0.0801 -2.6891,0.2535 -2.6891,0.2535 3.1597,-0.9648 6.4441,-2.3953 9.5865,-4.0249z"/>
  <path class="fil2" d="M91.4132 41.9698c0.1176,0.5881 0.1764,0.8822 0.1764,0.8822 0,0 -1.8588,-0.3413 -3.7094,0.1764 1.2357,0.1945 2.4749,0.4276 2.6508,1.4998 -0.2789,-0.1814 -0.7494,-0.2695 -1.4116,-0.2646 1.7645,1.7645 2.3527,2.3526 1.7645,1.7645 0.4593,-1.3121 1.3121,-2.6942 2.5585,-4.1466 -0.6481,-0.0281 -1.3246,0.0014 -2.0292,0.0883z"/>
  <path class="fil2" d="M116.685 68.1798c-5.6828,4.9703 -10.3739,12.8074 -13.8065,23.5118 2.839,-6.3728 5.8845,-11.1933 8.3363,-15.2617 -1.2744,3.9345 -2.2742,12.9921 -2.9995,27.1726 3.3555,-8.4398 5.4535,-14.2938 6.4271,-16.4953 0.8427,-2.7511 1.4252,-5.3122 1.6897,-7.6842 -1.9293,4.7855 -3.7677,9.2131 -5.515,13.2828 0.2194,-6.6209 2.2642,-14.7962 5.8679,-24.526z"/>
  <path class="fil2" d="M114.545 65.2478c-1.2656,2.0529 -2.1375,3.4555 -2.8825,4.741 -1.0607,-4.8813 -3.1673,-9.6136 -5.6526,-14.7303 -0.0847,1.3531 0.0328,2.4118 0.3525,3.1759 -1.5436,-5.09 -2.8133,-8.794 -3.8092,-10.8452 2.4043,2.7988 5.5644,9.3222 9.0804,17.7028 0.4688,-1.49 0.5112,-3.1525 0.3938,-4.721 1.6499,1.5677 1.576,3.7029 0.3118,5.3386 0.6805,-0.1968 1.1811,-0.6086 1.502,-1.2352 0.0511,0.6808 -0.126,1.291 -0.5314,1.8306 0.8235,-0.8381 1.2352,-1.2572 1.2352,-1.2572z"/>
  <path class="fil1" d="M85.6076 53.7799c1.36,-0.5046 3.1889,-0.5301 5.8865,-0.4767 -2.6636,0.1275 -2.7475,4.8952 -2.3012,10.8639 0.0645,0.8636 1.0019,1.4104 1.4639,2.1398 0.3476,0.9804 0.7648,1.8616 1.2513,2.6437 0.2022,2.2111 -0.4441,4.9461 -1.9391,8.2049 0.2112,0.5794 0.4384,0.7788 0.6815,0.5979 0.8606,0.0796 1.4928,-0.141 1.8969,-0.6617 0.52,0.0304 0.8581,0.1921 1.0146,0.4853 1.2349,0.3769 2.1319,0.7591 2.6907,1.1469 -0.0687,1.7851 -0.789,3.5643 -2.1613,5.3374 0.5453,0.3072 0.8181,0.4608 0.8181,0.4608 -0.205,0.7571 -0.4336,1.4709 -0.6858,2.1418 1.2702,-0.0811 2.4171,-0.0076 3.4407,0.2206 -0.1783,3.7353 -0.1783,6.8378 0,9.3075 1.6624,1.2417 3.1769,1.3447 4.5434,0.3089 3.2576,-1.0885 5.4558,-1.9082 6.5944,-2.4589 -0.042,0.5785 -0.0629,0.8678 -0.0629,0.8678 -4.7694,2.3716 -8.0494,3.6372 -9.8399,3.7966 -1.6409,0.2974 -2.7878,0.0768 -3.4407,-0.6617 -1.2438,-2.0533 -2.4495,-4.0825 -3.6171,-6.0874 -1.1896,-1.8871 -2.2677,-3.7772 -3.2345,-5.6704 -1.3314,-3.4407 -2.2724,-6.6166 -2.8231,-9.5281 -0.2102,-2.6325 -0.4748,-4.7204 -0.7941,-6.2638 -0.9108,-2.5879 -1.3663,-3.8818 -1.3663,-3.8818 0.5845,-6.5237 1.2457,-10.8015 1.984,-12.8333z"/>
  <path class="fil2" d="M74.9347 55.4951c-0.965,1.8734 -1.6991,5.3169 -2.2026,10.3306 1.8487,-7.6478 4.1474,-13.4512 6.8957,-17.4102 -4.8612,2.2684 -10.0289,10.6739 -15.5036,25.2166 3.6622,-8.0118 7.2658,-14.0574 10.8105,-18.137z"/>
  <path class="fil7" d="M123.005 77.555c-0.1123,1.6305 -0.3136,3.6627 -0.6041,6.0964 0.2628,-2.3119 0.7016,-3.7517 1.3163,-4.3195 0.1003,-0.7009 0.0572,-1.2787 -0.1294,-1.7336 -0.4242,-0.0902 -0.6184,-0.1047 -0.5828,-0.0433z"/>
  <path class="fil8" d="M115.826 88.3359c0.65,-1.9791 1.243,-3.7999 1.7791,-5.4627 0.8731,-2.1363 1.6201,-3.4905 2.2411,-4.0626 0.0575,2.4803 -0.1672,4.4616 -0.397,5.7345 -0.2071,1.147 -2.0353,2.4594 -3.6232,3.7908z"/>
  <path class="fil9 str1" d="M73.3579 51.2009c-4.7095,6.978 -7.3891,13.8316 -9.2391,22.6947 3.4869,-7.5449 7.0015,-13.7685 10.8106,-18.137 -1.4289,2.9002 -2.4602,9.0485 -2.5606,17.9114 0.8509,-2.5991 1.6744,-4.9223 2.4703,-6.9697 -0.4949,2.9329 -0.8635,4.9914 -0.8392,6.1757 -4.036,6.5073 -7.5739,14.7993 -7.0127,30.8779 2.0244,-7.591 6.0826,-15.1781 12.1747,-22.7614 -3.1835,6.8603 -5.0677,13.6534 -4.8522,20.3794 1.3651,-6.9029 4.3216,-14.0217 8.6028,-20.8227 -0.3443,7.6808 -2.0068,15.0369 -4.721,21.0013 4.1353,-3.2586 7.6055,-8.4366 10.4102,-15 -1.3793,-3.605 -2.3204,-6.781 -2.823,-9.5281 -0.1729,-2.3608 -0.4376,-4.4486 -0.7941,-6.2639 -0.6058,-1.4635 -0.9723,-2.7575 -1.3663,-3.8818 0.7147,-7.1029 1.2871,-11.1139 1.9839,-12.8333 1.2532,-0.6918 4.4984,-0.4839 5.7344,-0.4432 1.7644,-1.0299 2.7801,-1.5449 2.7801,-1.5449 -0.6902,4.8138 -1.1039,10.2406 -0.4411,16.0135 1.7502,-8.8912 3.146,-15.0532 4.4543,-18.2191 1.2938,-0.7057 2.0742,-1.0586 2.0742,-1.0586 3.5139,6.4536 6.0566,12.5977 7.895,19.2325 -1.13,-9.4798 -3.6339,-16.7455 -5.911,-20.997 2.6126,2.9147 6.5594,11.9364 9.4398,18.2622 0.5238,-1.0232 0.5218,-2.5523 0.5273,-4.5876 1.1182,1.7504 1.1777,3.4855 0.1784,5.2052 0.7114,-0.2387 1.2565,-0.6505 1.502,-1.2352 -0.0008,0.8807 -0.178,1.4909 -0.5314,1.8306 0.6491,-0.5446 1.0609,-0.9636 1.2352,-1.2572 -2.9013,4.6768 -4.3622,7.4024 -5.1831,8.71 -2.4771,4.7658 -4.816,11.0327 -6.4832,18.0006 3.6701,-11.0909 8.2278,-18.9281 13.6731,-23.5118 -4.2166,11.2813 -5.8613,19.4566 -5.7345,24.526 2.4134,-5.3706 4.0739,-10.1093 5.5149,-13.2828 -1.7021,6.4187 -2.5804,13.092 -2.8641,16.5511 1.7162,-6.5194 7.2799,-21.036 8.2888,-28.9412 0.3666,8.0679 -0.4021,15.6845 -0.3057,22.8497 2.1787,-11.9884 2.4864,-25.4968 0.9232,-36.5244 1.3869,2.9651 2.2102,5.0236 2.4703,6.1757 0.4077,-0.5742 0.3332,-1.133 0.3098,-1.6762 0.941,2.529 1.2782,3.7936 1.2782,3.7936 1.2577,1.3096 1.934,2.486 2.0291,3.5288 2.0586,2.5879 3.0878,3.8818 3.0878,3.8818 -0.2903,-1.3141 -0.7314,-2.6668 -1.3233,-4.0582 1.1795,1.714 2.2245,2.4177 2.8682,2.6446 -1.5738,-3.6528 -3.0011,-6.3269 -4.0151,-8.5556 7.5981,7.9118 12.8914,12.2936 15.8801,13.1453 -2.1115,-2.2259 -4.67,-5.7843 -7.6754,-10.675 -1.198,-2.5659 -2.7861,-4.5048 -4.764,-6.6167 5.8626,2.9484 11.6991,3.609 17.7758,2.2486 -5.2161,-2.3758 -20.2702,-11.085 -23.5554,-12.9236 8.9534,-1.5349 15.7616,-4.1228 20.4245,-7.7635 -2.1779,1.118 -13.2622,1.2808 -22.8497,0.2215 4.474,-1.356 8.6656,-4.0177 12.3082,-7.9852 -2.2915,1.5601 -5.6188,1.7775 -8.9147,1.9861 -5.1619,0.9119 -8.0849,1.3236 -9.5691,1.235 1.7797,-1.4167 3.2637,-2.4007 4.5855,-3.6191 -4.9701,2.2795 -7.848,2.938 -9.7003,3.3093 1.5509,-1.589 2.7702,-3.3828 3.7915,-5.3816 -4.9822,4.5956 -10.7753,7.2109 -17.3799,8.6458 -5.9068,2.09 -11.2022,4.4133 -15.3529,7.3699 -1.7101,0.1926 -3.2373,0.884 -5.1148,1.9409 -1.9066,2.3508 -4.0417,5.031 -5.6053,6.7069z"/>
  <path class="fil10" d="M91.342 53.3367c0.9146,-0.5374 1.8413,-1.0524 2.78,-1.5449 0.8496,-4.8932 1.6939,-8.2243 2.5327,-9.9931 -2.1631,3.2925 -3.9999,7 -5.7774,10.5889 -1.5237,-1.4489 -2.966,-3.7066 -3.927,-3.8387 -1.6091,-0.0502 -3.0049,1.5104 -4.4542,4.1485 -3.1473,5.0265 -4.721,7.5399 -4.721,7.5399 -0.3926,2.1663 -0.6572,5.0777 -0.794,8.7341 0.3301,0.3881 2.1459,-1.7827 2.6467,-2.9113 0.987,-0.3077 0.2139,1.0534 -0.1849,1.9491 -7.4668,9.7275 -11.3757,20.7384 -11.7268,33.0326 2.9292,-8.0262 6.7463,-14.7971 11.4512,-20.3129 -3.4278,7.3239 -5.0123,13.955 -4.7536,19.8933 1.7811,-7.6104 4.6158,-14.3893 8.5041,-20.3365 -0.4467,8.1017 -2.0204,15.102 -4.721,21.0013 4.6771,-4.151 8.1472,-9.151 10.4103,-15.0001 -1.2255,-3.0925 -2.1666,-6.2686 -2.8231,-9.5281 -0.2395,-2.8319 -0.5043,-4.9199 -0.7941,-6.2638 -0.5348,-1.2806 -0.9013,-2.5745 -1.3663,-3.8818 0.4811,-5.6162 1.0535,-9.894 1.984,-12.8333 1.3607,-0.509 3.2722,-0.6568 5.7344,-0.4432z"/>
  <path class="fil5 str1" d="M92.5586 48.8974c0.8289,0.8168 1.1417,1.8256 0.9384,3.0263"/>
  <path class="fil11" d="M112.71 54.7242c0.6465,0.9409 0.9698,1.4114 0.9698,1.4114 0.4447,-0.1159 0.3552,-0.704 -0.2682,-1.7643 0.2201,-1.0458 0.6654,-1.8986 0.2689,-2.5586 0.0503,0.5617 -0.1555,1.1792 -0.6174,1.8527 -0.5971,-1.1927 -3.1556,-4.6628 -7.6754,-10.4102 0.4403,1.006 0.4697,1.8 0.0883,2.3819 -0.3653,-1.0411 -1.0418,-1.7469 -2.0292,-2.1173 0.8989,2.0927 1.4283,3.5925 1.588,4.4994 0.9075,-0.3992 1.0524,-1.462 0.9684,-2.1216 0.5522,2.4147 1.3468,4.5333 2.3838,6.3563 0.8059,-0.6871 0.5118,-2.3634 -0.8822,-5.0288 2.0586,3.4114 3.0879,5.117 3.0879,5.117 0.588,0.1764 0.8821,0.2647 0.8821,0.2647 0.8235,1.4115 1.2352,2.1174 1.2352,2.1174z"/>
  <path class="fil12" d="M115.268 53.7536c-0.4117,1.588 -0.6177,2.382 -0.6177,2.382 -0.238,-1.2286 -0.4145,-3.0812 -0.5292,-5.5581 0.9378,0.217 1.8494,2.0991 2.7349,5.6464 0.0588,-1.2939 0.0882,-1.9409 0.0882,-1.9409 0.6306,0.6927 0.9152,2.1142 1.3006,3.0047 0.3648,0.8425 -1.0091,-0.2933 -0.7713,2.0239 -0.5192,-0.5484 -1.6545,-2.0009 -2.2055,-5.558z"/>
  <path class="fil12" d="M119.374 55.1168c0.2721,2.2242 0.7568,4.0341 1.1873,5.4299 0.49,-1.2155 0.6077,-2.6858 0.3529,-4.4111 -0.3678,0.6723 -0.6031,0.9664 -0.7058,0.8822 -0.3188,-2.2996 -0.6717,-4.3875 -1.0586,-6.2638 -0.5132,1.0764 -0.4838,3.4291 -0.0452,7.0578 0.5547,-1.5131 0.4222,-1.8335 0.2694,-2.695z"/>
  <path class="fil10 str1" d="M98.1352 49.5861c0.6473,-0.353 1.2941,-0.7058 1.9409,-1.0586 0.0159,-0.7565 -0.2717,-1.6466 -0.8628,-2.6706 -0.1098,0.0981 -0.4692,1.3411 -1.0781,3.7292z"/>
  <path class="fil13" d="M80.0666 50.8423c-1.3439,2.4475 -1.6675,4.1532 -0.9704,5.1168 0.392,-1.8801 1.1859,-3.1761 2.3821,-3.3545 0.6195,-1.3245 1.0311,-2.3517 1.235,-3.6151 -0.4412,-0.341 -0.8803,0.7764 -2.1173,3.3524 -0.016,-0.7983 0.5003,-2.4617 1.5491,-4.9897 -0.7601,0.6185 -2.5445,2.8735 -4.0194,5.4309 1.2939,-1.2938 1.9409,-1.9408 1.9409,-1.9408z"/>
  <path class="fil5 str1" d="M74.8444 66.4367c0.727,-2.0953 1.7039,-4.1617 2.9307,-6.1994"/>
  <path class="fil5 str1" d="M85.6076 53.7799c-1.0372,-0.2148 -2.0607,0.6294 -3.0707,2.5321"/>
  <path class="fil5 str3" d="M93.309 42.0149c1.9811,-2.4468 3.655,-3.4862 4.7551,-3.4356 3.1439,0.3742 5.8631,1.3897 8.4243,2.7799"/>
  <path class="fil5 str1" d="M84.2167 42.2895c1.4592,-0.385 2.899,-0.3414 4.3193,-0.1362"/>
  <path class="fil5 str0" d="M118.14 31.9653c-0.7028,0.119 -1.7116,0.3326 -3.0263,0.241"/>
  <path class="fil14" d="M118.981 113.583c-2.0639,1.079 -3.9709,2.3337 -5.7209,3.7641 1.4191,-5.0412 3.0385,-9.3739 4.325,-12.9981 1.7619,-3.8582 3.3106,-7.2183 4.3796,-10.7475 0.1674,1.2835 0.251,1.9252 0.251,1.9252 0.0625,-1.671 0.6212,-2.3508 1.676,-2.0392 1.5023,1.5158 2.5274,3.1102 3.0756,4.7829 0.466,2.3423 1.0892,4.2364 1.8699,5.682 -1.1321,2.7419 -3.0059,4.9914 -5.6215,6.7486 -1.6094,0.9207 -3.0209,1.8814 -4.2347,2.882z"/>
  <path class="fil5 str1" d="M113.025 31.6554c-1.0901,0.4803 -2.0134,0.4861 -2.2364,0.4175"/>
  <path class="fil5 str0" d="M78.7671 81.3958c0.8063,-1.1372 1.7331,-2.1227 2.2469,-2.9566"/>
  <path class="fil2 str1" d="M129.079 59.0928c6.2461,6.8376 12.3398,11.8863 15.8802,13.1452 -3.5887,-0.9916 -7.0146,-2.4178 -10.278,-4.2788 3.0584,5.5875 4.5876,8.3812 4.5876,8.3812 -1.9078,-1.9754 -3.6428,-3.6517 -5.2051,-5.0288 1.5175,7.4596 3.3585,13.212 4.4562,16.4568 -1.763,-2.2684 -3.9863,-4.8153 -5.6031,-6.8405 1.5722,4.2348 2.5584,7.019 2.5584,7.019 -2.0428,-3.2349 -3.2643,-5.5192 -3.2643,-5.5192 0.8363,5.2434 1.5716,9.3902 2.2058,12.4403 -2.0324,-2.0951 -3.2654,-4.3006 -4.2327,-6.6168 -0.2079,8.1753 -0.1784,12.263 -0.1784,12.263 -1.0232,-1.5837 -1.6387,-3.6129 -2.38,-6.0874 0.08,2.764 0.1087,5.1324 0.0862,6.8383 -0.9747,-3.135 -1.5335,-7.3266 -1.6763,-12.3081 -1.0333,2.0783 -2.0468,4.4602 -3.4407,7.146 0.36,-5.1731 1.2873,-9.496 2.5155,-12.9687 0.0588,-1.8233 0.0881,-2.4682 0.0881,-2.4682 -0.6035,-0.9571 -0.9053,-1.4357 -0.9053,-1.4357 -0.4411,0.3824 -0.7951,0.5735 -0.7951,0.5735 0.1975,-0.9177 0.3163,-1.6529 0.0892,-2.2056 1.0881,0.0295 1.6322,0.0441 1.6322,0.0441 1.5014,-1.4719 2.6041,-3.9568 3.3084,-7.4549 0.3147,-1.4704 0.2927,-3.1396 -0.0663,-5.0073 2.0585,2.5879 3.0878,3.8818 3.0878,3.8818 -0.8823,-2.7056 -1.3234,-4.0583 -1.3234,-4.0583 0.9284,1.3637 1.8846,2.2451 2.8683,2.6446 -2.6768,-5.7037 -4.0152,-8.5555 -4.0152,-8.5555z"/>
  <path class="fil5 str1" d="M82.7844 80.6858c0.3025,-0.7035 0.7416,-1.4236 1.3174,-2.1604"/>
  <path class="fil5 str1" d="M111.215 76.4299c1.0283,-1.7209 1.9454,-3.0967 2.7516,-4.1273"/>
  <path class="fil5 str1" d="M127.626 94.4268c-0.1091,-1.4054 -0.0603,-2.4576 0.1467,-3.1567"/>
  <path class="fil5 str1" d="M125.152 81.8994c0.9859,-1.2791 1.5948,-2.4196 1.8267,-3.4215"/>
  <path class="fil14" d="M97.6644 86.8845c-0.1678,4.3816 -0.1678,7.4841 0,9.3075 1.8714,1.2326 3.3859,1.3356 4.5434,0.3089 3.2721,-1.0941 5.4703,-1.9138 6.5944,-2.4589 -0.7312,-6.6079 -0.6542,-11.2744 0.2306,-13.9997 -2.8852,4.9005 -4.9366,8.7836 -6.1544,11.6493 1.9672,-8.1645 4.6347,-15.0275 8.0027,-20.5888 -0.8932,-3.4416 -1.792,-5.9384 -2.6962,-7.4903 -0.5002,-1.1684 -0.911,-2.1278 -1.2323,-2.878 -0.722,0.0754 -1.0829,0.113 -1.0829,0.113 -0.137,-0.3648 -0.2054,-0.5471 -0.2054,-0.5471 -0.624,0.1168 -0.9359,0.1752 -0.9359,0.1752 -1.7084,-3.7595 -3.7463,-6.5946 -6.1136,-8.5055 -1.7644,-0.9304 -2.2808,3.5154 -4.1148,11.7974 -0.3928,1.8947 -0.6658,3.2407 -0.819,4.0378 -1.2163,-7.3961 -1.4404,-12.5347 -0.6724,-15.4157 -0.894,0.5004 -1.4495,0.8161 -1.6666,0.9471 -2.0603,0.0929 -2.7767,3.703 -2.1491,10.8304 0.3214,0.8177 0.8093,1.531 1.4639,2.1398 0.6282,1.4953 1.0454,2.3765 1.2513,2.6437 0.2026,2.2096 -0.4437,4.9446 -1.9391,8.2049 0.0687,0.4233 0.2959,0.6226 0.6815,0.5979 0.7535,0.1145 1.3858,-0.106 1.8969,-0.6617 0.5607,0.0565 0.899,0.2182 1.0146,0.4853 1.3499,0.4314 2.2467,0.8138 2.6907,1.1469 -0.0627,1.7692 -0.783,3.5484 -2.1613,5.3374 0.5453,0.3072 0.8181,0.4608 0.8181,0.4608 -0.4572,1.4278 -0.6858,2.1418 -0.6858,2.1418 1.3811,-0.0721 2.528,0.0014 3.4407,0.2206z"/>
  <path class="fil5 str1" d="M132.211 82.4277c-0.7101,-1.137 -1.1603,-1.6302 -1.3508,-1.4795"/>
  <path class="fil15" d="M105.664 60.3004c-0.686,0.2442 -1.0185,0.2631 -0.9978,0.0565 -3.9421,0.6206 -6.7284,2.0713 -8.3592,4.3522 0.204,0.2134 0.1712,0.9002 -0.0986,2.0605 1.0884,0.8138 2.103,1.1225 3.0437,0.9263 0,0 0.008,-0.5816 0.0241,-1.7448 0.3733,-2.5413 2.2344,-4.186 5.5834,-4.9337 0.6731,-0.1132 1.0098,-0.1699 1.0098,-0.1699 -0.137,-0.3648 -0.2054,-0.5471 -0.2054,-0.5471z"/>
  <path class="fil5 str1" d="M132.917 80.9279c-0.3589,-1.0238 -0.868,-1.9876 -1.5273,-2.8911"/>
  <path class="fil5 str1" d="M130.184 88.2512c-0.1659,-1.7582 -0.1758,-2.7809 -0.0297,-3.0683"/>
  <path class="fil16" d="M84.9399 185.428c-1.0081,1.8469 -1.8679,3.4459 -2.5796,4.797 3.2534,-2.4101 6.4646,-4.2839 9.6336,-5.6214 2.09,-4.1984 3.3055,-8.3939 3.6465,-12.5866 0.1703,-3.4569 0.3664,-5.7703 0.5882,-6.9402 0.8222,-3.7823 1.2173,-7.269 1.1852,-10.46 -1.8554,4.0521 -3.8101,8.6325 -5.8638,13.7412 -1.7345,4.3637 -3.1766,8.0809 -4.326,11.1517 -0.6406,1.6311 -1.4021,3.6038 -2.2841,5.9183z"/>
  <path class="fil17" d="M98.1352 49.5861c-0.5815,1.4733 -1.1084,3.1506 -1.5804,5.032 0.4814,-1.9654 1.2448,-3.2702 2.06,-2.648 2.9247,2.2323 4.5561,5.5176 6.1136,8.5055 0.6239,-0.1168 0.9359,-0.1752 0.9359,-0.1752 -0.7293,-1.8573 -1.2019,-3.0258 -1.4178,-3.5056 -1.4094,-3.5894 -3.2625,-6.0926 -5.5593,-7.5097 -0.3679,0.2007 -0.552,0.301 -0.552,0.301z"/>
  <path class="fil5 str1" d="M126.036 88.957c0.4336,-1.0939 0.7616,-1.8815 1.2505,-2.3626"/>
  <path class="fil18" d="M111.662 69.722c-0.5207,0.9205 -0.7811,1.3808 -0.7811,1.3808 -0.9924,-3.702 -1.8911,-6.1988 -2.6962,-7.4903 -0.8216,-1.9186 -1.2323,-2.878 -1.2323,-2.878 -0.596,-2.4921 -0.8939,-3.7383 -0.8939,-3.7383 -0.0822,-0.7769 -0.0986,-1.4451 -0.0491,-2.0045 2.9897,5.8956 4.8739,10.8058 5.6526,14.7303z"/>
  <path class="fil19" d="M90.8358 66.7304c-2.541,-0.8266 -6.3232,-0.1099 -7.0788,-0.2506 0.7184,-0.9899 6.6346,-1.9289 7.0788,0.2506z"/>
  <path class="fil19" d="M95.8361 65.2011c0.7937,-3.3807 7.6067,-7.2432 11.6364,-7.186 -4.4435,1.2485 -8.3222,3.644 -11.6364,7.186z"/>
  <path class="fil19 str1" d="M88.8622 67.1582c-1.3491,0.1584 -2.5387,0.3729 -3.5687,0.9102 1.9001,-0.8982 3.4882,-1.2217 4.764,-0.9704 0.785,0.1625 1.3574,0.5132 1.8506,1.8526 -0.3862,-0.9015 -1.6238,-1.6768 -3.0459,-1.7924z"/>
  <path class="fil20" d="M103.043 63.4272c0.3798,1.1732 0.9475,1.926 1.7034,2.2582 -1.494,0 -2.776,0.3241 -3.8462,0.9725 -0.9424,0.1048 -1.2034,-0.3359 -0.7833,-1.3219 0.967,-0.9335 1.9424,-1.5697 2.9261,-1.9088z"/>
  <path class="fil19 str0" d="M101.727 61.405c1.4199,-0.653 3.3968,-1.1076 5.9307,-1.3638 -3.2153,0.2996 -8.6735,1.3834 -9.4389,4.5855 0.927,-1.4151 2.2742,-2.4445 3.5082,-3.2217z"/>
  <path class="fil21" d="M86.0441 69.4801c-0.0841,0.3264 -0.0548,0.7088 -0.0452,1.1469 -0.4523,-0.717 -0.6638,-1.1302 -1.168,-1.2395 2.6716,-1.7158 4.8528,-1.8615 7.0772,-0.4369 0.2272,1.0469 -0.7721,2.0174 -2.9979,2.9115 -0.9999,0.441 -1.4998,0.5283 -1.4998,0.5283 -0.588,-0.6176 -0.8821,-0.793 -0.8821,-0.793 0.777,-0.3887 0.2102,0.5836 1.588,0.0442 0.7646,-0.3234 1.1469,-0.4852 1.1469,-0.4852 -0.9082,-0.3228 -1.3934,-1.2796 -1.4557,-2.4703 -1.0321,0.2885 -1.531,0.5531 -1.7634,0.794z"/>
  <path class="fil20" d="M85.9861 70.0513c-0.2461,-0.586 0.3611,-1.0411 1.8214,-1.3652 -0.009,1.1261 0.4763,1.9496 1.4557,2.4703 -0.537,0.2878 -1.1987,0.4981 -1.9854,0.6311 -0.7378,-0.2645 -1.2221,-0.9767 -1.2917,-1.7362z"/>
  <path class="fil21" d="M108.679 60.6362c0.2704,0.6465 0.4055,0.9698 0.4055,0.9698 -0.4108,0.8893 -0.8671,1.8598 -1.3686,3.1783 -0.1102,0.0599 -1.0998,0.8494 -2.9692,0.9011 -1.2137,-0.6998 -1.8163,-1.7281 -1.8079,-3.3515 -1.1373,0.5514 -2.1044,1.6239 -3.662,3.4838 0.9184,-4.0846 4.7194,-5.056 9.4022,-5.1815z"/>
  <path class="fil22" d="M91.6893 79.0524c-0.6502,0.0739 -1.1687,-0.3081 -1.5556,-1.146 0.1286,1.0481 0.5087,1.956 1.1404,2.7235 0.3598,0.369 0.5509,1.0895 0.5735,2.1614 0.541,-0.6944 0.5754,-1.4849 0.5033,-2.3716 0.0578,-0.833 -0.1628,-1.2888 -0.6616,-1.3673z"/>
  <path class="fil5 str4" d="M104.88 65.552c-0.8958,-0.0264 -1.8662,0.1357 -2.9114,0.4863"/>
  <path class="fil5 str2" d="M91.9081 68.9506c0.2342,3.211 -0.8122,5.0124 -1.9391,8.2049 0.1543,1.2692 0.7277,1.9014 1.7203,1.8969 0.5523,0.0741 0.6395,0.53 0.6616,1.3673"/>
  <path class="fil5 str2" d="M92.9245 85.5367c0,-0.5587 0,-0.8381 0,-0.8381 0.9729,0.2076 2.7853,-0.4295 1.985,-0.1765 0.4185,-0.3102 0.9772,-0.5454 1.6763,-0.7057 1.6174,0.0294 2.4261,0.044 2.4261,0.044 1.1762,0.0883 1.7644,0.1325 1.7644,0.1325 1.1417,-0.049 1.5976,0.1422 1.3675,0.5734"/>
  <path class="fil23" d="M100.076 48.5275c1.9123,3.35 3.3025,6.1058 4.1704,8.2673 -1.8309,-4.1445 -3.9506,-6.5145 -5.826,-7.3763 0.9259,-0.5051 1.6556,-0.891 1.6556,-0.891z"/>
  <circle class="fil24" cx="104.528" cy="64.0412" r="0.480687"/>
  <circle class="fil20" cx="89.239" cy="70.1651" r="0.480687"/>
  <path class="fil5 str5" d="M107.664 64.6329c0.3513,-1.2498 0.6808,-2.5248 0.4551,-3.0244"/>
  <path class="fil25" d="M103.043 63.4272c-0.4692,-0.0544 -2.525,1.5871 -3.7665,2.3905 0.5299,-0.9379 2.2841,-2.9439 3.662,-3.4838 0.0125,0.5121 0.0473,0.8765 0.1045,1.0933z"/>
  <path class="fil26" d="M94.122 51.7918c-0.8514,5.6267 -0.9985,10.9645 -0.441,16.0135 -0.9647,-5.1719 -1.5889,-11.6443 -0.6724,-15.4157 0.7423,-0.3986 1.1134,-0.5978 1.1134,-0.5978z"/>
  <path class="fil5 str2" d="M88.6071 86.2869c1.3157,2.4908 2.3939,4.3811 3.2345,5.6704 2.4114,4.0582 3.6171,6.0874 3.6171,6.0874 1.1861,1.5288 4.8961,0.8311 11.1301,-2.0931"/>
  <path class="fil5 str1" d="M96.5991 98.7283c2.0355,0.1834 4.3629,0.0133 6.1822,-0.1101"/>
  <path class="fil5 str2" d="M121.411 80.1211c-0.2121,1.7472 -0.8715,3.1299 -1.4447,4.1481"/>
  <path class="fil5 str1" d="M74.0052 72.6124c0.7038,-1.3843 1.3539,-2.2884 1.9502,-2.7123"/>
  <path class="fil5 str6" d="M123.817 73.6054c0.193,0.0083 0.2667,-0.1334 -0.3124,-0.1582"/>
  <path class="fil27" d="M124.472 62.3458c-0.5562,0.443 -0.9593,0.8287 -1.2092,1.1573 0,0 0.0113,0.3255 0.0341,0.9763 0.8375,0.0303 1.6575,0.2345 2.4603,0.6125 0.3921,-1.1658 -0.0363,-2.0812 -1.2852,-2.7461z"/>
  <path class="fil14" d="M126.432 61.6513c-1.1268,-0.7572 -2.2101,-0.7137 -3.25,0.1307 0.2685,5.6771 0.2098,10.9263 -0.176,15.7481 0.9309,0.0737 1.6686,0.111 2.2131,0.1123 1.4186,-1.5837 2.3811,-3.4696 2.8876,-5.6576 0.7209,-2.6458 0.839,-4.914 0.3545,-6.8046 -0.3021,-1.3851 -0.9785,-2.5614 -2.0292,-3.5289z"/>
  <path class="fil5 str2" d="M123.263 63.6365c0.7469,-0.8798 1.3725,-1.3942 1.8768,-1.4098"/>
  <path class="fil28" d="M126.809 63.2449c0.7988,0.9475 1.154,2.0044 1.0654,3.1703 0.0711,0.9117 0.0564,2.3967 -0.044,4.4553 -0.1418,0.4263 -0.2742,0.338 -0.3971,-0.2646 0,0 -0.0293,-0.8676 -0.0881,-2.6027 -0.4848,-0.7721 -0.6466,-1.3308 -0.4852,-1.6761 0.2515,-0.9718 0.2344,-1.9992 -0.051,-3.0822z"/>
  <path class="fil1" d="M123.344 66.6308c0.026,2.4413 -0.0084,4.733 -0.1032,6.875 -0.0677,-0.1645 0.0957,-0.1575 0.49,0.0208 0,0 0.1168,-0.1943 0.3506,-0.5829 0.8682,-0.8894 1.5445,-1.9039 2.0291,-3.0436 0.0288,-1.2731 -0.6917,-2.3612 -2.1615,-3.2642 0,0 -0.2017,-0.0018 -0.605,-0.0051z"/>
  <path class="fil5 str2" d="M125.978 62.4021c1.3734,1.2041 2.0056,2.4529 1.8967,4.0131"/>
  <path class="fil5 str1" d="M123.854 77.7317c-0.3873,-0.0455 -0.983,-0.1767 -0.983,-0.1767"/>
  <path class="fil29" d="M111.215 76.4299c-0.9624,1.5864 -1.6897,2.7905 -2.1819,3.6124 -0.8627,2.3094 -0.9396,6.9759 -0.2306,13.9997 0.7156,-9.1682 1.5197,-15.0389 2.4125,-17.6121z"/>
  <path class="fil5 str2" d="M123.949 66.6359c1.6289,1.1522 2.3494,2.2403 2.1615,3.2642 -0.2498,0.7988 -0.9262,1.8134 -2.0291,3.0436 0.0883,-0.2206 0,0 -0.2647,0.6617 0.8823,0.7511 1.3233,0.9264 1.3233,0.9264 0.266,-0.01 0.5758,-0.867 0.5294,-1.1038"/>
  <path class="fil16" d="M93.279 120.699c-2.4453,3.6013 -4.6019,7.6791 -6.4697,12.2337 1.0683,-6.4342 2.1073,-11.3944 3.1173,-14.8804 2.3104,-6.3639 6.6942,-11.0546 13.1515,-14.072 0.2824,1.7275 0.4904,3.5542 0.6241,5.4802 -1.8668,2.2057 -3.712,3.8053 -5.5358,4.7987 -1.9126,2.2974 -3.5418,4.444 -4.8874,6.4398z"/>
  <path class="fil30" d="M94.7614 186.89c-1.5236,1.6242 -3.2979,3.6553 -5.323,6.093 -2.4564,0.332 -4.795,1.0379 -7.0157,2.1179 -2.2382,2.0305 -4.4326,4.5154 -6.5833,7.4548 3.4028,-6.6455 5.5764,-10.7555 6.5209,-12.33 3.4083,-2.4985 6.6196,-4.3723 9.6336,-5.6214 1.8914,-3.9961 3.0255,-7.4908 3.4023,-10.4842 0.2777,-3.7229 0.5228,-6.5386 0.7354,-8.4468 0.8571,-3.8396 1.2846,-7.5248 1.2822,-11.0558 5.5767,-12.3433 12.1972,-23.5708 19.8615,-33.6827 2.735,-3.723 6.4877,-7.1897 11.2582,-10.3998 2.8533,-1.6692 5.1585,-2.9863 6.9159,-3.9512 0.4088,-0.5256 0.579,-1.122 0.5108,-1.7896 0.4971,0.9997 0.7606,2.1876 0.7906,3.5639 0.4524,0.0642 0.8346,0.503 1.147,1.3163 1.2192,2.2714 3.3351,4.6048 6.3476,7.0003 4.1039,3.0686 7.8384,6.3017 11.2036,9.6996 2.8232,2.6978 4.9549,5.7857 6.3954,9.2641 1.591,3.5097 2.7079,6.5513 3.3508,9.1243 1.1947,4.5791 1.9186,9.2842 2.172,14.1151 0.3778,4.9426 0.6,9.1812 0.6666,12.7158 0.1486,5.2195 0.2775,9.4285 0.3866,12.6268 0.2416,4.4459 0.2375,7.3145 -0.0122,8.606 1.5175,8.7088 2.4839,13.8347 2.8992,15.3776 0,0 -14.5242,0 -43.5729,0 -7.7012,-5.2366 -11.5518,-7.8549 -11.5518,-7.8549 -2.5764,-1.6995 -5.0277,-3.5652 -7.3539,-5.5971 -4.3304,-3.3766 -7.854,-5.9195 -10.5709,-7.6289 -0.7622,-0.9003 -1.9278,-0.978 -3.4965,-0.2331z"/>
  <path class="fil19" d="M128.987 104.928c-0.2901,-0.4397 -0.4154,-0.5431 -0.776,-0.3101 0.3664,0.1482 0.5466,0.3888 0.5408,0.7218 -0.4504,0.3935 -1.227,0.085 -1.294,-0.5136 -0.0336,-0.3002 -0.0841,-0.7561 0.4118,-0.9998 0.5433,-0.1726 1.3158,0.239 1.1174,1.1017z"/>
  <path class="fil1 str1" d="M93.279 120.699c-2.8196,4.3273 -4.9762,8.4051 -6.4697,12.2337 -1.6467,4.1717 -3.0254,8.2837 -3.8691,12.336 -1.0553,4.3276 -2.0519,10.2089 -3.2033,17.6446 -0.3836,3.3931 -0.5012,9.3688 -0.4863,17.527 -0.8162,5.5537 -1.6396,9.8277 -2.4702,12.8217 -1.3561,3.6921 -1.6698,6.7898 -0.941,9.2928 0.5061,-1.3345 1.9766,-4.1577 4.4111,-8.4694 2.1813,-4.1641 3.7888,-7.1833 4.8228,-9.0575 1.1658,-3.0625 2.2246,-5.7876 3.1761,-8.1753 1.7427,-4.863 4.4284,-11.4896 8.0576,-19.8796 3.4766,-7.8936 7.2211,-15.0887 11.2337,-21.5852 3.8791,-6.4856 7.1239,-11.3036 9.7346,-14.4537 -0.8907,0.0685 -2.1455,-0.0492 -3.7641,-0.3529 -1.6457,-0.4494 -3.2533,-0.3462 -4.8229,0.3099 -0.8489,0.2458 -1.5373,0.7912 -2.0648,1.6364 -0.4063,0.2748 -0.8054,0.6299 -1.1976,0.7982 -0.6123,0.03 -0.999,-0.0165 -1.1601,0.127 -0.4345,0.4956 -0.9755,0.753 -1.6232,0.7721 -0.4913,-0.2993 -1.0051,-0.5531 -1.5411,-0.7614 -0.5881,-0.3388 -0.8822,-1.0643 -0.8823,-2.1762 -0.8052,-0.7851 -1.6517,-1.0966 -2.5395,-0.9348 -1.4196,0.4478 -2.8865,0.5633 -4.4007,0.3466z"/>
  <path class="fil14" d="M98.8614 120.422c-0.7509,-0.1664 -1.5289,-0.0971 -2.3341,0.2081 -1.2303,1.023 -1.8039,2.4919 -1.7202,4.4064 -2.9252,4.5177 -5.8268,10.4972 -8.7048,17.9386 -0.8175,2.2785 -1.0526,6.0036 -0.7057,11.1749 1.0447,3.1353 2.7898,8.0886 3.3681,8.1912 0.4348,-0.0703 2.3975,-6.0799 3.4545,-7.7794 -0.0372,2.639 -0.5726,5.3598 -0.762,7.8094 -0.1855,2.3992 -0.0295,4.5445 0.2262,5.5869 3.1005,-7.7106 5.9628,-14.1936 8.5873,-19.4492 3.279,-6.4222 6.5894,-12.2858 9.9313,-17.591 0.8152,-3.4529 1.8479,-5.9317 3.0979,-7.4365 0.6458,-0.6116 1.0842,-1.5093 1.3151,-2.6928 -2.3838,-0.6693 -4.3594,-0.635 -5.9267,0.1027 -0.8477,0.2492 -1.4895,0.7537 -1.9251,1.5134 -0.5099,0.367 -1.0817,0.6391 -1.6038,0.8823 -0.5957,0.1105 -0.8936,0.1659 -0.8936,0.1659 -0.6319,0.5987 -1.1729,0.856 -1.6232,0.7721 -0.5727,-0.3398 -1.0864,-0.5937 -1.5411,-0.7614 -0.5347,-0.2459 -0.8187,-0.9486 -0.8516,-2.1083 -0.0527,-0.297 -0.5155,-0.6082 -1.3885,-0.9333z"/>
  <path class="fil31" d="M79.4361 167.174c0.1019,-2.0643 0.2022,-3.4846 0.3008,-4.2609 -0.0768,2.0451 1.7616,2.44 5.1151,1.9851 -0.0691,0.6716 -0.8405,0.9843 -1.5141,1.3381 -1.2572,0.4927 -2.5577,0.8053 -3.9018,0.9377z"/>
  <path class="fil32" d="M106.763 122.405c-0.4851,0.3818 -1.0197,0.6759 -1.6038,0.8823 2.933,-3.5414 5.7562,-7.5605 8.4694,-12.0572 -0.8592,3.6735 -2.506,6.894 -4.9405,9.6615 -1.0498,0.4149 -1.6916,0.9193 -1.9251,1.5134z"/>
  <path class="fil33" d="M135.449 106.583c-1.0554,0.5662 -1.9965,1.0956 -2.8232,1.588 -2.0007,-1.3947 -3.5847,-3.5468 -4.7519,-6.4567 3.163,0.6893 5.4332,1.332 6.8105,1.9279 1.041,0.5177 1.4494,0.9367 1.2253,1.2571 0.0996,0.6297 -0.0539,1.1909 -0.4607,1.6837z"/>
  <path class="fil34" d="M135.449 106.583c-0.5464,0.2924 -1.0713,0.5808 -1.5742,0.865 0.2827,-1.6011 -0.1338,-2.8012 -1.2499,-3.6004 0.6672,-0.13 1.7622,0.2206 3.2848,1.0517 0.1094,0.595 -0.0442,1.1562 -0.4607,1.6837z"/>
  <path class="fil5 str1" d="M127.712 101.265c1.0356,2.9832 2.6738,5.2853 4.9143,6.9063"/>
  <path class="fil19" d="M128.664 109.339c-0.6078,0.0158 -0.9116,-0.1764 -0.9116,-0.1764 0.4133,0.8513 1.4861,0.8454 1.6175,0.3824 0.2699,-0.7036 -0.5321,-2.0627 -1.2058,-1.6763 -0.3035,0.2017 -0.3134,0.7722 -0.0294,1.045 0.0861,0.1058 0.2626,0.292 0.5293,0.4253z"/>
  <path class="fil5 str1" d="M112.511 114.406c-0.6436,2.4123 -2.318,4.663 -3.823,6.4854 -1.0103,0.3822 -1.5632,0.7978 -1.9251,1.5134 -0.3235,0.3212 -0.8136,0.6152 -1.4704,0.8823"/>
  <path class="fil5 str1" d="M108.688 120.891c1.3075,-0.6429 2.9151,-0.7463 4.8229,-0.3099 1.2077,0.2775 2.4624,0.3951 3.7641,0.3529 4.6677,-5.9072 8.867,-9.1378 12.9983,-11.2925 1.5449,-1.0201 3.2701,-2.0396 5.1758,-3.0585 0.8767,-1.2367 0.6218,-2.2171 -0.7646,-2.9408 -2.4287,-0.9653 -4.6614,-1.3692 -6.8317,-1.8786"/>
  <path class="fil35" d="M103.696 109.584c-0.4165,0.3823 -0.7493,1.3717 -1.5318,1.6344 -0.7583,0.6784 -1.5425,1.3254 -2.3526,1.9409 -0.4614,0.4847 -1.1967,0.6042 -1.6727,1.1589 -0.8874,0.9721 -2.5165,3.1186 -4.8874,6.4398 1.5118,-5.8985 4.0505,-10.2999 7.616,-13.2043 -0.8659,1.157 -1.2775,2.098 -1.2351,2.823 1.4909,-1.9029 2.9042,-3.233 3.9729,-3.457 0.1417,1.5549 0.2163,2.4429 0.0907,2.6643z"/>
  <path class="fil36" d="M103.701 109.443c0.3041,2.2864 0.2034,4.1625 -0.3019,5.628 0.1286,-1.1783 -0.3652,-2.6884 -0.8144,-2.7963 -0.8602,-0.1821 -3.1235,1.1822 -5.0563,2.6255 3.4446,-2.725 5.5022,-4.4552 6.1726,-5.4572z"/>
  <path class="fil37" d="M137.27 108.624c1.3531,2.3272 2.5491,3.986 3.5878,4.9764 -2.2996,-0.5463 -3.4955,-2.2051 -3.5878,-4.9764z"/>
  <path class="fil19" d="M131.546 107.105c0.2737,0.182 0.411,0.3976 0.4118,0.6471 -0.1524,0.1016 -0.2248,0.0917 -0.6176,-0.0295 0.3245,0.4218 0.3147,0.5335 -0.0294,0.7351 -0.7818,0.0565 -1.1896,-0.8985 -0.8234,-1.3979 0.3359,-0.2284 0.6886,-0.2134 1.0586,0.0452z"/>
  <path class="fil30" d="M60.4962 168.399c0.089,6.7533 0.1334,10.13 0.1334,10.13 2.3395,-3.8345 3.9874,-7.6967 4.9438,-11.5866 0.4551,-2.9434 1.1609,-7.2173 2.1174,-12.8217 0.6826,-3.4555 1.3295,-6.5138 1.9409,-9.1752 0.7342,-2.043 1.6606,-4.5378 2.7793,-7.4844 -1.4172,8.1886 -1.9319,13.5458 -1.5441,16.0714 1.8595,-8.3502 3.82,-15.1335 5.8814,-20.3501 1.4004,-2.6003 3.0668,-4.6785 4.9994,-6.2344 -2.0668,10.9415 -2.8707,18.9403 -2.4115,23.9966 1.6387,-15.6572 4.9129,-25.651 9.8228,-29.9813 0.5117,-1.9403 0.7676,-2.9103 0.7676,-2.9103 -1.84,1.3852 -3.2743,2.3841 -4.303,2.9965 -3.0491,1.8501 -6.0101,4.2598 -8.8827,7.2293 -2.5544,2.8644 -4.9831,7.4727 -7.2857,13.825 -1.3551,4.3504 -2.3145,7.6064 -2.8784,9.7682 -1.5361,4.2583 -3.105,8.9185 -4.7067,13.9808 -0.9159,1.6975 -1.3739,2.5462 -1.3739,2.5462z"/>
  <path class="fil5 str1" d="M134.551 103.643c1.8316,0.8462 2.0628,2.1044 2.2938,6.1758 0.0235,-1.1372 0.2353,-1.5724 0.2353,-1.5724 1.7439,3.5743 4.6651,6.6955 8.7634,9.63 6.2831,4.9712 10.7335,9.2647 13.3511,12.8805 4.413,7.1757 7.0401,15.4099 7.8813,24.7026 0.6524,7.1684 0.9857,13.6773 0.9998,19.5267 0.422,9.0963 0.5201,15.2523 0.2941,18.468"/>
  <path class="fil16" d="M86.979 132.526c0.6202,-4.3555 1.3469,-8.2098 2.18,-11.563 -3.27,2.4655 -6.6415,10.0724 -8.1138,18.4188 -0.9827,4.5577 -1.419,8.4119 -1.709,11.5625 -0.4522,-5.1469 0.3516,-13.1457 2.4115,-23.9966 -1.7677,1.4158 -3.4607,3.3014 -4.8125,5.6568 -2.4529,5.5613 -4.5202,13.4708 -6.0683,20.9277 -0.1628,-5.1343 0.3519,-10.4915 1.5441,-16.0714 -1.8337,4.3104 -3.1595,7.7396 -3.5771,11.0881 -1.3824,5.2454 -2.2025,11.3764 -3.2605,18.3932 -1.0531,4.1152 -2.7011,7.9773 -4.9438,11.5866 0,8.2244 0,12.3365 0,12.3365 1.1672,-0.7221 2.2148,-1.1653 3.1427,-1.3296 0.9497,-4.2122 1.8109,-7.7733 2.3168,-10.6836 1.4604,-5.988 2.7271,-12.1633 4.0669,-18.5259 -0.0571,4.3522 -0.1829,8.1767 -0.3776,11.4737 -2.2744,7.5125 -4.0632,13.3775 -5.3664,17.5949 0.9911,-0.2114 1.5254,-0.1084 1.6028,0.3088 0.0322,3.5545 0.5704,6.9592 1.6148,10.2141 0.4046,-0.5513 1.2974,-0.1819 2.6784,1.1079 2.0703,1.6179 3.5798,2.7747 4.5288,3.4701 0.2413,-0.8234 0.5754,-1.4701 1.0026,-1.9402 -0.6785,-2.7712 -0.4215,-5.7105 0.7712,-8.8182 1.1569,-4.2876 2.0369,-8.7199 2.64,-13.2965 -0.2146,-10.9385 0.2804,-18.8679 1.4848,-23.7884 1.1072,-7.3077 2.6287,-13.8664 4.5643,-19.6761 1.1195,-2.9668 1.6793,-4.4502 1.6793,-4.4502z"/>
  <path class="fil5 str0" d="M98.1664 114.26c1.1497,-0.7001 2.174,-1.5676 3.0723,-2.3355 0.9663,-0.826 1.7877,-1.5584 2.4635,-2.4632"/>
  <path class="fil38" d="M100.278 121.95c0.139,-0.5311 -0.128,-0.9735 -0.8009,-1.3271 0.4405,-0.0132 1.0306,-0.978 1.9037,-2.7611 -0.1041,2.0775 -0.2861,3.8558 -0.2793,5.6017 -0.4726,-0.2729 -0.7471,-0.7774 -0.8235,-1.5135z"/>
  <path class="fil5 str1" d="M89.9266 118.053c-1.4373,1.0777 -2.7901,2.0384 -4.0583,2.882 -1.5349,0.6997 -3.064,1.7584 -4.5876,3.1761 -1.6669,1.268 -3.0786,2.5422 -4.2348,3.8229 -1.8356,2.0343 -3.404,4.4849 -4.7051,7.352 -1.5264,2.6543 -2.8008,6.0459 -3.8231,10.175 -0.7541,2.142 -1.4011,4.2789 -1.9409,6.411 -0.9371,2.2091 -1.6821,4.346 -2.235,6.4108 -0.729,1.9014 -1.4936,4.3521 -2.2938,7.352 -0.3655,2.1082 -0.8828,3.9511 -1.5518,5.5285"/>
  <path class="fil5 str1" d="M62.1698 165.181c-0.5842,1.3461 -1.1421,2.4188 -1.6736,3.2177"/>
  <path class="fil5 str1" d="M93.279 120.699c-2.3676,3.4552 -4.5241,7.5331 -6.4697,12.2337 1.0397,-6.3034 2.0788,-11.2635 3.1173,-14.8804 2.5613,-6.6387 6.9451,-11.3294 13.1515,-14.072"/>
  <path class="fil39" d="M93.2918 120.702c0.5016,-0.7017 0.9187,-1.2811 1.2514,-1.7379 -0.0408,1.0389 0.8538,1.5432 2.6837,1.5129 -1.5175,0.3704 -2.8292,0.4453 -3.9351,0.225z"/>
  <path class="fil5 str1" d="M101.975 98.6813c1.0298,4.0384 1.8733,9.0314 1.8637,14.9789 -0.2101,0.812 -0.1345,1.1934 -0.44,1.4106"/>
  <path class="fil5 str1" d="M101.925 110.76c-0.8105,0.7214 -1.5946,1.3684 -2.3526,1.9409 -1.865,1.9585 -3.9628,4.6247 -6.2933,7.9988 1.1458,0.2511 2.6357,0.1335 4.4701,-0.3529 1.285,-0.0271 2.1084,0.2866 2.4701,0.9411 0.0491,1.1992 0.3432,1.9246 0.8823,2.1762 0.6238,0.2528 1.1375,0.5067 1.5411,0.7614 0.6476,-0.0191 1.1887,-0.2765 1.6232,-0.7721 0.3657,-0.2007 0.6637,-0.2561 0.8936,-0.1659 0.1777,0.0704 0.3999,-0.0945 0.3999,-0.0945"/>
  <path class="fil5 str1" d="M79.4361 167.174c1.3881,-0.1429 2.6886,-0.4554 3.9018,-0.9377"/>
  <path class="fil40" d="M101.942 133.697c-2.2945,1.7842 -3.9414,4.8037 -5.3407,7.0579 0.6597,-2.5793 1.5028,-4.4811 2.3957,-5.7052 0.738,-0.6321 2.0752,-1.0829 2.945,-1.3527z"/>
  <path class="fil6" d="M82.4994 180.132c-0.4798,0.7018 -0.8718,1.1528 -1.1763,1.3528 -0.4841,0.5957 -0.9939,1.4778 -1.5292,2.6466 0.8496,-2.2954 1.3005,-3.7265 1.3528,-4.2935 0.5147,-1.0032 1.3381,-1.5718 2.4702,-1.7056 0.1604,0.5512 -0.2122,1.2179 -1.1175,1.9997z"/>
  <path class="fil41" d="M89.4384 192.983c12.9854,0.9192 19.4488,1.5089 19.3904,1.769 5.3187,1.4291 8.9365,2.0792 10.8534,1.9503 1.6464,-0.574 2.7444,-1.574 3.2937,-2.9996 0.1542,-2.639 -0.2183,-7.1874 -1.1175,-13.6451 -0.5798,-4.7404 -0.7366,-8.1124 -0.4706,-10.1163 1.478,-5.7595 2.87,-9.9158 4.1759,-12.4688 2.5231,-5.6875 4.6012,-10.8045 6.2344,-15.3507 -0.5503,6.4123 -1.1973,10.3334 -1.9409,11.7631 -1.1981,6.1226 -1.1785,11.8866 0.0588,17.2916 0.1644,-5.5536 1.5171,-11.7684 4.0583,-18.6445 0.9275,-2.5489 2.5548,-5.3525 4.8817,-8.4105 3.0175,-3.4519 5.6446,-6.4516 7.8813,-8.9988 0,0 -0.0736,1.1575 -0.2207,3.4723 -1.6019,2.0674 -3.547,5.3037 -5.8356,9.7093 -1.0731,2.4945 -2.1798,5.1514 -3.3204,7.9707 -1.8949,4.5593 -3.3436,9.4959 -4.3464,14.8102 -0.1767,0.7231 -0.2187,1.3465 -0.1261,1.87 0,0 0.1224,-0.2603 0.3674,-0.7811 -0.2206,2.7048 -0.5495,8.3126 -0.9868,16.8233 -0.9025,4.9192 -1.373,10.3302 -1.4116,16.2331 2.5889,-5.9475 4.765,-10.1626 6.5285,-12.6452 2.3865,-3.7608 4.6019,-7.5643 6.6462,-11.4102 1.8052,-3.5673 3.8049,-7.5275 5.9991,-11.8806 1.5043,-2.9252 2.916,-6.3758 4.2347,-10.3516 1.397,2.2584 1.6304,8.5455 0.7001,18.8612 -2.2183,6.0509 -4.9524,12.3054 -8.2024,18.7636 -1.938,2.3609 -4.5737,6.2396 -7.9073,11.6363 0,0 -3.7347,0 -11.2039,0 0.2309,-1.3843 0.3877,-2.7773 0.4706,-4.1787 0,0 -1.9713,-0.6202 -5.9141,-1.8607 0,0 -2.0086,-0.6051 -6.0259,-1.8155 -1.7975,-1.1002 -4.2488,-2.966 -7.3539,-5.5971 -1.9832,-1.6819 -5.4526,-4.1686 -10.4084,-7.4599 -0.8986,-0.9578 -1.9573,-1.1931 -3.176,-0.7058 -0.7925,0.4741 -1.7004,1.4007 -2.7237,2.7794 -0.593,0.7664 -1.6205,1.9721 -3.0823,3.6173 -2.747,0.5516 -5.2527,1.017 -7.0157,2.1179 -1.2236,0.7642 -3.0423,3.165 -6.1624,6.6077 -0.2806,0.5647 -0.4209,0.8471 -0.4209,0.8471 -1.0291,1.1905 -1.4618,3.0732 -1.298,5.6483 1.7239,-2.3105 4.5752,-5.3433 8.5536,-9.0984 2.822,-2.5445 4.9366,-4.5855 6.3434,-6.1226z"/>
  <path class="fil42" d="M69.8819 171.456c0.1732,-4.5578 0.2195,-8.054 0.1387,-10.4886 -1.7227,7.773 -2.584,11.6596 -2.584,11.6596 -1.2387,5.5326 -1.8581,8.2988 -1.8581,8.2988 -0.7967,4.001 -1.3987,6.8709 -1.8062,8.6097 0.4264,-0.0939 0.6397,-0.1409 0.6397,-0.1409 2.0579,-6.6938 3.8811,-12.6734 5.4699,-17.9386z"/>
  <path class="fil43" d="M74.5414 208.204c11.6454,0 17.4682,0 17.4682,0 10.0307,-4.5081 15.775,-6.4698 17.2329,-5.8848 1.8749,0.4575 3.8159,1.1437 5.8228,2.0585 2.2644,1.3558 4.6563,2.1791 7.1753,2.4703 1.8178,0.1069 3.6491,0.3988 5.4939,0.8753 0.2588,-2.4653 0.3882,-3.698 0.3882,-3.698 -3.9649,-1.2737 -7.945,-2.4992 -11.94,-3.6762 -2.0585,-1.3521 -3.7563,-2.5874 -5.093,-3.7057 -2.5864,-2.2264 -5.2578,-4.3069 -8.0141,-6.2419 -1.7678,-1.2345 -3.3195,-2.271 -4.6552,-3.1094 -0.8959,-0.9571 -1.9547,-1.1924 -3.176,-0.7058 -0.999,0.6826 -1.8419,1.5255 -2.5291,2.529 -2.511,3.1892 -5.1087,5.9548 -7.7929,8.2966 -4.5332,4.1386 -7.9935,7.7359 -10.381,10.7921z"/>
  <path class="fil5 str1" d="M70.1172 142.342c0.0918,2.719 0.3075,5.0992 0.7802,6.3404 0.233,-3.6708 0.6486,-7.6782 1.5136,-11.2221"/>
  <path class="fil5 str1" d="M70.8974 148.683c-0.3509,3.5717 -0.611,7.8102 -0.7802,12.7158 -0.0678,3.8036 -0.1462,7.156 -0.2353,10.0574 1.9801,-6.7426 3.2936,-12.2321 3.9406,-16.4684"/>
  <path class="fil44" d="M66.0148 189.703c0.1887,6.3662 1.6753,12.0073 4.4597,16.9236 -2.9274,-4.0697 -4.6693,-8.7503 -5.226,-14.0419 -0.0352,-1.0152 0.0355,-2.027 -0.5882,-2.235 -1.9945,-0.12 -3.3381,0.429 -4.0307,1.6468 0,-0.7545 0,-1.1318 0,-1.1318 1.4219,-0.8389 2.6827,-1.3291 3.7824,-1.4705 0.9922,-0.2111 1.5265,-0.1081 1.6028,0.3088z"/>
  <path class="fil5 str1" d="M69.8819 171.456c-1.5595,5.1786 -3.3827,11.1581 -5.4699,17.9386 -1.6648,0.3341 -2.9256,0.8243 -3.7824,1.4705"/>
  <path class="fil45" d="M75.9792 195.838c0.8193,-2.5393 1.3871,-4.6538 1.7032,-6.3435 -0.0238,0.0057 -0.0234,3.0906 0.0012,9.2548 -0.778,1.4374 -1.3927,2.7062 -1.8442,3.8065 -0.5493,-2.0895 -0.5027,-4.3288 0.1398,-6.7178z"/>
  <path class="fil5 str1" d="M77.6824 189.494c-0.8111,3.3563 -1.3794,5.473 -1.705,6.35 -0.6407,2.3903 -0.6867,4.6274 -0.138,6.7113 1.6518,-3.324 2.4777,-4.986 2.4777,-4.986"/>
  <path class="fil5 str1" d="M86.8093 132.933c-2.203,5.5545 -3.7612,10.8594 -4.6746,15.9145 -1.3009,6.3156 -2.2005,12.4247 -2.6986,18.327 -0.1513,4.2935 -0.2132,8.7155 -0.1855,13.2661 -0.4027,3.0101 -0.9254,6.028 -1.5682,9.0534"/>
  <path class="fil5 str1" d="M110.876 129.977c-0.4496,0.6275 -0.6743,0.9413 -0.6743,0.9413 -2.5427,4.0908 -4.8075,7.9515 -6.7946,11.582 -2.5124,4.6247 -4.7612,9.1828 -6.7465,13.6744 -2.0338,4.6165 -3.693,8.5445 -4.9775,11.7838"/>
  <path class="fil46" d="M71.4845 208.204c-1.6685,-2.4688 -2.9536,-5.2309 -3.8549,-8.2861 0.6439,-0.5563 1.3074,0.0136 2.1242,0.6427 2.3487,1.8964 3.954,3.1191 5.083,3.9353 -0.3233,0.9079 -0.4217,2.144 -0.2954,3.7081 -2.0379,0 -3.0569,0 -3.0569,0z"/>
  <path class="fil43" d="M60.6296 191.864c0,6.4696 0,9.8379 0,9.8379 1.1042,-1.1893 2.3302,-2.0716 3.6778,-2.6467 0.7612,-0.4031 1.3886,0.0479 1.8821,1.3527 0.9082,2.1147 2.0061,4.7134 3.2937,7.7961 0,0 0.6672,0 2.0013,0 -0.7074,-1.0309 -1.2884,-2.0041 -1.7428,-2.9196 -3.0362,-4.9124 -4.4328,-9.7942 -4.4565,-14.3785 -0.0044,-0.2381 -0.1683,-0.4676 -0.4915,-0.6887 -1.6808,-0.237 -3.1578,0.3118 -4.1641,1.6468z"/>
  <path class="fil47" d="M60.6296 208.204c0,-4.3347 0,-6.5021 0,-6.5021 1.4324,-1.652 2.7016,-2.3838 3.5444,-2.6467 0.9397,-0.6067 1.743,0.1747 1.8764,0.744 1.2781,2.6375 2.3334,5.4392 3.5662,8.4048 -5.9024,0 -8.987,0 -8.987,0z"/>
  <path class="fil48" d="M83.7754 198.408c2.844,-2.5466 4.5893,-4.2008 5.2359,-4.9631 1.0028,-1.0336 2.2374,-2.4769 3.704,-4.3298 0.4419,-0.6775 1.124,-1.4193 2.0461,-2.2253 1.0659,-0.7021 2.099,-0.7312 3.0993,-0.0873 0.6698,0.5648 1.6384,1.2368 2.9056,2.0163 1.9937,1.3032 4.399,3.0539 7.216,5.2522 1.7254,1.481 3.5928,2.9795 5.602,4.4957 -1.8953,-0.7047 -3.8326,-1.885 -5.8122,-3.5407 0,0 -3.1172,-2.1762 -9.3516,-6.5285 -0.9778,-0.7049 -2.221,-1.1951 -2.6625,-0.937 -1.448,0.9467 -3.0007,2.2366 -4.9246,4.9364 -1.3455,1.5325 -3.6983,3.5029 -7.058,5.9111z"/>
  <path class="fil5 str1" d="M64.412 189.395c1.3892,-0.2188 1.5233,0.0175 1.6028,0.3088 -0.0522,3.7109 0.7321,7.8672 2.3526,12.4688 0.8961,2.3389 1.9351,4.3494 3.1171,6.0314"/>
  <path class="fil49" d="M128.123 204.025c-1.8986,-0.6122 -3.8699,-1.2324 -5.9141,-1.8607 1.7315,0.0387 3.1438,-0.2529 4.2373,-0.8746 0.8918,-2.7924 1.7025,-4.4306 2.4319,-4.9141 -0.2949,2.8795 -0.5465,5.4292 -0.7551,7.6494z"/>
  <path class="fil5 str1" d="M75.8394 202.555c-1.0291,1.1905 -1.4618,3.0734 -1.298,5.6485 0.7605,-1.2821 3.8385,-4.5475 9.234,-9.7958 3.417,-2.9027 6.3968,-6.0003 8.9399,-9.2929 1.0544,-1.3855 1.8973,-2.2285 2.5291,-2.529 1.2605,-0.4782 2.3191,-0.2429 3.176,0.7058 3.6791,2.3309 7.1297,4.8011 10.3515,7.4108 2.8324,2.4448 5.3027,4.3268 7.4108,5.6462 4.3601,1.2893 8.34,2.5148 11.94,3.6762 -0.1189,1.7298 -0.2757,3.1226 -0.4706,4.1787"/>
  <path class="fil5 str1" d="M128.123 204.025c0.8001,-8.4373 1.4862,-14.711 2.0585,-18.8209 1.041,-5.7856 1.8841,-9.7458 2.5291,-11.8808"/>
  <path class="fil16" d="M136.326 183.88c-0.4439,2.0415 -1.1508,3.1905 -0.8235,3.8818 2.0804,-4.8396 3.943,-8.9958 5.5876,-12.4688 1.0255,-2.7031 2.8683,-7.6241 5.5285,-14.7626 0.4395,-9.6994 0.8512,-15.4241 1.2352,-17.1742 -1.1433,1.7839 -2.104,3.823 -2.882,6.1169 -1.1837,2.7982 -2.5168,5.7587 -3.9994,8.8811 -1.2848,3.7188 -2.2651,7.8163 -2.9408,12.2924 -0.3529,5.1968 -0.9043,9.548 -1.7056,13.2334z"/>
  <path class="fil50" d="M146.617 196.747c-1.4812,2.9923 -3.622,6.8112 -6.4228,11.4566 -0.8921,0 -1.3381,0 -1.3381,0 4.2137,-6.5865 6.8007,-10.4055 7.7609,-11.4566z"/>
  <path class="fil5 str1" d="M130.602 182.731c-2.588,-8.9658 -3.3493,-21.2021 -1.0836,-31.6404"/>
  <path class="fil5 str1" d="M146.517 138.595c-3.5097,4.8799 -5.9642,9.3772 -7.6304,14.0255 -3.4496,7.8937 -5.5159,14.82 -6.1986,20.7789 2.1335,-4.799 4.8271,-8.5493 8.0807,-11.2508 3.5354,-3.214 6.2998,-5.6254 8.2931,-7.2343 2.3183,-1.9916 4.7494,-4.2658 7.2931,-6.8226 2.6467,-2.6085 4.3562,-4.2396 5.5286,-5.1601 1.1226,-0.3786 1.6174,-0.2829 2.5515,0.5541"/>
  <path class="fil5 str1" d="M140.194 208.204c1.6331,-2.7122 3.2799,-5.5655 4.9405,-8.5602 2.2586,-4.1461 4.3368,-8.4396 6.2344,-12.8805 2.9459,-6.9137 4.5339,-11.2268 4.7641,-12.9394"/>
  <path class="fil5 str1" d="M171.307 208.204c-1.2392,-5.4524 -2.2056,-10.5783 -2.8992,-15.3776 -0.4612,2.6521 -0.6319,7.7778 -0.512,15.3776"/>
  <path class="fil5 str1" d="M168.542 192.826c0.0567,-2.8684 0.0835,-4.1249 0.0802,-3.7693"/>
  <path class="fil47" d="M127.735 208.204c-23.8165,0 -35.7249,0 -35.7249,0 8.8361,-4.1749 14.4469,-6.4033 17.0995,-6.1516 2.0131,0.4842 4.1881,1.3629 6.2584,2.3693 2.4268,1.3292 4.7178,2.0936 6.8731,2.2929 2.2438,0.1818 4.0751,0.6068 5.4939,1.0087 -0.1331,0.3864 -0.1331,0.5466 0,0.4807z"/>
  <path class="fil16" d="M155.03 208.204c-4.9405,0 -7.4107,0 -7.4107,0 2.0494,-5.1004 4.1668,-10.6793 6.352,-16.7366 -0.2118,6.9659 0.1411,12.5447 1.0587,16.7366z"/>
  <path class="fil51 str1" d="M81.8056 112.213c-0.7613,-0.8729 -1.6435,-0.9905 -2.6468,-0.353 -1.1439,0.8218 -1.3596,1.6136 -0.647,3.176 0,0 1.0811,2.796 3.5097,8.388 1.9205,-1.4333 3.2545,-2.2694 3.7355,-2.5085 -1.8374,-4.2056 -3.1546,-7.1064 -3.9514,-8.7025z"/>
  <path class="fil52" d="M128.298 121.712c-1.1249,0.8984 -2.4384,1.8884 -3.9406,2.9702 1.4775,-2.1899 3.5263,-4.7189 6.1462,-7.5872 2.7947,-2.4262 4.5395,-4.3279 5.2346,-5.7051 0.2028,1.283 -0.5912,3.2241 -2.3821,5.8228 -0.8317,1.076 -2.5177,2.5757 -5.0581,4.4993z"/>
  <path class="fil53" d="M116.329 131.681c2.5243,-4.232 5.0141,-7.4276 7.4696,-9.587 1.6815,-1.6533 3.3969,-3.2413 5.1463,-4.764 1.6351,-1.1767 2.2428,-2.0197 1.8232,-2.5291 -0.8786,1.0403 -2.055,1.9912 -3.5288,2.8525 -2.3125,0.8754 -4.5181,2.7184 -6.6168,5.5287 -2.2095,2.8984 -4.1211,6.2508 -5.7345,10.0574 0.4049,0.0515 0.8853,-0.468 1.441,-1.5585z"/>
  <rect class="fil24" transform="matrix(1.38576 -0.589918 0.589918 1.38576 79.5341 113.278)" width="0.7497" height="6.1737" rx="3.8533" ry="3.8533"/>
  <path class="fil5 str1" d="M78.0297 112.515c0,0 -0.3773,0.2194 -1.1318,0.6581 -0.8303,1.1626 -0.644,1.9971 -0.2093,2.981 2.0181,4.5686 3.3425,7.3976 3.8483,8.4363 0.4959,-0.4085 0.7438,-0.4794 0.7438,-0.4794"/>
  <path class="fil5 str1" d="M81.2183 124.112c-0.1954,-0.5507 -1.4591,-3.3418 -3.7062,-8.166 -0.5235,-1.1237 -0.3648,-2.367 0.5176,-3.4312"/>
 </g>
</svg>
