<svg id="undraw_science_fqhl" xmlns="http://www.w3.org/2000/svg" xmlns:xlink="http://www.w3.org/1999/xlink" width="602.531" height="480.364" viewBox="0 0 602.531 480.364">
  <defs>
    <linearGradient id="linear-gradient" x1="0.5" y1="1" x2="0.5" gradientUnits="objectBoundingBox">
      <stop offset="0" stop-color="gray" stop-opacity="0.251"/>
      <stop offset="0.54" stop-color="gray" stop-opacity="0.122"/>
      <stop offset="1" stop-color="gray" stop-opacity="0.102"/>
    </linearGradient>
  </defs>
  <path id="Path_181" data-name="Path 181" d="M150.53,801.349s-25.787-1.556-22.749,16.521a4.4,4.4,0,0,0,2.288,4.643s.049-1.342,2.648-.885a11.813,11.813,0,0,0,2.8.134,5.838,5.838,0,0,0,3.429-1.415h0s7.248-3,10.072-14.843c0,0,2.086-2.587,2-3.252l-4.35,1.83s1.482,3.142.317,5.747c0,0-.146-5.631-.982-5.491-.171.031-2.257,1.092-2.257,1.092s2.556,5.491.61,9.444c0,0,.732-6.741-1.428-9.053l-3.05,1.794s3,5.649.964,10.255c0,0,.519-7.071-1.6-9.822l-2.776,2.166s2.806,5.57,1.092,9.389c0,0-.22-8.23-1.7-8.852,0,0-2.44,2.141-2.8,3.05,0,0,1.928,4.039.732,6.174,0,0-.732-5.49-1.33-5.49,0,0-2.44,3.63-2.672,6.1a13.225,13.225,0,0,1,2.08-6.473,7.253,7.253,0,0,0-3.7,1.916s.378-2.568,4.3-2.794c0,0,2-2.751,2.538-2.922,0,0-3.9-.323-6.271.726,0,0,2.08-2.44,6.985-1.324l2.745-2.239s-5.143-.7-7.321.073c0,0,2.507-2.141,8.059-.58l2.983-1.781a27.224,27.224,0,0,0-7-.61s2.757-1.489,7.87.122l2.135-.958s-3.215-.61-4.155-.732-.988-.36-.988-.36a11.139,11.139,0,0,1,6.034.671S150.61,801.635,150.53,801.349Z" transform="translate(-114.512 -346.808)" fill="#6c63ff"/>
  <ellipse id="Ellipse_12" data-name="Ellipse 12" cx="18.253" cy="3.087" rx="18.253" ry="3.087" transform="translate(0 474.191)" fill="#6c63ff" opacity="0.1"/>
  <path id="Path_182" data-name="Path 182" d="M1085.08,734.068s-14.544-.878-12.812,9.31a2.489,2.489,0,0,0,1.293,2.623s0-.756,1.489-.5a6.8,6.8,0,0,0,1.58.073,3.29,3.29,0,0,0,1.934-.793h0s4.087-1.69,5.68-8.37c0,0,1.171-1.458,1.129-1.83l-2.44,1.049a4.417,4.417,0,0,1,.177,3.246s-.079-3.178-.549-3.105c-.1,0-1.281.61-1.281.61s1.446,3.05.36,5.32c0,0,.409-3.795-.805-5.1l-1.732,1.007s1.69,3.19.543,5.789c0,0,.3-3.99-.9-5.539l-1.568,1.22s1.586,3.136.61,5.3c0,0-.128-4.643-.958-4.99a9.534,9.534,0,0,0-1.58,1.7s1.086,2.276.415,3.483c0,0-.415-3.093-.756-3.105a10.23,10.23,0,0,0-1.5,3.447,7.43,7.43,0,0,1,1.171-3.66,4.079,4.079,0,0,0-2.086,1.086s.213-1.452,2.44-1.58a9.519,9.519,0,0,1,1.433-1.647,8.989,8.989,0,0,0-3.538.409s1.177-1.367,3.941-.744l1.543-1.263a12.713,12.713,0,0,0-4.124.043s1.415-1.22,4.539-.329l1.684-1.007a15.172,15.172,0,0,0-3.941-.335s1.549-.842,4.435.067l1.22-.543s-1.83-.354-2.337-.409-.561-.2-.561-.2a6.3,6.3,0,0,1,3.4.378A14.9,14.9,0,0,0,1085.08,734.068Z" transform="translate(-482.843 -320.579)" fill="#6c63ff"/>
  <ellipse id="Ellipse_13" data-name="Ellipse 13" cx="10.292" cy="1.739" rx="10.292" ry="1.739" transform="translate(581.928 424.568)" fill="#6c63ff" opacity="0.1"/>
  <path id="Path_183" data-name="Path 183" d="M1034.348,779.536s-17.557-1.055-15.459,11.256a3.007,3.007,0,0,0,1.562,3.166s0-.915,1.83-.61a8.019,8.019,0,0,0,1.91.092,3.978,3.978,0,0,0,2.331-.964h0s4.935-2.038,6.851-10.1c0,0,1.422-1.763,1.367-2.215l-2.965,1.269a5.314,5.314,0,0,1,.22,3.91s-.1-3.837-.665-3.746c-.116,0-1.544.738-1.544.738s1.745,3.728.427,6.43c0,0,.5-4.588-.97-6.156l-2.087,1.22s2.038,3.85.659,6.985c0,0,.354-4.813-1.1-6.711l-1.885,1.47s1.91,3.795.744,6.394c0,0-.153-5.6-1.159-6.021a11.263,11.263,0,0,0-1.9,2.056s1.312,2.751.5,4.2c0,0-.5-3.733-.909-3.752a12.566,12.566,0,0,0-1.83,4.167,9.008,9.008,0,0,1,1.421-4.4,4.974,4.974,0,0,0-2.526,1.306s.256-1.745,2.928-1.9a11.483,11.483,0,0,1,1.726-1.995,10.861,10.861,0,0,0-4.271.494s1.421-1.647,4.759-.9l1.867-1.525s-3.5-.482-4.984.049c0,0,1.708-1.458,5.49-.4l2.032-1.22a18.446,18.446,0,0,0-4.759-.409s1.873-1.013,5.357.086l1.452-.653s-2.19-.433-2.824-.5-.677-.244-.677-.244a7.582,7.582,0,0,1,4.106.458A17.914,17.914,0,0,0,1034.348,779.536Z" transform="translate(-462.016 -338.307)" fill="#6c63ff"/>
  <ellipse id="Ellipse_14" data-name="Ellipse 14" cx="12.427" cy="2.099" rx="12.427" ry="2.099" transform="translate(547.807 454.607)" fill="#6c63ff" opacity="0.1"/>
  <ellipse id="Ellipse_15" data-name="Ellipse 15" cx="56.327" cy="8.791" rx="56.327" ry="8.791" transform="translate(435.073 434.372)" fill="#6c63ff" opacity="0.1"/>
  <ellipse id="Ellipse_16" data-name="Ellipse 16" cx="63.294" cy="6.351" rx="63.294" ry="6.351" transform="translate(249.864 462.129)" fill="#6c63ff" opacity="0.1"/>
  <ellipse id="Ellipse_17" data-name="Ellipse 17" cx="48.043" cy="2.965" rx="48.043" ry="2.965" transform="translate(73.354 462.593)" fill="#6c63ff" opacity="0.1"/>
  <path id="Path_184" data-name="Path 184" d="M341.341,78.983c17.82-15.862,45.8-19.113,71.255-17.85C492.57,65.1,564.759,103.715,627.205,147.39c22.609,15.807,44.864,32.846,59.536,54.619,29.893,44.315,21.01,105.712-20.523,142.224-14.135,12.421-31.266,21.962-48.854,30.387-31.272,15.014-65.015,27.062-100.5,30.5-25.312,2.44-50.934.458-76.093-2.959-70.3-9.541-139.308-30.625-197.142-66.68-25.366-15.862-49.281-35.506-59.737-61.1s-3.764-58.023,22.139-73.171c10.713-6.265,23.524-9.1,36.061-11.75,18.461-3.911,37.214-7.766,53.875-15.721,17.2-8.211,37.574-24.091,34.164-42.265C326.48,111.975,323.546,94.845,341.341,78.983Z" transform="translate(-134.646 -58.088)" fill="#fff" opacity="0.8"/>
  <path id="Path_185" data-name="Path 185" d="M587.055,351.4V234.914h15.862V200.14H489.262v34.774h15.862V351.4a115.5,115.5,0,1,0,81.958.01Z" transform="translate(-232.693 -112.388)" fill="#96b7fe" opacity="0.9"/>
  <rect id="Rectangle_9" data-name="Rectangle 9" width="81.956" height="1.568" transform="translate(272.406 122.165)" opacity="0.1"/>
  <path id="Path_186" data-name="Path 186" d="M514,603.089s69.547-1.22,104.321-18.625,54.643-1.867,52.777,8.693S659.3,624.2,619.565,626.71,514,603.089,514,603.089Z" transform="translate(-265.21 -259.196)" fill="#6c63ff"/>
  <path id="Path_187" data-name="Path 187" d="M514,603.089s69.547-1.22,104.321-18.625,54.643-1.867,52.777,8.693S659.3,624.2,619.565,626.71,514,603.089,514,603.089Z" transform="translate(-265.21 -259.196)" fill="#6bef14" opacity="0.46"/>
  <path id="Path_188" data-name="Path 188" d="M465.1,601.235s-7.431,103.07,90.027,104.931,96.86-103.711,96.86-103.711-35.994,39.111-121.073,6.827C530.911,609.306,486.827,597.507,465.1,601.235Z" transform="translate(-246.09 -268.506)" fill="#fec50c"/>
  <path id="Path_189" data-name="Path 189" d="M651.674,604.068c-1.946,23.744-14.568,98.068-96.506,96.5-80.321-1.519-89.417-71.737-90.131-96.439-.445,13.257-.049,101.545,90.113,103.272,97.482,1.83,96.86-103.711,96.86-103.711S651.887,603.842,651.674,604.068Z" transform="translate(-246.097 -269.747)" opacity="0.1"/>
  <circle id="Ellipse_18" data-name="Ellipse 18" cx="12.647" cy="12.647" r="12.647" transform="translate(296.979 275.609)" fill="#6c63ff" opacity="0.3"/>
  <circle id="Ellipse_19" data-name="Ellipse 19" cx="7.827" cy="7.827" r="7.827" transform="translate(309.022 229.835)" fill="#6c63ff" opacity="0.3"/>
  <circle id="Ellipse_20" data-name="Ellipse 20" cx="7.827" cy="7.827" r="7.827" transform="translate(291.556 184.66)" fill="#6c63ff" opacity="0.3"/>
  <path id="Path_190" data-name="Path 190" d="M486.813,532.741c-.671,5.332-.537,12.006,4.228,14.5-4-2.086,12.384-25.745,10.06-30.576C496.128,506.35,487.423,527.787,486.813,532.741Z" transform="translate(-254.494 -234.731)" fill="#fff" opacity="0.2"/>
  <circle id="Ellipse_21" data-name="Ellipse 21" cx="12.647" cy="12.647" r="12.647" transform="translate(280.41 39.215)" fill="#6c63ff" opacity="0.3"/>
  <circle id="Ellipse_22" data-name="Ellipse 22" cx="9.401" cy="9.401" r="9.401" transform="translate(321.595 20.779)" fill="#6c63ff" opacity="0.3"/>
  <circle id="Ellipse_23" data-name="Ellipse 23" cx="4.887" cy="4.887" r="4.887" transform="translate(299.011 0)" fill="#6c63ff" opacity="0.3"/>
  <path id="Path_191" data-name="Path 191" d="M324.674,319.48H222.47v30.314h15.575v236.5a35.535,35.535,0,1,0,71.069,0l0-236.5h15.563Z" transform="translate(-151.532 -158.923)" fill="#96b7fe" opacity="0.9"/>
  <path id="Path_192" data-name="Path 192" d="M286.81,453.857s25.293-9.035,32.333-2.611c0,0-10.243,15.056-19.675,14.452S286.81,453.857,286.81,453.857Z" transform="translate(-176.62 -209.404)" fill="#6c63ff"/>
  <path id="Path_193" data-name="Path 193" d="M286.81,453.857s25.293-9.035,32.333-2.611c0,0-10.243,15.056-19.675,14.452S286.81,453.857,286.81,453.857Z" transform="translate(-176.62 -209.404)" fill="#6bef14" opacity="0.46"/>
  <path id="Path_194" data-name="Path 194" d="M312.073,452.341V623.989a21.682,21.682,0,0,1-21.682,21.682h0a21.681,21.681,0,0,1-21.682-21.682V452.341a28.113,28.113,0,0,1,20.272,3.215C298.817,461.584,312.073,452.341,312.073,452.341Z" transform="translate(-169.562 -210.475)" fill="#fec50c"/>
  <rect id="Rectangle_10" data-name="Rectangle 10" width="71.066" height="1.397" transform="translate(86.501 190.682)" opacity="0.1"/>
  <path id="Path_195" data-name="Path 195" d="M290.392,738.688h0A21.682,21.682,0,0,1,268.71,717v10.841a21.682,21.682,0,0,0,21.682,21.682h0a21.682,21.682,0,0,0,21.682-21.682V717a21.682,21.682,0,0,1-21.682,21.688Z" transform="translate(-169.562 -313.931)" opacity="0.1"/>
  <circle id="Ellipse_24" data-name="Ellipse 24" cx="4.417" cy="4.417" r="4.417" transform="translate(116.418 216.176)" fill="#6c63ff" opacity="0.3"/>
  <circle id="Ellipse_25" data-name="Ellipse 25" cx="2.812" cy="2.812" r="2.812" transform="translate(132.475 202.12)" fill="#6c63ff" opacity="0.3"/>
  <circle id="Ellipse_26" data-name="Ellipse 26" cx="2.812" cy="2.812" r="2.812" transform="translate(112.801 196.502)" fill="#6c63ff" opacity="0.3"/>
  <path id="Path_196" data-name="Path 196" d="M256.813,498.194c-.671,5.332-.537,12.006,4.228,14.5-4-2.087,12.384-25.739,10.06-30.576C266.116,471.815,257.423,493.247,256.813,498.194Z" transform="translate(-164.809 -221.262)" fill="#fff" opacity="0.2"/>
  <circle id="Ellipse_27" data-name="Ellipse 27" cx="10.731" cy="10.731" r="10.731" transform="translate(119.268 120.128)" fill="#6c63ff" opacity="0.3"/>
  <circle id="Ellipse_28" data-name="Ellipse 28" cx="7.98" cy="7.98" r="7.98" transform="translate(89.826 104.48)" fill="#6c63ff" opacity="0.3"/>
  <circle id="Ellipse_29" data-name="Ellipse 29" cx="4.148" cy="4.148" r="4.148" transform="translate(116.65 86.849)" fill="#6c63ff" opacity="0.3"/>
  <path id="Path_197" data-name="Path 197" d="M920.725,410.986s-9.364-46.572-5.783-52.368c0,0,.128-5.387-.085-12.25v-.793a16.178,16.178,0,0,0,1.964,1.147,15.862,15.862,0,0,0,10.719,1.385l-2.849-3.16a5.251,5.251,0,0,1-1.537-2.568,5.6,5.6,0,0,1,.61-2.776c2.69-6.8,2.855-15.361-2.355-20.553-4.38-4.368-5.454-10.005-10.188-13.989-3.477-2.922-5.387-7.2-7.193-11.335a64.908,64.908,0,0,1-3.935-10.737c-.683-2.9-.952-5.893-1.891-8.724s-2.684-5.582-5.424-6.845a19.928,19.928,0,0,1-2.947-1.306,12.658,12.658,0,0,1-2.715-3.185c-4.27-5.68-18.668-2.337-25.476-.03a14.344,14.344,0,0,0-5.033,2.788l.061-.1.171-.25a9.014,9.014,0,0,0-1.9,2.123c-.994,1.574-1.409,3.422-2.233,5.082-1,2.013-6.552,7.632-4.167,9.9a2.046,2.046,0,0,0,.555.366,4.972,4.972,0,0,0,2.812.281c-.037.079-.073.159-.1.238a16.632,16.632,0,0,0-1.22,6.29,17.021,17.021,0,0,0,17.167,16.868,17.4,17.4,0,0,0,5.259-.805c.043.214.079.427.116.641a.555.555,0,0,0,.043.262h0l-.3.421-.049-.079-8.9,12.445c-1.36.952-9.2,6.625-9.621,10.877-.464,4.655-.927,10.109-.927,10.109l-.061,1.165a3.514,3.514,0,0,1-2.831.769c-2.776-.458-2.776,10.225-2.776,10.225s-1.83,1.7-3.117.226-4.624,3.52-4.624,3.52l-21.041.909h-.482l-1.135-3.514a1.483,1.483,0,0,0-1.83-.94,1.185,1.185,0,0,0-.256.1l-.073.049a.888.888,0,0,0-.146.1.421.421,0,0,0-.079.067,1.037,1.037,0,0,0-.116.116.907.907,0,0,0-.061.079l-.036.037h0a1.433,1.433,0,0,0-.208,1.269l.976,3.014c-4.057.817-8.211,3.117-4.826,9.462l-17.155-3.166,5.552,4.655,28.673,5.918c-.378.683-.128,1.665,1.055,3.05,5.094,5.991,14.4,7.614,18.143,8.041a32.079,32.079,0,0,0,3.66,6.217l-.33,5.966s-9.468,45.5-11.207,47.817a26.988,26.988,0,0,0,2.349-3.172c-2.751,9.352-6.595,22.151-7.6,24.067-1.623,3.05-3.123,15.447-1.275,16.246.58.244,2.184.128,4.5-.049v1.025l-.1,38.892s.464,23.86-.811,26.129-1.617,7.04-1.617,7.04-5.112,9.413-9.151,13.2l-.091.079-.128-.891s-4.88,6.137-15.605,5.8c0,0-6.473,4.2,3.123,4.429s21.846-.342,21.846-.342,8.541-13.061,15.721-11.359v9.883h2.2V566.5a9,9,0,0,0,3.9-5.924,7.168,7.168,0,0,0-2.556-6.644,4.27,4.27,0,0,1-1.4-3.111l-.079.067a4.532,4.532,0,0,0-.079-.61c-.61-5.112-1.409-15.63,1.373-23.426,3.813-10.682,4.972-25.556,2.2-34.42a78.755,78.755,0,0,1-2.2-8.62c-.067-.372-.134-.72-.189-1.049a43.318,43.318,0,0,1,5.631,1.153c6.442,1.769,20.517,2.1,32.535,2.007.031.329.067.671.1,1.019a37,37,0,0,0,1.354,7.077c1.5,4.551,2.2,24.537,2.2,24.537s1.946,16.441.885,23.14c-.61,3.721-1.123,7.455-1.458,11.207v.073s-3.184,9.084-5.491,14.032c-.061.128-.116.25-.177.372a7.689,7.689,0,0,0-1.83.4s-3.117,6.247-6.241,7.272-2.08,4.429,4.972,3.179,17.692-2.269,17.692-2.269l.464-6.363,2.166-2.709-.549,6.345,2.312-.451-.305-7.723,3.545-4.435s4.27-3.807-2.08-11.3v.159c-.067-.11-.134-.22-.207-.323v-.037c-1.049-1.635-1.891-4.679-.354-10.084,2.776-9.761,4.392-18.625,4.392-18.625s6.2-23.738-1.257-34.975h.336a18.963,18.963,0,0,1-1.611-4.99c-.037-.207-.067-.421-.1-.61,5.491-.317,10.938-1.318,15.349-3.465C925.575,476.306,922.921,419.96,920.725,410.986ZM850.671,371.7v.11l-1.141.055Zm-3.886.537a1.219,1.219,0,0,0-.513.244,5.071,5.071,0,0,0-.891,2.33l-1.769-.4s-1.22-.262-3.05-.555l-.848-.848C842.069,372.784,844.485,372.522,846.785,372.235Z" transform="translate(-374.193 -135.652)" fill="url(#linear-gradient)"/>
  <path id="Path_198" data-name="Path 198" d="M870.177,703.239l-.677,8.041,2.263-.458-.342-8.712Z" transform="translate(-339.049 -273.778)" fill="#1d2366"/>
  <path id="Path_199" data-name="Path 199" d="M872.479,666.972c-2.727,7.766-1.946,18.253-1.336,23.347.226,1.885.433,3.05.433,3.05S867.5,702.654,867.16,703s-12.006,7.455-12.006,7.455L847,715.2s-8.266-3.624-4.27-4.881a6.021,6.021,0,0,0,2.135-1.458c3.953-3.77,8.962-13.147,8.962-13.147s.336-4.753,1.58-7.016.793-26.038.793-26.038l.1-38.763V618.85l15.508.116a35.583,35.583,0,0,0,.671,5.106,78.924,78.924,0,0,0,2.16,8.59C877.342,641.514,876.213,656.326,872.479,666.972Z" transform="translate(-392.969 -275.659)" fill="#ffb0b1"/>
  <path id="Path_200" data-name="Path 200" d="M871.57,739.05s-4.075,9.285-4.417,9.627-12,7.455-12,7.455L847,760.884s-8.266-3.624-4.27-4.881a6.019,6.019,0,0,0,2.135-1.458l.354,2.477,2.721-.116L871.143,736C871.363,737.879,871.57,739.05,871.57,739.05Z" transform="translate(-392.969 -321.339)" opacity="0.1"/>
  <path id="Path_201" data-name="Path 201" d="M862.091,736.88l-23.378,21.059-2.721.11-.561-3.959s-4.759,6.1-15.288,5.771c0,0-6.339,4.191,3.05,4.417s21.4-.342,21.4-.342,8.376-13.019,15.392-11.317v9.846h2.153V752.5a8.949,8.949,0,0,0,3.819-5.9,7.217,7.217,0,0,0-2.5-6.625A4.27,4.27,0,0,1,862.091,736.88Z" transform="translate(-383.77 -321.683)" fill="#3faabb"/>
  <path id="Path_202" data-name="Path 202" d="M966.881,678.832c-1.507,5.387-.683,8.419.342,10.048v.037a18.558,18.558,0,0,1,2.727,6.644l.1.512-10.64,15.508-5.771,2.263s-9.285-3.166-7.589-4.075a8.352,8.352,0,0,0,1.83-3.05c2.276-4.881,5.4-13.946,5.4-13.946v-.079c.323-3.74.848-7.461,1.427-11.17,1.037-6.668-.866-23.054-.866-23.054s-.677-19.919-2.153-24.451a37.831,37.831,0,0,1-1.324-7.052c-.305-2.849-.372-5.173-.372-5.173s6.1-8.492,17.32.677a12.539,12.539,0,0,1,2.337,2.544c7.742,10.981,1.513,35.268,1.513,35.268S969.6,669.1,966.881,678.832Z" transform="translate(-433.6 -275.409)" fill="#ffb0b1"/>
  <path id="Path_203" data-name="Path 203" d="M970.048,741.111l-10.64,15.508-5.771,2.263s-9.285-3.166-7.589-4.075a8.357,8.357,0,0,0,1.83-3.05c3.929,0,5.966,3.709,5.966,3.709l4.978-.787s6.57-12.909,8.041-13.7.226-5.893.226-5.893v-1.3l.116.14v.036a18.559,18.559,0,0,1,2.745,6.662Z" transform="translate(-433.6 -320.478)" opacity="0.1"/>
  <path id="Path_204" data-name="Path 204" d="M949.318,756.056s-2.831-5.2-8.26-3.282c0,0-3.05,6.229-6.1,7.248s-2.038,4.411,4.88,3.166,17.32-2.263,17.32-2.263l.452-6.339,7.016-8.944s4.191-3.795-2.038-11.262v1.3s1.22,5.094-.226,5.887-8.034,13.7-8.034,13.7Z" transform="translate(-428.721 -320.708)" fill="#3faabb"/>
  <path id="Path_205" data-name="Path 205" d="M881.15,618.976a35.594,35.594,0,0,0,.671,5.106,71.364,71.364,0,0,0-16.191-.171V618.86Z" transform="translate(-402.323 -275.662)" opacity="0.1"/>
  <path id="Path_206" data-name="Path 206" d="M972.94,626.413s-9.078.439-19.888.531c-.3-2.849-.372-5.173-.372-5.173s6.1-8.492,17.32.677a12.535,12.535,0,0,1,2.336,2.544A14.869,14.869,0,0,0,972.94,626.413Z" transform="translate(-436.267 -275.401)" opacity="0.1"/>
  <path id="Path_207" data-name="Path 207" d="M935.643,561.89s-39.734,1.922-51.855-1.47-24.11-.458-25.922-1.251-.336-13.129,1.22-16.185,10.3-33.962,10.3-33.962l8.376-43.7,8.834-2.44.61-.171,15.38-4.271,11.28-3.111s22.414,87.508,20.486,93.95a16.474,16.474,0,0,0-.323,7.6A19.037,19.037,0,0,0,935.643,561.89Z" transform="translate(-398.97 -211.896)" fill="#3faabb"/>
  <path id="Path_208" data-name="Path 208" d="M840.532,422.72s-7.931,8.492-1.928,13.244,9.962.458,9.962.458Z" transform="translate(-390.909 -199.18)" fill="#c7daf5"/>
  <path id="Path_209" data-name="Path 209" d="M840.532,422.72s-7.931,8.492-1.928,13.244,9.962.458,9.962.458Z" transform="translate(-390.909 -199.18)" opacity="0.1"/>
  <path id="Path_210" data-name="Path 210" d="M937.464,321.151s-.927.879-2.331,2.19c-1.995,1.861-4.948,4.588-7.571,6.875-3.66,3.16-6.619,5.491-5.552,3.5s.866-5.423.335-8.651l-.11-.641a59.371,59.371,0,0,0-1.757-7.01s5.863-7.577,9.108-10.566c1.22-1.116,2.056-1.592,2.1-.811a27.928,27.928,0,0,0,1.83,5.893c.037.073.067.153.1.226.659,1.69,1.4,3.453,2.05,4.96C936.659,319.425,937.464,321.151,937.464,321.151Z" transform="translate(-423.711 -153.53)" fill="#ffb0b1"/>
  <path id="Path_211" data-name="Path 211" d="M933.6,312.153a16.838,16.838,0,0,1-11.274,12.909,58.215,58.215,0,0,0-1.867-7.65s11.036-14.263,11.207-11.378A31.752,31.752,0,0,0,933.6,312.153Z" transform="translate(-423.703 -153.53)" opacity="0.1"/>
  <path id="Path_212" data-name="Path 212" d="M908.17,342.437l1.428-2.007s.945,5.771,4.429,3.227,3.66,19.156,3.66,19.156l-3.746,55.87-27-1.617.763-27,3.05-13.586,7.559-19.784,4.527-6.534Z" transform="translate(-410.633 -167.093)" opacity="0.1"/>
  <path id="Path_213" data-name="Path 213" d="M917.663,363.369l-3.38,50.513-.354,5.35-15.056-.9-.61-.037-11.353-.677.763-27,3.05-13.58,7.559-19.784,4.545-6.54,5.35-7.723,1.428-2.013s.945,5.777,4.429,3.227l.067-.049h0C917.5,341.974,917.663,363.369,917.663,363.369Z" transform="translate(-410.621 -167.307)" fill="#3faabb"/>
  <path id="Path_214" data-name="Path 214" d="M871.5,392.29s-1.354,2.831-4.075,2.379-2.715,10.188-2.715,10.188-1.83,1.7-3.05.226-4.527,3.508-4.527,3.508l-20.6.909s9.151,4.185,7.357,16.868c0,0,31.113-1.928,32.15-4.88S871.5,392.29,871.5,392.29Z" transform="translate(-390.976 -187.315)" fill="#fff"/>
  <path id="Path_215" data-name="Path 215" d="M871.5,392.29s-1.354,2.831-4.075,2.379-2.715,10.188-2.715,10.188-1.83,1.7-3.05.226-4.527,3.508-4.527,3.508l-20.6.909s9.151,4.185,7.357,16.868c0,0,31.113-1.928,32.15-4.88S871.5,392.29,871.5,392.29Z" transform="translate(-390.976 -187.315)" opacity="0.03"/>
  <path id="Path_216" data-name="Path 216" d="M689.5,375.14l5.436,4.643,44.718,9.395-5.552-5.655Z" transform="translate(-268.861 -146.281)" fill="#fff"/>
  <path id="Path_217" data-name="Path 217" d="M901.18,343.22c-.738,1.11-2.861,6.943-4.643,12.012-1.476,4.222-2.715,7.931-2.715,7.931s-2.886,18.8-4.356,22.188-.677,16.655-.677,16.655L883.3,434.724s-2.489,16.868-6.332,26.94c-3.77,9.889-8.041,14.544-8.157,14.684,1.7-2.3,10.981-47.652,10.981-47.652l3.05-57.175s.452-5.43.909-10.072,9.621-10.981,9.621-10.981l8.858-12.6C903.138,339.108,902.54,341.183,901.18,343.22Z" transform="translate(-403.563 -166.094)" fill="#fff"/>
  <path id="Path_218" data-name="Path 218" d="M870.864,459.05s-13.019-.561-19.357-8.15,14.6-3.05,14.6-3.05l5.43,1.22Z" transform="translate(-396.35 -208.454)" fill="#ffb0b1"/>
  <path id="Path_219" data-name="Path 219" d="M953.318,506.657a16.47,16.47,0,0,0-.323,7.6c-14.227,1.013-29.448-2.843-29.448-2.843-2.831,2.605-10.3,6.455-10.3,6.455l-4.075-50.5c-2.6-6.8-3.618-42.454-3.618-42.454s.232-1.867.61-4.661a.491.491,0,0,1,.031-.207c1.019-7.809,3.05-22.469,4.014-24.451,1.36-2.715-4.185-9.956-4.185-9.956l2.52-21.523.3-2.593c5.326-2.379,9.4-9.962,9.4-9.962l3.124-5.491h0c3.41-2.184,3.575,19.211,3.575,19.211l-3.38,50.513,11.28-3.111S955.24,500.2,953.318,506.657Z" transform="translate(-417.889 -169.231)" opacity="0.1"/>
  <path id="Path_220" data-name="Path 220" d="M968.356,501.55c-15.508,7.7-43.7.567-43.7.567-2.831,2.6-10.3,6.454-10.3,6.454l-4.075-50.495c-2.6-6.79-3.618-42.448-3.618-42.448s3.282-26.6,4.637-29.32a4.36,4.36,0,0,0-.262-3.239,41.048,41.048,0,0,1-2.483-19l1.086-9.242.305-2.593c5.32-2.379,9.4-9.968,9.4-9.968l2.837-4.966,5.222-9.151,2.471-4.331.415.378,3.209,2.9s1.36,1.122,3.4,2.849c4.441,3.74,12.116,10.328,16.069,14.355,3.484,3.557,4.582,17.362,4.881,27.758.214,6.839.085,12.2.085,12.2-3.514,5.771,5.655,52.191,5.655,52.191C965.751,445.4,968.356,501.55,968.356,501.55Z" transform="translate(-418.322 -160.616)" fill="#fff"/>
  <path id="Path_221" data-name="Path 221" d="M928.51,353.369s-10.646,20.266-9.395,27.959,4.752,16.417,3.05,18.454a6.259,6.259,0,0,1-4.984,2.489c-1.7.116-6.229,3.282-6.229,3.624s-4.185.342-7.931,1.928a49.5,49.5,0,0,1-9.285,2.489s-10.755-.342-11.774.677-2.038,7.132.116,12,4.527,8.492,6.339,9.151,13.245-3.166,22.524-4.075,19.4-8.242,19.4-8.242,11.091-3.965,13.019-10.646-2.379-43.357-2.379-43.357S937.661,348.726,928.51,353.369Z" transform="translate(-408.241 -171.826)" opacity="0.03"/>
  <path id="Path_222" data-name="Path 222" d="M926.274,350.589s-10.64,20.26-9.4,27.959,4.753,16.417,3.05,18.454a6.26,6.26,0,0,1-4.984,2.489c-1.7.116-6.223,3.282-6.223,3.624s-4.191.336-7.931,1.922a49.383,49.383,0,0,1-9.285,2.489s-10.755-.336-11.774.683-2.038,7.132.116,12,4.527,8.492,6.339,9.151,13.244-3.172,22.53-4.075,19.37-8.26,19.37-8.26,11.091-3.959,13.019-10.639-2.379-43.357-2.379-43.357S935.443,345.946,926.274,350.589Z" transform="translate(-407.372 -170.742)" opacity="0.03"/>
  <path id="Path_223" data-name="Path 223" d="M927.932,351.7s-10.634,20.266-9.413,27.935,4.752,16.417,3.05,18.454a6.241,6.241,0,0,1-4.984,2.489c-1.7.116-6.223,3.282-6.223,3.624s-4.191.342-7.931,1.928a49.385,49.385,0,0,1-9.285,2.489s-10.755-.342-11.774.677-2.038,7.132.116,12,4.527,8.492,6.339,9.151,13.244-3.166,22.53-4.075,19.357-8.26,19.357-8.26,11.091-3.965,13.019-10.646-2.379-43.357-2.379-43.357S937.1,347.055,927.932,351.7Z" transform="translate(-408.011 -171.174)" fill="#fff"/>
  <path id="Path_224" data-name="Path 224" d="M954.118,440.958s-8.492-1.7-5.546,1.135,2.941,5.32,6.564,5.2S954.118,440.958,954.118,440.958Z" transform="translate(-434.423 -206.096)" opacity="0.1"/>
  <path id="Path_225" data-name="Path 225" d="M980.987,541.3s-3.85,2.6,3.508,8.6S980.987,541.3,980.987,541.3Z" transform="translate(-446.912 -245.419)" opacity="0.1"/>
  <path id="Path_226" data-name="Path 226" d="M969.456,576.37c0,.342-1.354,12.451,3.74,15.508S969.456,576.37,969.456,576.37Z" transform="translate(-442.745 -259.094)" opacity="0.1"/>
  <path id="Path_227" data-name="Path 227" d="M830.892,420.48c-4.1.14-12.976,1.4-8.376,9.975,4.069,7.589,10.9,2.52,14.727-1.336a14.476,14.476,0,0,0-6.351-8.638Z" transform="translate(-385.009 -198.307)" fill="#ffb0b1"/>
  <path id="Path_228" data-name="Path 228" d="M848.19,433.91Z" transform="translate(-395.523 -203.544)" fill="#ffb0b1"/>
  <path id="Path_229" data-name="Path 229" d="M847.59,434.421c.061-.055.116-.116.171-.171C847.706,434.3,847.651,434.366,847.59,434.421Z" transform="translate(-395.289 -203.676)" fill="#ffb0b1"/>
  <path id="Path_230" data-name="Path 230" d="M938.792,330.525c-4.356,2.977-8.01,5.491-8.718,6.015-1.958,1.44-5.692,9.932-8.071,14.263-1.916,3.49-8.12,4.386-10.463,4.606l.281-2.568c5.32-2.373,9.395-9.962,9.395-9.962l10.53-18.448,3.624,3.282S936.754,328.8,938.792,330.525Z" transform="translate(-420.225 -160.854)" opacity="0.1"/>
  <path id="Path_231" data-name="Path 231" d="M938.792,329.951c-4.356,2.971-8.01,5.491-8.718,6.009-1.958,1.446-5.692,9.932-8.071,14.263-1.916,3.49-8.12,4.386-10.463,4.606l.3-2.593c5.32-2.379,9.4-9.968,9.4-9.968l10.53-18.448,3.624,3.282S936.754,328.2,938.792,329.951Z" transform="translate(-420.225 -160.616)" fill="#dce7ff"/>
  <path id="Path_232" data-name="Path 232" d="M920.975,299.435a16.272,16.272,0,0,1-.372,3.514,16.574,16.574,0,0,1-2.587,6.015,16.813,16.813,0,1,1,2.959-9.529Z" transform="translate(-410.791 -144.552)" fill="#ffb0b1"/>
  <path id="Path_233" data-name="Path 233" d="M951.072,356.006a14.934,14.934,0,0,1-5.424-5.832c-.946-1.873-1.574-4.026-3.2-5.362-1.452-1.184-3.416-1.476-5.216-2.007-5.96-1.763-10.981-7.211-11.152-13.421-.085-2.922.824-5.844.409-8.736a9.632,9.632,0,0,0-1.9-4.508,13.951,13.951,0,0,0-1.635-1.763c-.793-.75-1.629-1.476-2.349-2.276a8.863,8.863,0,0,1-1.22-1.617,7.994,7.994,0,0,1-.653-1.507c-1.11-3.465-.1-7.589-1.348-11.1a.588.588,0,0,0-.067-.189c-.476-1.251-1.434-2.5-2.758-2.593s-2.477,1.007-3.746,1.507c-2.66,1.031-5.533-.726-7.748-2.52s-4.716-3.843-7.54-3.441c-1.861.262-3.337,1.537-5.051,2.2a8.177,8.177,0,0,1-1.22.342,16.813,16.813,0,0,1,32.413,6.265,16.279,16.279,0,0,1-.372,3.514c.036.073.067.153.1.226.659,1.69,1.4,3.453,2.05,4.96l3.209,2.9s1.36,1.123,3.4,2.849c4.441,3.74,12.116,10.328,16.069,14.355C949.656,331.8,950.754,345.611,951.072,356.006Z" transform="translate(-411.537 -144.558)" opacity="0.1"/>
  <path id="Path_234" data-name="Path 234" d="M888.01,274.236c.811-1.653,1.22-3.5,2.184-5.063a11.976,11.976,0,0,1,6.454-4.6c6.662-2.294,20.742-5.631,24.946,0a12.7,12.7,0,0,0,2.66,3.185,20.471,20.471,0,0,0,2.886,1.293c2.684,1.263,4.4,4,5.313,6.82s1.184,5.808,1.83,8.7a64.16,64.16,0,0,0,3.856,10.694c1.763,4.118,3.66,8.382,7.04,11.3,4.642,3.971,5.686,9.59,9.974,13.94,5.106,5.173,4.942,13.708,2.312,20.48a5.643,5.643,0,0,0-.61,2.77,5.3,5.3,0,0,0,1.507,2.562l2.788,3.148a15.685,15.685,0,0,1-17.137-7.931c-.952-1.873-1.58-4.026-3.2-5.356-1.452-1.19-3.41-1.476-5.216-2.013-5.96-1.763-10.981-7.211-11.152-13.421-.086-2.916.823-5.844.415-8.736a9.719,9.719,0,0,0-1.891-4.454c-1.568-2.038-3.917-3.422-5.185-5.655-2.147-3.789-.518-8.718-2.068-12.811-.476-1.22-1.427-2.5-2.757-2.593S910.479,287.5,909.21,288c-2.66,1.031-5.527-.726-7.742-2.52s-4.722-3.837-7.54-3.435c-1.867.262-3.337,1.531-5.057,2.19-1.269.488-3.843.927-4.96-.146C881.574,281.843,887.01,276.243,888.01,274.236Z" transform="translate(-409.226 -136.307)" fill="#503e35"/>
  <path id="Path_235" data-name="Path 235" d="M945.549,343.173c-.946-1.873-1.574-4.026-3.2-5.362-1.452-1.19-3.416-1.476-5.216-2.007-5.96-1.763-10.981-7.211-11.152-13.421-.092-2.922.824-5.844.409-8.736a9.629,9.629,0,0,0-1.9-4.508c-1.562-2.038-3.917-3.429-5.179-5.661-2.153-3.788-.518-8.718-2.068-12.811-.476-1.22-1.428-2.5-2.757-2.593s-2.477,1.007-3.746,1.5c-2.66,1.037-5.533-.72-7.742-2.513s-4.722-3.837-7.546-3.441c-1.83.262-3.331,1.531-5.052,2.2-1.269.488-3.843.927-4.96-.146-2.337-2.257,3.1-7.858,4.081-9.859.811-1.653,1.22-3.5,2.184-5.064l.165-.256a8.979,8.979,0,0,0-1.83,2.123c-.976,1.562-1.379,3.41-2.184,5.063-.982,2.007-6.418,7.607-4.081,9.859,1.11,1.074,3.66.61,4.96.146,1.714-.659,3.185-1.928,5.051-2.2,2.818-.4,5.326,1.647,7.54,3.441s5.088,3.551,7.742,2.52c1.275-.494,2.385-1.611,3.746-1.507s2.288,1.342,2.764,2.593c1.549,4.069-.085,9,2.062,12.811,1.269,2.227,3.624,3.618,5.186,5.655a9.635,9.635,0,0,1,1.9,4.508c.415,2.892-.5,5.814-.409,8.736.189,6.217,5.192,11.664,11.152,13.422,1.8.531,3.764.817,5.216,2.013,1.623,1.33,2.245,3.483,3.2,5.356a15.685,15.685,0,0,0,17.136,7.931l-1.312-1.489A15.838,15.838,0,0,1,945.549,343.173Z" transform="translate(-409.175 -139.82)" opacity="0.1"/>
  <path id="Path_236" data-name="Path 236" d="M916.325,343.776c-.744,1.11-2.867,6.942-4.643,12.006-1.659-.641-3.172-4.765-3.172-4.765l8.84-12.6C918.277,339.665,917.679,341.739,916.325,343.776Z" transform="translate(-419.044 -166.309)" opacity="0.1"/>
  <path id="Path_237" data-name="Path 237" d="M916.879,343.22c-.738,1.11-2.861,6.943-4.643,12.012-1.659-.641-3.166-4.765-3.166-4.765l8.858-12.6C918.837,339.108,918.239,341.183,916.879,343.22Z" transform="translate(-419.262 -166.094)" fill="#dce7ff"/>
  <path id="Path_238" data-name="Path 238" d="M834.276,430.5l-4.911-15.465a1.452,1.452,0,0,1,.939-1.83h0a1.44,1.44,0,0,1,1.83.94l4.911,15.477-.488,3.239Z" transform="translate(-388.154 -195.441)" fill="#be8b87"/>
  <path id="Path_239" data-name="Path 239" d="M829.995,413.684h0a1.452,1.452,0,0,1,1.83.946l4.911,15.465-.372,2.44.36.372.488-3.239L832.3,414.2a1.44,1.44,0,0,0-1.83-.939h0a1.415,1.415,0,0,0-.75.555A1.393,1.393,0,0,1,829.995,413.684Z" transform="translate(-388.32 -195.464)" fill="#fff" opacity="0.1"/>
  <path id="Path_240" data-name="Path 240" d="M731.27,384.738l2.758-.879-.4,2.66-.085.58-.805-.842Z" transform="translate(-285.148 -149.681)" fill="#efc8c4"/>
  <path id="Path_241" data-name="Path 241" d="M839.86,443.973a.688.688,0,0,1,.177-.147.25.25,0,0,1,.262,0,.615.615,0,0,1,.1.153.482.482,0,0,0,.354.238l-.085.61Z" transform="translate(-392.274 -207.396)" fill="#727a9c"/>
  <path id="Path_242" data-name="Path 242" d="M829.37,425.23s9.852-.055,7.528,4.13a8.9,8.9,0,0,1-5.942,4.7Z" transform="translate(-388.184 -200.159)" fill="#ffb0b1"/>
</svg>
