<svg xmlns="http://www.w3.org/2000/svg" xmlns:xlink="http://www.w3.org/1999/xlink" width="641.687" height="478.254" viewBox="0 0 641.687 478.254">
  <defs>
    <linearGradient id="linear-gradient" x1="0.5" y1="1" x2="0.5" gradientUnits="objectBoundingBox">
      <stop offset="0" stop-color="gray" stop-opacity="0.251"/>
      <stop offset="0.54" stop-color="gray" stop-opacity="0.122"/>
      <stop offset="1" stop-color="gray" stop-opacity="0.102"/>
    </linearGradient>
  </defs>
  <g id="undraw_studying_s3l7" transform="translate(-0.012 -0.057)">
    <path id="Path_297" data-name="Path 297" d="M701.625,291.462c-.115.679-.23,1.357-.357,2.036-4.108,23.108-10.815,45.386-20.788,65.84q-.491,1.018-1,2.036A188.168,188.168,0,0,1,656.058,397.5c-4.968,5.992-10.385,11.681-16.825,15.789-9.028,5.756-19.582,8.094-29.954,10.009-10.778,1.993-21.7,3.635-32.59,5.453q-5.792.945-11.512,1.981c-10.524,1.9-20.969,4.1-31.166,7.016A162.013,162.013,0,0,0,497.658,452.7q-1.381.788-2.732,1.618c-.9.545-1.818,1.1-2.7,1.672s-1.763,1.133-2.636,1.709l-1.345.909c-.442.291-.879.606-1.315.9-1.3.885-2.575,1.818-3.853,2.714l-.048.036q-1.263.909-2.514,1.818c-4.72,3.5-9.336,7.155-13.935,10.827l-2.9,2.32q-2.248,1.781-4.5,3.556c-.879.7-1.769,1.387-2.654,2.078-.642.5-1.278,1.006-1.933,1.5-3.278,2.526-6.6,5-9.985,7.361-.806.563-1.624,1.127-2.423,1.678a127.776,127.776,0,0,1-21.533,11.863l-.1.043a85.443,85.443,0,0,1-11.439,3.944,68.484,68.484,0,0,1-6.737,1.46,59.545,59.545,0,0,1-18.267.315c-11.93-1.69-23.108-7.27-35.007-9.137-24.55-3.811-48.391,8.482-71.493,18.134q-8.482,3.55-17.152,6.665-5.744,2.072-11.542,3.944a363.394,363.394,0,0,1-72.42,15.492,167.346,167.346,0,0,1-30.748.83,103.864,103.864,0,0,1-11.512-1.5c-12.948-2.423-25.035-7.567-34.771-16.964-8.088-7.689-13.8-17.74-18.146-28.228Q78.7,493.939,76.7,487.329A144.2,144.2,0,0,1,72,466.226c-.236-1.612-.448-3.229-.606-4.847q-.473-4.162-.7-8.361a144.8,144.8,0,0,1,4.308-44.229C79.121,392.8,86,377.49,89.033,361.35c.127-.679.242-1.357.357-2.036q.606-3.635.921-7.4c1.527-19.739-4.38-39.061-9.046-58.412-.164-.679-.327-1.357-.485-2.036q-.757-3.217-1.436-6.44c-4.32-20.466-5.5-42.369-1.666-62.793.121-.679.261-1.363.4-2.036a101.569,101.569,0,0,1,14.153-35.4c7.18-11,16.607-20.157,26.658-28.2q7.361-5.877,15.226-11,5.653-3.672,11.512-6.949A191.865,191.865,0,0,1,248.8,114.408q2.829.145,5.647.388,2.957.254,5.9.606c22.92,2.648,45.222,9.209,67.391,16.389q11.142,3.635,22.248,7.27,4.944,1.612,9.882,3.181c16.147,5.1,32.56,9.694,49.124,13.16q5.762,1.212,11.512,2.211a272.087,272.087,0,0,0,40.345,4.156q7.876.194,15.753-.164,3.981-.182,7.967-.533c27.452-2.351,53.923-10.233,80.5-17.637,3.841-1.072,7.689-2.139,11.512-3.169,5.053-1.357,10.112-2.672,15.189-3.884,31.615-7.592,59.788-3.229,89.179,12.426,6.665,3.556,13.329,7.846,17.449,14.486s5.12,14.862,5.883,22.775c1.078,11.257,1.818,22.672,2.054,34.135,0,.679,0,1.357.042,2.036A363.18,363.18,0,0,1,701.625,291.462Z" transform="translate(-70.44 -78.463)" fill="#6c63ff" opacity="0.1"/>
    <path id="Path_298" data-name="Path 298" d="M496.624,359.495h-2.066v2.036H496.9Zm-23.417,0a.132.132,0,0,0,0,.049l-.182,1.684v.3h17.934v-.121l1.278-1.915Zm-47.955,0v-65.84h20.6c-.218-.182-.442-.364-.673-.533l-.3-.23c-.127-.1-.254-.2-.388-.291s-.448-.321-.685-.479-.382-.261-.606-.388l-.139-.091H425.252v-3.6l-.479.23-.509.285h-.036l-.109.067-.315.206c-.109.067-.218.133-.321.206-.315.212-.606.442-.939.679l-.3.242c-.206.158-.4.321-.606.485-.806.66-1.6,1.351-2.423,1.987-.206.164-.412.321-.606.473a15.666,15.666,0,0,1-1.369.9,6.5,6.5,0,0,1-.606.333l-.339.158-.309.133h0a12.874,12.874,0,0,1-2.254.715v64.362h-30.9a.931.931,0,0,0,.061.212c.17.606.339,1.212.5,1.818h30.342V432.1h.473l.539.036.982.073,1.587.158.715.085.788.1h.115c.454.061.915.133,1.381.206l.3.048.666.109.957.17h0l2.3-.121h0l.315.067a1.837,1.837,0,0,1,.388.079V361.53h47.749v-.3l.182-1.684a.135.135,0,0,1,0-.048Zm71.372,0h-2.066v2.036H496.9Zm-24.707,0-.206,2.036h19.951l1.357-2.036Zm-46.652,0v-65.84h20.6c-.218-.182-.442-.364-.673-.533l-.3-.23c-.127-.1-.254-.2-.388-.291s-.448-.321-.685-.479-.382-.261-.606-.388l-.139-.091H425.252v-3.6l-.479.23-.509.285h-.036l-.109.067-.315.206c-.109.067-.218.133-.321.206-.315.212-.606.442-.939.679l-.3.242c-.206.158-.4.321-.606.485-.806.66-1.6,1.351-2.423,1.987-.206.164-.412.321-.606.473a15.666,15.666,0,0,1-1.369.9,6.5,6.5,0,0,1-.606.333l-.339.158-.309.133h0a12.874,12.874,0,0,1-2.254.715v64.362h-30.9a.931.931,0,0,0,.061.212c.17.606.345,1.212.509,1.818h30.336V432.1l.473.03.539.036.982.073,1.587.158.715.085.788.1h.115c.454.061.915.133,1.381.206l.3.048.666.109.957.17h0l2.3-.121h0l.315.067a1.837,1.837,0,0,1,.388.079v-71.6H471.71l.218-2.036ZM581.374,222.385h129.8c0-.679,0-1.357-.042-2.036H581.374V140.411c-3.853,1.03-7.7,2.1-11.512,3.169v76.77H428.693l-.357-.388.539-.606h0l52.5-57.625q-7.876.364-15.753.164l-40.375,44.289V157.757q-5.78-1-11.512-2.211v48.409l-59.03-64.75c-7.41-2.424-14.82-4.889-22.248-7.27L412.7,219.962l-.357.388H265.071V115.534q-2.945-.333-5.9-.606-2.817-.248-5.647-.388V220.35H150.361V138.8q-5.871,3.272-11.512,6.949v74.6H82.74c-.139.673-.279,1.357-.4,2.036H138.8v69.233H85.466c.158.679.321,1.357.485,2.036h52.875v65.84H94.058c-.115.679-.23,1.357-.357,2.036h45.125V545.625a103.864,103.864,0,0,0,11.512,1.5V361.53H253.529V530.8q5.8-1.884,11.542-3.944V361.53H413.716V509.424a85.431,85.431,0,0,0,11.439-3.944l.1-.042V361.53H569.826v69.354q5.75-1.036,11.512-1.981V361.53h102.8q.509-1.018,1-2.036H581.374v-65.84H705.959c.127-.679.242-1.357.357-2.036H581.374Zm-431.006,0H253.529v69.233H150.361Zm0,137.109v-65.84H253.529v65.84Zm114.71-137.109H413.716v69.233H265.071Zm0,137.109v-65.84H413.716v65.84Zm304.754,0H425.252v-65.84H569.826Zm0-67.858H425.252v-67.4l2.03-1.854H569.826Zm-96.619,67.858a.132.132,0,0,0,0,.049l-.182,1.684v.3h17.934v-.121l1.278-1.915Zm23.417,0h-2.066v2.036H496.9Zm-71.372,0v-65.84h20.6c-.218-.182-.442-.364-.673-.533l-.3-.23c-.127-.1-.254-.2-.388-.291s-.448-.321-.685-.479-.382-.261-.606-.388l-.139-.091H425.252v-3.6l-.479.23-.509.285h-.036l-.109.067-.315.206c-.109.067-.218.133-.321.206-.315.212-.606.442-.939.679l-.3.242c-.206.158-.4.321-.606.485-.806.66-1.6,1.351-2.423,1.987-.206.164-.412.321-.606.473a15.666,15.666,0,0,1-1.369.9,6.5,6.5,0,0,1-.606.333l-.339.158-.309.133h0a12.874,12.874,0,0,1-2.254.715v64.362h-30.9a.931.931,0,0,0,.061.212c.17.606.339,1.212.5,1.818h30.342V432.1h.473l.539.036.982.073,1.587.158.715.085.788.1h.115c.454.061.915.133,1.381.206l.3.048.666.109.957.17h0l2.3-.121h0l.315.067a1.837,1.837,0,0,1,.388.079V361.53h47.749v-.3l.182-1.684a.135.135,0,0,1,0-.048Z" transform="translate(-75.125 -78.62)" fill="#6c63ff" opacity="0.1"/>
    <path id="Path_299" data-name="Path 299" d="M274,211.046h.921a2.205,2.205,0,0,1-1.1-1.775h0c0-1.406,1.721-2.551,3.823-2.551h26.749c2.1,0,3.823,1.145,3.823,2.551h0c0,1.4-1.721,2.551-3.823,2.551H303.5a2.211,2.211,0,0,1,1.091,1.775c0,1.212-1.248,2.205-2.92,2.478h7.7c2.1,0,3.817,1.145,3.817,2.551s-1.721,2.545-3.817,2.545h-26.78c-2.1,0-3.817-1.145-3.817-2.545,0-1.212,1.248-2.205,2.92-2.478H274c-2.1,0-3.817-1.145-3.817-2.551S271.889,211.046,274,211.046Z" transform="translate(-149.158 -114.95)" fill="#6c63ff" opacity="0.1"/>
    <path id="Path_300" data-name="Path 300" d="M752.517,251.116h.9a2.212,2.212,0,0,1-1.1-1.781h0c0-1.4,1.721-2.545,3.823-2.545h26.749c2.1,0,3.823,1.145,3.823,2.545h0c0,1.406-1.721,2.551-3.823,2.551H782a2.218,2.218,0,0,1,1.091,1.781c0,1.212-1.248,2.2-2.92,2.472h7.7c2.1,0,3.817,1.151,3.817,2.551s-1.721,2.551-3.817,2.551H761.126c-2.1,0-3.817-1.145-3.817-2.551,0-1.212,1.248-2.205,2.92-2.472h-7.713c-2.1,0-3.817-1.151-3.817-2.551S750.433,251.116,752.517,251.116Z" transform="translate(-337.756 -130.743)" fill="#6c63ff" opacity="0.1"/>
    <path id="Path_301" data-name="Path 301" d="M206.267,422.582h.9a2.218,2.218,0,0,1-1.091-1.781h0c0-1.4,1.715-2.551,3.817-2.551h26.749c2.1,0,3.823,1.151,3.823,2.551h0c0,1.406-1.721,2.551-3.823,2.551h-.891a2.217,2.217,0,0,1,1.091,1.781c0,1.212-1.248,2.2-2.92,2.472h7.7c2.1,0,3.817,1.145,3.817,2.551s-1.715,2.551-3.817,2.551H214.864c-2.1,0-3.817-1.151-3.817-2.551,0-1.212,1.254-2.205,2.92-2.478h-7.7c-2.1,0-3.817-1.145-3.817-2.545S204.171,422.582,206.267,422.582Z" transform="translate(-122.464 -198.32)" fill="#6c63ff" opacity="0.1"/>
    <path id="Path_302" data-name="Path 302" d="M691.31,713.44q-2.248,1.781-4.5,3.556c-.879.7-1.769,1.387-2.654,2.078-.642.5-1.278,1.006-1.933,1.5-3.278,2.526-6.6,5-9.985,7.361-.806.563-1.624,1.127-2.424,1.678a127.77,127.77,0,0,1-21.533,11.863l-.1.042V713.44Z" transform="translate(-298.142 -314.662)" fill="#65617d"/>
    <path id="Path_303" data-name="Path 303" d="M650.644,435.238l.679-20.933c-.406-.315-.818-.606-1.212-.9a111.588,111.588,0,0,0-1.066-18.667c-2.739-20.933-20.521-21.387-25.538-17.067a12.116,12.116,0,0,1-2.163,1.49c.454-2.987,1.018-5.98,1.424-8.937,2.193-15.947-1.212-33.886-13.584-44.192-5.18-4.308-11.512-6.955-17.2-10.56-10.191-6.428-18.243-15.922-28.549-22.181s-24.78-8.6-33.771-.557c-3.484,3.114-5.732,7.434-9.306,10.439-6.665,5.6-17.055,5.968-22.872,12.22h0c-.291.315-.57.636-.836.975-4.847,6.216-3.52,15.032-1.975,22.745,1.86,9.282,1.091,16.722,9.052,19.388.03.37.055.739.1,1.1a39.327,39.327,0,0,0,17.3,28.306l-1.29.46c-3.441,1.212-6.537,2.387-8.519,3.193-7.27,2.963-22.575,6.822-22.575,6.822s-.364,4.362-.3,10.8c-5.1,5.544-13.614,15.286-16.116,21.06-3.635,8.422-24.174,32.541-29.645,36.183s-11.4,7.961-11.4,7.961-8.664,4.78-12.766,5.235c-2.842.315-11.633-1.369-11.633-1.369s-35.11-43.017-32.832-10.009,30.324,34.129,30.324,34.129l28.276-.454s15.28,2.048,22.12-3.635c5.841-4.847,36.11-31.439,45.834-43.5.224.248.448.491.685.727,0,0,3.872-5,4.332,0s-2.514,7.271-.915,9.088,6.386,8.191,6.61,10.694-6.38,12.723,4.786,20.479c.176.121.364.236.57.351C518.667,500.66,525,505.1,525,505.1l34.2-.454,64.532,5s1.921-1.69,4.52-4.453c3.472,3.187,8.288,5.919,13.717,4.241,0,0,7.755-9.324,7.985-15.468,0,0-5.017-12.972-7.27-16.837s1.6-12.287,1.6-12.287,2.732-8.191,4.332-8.191.454-5.453.454-5.453a6.628,6.628,0,0,1-.685-6.144A58.8,58.8,0,0,0,650.644,435.238Z" transform="translate(-190.054 -146.826)" fill="url(#linear-gradient)"/>
    <path id="Path_304" data-name="Path 304" d="M721.584,485.077l-2.423,2.835h0l-9.791,11.4-12.79.776-20.472,1.26s-27.6-33.262-22.417-40.5c1.884-2.611,2.193-6.059,1.818-9.312-.048-.448-.115-.9-.194-1.339a38.71,38.71,0,0,0-3.223-9.936l.679-.309.436-.2,24.138-11.015,5.974-2.726a16.127,16.127,0,0,0,1.636,4.714c.115.23.242.46.376.679,8.234,13.632,34.638,5.011,34.638,5.011Z" transform="translate(-299.679 -201.378)" fill="#ee8e9e"/>
    <path id="Path_305" data-name="Path 305" d="M798.359,471.662c-.182,8.252-1.527,11.815-1.527,11.815l-34.165,5.2-1.278-8.87-5.059-35.026,4.75-4.75a12.681,12.681,0,0,0,10.863-2.714c4.974-4.3,22.623-3.847,25.338,16.964a115.187,115.187,0,0,1,1.078,17.376Z" transform="translate(-340.763 -204.982)" fill="#ee8e9e"/>
    <path id="Path_306" data-name="Path 306" d="M799.836,631.813s7.689-9.276,7.919-15.383l-7.695-12.9-6.786-7.271L780.6,620.725S788.973,635.206,799.836,631.813Z" transform="translate(-350.328 -268.478)" fill="#dfe5ee"/>
    <path id="Path_307" data-name="Path 307" d="M799.836,631.813s7.689-9.276,7.919-15.383l-7.695-12.9-6.786-7.271L780.6,620.725S788.973,635.206,799.836,631.813Z" transform="translate(-350.328 -268.478)" fill="#079eff" opacity="0.1"/>
    <path id="Path_308" data-name="Path 308" d="M457.069,708.756c-.642.5-1.278,1.006-1.933,1.5-3.278,2.526-6.6,5-9.985,7.361-.806.563-1.624,1.127-2.423,1.678H249.454l-57.182-2.048-45.986-.388-11.512-.606-57.437-3.029a144.2,144.2,0,0,1-4.732-21.121c-.236-1.612-.448-3.229-.606-4.847l62.75,3.478,11.512.648,103.168,5.756,11.542.642,148.645,8.3,11.439.642h.1Z" transform="translate(-71.05 -304.344)" fill="#d48a9b"/>
    <path id="Path_309" data-name="Path 309" d="M534.127,638.547A162.009,162.009,0,0,0,497.775,653.5c-.915.527-1.818,1.066-2.733,1.618s-1.818,1.1-2.7,1.672-1.763,1.133-2.636,1.709l-1.345.909-1.315.9c-1.3.891-2.575,1.818-3.853,2.714l-.048.036q-1.263.909-2.514,1.818c-4.72,3.5-9.336,7.155-13.935,10.827q-1.454,1.163-2.914,2.321l-4.483,3.556c-.879.7-1.769,1.387-2.654,2.078-.642.5-1.278,1.006-1.933,1.5l-33.929-1.618h-.1l-11.439-.533-148.712-7.046L249,675.408l-103.168-4.9-11.512-.551-62.169-2.926c-.236-1.612-.448-3.229-.606-4.847q-.473-4.162-.7-8.361L134.311,631.4l11.512-4.077,10.457-3.7,19.055.994,44.041,2.26h0l29.639,1.557,11.542.606,7.373.388h0l1.763.1h0l62.054,3.241h0l.654.042h0l27.688,1.442h.5l2.769.139h0l9.44.5,11.8.606h0l3.89.206h0l.733.042,5.5.285h0l1.569.079h0l5.253.279h0l2.09.115h.5l4.914.26,7.61.4h.036l2.363.121h.255l1.412.079,3.466.182h0l3.029.158h.03l3.4.176h.055l2.575.139h0l1.975.1,7.01.37h0l1.26.067h.436l.606.036h0l2.054.109h0l.921.048h0l7.149.37h.654l10.554-.091h.073L506.1,638.7h3.969l12.917-.1h1.927Z" transform="translate(-70.593 -279.266)" fill="#efc6cd"/>
    <path id="Path_310" data-name="Path 310" d="M387.868,645.206,391.6,665.06l101.472-1.527s7.634,2.205,7.464-3.9c0,0,15.444-14.6,93.668,2.375L564.171,638.42l-82.1,4.411-95.195-2.545Z" transform="translate(-195.153 -285.095)" fill="#6c63ff"/>
    <path id="Path_311" data-name="Path 311" d="M391.59,641.068l3.563,21.551s87.246-2.545,100.963-.17l-10.366-19.685S433,637.845,391.59,641.068Z" transform="translate(-197.009 -285.707)" fill="#fff"/>
    <path id="Path_312" data-name="Path 312" d="M391.59,641.068l3.563,21.551s87.246-2.545,100.963-.17l-10.366-19.685S433,637.845,391.59,641.068Z" transform="translate(-197.009 -285.707)" opacity="0.1"/>
    <path id="Path_313" data-name="Path 313" d="M393.74,640.988l3.514,20.042s86.137-2.363,99.709-.157l-10.221-18.3S434.624,637.989,393.74,640.988Z" transform="translate(-197.856 -285.705)" fill="#fff"/>
    <path id="Path_314" data-name="Path 314" d="M396.35,642.043l3.423,18.746s84.247-2.211,97.546-.145l-10-17.128S436.344,639.214,396.35,642.043Z" transform="translate(-198.885 -286.143)" opacity="0.1"/>
    <path id="Path_315" data-name="Path 315" d="M397.47,640.922l3.441,18.782s84.247-2.211,97.546-.145l-10.021-17.146S437.464,638.116,397.47,640.922Z" transform="translate(-199.326 -285.706)" fill="#fff"/>
    <path id="Path_316" data-name="Path 316" d="M291.2,557.41s4.411,5.762-2.03,14.468-11.76,16.05-9.609,21.478c0,0,9.694-16.165,17.631-16.359S299.909,567.128,291.2,557.41Z" transform="translate(-152.665 -253.167)" fill="#6c63ff"/>
    <path id="Path_317" data-name="Path 317" d="M291.365,557.41a7,7,0,0,1,.9,1.818c7.719,9.088,11.833,17.57,4.411,17.752-6.913.194-15.2,12.554-17.189,15.68q.1.351.236.709s9.694-16.165,17.631-16.359S300.072,567.128,291.365,557.41Z" transform="translate(-152.827 -253.167)" opacity="0.1"/>
    <path id="Path_318" data-name="Path 318" d="M311.958,568.694c0,2.024-.23,3.672-.509,3.672s-.509-1.648-.509-3.672.285-1.078.563-1.078S311.958,566.664,311.958,568.694Z" transform="translate(-165.223 -257.101)" fill="#ffd037"/>
    <path id="Path_319" data-name="Path 319" d="M315,572.621c-1.781.976-3.332,1.563-3.466,1.315s1.212-1.212,2.981-2.205,1.078-.267,1.212,0S316.781,571.651,315,572.621Z" transform="translate(-165.453 -258.611)" fill="#ffd037"/>
    <path id="Path_320" data-name="Path 320" d="M254.224,557.41s-4.411,5.762,2.036,14.468,11.754,16.05,9.609,21.478c0,0-9.724-16.165-17.637-16.359S245.517,567.128,254.224,557.41Z" transform="translate(-138.969 -253.167)" fill="#6c63ff"/>
    <path id="Path_321" data-name="Path 321" d="M254.224,557.41a7.27,7.27,0,0,0-.9,1.818c-7.719,9.088-11.833,17.57-4.411,17.752,6.913.194,15.207,12.554,17.195,15.68a7.28,7.28,0,0,1-.236.709s-9.724-16.165-17.637-16.359S245.517,567.128,254.224,557.41Z" transform="translate(-138.969 -253.167)" opacity="0.1"/>
    <path id="Path_322" data-name="Path 322" d="M247.13,568.694c0,2.024.23,3.672.509,3.672s.509-1.648.509-3.672-.285-1.078-.563-1.078S247.13,566.664,247.13,568.694Z" transform="translate(-140.073 -257.101)" fill="#ffd037"/>
    <path id="Path_323" data-name="Path 323" d="M241.787,572.621c1.781.976,3.338,1.563,3.472,1.315s-1.212-1.212-2.981-2.205-1.078-.267-1.212,0S240.006,571.651,241.787,572.621Z" transform="translate(-137.542 -258.611)" fill="#ffd037"/>
    <path id="Path_324" data-name="Path 324" d="M288.142,602.16l-.218,1.818-.309,2.539-.127,1.06-.309,2.545-.133,1.06-.315,2.545L283.2,642.638c-.315,2.581-4.532,4.593-9.621,4.593H255.273c-5.089,0-9.3-2.012-9.615-4.593l-3.532-28.912-.309-2.545-.127-1.06-.315-2.545-.127-1.06-.309-2.539-.224-1.818c-.176-1.46,2.1-2.69,4.986-2.69h37.479C286.057,599.47,288.341,600.7,288.142,602.16Z" transform="translate(-137.541 -269.744)" fill="#65617d"/>
    <path id="Path_325" data-name="Path 325" d="M217.654,551.59l-.309,2.545H170.959l-.309-2.545Z" transform="translate(-67.253 -217.374)" fill="#9d9cb5"/>
    <path id="Path_326" data-name="Path 326" d="M217.5,557.54l-.309,2.545H171.685l-.315-2.545Z" transform="translate(-67.537 -219.719)" fill="#9d9cb5"/>
    <path id="Path_327" data-name="Path 327" d="M217.347,563.49l-.309,2.539H172.409l-.309-2.539Z" transform="translate(-67.824 -222.064)" fill="#9d9cb5"/>
    <path id="Path_328" data-name="Path 328" d="M403.923,597.347s-11.766-11.312-11.312,3.393S403.923,597.347,403.923,597.347Z" transform="translate(-197.407 -267.269)" fill="#ee8e9e"/>
    <path id="Path_329" data-name="Path 329" d="M502.013,528.37c-.261,1.139-1.527,3.029-3.5,5.4-10.2,12.287-39.23,37.825-44.919,42.563-6.786,5.659-21.945,3.635-21.945,3.635l-28.052.454s-27.828-1.133-30.094-33.929,32.578,9.955,32.578,9.955,8.725,1.672,11.542,1.357c4.072-.448,12.669-5.2,12.669-5.2s5.883-4.3,11.312-7.919,25.792-27.6,29.415-35.977c2.3-5.314,9.694-14,14.8-19.636,2.932-3.241,5.108-5.453,5.108-5.453S503.594,521.354,502.013,528.37Z" transform="translate(-189.838 -224.084)" fill="#ee8e9e"/>
    <path id="Path_330" data-name="Path 330" d="M575.145,528.354c-.261,1.139-1.527,3.029-3.5,5.4-10.3-10.488-12.451-31.414-12.693-44.72,2.932-3.241,5.108-5.453,5.108-5.453S576.726,521.338,575.145,528.354Z" transform="translate(-262.97 -224.068)" opacity="0.1"/>
    <path id="Path_331" data-name="Path 331" d="M719.154,496.851h0l-9.785,11.4-12.79.776-20.472,1.26s-27.6-33.262-22.417-40.5c1.884-2.611,2.193-6.059,1.818-9.312-.048-.448-.115-.9-.194-1.339a38.71,38.71,0,0,0-3.223-9.936l.679-.309.436-.2a43.448,43.448,0,0,1,2.218,9.276c.067.43.127.878.188,1.339.212,1.636.406,3.454.606,5.453,1.575,18.31,13.093,25.2,18.291,27.392a52.791,52.791,0,0,1,4.9,2.369,26.119,26.119,0,0,0,16.419,2.969c12.832-1.684,23.3-11.009,23.3-11.009l.055,9.179Z" transform="translate(-299.679 -210.317)" opacity="0.1"/>
    <path id="Path_332" data-name="Path 332" d="M683.606,566.13s-84.162-.23-95.255-7.919-4.52-17.873-4.75-20.363-4.974-8.821-6.556-10.639,1.357-4.071.9-9.046-4.3,0-4.3,0C557.809,502.1,561.2,461.375,561.2,461.375s15.147-3.841,22.417-6.792c1.969-.8,5.035-1.939,8.482-3.169l1.278-.46c8.888-3.181,19.455-6.774,19.455-6.774s2.03-1.436,4.072,2.86a37.761,37.761,0,0,1,2.623,10.239c.067.43.127.879.188,1.339.212,1.636.406,3.453.606,5.453,1.575,18.309,13.093,25.2,18.291,27.392a52.759,52.759,0,0,1,4.9,2.369,26.119,26.119,0,0,0,16.419,2.969c12.832-1.684,23.3-11.009,23.3-11.009l.055,9.179.158,27.579Z" transform="translate(-263.737 -208.449)" fill="#079eff"/>
    <path id="Path_333" data-name="Path 333" d="M697.824,584.581l-1.357,8.6s-33.487,8.367-46.6,10.857-41.405-.679-43.441,4.75,8.6,12.9,8.6,12.9l33.929-.454,64.029,4.98s24.435-21.5,16.516-36.431S697.824,584.581,697.824,584.581Z" transform="translate(-281.578 -262.646)" fill="#ee8e9e"/>
    <path id="Path_334" data-name="Path 334" d="M635.221,474.58s-15.389,12.669-12.445,18.782S635.221,474.58,635.221,474.58Z" transform="translate(-287.978 -220.521)" opacity="0.1"/>
    <path id="Path_335" data-name="Path 335" d="M602.6,512.29s-15.613,26.925-14.7,28.961,5.2,9.276,4.974,3.847S602.6,512.29,602.6,512.29Z" transform="translate(-274.363 -235.384)" opacity="0.1"/>
    <path id="Path_336" data-name="Path 336" d="M617.463,520.14s-3.635,16.74-7.24,23.756S617.463,520.14,617.463,520.14Z" transform="translate(-282.889 -238.477)" opacity="0.1"/>
    <path id="Path_337" data-name="Path 337" d="M669.684,431.432a39.139,39.139,0,0,1-29.748,20.127h-.073a39.073,39.073,0,0,1-27.543-7.21c9.088-3.284,20.733-7.234,20.733-7.234s2.03-1.436,4.071,2.86l30.548-13.935A16.2,16.2,0,0,0,669.684,431.432Z" transform="translate(-284.005 -201.39)" opacity="0.1"/>
    <path id="Path_338" data-name="Path 338" d="M663.959,376.315a38.963,38.963,0,0,1-5.15,19.424,39.421,39.421,0,0,1-5.835,7.767,38.976,38.976,0,0,1-23.726,11.73h-.079a38.215,38.215,0,0,1-4.35.248,39.14,39.14,0,0,1-38.891-34.73,37.992,37.992,0,0,1-.248-4.416,39.139,39.139,0,0,1,78.279,0Z" transform="translate(-273.505 -166.376)" fill="#ee8e9e"/>
    <path id="Path_339" data-name="Path 339" d="M754.96,511.571l3.635-5.453s19.909-23.756,39.382-8.6l-.679,20.818a55.189,55.189,0,0,1-2.266,9.694,6.622,6.622,0,0,0,.679,6.113s1.133,5.453-.448,5.453-4.3,8.143-4.3,8.143-3.847,8.373-1.581,12.22,7.24,16.74,7.24,16.74-7.919-4.75-10.185-12.669c0,0-19.23-14.935-34.165-5.453Z" transform="translate(-339.163 -227.57)" opacity="0.1"/>
    <path id="Path_340" data-name="Path 340" d="M801.65,492.689c-.182,8.252-1.527,11.815-1.527,11.815l-34.165,5.2-1.278-8.87C769.151,496.173,785.413,481.341,801.65,492.689Z" transform="translate(-344.054 -226.01)" opacity="0.1"/>
    <path id="Path_341" data-name="Path 341" d="M754.96,509.571l3.635-5.453s19.909-23.756,39.382-8.6l-.679,20.818a55.189,55.189,0,0,1-2.266,9.694,6.622,6.622,0,0,0,.679,6.113s1.133,5.453-.448,5.453-4.3,8.143-4.3,8.143-3.847,8.373-1.581,12.22,7.24,16.74,7.24,16.74-7.919-4.75-10.185-12.669c0,0-19.23-14.935-34.165-5.453Z" transform="translate(-339.163 -226.781)" fill="#079eff"/>
    <path id="Path_342" data-name="Path 342" d="M789.385,496.61s-32.8,20.139-31.221,37.8C758.164,534.41,776.492,502.039,789.385,496.61Z" transform="translate(-341.464 -229.204)" opacity="0.1"/>
    <path id="Path_343" data-name="Path 343" d="M692.931,452.9l.158,27.579c-6.2.279-12.051-.527-16.674-4.544a20.009,20.009,0,0,1-6.059-10.845,38.42,38.42,0,0,1-.788-10.257.558.558,0,0,1,0-.1c.382-7.616,2.133-15.232,1.212-22.8s-5.507-15.553-13-17.146c-1.478-.321-3.138-.436-4.193-1.521-1.163-1.212-1.109-3.1-.982-4.774l.218-2.829c.055-.727.079-1.448.079-2.169a27.767,27.767,0,0,0-22.417-27.228l-.242-.042a15.311,15.311,0,0,0-6.41-.357c-4.011.927-6.6,4.817-10.3,6.665-7.089,3.538-18.909-.333-26.331-1.551-.485-.079-.945-.17-1.387-.273a38.02,38.02,0,0,1-.248-4.417A39.139,39.139,0,1,1,658.7,395.714c.115.23.242.46.376.679,8.234,13.632,34.638,5.011,34.638,5.011l1.587,48.646Z" transform="translate(-273.462 -166.363)" opacity="0.1"/>
    <path id="Path_344" data-name="Path 344" d="M608.376,363.627c3.672-1.854,6.265-5.744,10.3-6.665a15.454,15.454,0,0,1,6.416.351l.242.048a27.791,27.791,0,0,1,22.314,29.4l-.218,2.829c-.133,1.672-.188,3.569.988,4.768,1.048,1.085,2.708,1.212,4.187,1.515,7.489,1.6,12.075,9.542,13,17.152s-.86,15.25-1.212,22.9,1.054,16.086,6.834,21.109c9.088,7.876,22.9,3.393,34.929,2.672-5.32,0-9.306-5.489-9.6-10.8s2.072-10.36,4.332-15.147,4.526-9.936,4.023-15.232c-.691-7.27-6.422-13.093-8.615-20.091-2.557-8.143-.091-16.886,1.066-25.35,2.175-15.85-1.212-33.693-13.481-43.938-5.138-4.284-11.421-6.919-17.067-10.506-10.118-6.416-18.1-15.825-28.325-22.066s-24.586-8.555-33.511-.557c-3.453,3.1-5.683,7.392-9.234,10.379-6.937,5.847-17.964,5.956-23.526,13.129-4.786,6.174-3.49,14.941-1.957,22.605,2.042,10.221.891,18.176,11.815,19.994C589.467,363.3,601.281,367.171,608.376,363.627Z" transform="translate(-266.877 -148.131)" fill="#414141"/>
    <path id="Path_345" data-name="Path 345" d="M698.333,472.772c-8.755,1.072-17.431,1.624-23.8-3.9-5.78-5.023-7.2-13.456-6.834-21.109s2.139-15.3,1.212-22.9-5.507-15.547-13-17.146c-1.478-.315-3.132-.43-4.187-1.515-1.169-1.212-1.121-3.1-.988-4.774l.218-2.829a27.785,27.785,0,0,0-22.314-29.4l-.242-.048a15.454,15.454,0,0,0-6.416-.351c-4.011.927-6.6,4.847-10.3,6.665-7.095,3.544-18.9-.327-26.337-1.545-10.906-1.787-9.767-9.755-11.815-19.994-1.145-5.719-2.157-12.057-.606-17.473a9.531,9.531,0,0,0-.836.975c-4.786,6.174-3.49,14.941-1.957,22.605,2.042,10.221.891,18.176,11.815,19.994,7.428,1.212,19.243,5.089,26.337,1.545,3.672-1.854,6.265-5.744,10.3-6.665a15.455,15.455,0,0,1,6.416.351l.242.048a27.791,27.791,0,0,1,22.314,29.4l-.218,2.829c-.133,1.672-.188,3.569.988,4.768,1.048,1.085,2.708,1.212,4.187,1.515,7.489,1.6,12.075,9.543,13,17.152s-.854,15.25-1.212,22.9,1.054,16.086,6.834,21.109c9.088,7.876,22.9,3.393,34.929,2.672C702.793,477.667,700.048,475.595,698.333,472.772Z" transform="translate(-266.826 -166.08)" opacity="0.1"/>
    <path id="Path_346" data-name="Path 346" d="M373.21,585.6l37.352-13.935a3.556,3.556,0,0,1,4.574,2.084h0a3.556,3.556,0,0,1-2.084,4.574L375.7,592.257l-8.01-.8Z" transform="translate(-187.589 -258.695)" fill="#5c5c8e"/>
    <path id="Path_347" data-name="Path 347" d="M413.993,572.972h0a3.557,3.557,0,0,1-2.09,4.574L374.527,591.53l-6.01-.606-.866.921,8.01.8,37.352-13.935a3.556,3.556,0,0,0,2.084-4.574h0a3.557,3.557,0,0,0-1.454-1.775A4.129,4.129,0,0,1,413.993,572.972Z" transform="translate(-187.574 -259.059)" fill="#fff" opacity="0.1"/>
    <path id="Path_348" data-name="Path 348" d="M302.78,539.52l2.484,6.659-6.568-.66-1.436-.145,1.963-2.084Z" transform="translate(-117.153 -212.617)" fill="#efc8c4"/>
    <path id="Path_349" data-name="Path 349" d="M369.665,601a1.585,1.585,0,0,1,.388.418.606.606,0,0,1,0,.648,1.29,1.29,0,0,1-.357.26,1.212,1.212,0,0,0-.533.9l-1.442-.139Z" transform="translate(-187.601 -270.347)" fill="#727a9c"/>
    <path id="Path_350" data-name="Path 350" d="M569.921,650.878s32.354-6.792,86.64,1.818l-21.266-15.607L596.6,629.17,569.23,636.44Z" transform="translate(-267.022 -281.449)" fill="#fff"/>
    <path id="Path_351" data-name="Path 351" d="M569.921,650.878s32.354-6.792,86.64,1.818l-21.266-15.607L596.6,629.17,569.23,636.44Z" transform="translate(-267.022 -281.449)" opacity="0.1"/>
    <path id="Path_352" data-name="Path 352" d="M557.394,659.433s16.292-44.071,99.969.139L627.33,640.245s-71.947-19.879-80.26,3.029Z" transform="translate(-258.288 -282.66)" fill="#fff"/>
    <path id="Path_353" data-name="Path 353" d="M557.366,657.32s16.292-47.119,99.969.848L627.3,637.205s-71.972-23.774-80.3,1.109Z" transform="translate(-258.26 -280.578)" opacity="0.1"/>
    <path id="Path_354" data-name="Path 354" d="M557.394,657.221s16.292-47.816,99.969.151L627.33,636.41s-71.947-23.1-80.26,1.818Z" transform="translate(-258.288 -280.461)" fill="#fff"/>
    <path id="Path_355" data-name="Path 355" d="M557.378,655.97s16.292-53.141,99.969.818L627.29,633.2s-71.947-24.235-80.26,3.732Z" transform="translate(-258.272 -279.197)" opacity="0.1"/>
    <path id="Path_356" data-name="Path 356" d="M557.378,655.5s16.292-53.789,99.969.17L627.29,632.081s-71.947-24.235-80.26,3.732Z" transform="translate(-258.272 -278.756)" fill="#fff"/>
    <path id="Path_357" data-name="Path 357" d="M972.236,668.71s-20.085,21.515-2.005,31.966a5.015,5.015,0,0,0,5.738,1.357s-1.139-1.012,1.145-2.963a13.549,13.549,0,0,0,2.151-2.363,6.665,6.665,0,0,0,1.248-4.035h0s2.63-8.537-5.725-19.618c0,0-.757-3.708-1.4-4.114l-1.527,5.168s3.835.975,5.277,3.9c0,0-5.053-3.968-5.544-3.138-.1.17-.685,2.781-.685,2.781s6.665,1.721,8.749,6.3c0,0-5.386-5.532-8.979-5.314l-.654,3.987s7.131,1.478,9.694,6.6c0,0-5.828-5.592-9.791-5.719l-.115,4s6.925,1.575,9.04,5.853c0,0-7.386-5.774-9-4.932,0,0,.115,3.69.606,4.653,0,0,4.944,1.212,5.95,3.841,0,0-5.344-3.338-5.8-2.829,0,0,1.436,4.762,3.435,6.792a15.073,15.073,0,0,1-4.168-6.531A8.312,8.312,0,0,0,968.862,699s-1.981-2.193.672-5.8c0,0-.969-3.756-.727-4.35,0,0-3.12,3.193-3.92,6.059,0,0-.606-3.587,3.914-7.095v-4.035s-4.35,4-5.247,6.483c0,0-.061-3.756,5.338-7.495l.606-3.92s-4.011,3.163-5.6,5.707c0,0,.691-3.5,5.816-6.822l.709-2.569s-2.884,2.363-3.635,3.114-1.036.606-1.036.606a12.723,12.723,0,0,1,4.968-4.811S972.57,668.849,972.236,668.71Z" transform="translate(-422.093 -297.033)" fill="#6c63ff" opacity="0.1"/>
    <path id="Path_358" data-name="Path 358" d="M1115.208,90.91s-26.834,12.117-14.183,28.712a5.021,5.021,0,0,0,4.768,3.472s-.66-1.375,2.2-2.3a13.276,13.276,0,0,0,2.9-1.351,6.665,6.665,0,0,0,2.708-3.241h0s5.719-6.858,2.284-20.3c0,0,.733-3.714.3-4.338l-3.405,4.181s3.163,2.375,3.369,5.629c0,0-3.126-5.61-3.9-5.029-.157.115-1.7,2.3-1.7,2.3s5.453,4.156,5.641,9.191c0,0-2.836-7.186-6.24-8.373l-2.139,3.429s6.01,4.114,6.41,9.833c0,0-3.223-7.4-6.828-9.052l-1.654,3.635s5.786,4.126,6.059,8.888c0,0-4.586-8.179-6.4-8.022,0,0-1.315,3.441-1.212,4.526,0,0,4.084,3.029,4.011,5.841,0,0-3.635-5.138-4.241-4.847,0,0-.515,4.944.551,7.592a15.041,15.041,0,0,1-1.327-7.634,8.292,8.292,0,0,0-2.72,3.9s-.981-2.793,2.86-5.1c0,0,.551-3.835,1.006-4.29,0,0-4.114,1.739-5.944,4.053,0,0,.818-3.544,6.35-5.035l1.575-3.708s-5.556,2.012-7.343,3.95c0,0,1.394-3.49,7.816-4.847l2.066-3.381s-4.92,1.375-7.374,3.1c0,0,1.993-2.957,8-4.047l1.642-2.1s-3.575,1.066-4.574,1.466-1.212.164-1.212.164a12.722,12.722,0,0,1,6.477-2.52S1115.427,91.152,1115.208,90.91Z" transform="translate(-475.28 -69.306)" fill="#6c63ff" opacity="0.1"/>
    <path id="Path_359" data-name="Path 359" d="M689.3,103.29s-40.315,11.512-20.715,28.646c0,0,1.739,3.635,7.319,3.635,0,0-1.042-1.406,3.272-2.26a25.625,25.625,0,0,0,4.35-1.284,7.761,7.761,0,0,0,4.011-3.205h0s8.482-6.786,2.914-20.466c0,0,1.012-3.732.333-4.374l-5.041,4.132s4.847,2.49,5.253,5.78c0,0-4.889-5.75-6.059-5.186-.236.115-2.52,2.272-2.52,2.272s8.41,4.35,8.791,9.446c0,0-4.484-7.337-9.694-8.628l-3.151,3.405s9.209,4.32,9.967,10.112c0,0-5.077-7.567-10.579-9.33l-2.423,3.635s8.87,4.326,9.452,9.149c0,0-7.168-8.391-9.918-8.288,0,0-1.9,3.453-1.727,4.55,0,0,6.265,3.2,6.234,6.01,0,0-5.659-5.3-6.592-5.017,0,0-.642,4.986,1.042,7.689,0,0-2.92-3.884-2.217-7.749,0,0-3.205,1.606-4.011,3.865,0,0-1.563-2.842,4.193-5.071,0,0,.733-3.865,1.406-4.314,0,0-6.18,1.648-8.888,3.938,0,0,1.139-3.563,9.476-4.92l2.29-3.708s-8.361,1.89-11.015,3.8c0,0,2.018-3.49,11.711-4.7l3.029-3.363s-7.416,1.254-11.087,2.938c0,0,2.938-2.938,12.008-3.878l2.423-2.072s-5.386.982-6.889,1.357-1.818.133-1.818.133a23.866,23.866,0,0,1,9.694-2.375S689.65,103.544,689.3,103.29Z" transform="translate(-304.061 -74.186)" fill="#6c63ff" opacity="0.1"/>
    <path id="Path_360" data-name="Path 360" d="M897.075,822.738s20.3-21.321,2.32-31.948a5.023,5.023,0,0,0-5.726-1.418s1.133,1.024-1.169,2.957a13.671,13.671,0,0,0-2.175,2.339,6.622,6.622,0,0,0-1.285,4.023h0s-2.72,8.512,5.532,19.673c0,0,.721,3.714,1.357,4.132l1.581-5.156s-3.829-1.012-5.241-3.944c0,0,5.011,4.011,5.507,3.187.1-.17.715-2.769.715-2.769s-6.665-1.818-8.688-6.386c0,0,5.332,5.586,8.93,5.4l.691-3.981s-7.113-1.545-9.639-6.665c0,0,5.774,5.647,9.736,5.816l.151-4.011s-6.913-1.672-9.009-5.974c0,0,7.331,5.853,8.955,5.023,0,0-.079-3.684-.606-4.653,0,0-4.932-1.3-5.913-3.9,0,0,5.314,3.393,5.774,2.884,0,0-1.387-4.774-3.369-6.822a15.067,15.067,0,0,1,4.108,6.568,8.282,8.282,0,0,0,1.048-4.635s1.963,2.218-.727,5.8c0,0,.933,3.768.685,4.356,0,0,3.151-3.163,3.975-5.992,0,0,.606,3.593-3.981,7.052l-.061,4.035s4.387-3.962,5.307-6.434c0,0,0,3.763-5.41,7.446l-.606,3.914s4.041-3.126,5.659-5.653c0,0-.727,3.49-5.883,6.762l-.733,2.563s2.908-2.333,3.684-3.078,1.042-.606,1.042-.606A12.681,12.681,0,0,1,898.6,817.4S896.772,822.593,897.075,822.738Z" transform="translate(-392.898 -344.427)" fill="#6c63ff" opacity="0.1"/>
    <path id="Path_361" data-name="Path 361" d="M575.85,56.064s3.46,29.227,23.114,22.175a5.025,5.025,0,0,0,4.744-3.508s-1.515.218-1.527-2.787a13.567,13.567,0,0,0-.418-3.169,6.616,6.616,0,0,0-2.272-3.556h0s-4.823-7.525-18.7-8.264c0,0-3.32-1.818-4.047-1.587l2.963,4.5s3.217-2.3,6.38-1.515c0,0-6.289,1.3-5.968,2.205.061.188,1.672,2.314,1.672,2.314s5.665-4,10.512-2.636c0,0-7.7.533-9.858,3.423l2.587,3.078s5.732-4.5,11.312-3.157c0,0-8.034.848-10.694,3.787l3.017,2.678s5.671-4.277,10.3-3.126c0,0-9.185,1.915-9.585,3.69,0,0,2.89,2.29,3.956,2.533,0,0,4.144-2.975,6.774-2.066,0,0-6,1.927-5.907,2.605,0,0,4.562,1.975,7.4,1.757a15.375,15.375,0,0,1-7.676-1.03,8.308,8.308,0,0,0,2.9,3.769s-2.957.091-4-4.241c0,0-3.49-1.684-3.787-2.248,0,0,.424,4.441,2.078,6.883,0,0-3.138-1.818-2.9-7.567l-3.029-2.623s.248,5.907,1.557,8.2c0,0-2.908-2.381-2.278-8.918l-2.6-2.987s-.176,5.1.733,7.961c0,0-2.224-2.787-1.448-8.846l-1.509-2.2s-.055,3.726,0,4.8-.206,1.181-.206,1.181a12.723,12.723,0,0,1-.473-6.925S576.153,55.918,575.85,56.064Z" transform="translate(-269.631 -55.29)" fill="#6c63ff" opacity="0.1"/>
    <path id="Path_362" data-name="Path 362" d="M799.035,734.352s-28.367-7.876-29.276,12.99a5.027,5.027,0,0,0,1.448,5.719s.37-1.478,3.157-.357a13.573,13.573,0,0,0,3.09.818,6.622,6.622,0,0,0,4.156-.763h0s8.785-1.612,14.747-14.141c0,0,2.938-2.381,3.029-3.144l-5.289,1.036s.909,3.853-1.018,6.483c0,0,1.212-6.313.224-6.362-.2,0-2.781.672-2.781.672s1.551,6.7-1.545,10.669c0,0,2.423-7.331.563-10.421l-3.841,1.266s1.987,7-1.369,11.657c0,0,2.266-7.749.545-11.324l-3.6,1.751s1.818,6.871-1.012,10.724c0,0,1.709-9.221.212-10.269,0,0-3.211,1.818-3.835,2.7,0,0,1.212,4.962-.654,7.052,0,0,.485-6.283-.176-6.453,0,0-3.563,3.472-4.435,6.186a15.064,15.064,0,0,1,3.865-6.713,8.321,8.321,0,0,0-4.586,1.254s1.03-2.769,5.453-2.084c0,0,2.884-2.6,3.52-2.654,0,0-4.241-1.3-7.161-.691,0,0,2.9-2.205,8.1.194l3.587-1.818s-5.562-2.005-8.173-1.66c0,0,3.3-1.818,9.088,1.266l3.744-1.278s-4.653-2.09-7.646-2.333c0,0,3.423-1,8.737,2.012l2.605-.563s-3.429-1.466-4.453-1.818-1.018-.606-1.018-.606a12.722,12.722,0,0,1,6.562,2.181S799.053,734.685,799.035,734.352Z" transform="translate(-345.916 -322.33)" fill="#6c63ff" opacity="0.1"/>
  </g>
</svg>
