<svg xmlns="http://www.w3.org/2000/svg" xmlns:xlink="http://www.w3.org/1999/xlink" width="470.358" height="447.264" viewBox="0 0 470.358 447.264">
  <defs>
    <linearGradient id="linear-gradient" x1="0.5" y1="1" x2="0.5" gradientUnits="objectBoundingBox">
      <stop offset="0" stop-color="gray" stop-opacity="0.251"/>
      <stop offset="0.54" stop-color="gray" stop-opacity="0.122"/>
      <stop offset="1" stop-color="gray" stop-opacity="0.102"/>
    </linearGradient>
  </defs>
  <g id="undraw_Meditation_o89g_1_" data-name="undraw_Meditation_o89g (1)" transform="translate(0.03 -12.241)">
    <path id="Path_492" data-name="Path 492" d="M654.521,704.53H204.131c-5.513,0-9.981,2.775-9.981,6.2v64.082c0,3.422,4.468,6.2,9.981,6.2H654.521c5.514,0,9.987-2.775,9.987-6.2V710.727C664.508,707.3,660.034,704.53,654.521,704.53Z" transform="translate(-194.18 -321.5)" fill="#6c63ff"/>
    <path id="Path_493" data-name="Path 493" d="M654.521,704.53H204.131c-5.513,0-9.981,2.775-9.981,6.2v64.082c0,3.422,4.468,6.2,9.981,6.2H654.521c5.514,0,9.987-2.775,9.987-6.2V710.727C664.508,707.3,660.034,704.53,654.521,704.53Z" transform="translate(-194.18 -321.5)" opacity="0.2"/>
    <rect id="Rectangle_71" data-name="Rectangle 71" width="470.34" height="72.014" rx="14.09" transform="translate(-0.012 383.03)" fill="#6c63ff"/>
    <rect id="Rectangle_72" data-name="Rectangle 72" width="470.34" height="6.209" transform="translate(-0.012 392.963)" fill="#fff" opacity="0.05"/>
    <rect id="Rectangle_73" data-name="Rectangle 73" width="470.34" height="6.209" transform="translate(-0.012 407.448)" fill="#fff" opacity="0.05"/>
    <rect id="Rectangle_74" data-name="Rectangle 74" width="470.34" height="6.209" transform="translate(-0.012 421.933)" fill="#fff" opacity="0.05"/>
    <rect id="Rectangle_75" data-name="Rectangle 75" width="470.34" height="6.209" transform="translate(-0.012 436.418)" fill="#fff" opacity="0.05"/>
    <g id="Group_23" data-name="Group 23" transform="translate(329.468 84.334)" opacity="0.5">
      <rect id="Rectangle_76" data-name="Rectangle 76" width="1.814" height="10.277" transform="translate(4.232)" fill="#47e6b1"/>
      <rect id="Rectangle_77" data-name="Rectangle 77" width="1.814" height="10.277" transform="translate(10.277 4.232) rotate(90)" fill="#47e6b1"/>
    </g>
    <g id="Group_24" data-name="Group 24" transform="translate(120.293 242.122)" opacity="0.5">
      <rect id="Rectangle_78" data-name="Rectangle 78" width="1.814" height="10.277" transform="translate(4.232)" fill="#47e6b1"/>
      <rect id="Rectangle_79" data-name="Rectangle 79" width="1.814" height="10.277" transform="translate(10.277 4.232) rotate(90)" fill="#47e6b1"/>
    </g>
    <g id="Group_25" data-name="Group 25" transform="translate(73.139 71.639)" opacity="0.5">
      <rect id="Rectangle_80" data-name="Rectangle 80" width="1.814" height="10.277" transform="translate(4.232)" fill="#47e6b1"/>
      <rect id="Rectangle_81" data-name="Rectangle 81" width="1.814" height="10.277" transform="translate(10.277 4.232) rotate(90)" fill="#47e6b1"/>
    </g>
    <g id="Group_26" data-name="Group 26" transform="translate(395.363 230.635)" opacity="0.5">
      <rect id="Rectangle_82" data-name="Rectangle 82" width="1.814" height="10.277" transform="translate(4.232)" fill="#47e6b1"/>
      <rect id="Rectangle_83" data-name="Rectangle 83" width="1.814" height="10.277" transform="translate(10.277 4.232) rotate(90)" fill="#47e6b1"/>
    </g>
    <path id="Path_500" data-name="Path 500" d="M737.415,328.347a2.224,2.224,0,0,1-1.209-2.684.719.719,0,0,0,.048-.248h0a1.112,1.112,0,0,0-2.025-.732h0a1.243,1.243,0,0,0-.121.218,2.225,2.225,0,0,1-2.684,1.209,1.121,1.121,0,0,0-.248-.048h0a1.112,1.112,0,0,0-.738,2h0a1.1,1.1,0,0,0,.218.121,2.219,2.219,0,0,1,1.209,2.684,1.211,1.211,0,0,0-.049.248h0a1.112,1.112,0,0,0,2,.737h0a.951.951,0,0,0,.121-.218,2.231,2.231,0,0,1,2.69-1.239,1.076,1.076,0,0,0,.242.048h0a1.112,1.112,0,0,0,.737-2h0A.957.957,0,0,0,737.415,328.347Z" transform="translate(-406.079 -171.098)" fill="#4d8af0" opacity="0.5"/>
    <path id="Path_501" data-name="Path 501" d="M372.414,290.347a2.225,2.225,0,0,1-1.209-2.684.721.721,0,0,0,.048-.248h0a1.112,1.112,0,0,0-2.025-.732h0a1.252,1.252,0,0,0-.121.218,2.225,2.225,0,0,1-2.684,1.209,1.121,1.121,0,0,0-.248-.048h0a1.112,1.112,0,0,0-.738,2h0a1.1,1.1,0,0,0,.218.121,2.219,2.219,0,0,1,1.239,2.684,1.2,1.2,0,0,0-.048.248h0a1.112,1.112,0,0,0,2,.738h0a.959.959,0,0,0,.121-.218,2.231,2.231,0,0,1,2.69-1.239,1.072,1.072,0,0,0,.242.048h0a1.112,1.112,0,0,0,.738-2h0A.954.954,0,0,0,372.414,290.347Z" transform="translate(-261.739 -156.071)" fill="#4d8af0" opacity="0.5"/>
    <path id="Path_502" data-name="Path 502" d="M516.414,95.347a2.225,2.225,0,0,1-1.209-2.684.715.715,0,0,0,.048-.248h0a1.112,1.112,0,0,0-2.025-.731h0a1.261,1.261,0,0,0-.121.218,2.225,2.225,0,0,1-2.684,1.239,1.125,1.125,0,0,0-.248-.048h0a1.112,1.112,0,0,0-.738,2h0a1.1,1.1,0,0,0,.218.121,2.219,2.219,0,0,1,1.239,2.684,1.207,1.207,0,0,0-.048.248h0a1.112,1.112,0,0,0,2,.738h0a.953.953,0,0,0,.121-.218,2.231,2.231,0,0,1,2.69-1.239,1.067,1.067,0,0,0,.242.048h0a1.112,1.112,0,0,0,.737-2h0A.956.956,0,0,0,516.414,95.347Z" transform="translate(-318.684 -78.958)" fill="#4d8af0" opacity="0.5"/>
    <path id="Path_503" data-name="Path 503" d="M602.621,548.731,573.2,526.138s-2.37-9.407-3.319-16-2.376-34.822-2.376-34.822a40.947,40.947,0,0,0,1.336-7.472c.29-.06.6-.133.877-.212a14.66,14.66,0,0,0,9.909-8.542c3.023-7.521-.883-16.407-5.828-22.368s-11.172-10.749-14.425-18.136c-4.014-9.1-2.642-20.107-4.691-30.07a9.1,9.1,0,0,0-1.511-3.887c-1.276-1.578-3.265-1.916-5.036-2.545-5.61-1.995-9.818-7.442-13.1-13.131-5.314-9.219-10.815-23.245-21.764-24.043-4.069-.3-8.313,1.076-12.429,1.064a137.8,137.8,0,0,0-19.019.955c-2.261.308-4.6.732-6.487,2.219-6.475,5.127-3.543,18.662-9.782,24.182-1.856,1.632-4.232,2.225-6.33,3.349-7.908,4.232-11.42,15.519-10.954,25.669.224,4.764,1.209,9.715,4.02,13.191,2.231,2.781,5.4,4.377,7.478,7.315,3.343,4.728,2.89,11.009,2.527,17.393-4.474,1.874-8.065,4.026-9.2,6.342-3.833,7.78-3.337,34.381-3.337,34.381s1.421,43.528-9.5,48.969L399.45,558.174S370.492,533,363.371,547.824c-4.867,10.138,12.907,15.876,24.635,18.487-7.394,5.247-11.486,14.944-8.022,21.51,5.441,10.356,20.651,17.411,20.651,17.411s58.007,2.8,84.818-3.21h.441c11.384,2.062,27.719,4.232,40.819,2.926.254.6.429.992.429.992S611.176,613,626.356,584.3c7.787-14.727-.338-21.522-10.108-24.654,10.936-.87,23.39-3.93,24.823-13.234C643.682,529.433,602.621,548.731,602.621,548.731Zm-8.464,9c-15.38,5.6-27.858,5.912-34.508,5.5-3.264-7.122-16.879-37.96-17.236-58.605.091-4.607.907-8.633,2.751-11.656,3.954-6.511,5.127-11.619,4.994-15.495v-.846a15.818,15.818,0,0,0-.338-3.524,9.273,9.273,0,0,1,.556,5.042c-1.421,7.291,2.376,54.585,2.376,54.585s3.083,10.592,9.491,13.645Zm-150.581-3.355,14.763-9.413a14.517,14.517,0,0,0,7.6-11.293l4.867-38.226a38.953,38.953,0,0,0,1.3,4.836c.858,2.509,1.209,6.185,1.282,10.562-.187,21.335-7.448,56.731-7.448,56.731h.085a1.186,1.186,0,0,1-.048.254l-.514.03c-11.94-.363-39.767-1.4-55.34-3.561Zm-25.742,22.278v.073h-3.627Z" transform="translate(-260.772 -179.273)" fill="url(#linear-gradient)"/>
    <path id="Path_504" data-name="Path 504" d="M591.125,375.689c3.168,5.55,7.255,10.882,12.7,12.8,1.711.6,3.627.949,4.836,2.491a8.91,8.91,0,0,1,1.469,3.791c1.977,9.709.653,20.44,4.534,29.321,3.144,7.188,9.159,11.867,13.941,17.665s8.53,14.467,5.635,21.794a14.226,14.226,0,0,1-9.582,8.331c-4,1.088-8.18.635-12.242-.085-5.356-.949-10.809-2.418-15.271-6.046-7.72-6.275-10.985-17.532-15.023-27.549-1.9-4.691-4.419-9.606-8.591-11.281-4.776-1.923-10.15,1.288-13.252,6s-4.474,10.628-5.979,16.323c-1.693,6.432-3.833,13.107-8.288,17.314a13.947,13.947,0,0,1-14.9,2.974c-4.957-2.061-8.875-7.291-10.017-13.355-1.753-9.34,2.454-20.555-2.714-27.942-2.007-2.859-5.072-4.419-7.224-7.128-2.69-3.391-3.67-8.222-3.881-12.859-.453-9.9,2.938-20.936,10.586-25.034,2.043-1.094,4.323-1.669,6.118-3.265,6.045-5.374,3.192-18.572,9.449-23.577,1.814-1.457,4.087-1.862,6.275-2.17a130.658,130.658,0,0,1,18.378-.925c3.984,0,8.089-1.33,12.019-1.04C580.678,353.025,585.992,366.7,591.125,375.689Z" transform="translate(-317.989 -182.167)" fill="#965d7b"/>
    <path id="Path_505" data-name="Path 505" d="M264.1,646.4l2.315,27.428,161.953-.967-3.089-29.943-54.754-6.372-96.015,5.8Z" transform="translate(-104.45 -252.74)" fill="#575988"/>
    <path id="Path_506" data-name="Path 506" d="M264.1,646.4l2.315,27.428,161.953-.967-3.089-29.943-54.754-6.372-96.015,5.8Z" transform="translate(-104.45 -252.74)" opacity="0.05"/>
    <path id="Path_507" data-name="Path 507" d="M599.284,753.82l-53.914,5.048s36.938,9.407,58.5,4.836Z" transform="translate(-333.07 -340.992)" fill="#f7c4a7"/>
    <path id="Path_508" data-name="Path 508" d="M599.284,753.82l-53.914,5.048s36.938,9.407,58.5,4.836Z" transform="translate(-333.07 -340.992)" opacity="0.1"/>
    <path id="Path_509" data-name="Path 509" d="M558.263,434.29s10.555,27.761-5.048,40.148-2.751,47.034-2.751,47.034l60.11-2.757s5.961-39,2.751-47.258c0,0-14.225,4.129-17.435-4.589s-5.507-32.579-5.507-32.579Z" transform="translate(-333.117 -214.633)" fill="#f7c4a7"/>
    <path id="Path_510" data-name="Path 510" d="M485.435,708.591s-50.7-1.149-65.612-4.836-27.761,14.013-22.483,24.134,19.95,16.976,19.95,16.976,75.484,3.67,91.771-6.65c0,0,6.2-17.665,0-21.1H430.373l58.037-1.149Z" transform="translate(-274.054 -320.997)" fill="#575988"/>
    <path id="Path_511" data-name="Path 511" d="M658.387,699.74s16.982,3.67,40.378-5.507c0,0,43.824-1.372,29.139,26.6S632,741.944,632,741.944s-4.836-10.326,0-13.076,46.8-20.422,59.881-19.5l-36.273,7.109Z" transform="translate(-366.48 -317.424)" fill="#575988"/>
    <path id="Path_512" data-name="Path 512" d="M601.27,448.621c-.877-6.535-1.39-11.861-1.39-11.861H567.76a62.573,62.573,0,0,1,3.071,12.986A25.24,25.24,0,0,0,601.27,448.621Z" transform="translate(-341.924 -215.61)" opacity="0.1"/>
    <circle id="Ellipse_42" data-name="Ellipse 42" cx="25.234" cy="25.234" r="25.234" transform="translate(217.463 186.739)" fill="#f7c4a7"/>
    <path id="Path_513" data-name="Path 513" d="M491.712,492.451s-30.282,5.737-33.952,13.3-3.21,33.5-3.21,33.5,1.372,42.439-9.177,47.717L405.908,614.5s-27.985-24.545-34.87-10.1,33.039,19.733,33.039,19.733l44.507-13.3,14.225-9.177a14.135,14.135,0,0,0,7.339-11.015l5.967-47.258,23.862-6.886h38.54l5.163-14.739s9.522,7.629,8.143,14.739,2.3,53.2,2.3,53.2,2.98,10.32,9.177,13.3l35.789,12.847s37.851,3.67,40.378-12.847S602.3,605.35,602.3,605.35L573.828,583.3s-2.291-9.177-3.21-15.6-2.291-33.952-2.291-33.952,8.718-28.909-16.522-33.951l-32.579-10.1Z" transform="translate(-263.815 -236.545)" fill="#f7c4a7"/>
    <path id="Path_514" data-name="Path 514" d="M536.764,499.058l4.7,31.086s-4.836,14.455,0,28.68-5.967,67.232-5.967,67.232,56.67,18.136,91.287-2.757c0,0-25.464-53.684-14.685-71.579s.181-24.9.181-24.9l1.657-32.918-7.8-2.3-4.589,32.579s-31.66,22.024-55.062,2.757l-5.048-35.336Z" transform="translate(-329.167 -237.301)" opacity="0.1"/>
    <path id="Path_515" data-name="Path 515" d="M575.991,559.292a18.59,18.59,0,0,0-24.061-6.765A34.966,34.966,0,0,0,575.991,559.292Z" transform="translate(-335.664 -260.615)" fill="#fff" opacity="0.07"/>
    <path id="Path_516" data-name="Path 516" d="M613.24,553.642a18.56,18.56,0,0,1,24.037-6.765A35.161,35.161,0,0,1,613.24,553.642Z" transform="translate(-359.909 -258.381)" fill="#fff" opacity="0.07"/>
    <path id="Path_517" data-name="Path 517" d="M536.764,498l4.7,29.478s-4.836,14.455,0,28.68-5.967,67.22-5.967,67.22,56.67,18.136,91.287-2.751c0,0-25.464-53.684-14.684-71.579s.181-24.9.181-24.9l1.656-32.924-7.8-2.291-4.588,32.579s-31.66,22.024-55.062,2.751l-5.048-35.33Z" transform="translate(-329.167 -236.245)" opacity="0.1"/>
    <path id="Path_518" data-name="Path 518" d="M536.534,498.073l4.933,30.167s-4.836,14.455,0,28.68-5.967,67.22-5.967,67.22,56.67,18.136,91.287-2.751c0,0-25.464-53.69-14.685-71.585s.181-24.889.181-24.889l1.657-32.924-7.8-2.291-4.589,32.579s-31.66,22.024-55.062,2.751l-5.048-35.33Z" transform="translate(-329.167 -236.545)" fill="#fc6681"/>
    <path id="Path_519" data-name="Path 519" d="M575.73,723.574l11.928-1.614s13.766-17.665,23.632-4.129c0,0,4.129,8.718,9.177,10.32a67.768,67.768,0,0,0,10.555,2.3L610.6,736.185s-8.947,5.278-18.354,3.9a35.591,35.591,0,0,0-16.516,1.378Z" transform="translate(-345.076 -324.741)" fill="#f7c4a7"/>
    <path id="Path_520" data-name="Path 520" d="M553.91,605.121s21.564,3.21,25.234-2.521" transform="translate(-336.447 -281.192)" opacity="0.1"/>
    <path id="Path_521" data-name="Path 521" d="M621.46,600.7s4.129,4.129,20.645,1.149" transform="translate(-363.16 -280.44)" opacity="0.1"/>
    <path id="Path_522" data-name="Path 522" d="M552,494.82s15.833,2.3,18.813.919" transform="translate(-335.692 -238.57)" opacity="0.1"/>
    <path id="Path_523" data-name="Path 523" d="M609.69,494.82s15.833,2.3,18.814.919" transform="translate(-358.505 -238.57)" opacity="0.1"/>
    <path id="Path_524" data-name="Path 524" d="M571.669,727.83s4.365,20.555,0,21.28-10.549-3.385-10.549-3.845,2.751-13.536,2.751-13.536Z" transform="translate(-339.298 -330.714)" opacity="0.1"/>
    <path id="Path_525" data-name="Path 525" d="M570.915,727.83s4.359,20.555,0,21.28-10.555-3.385-10.555-3.845,2.751-13.536,2.751-13.536Z" transform="translate(-338.998 -330.714)" fill="#575988"/>
    <path id="Path_526" data-name="Path 526" d="M541.406,478.5c-1.929,4.468-2.612,9.739-.568,14.153,1.56,3.367,4.613,6.094,5.2,9.757.738,4.6-2.672,9.268-1.4,13.747a12.614,12.614,0,0,0,2.763,4.522c3.494,4.129,8.137,8.131,13.53,7.811.858-8.331-6.348-16.414-3.99-24.448.846-2.878,2.829-5.272,4.026-8.016,1.989-4.552,1.7-9.751.985-14.666-1.046-7.134-3.694-15.875-10.767-19.213-3.246-1.535-7.859-1.65-9.014,2.521-.635,2.225.846,4.316,1.046,6.493C543.468,473.927,542.476,476.024,541.406,478.5Z" transform="translate(-330.787 -225.264)" opacity="0.1"/>
    <path id="Path_527" data-name="Path 527" d="M541.406,477.37c-1.929,4.468-2.612,9.733-.568,14.153,1.56,3.361,4.613,6.094,5.2,9.751.738,4.6-2.672,9.268-1.4,13.747a12.638,12.638,0,0,0,2.763,4.528c3.494,4.123,8.137,8.125,13.53,7.8.858-8.331-6.348-16.414-3.99-24.448.846-2.878,2.829-5.272,4.026-8.016,1.989-4.552,1.7-9.751.985-14.666-1.046-7.134-3.694-15.875-10.767-19.213-3.246-1.536-7.859-1.644-9.014,2.521-.635,2.225.846,4.317,1.046,6.493C543.468,472.788,542.476,474.885,541.406,477.37Z" transform="translate(-330.787 -224.814)" fill="#965d7b"/>
    <path id="Path_528" data-name="Path 528" d="M545.56,387.355s33.492-4.589,34.411,2.291,30.518,18.136,30.518,18.136l-7.345-18.136-13.536-22.483s-24.786-1.814-25.923,0-14.231,7.8-14.231,7.8Z" transform="translate(-333.145 -187.769)" opacity="0.1"/>
    <path id="Path_529" data-name="Path 529" d="M545.56,386.595s33.492-4.589,34.411,2.291,30.518,18.136,30.518,18.136l-7.345-18.136L589.607,366.4s-24.786-1.814-25.923,0-14.231,7.8-14.231,7.8Z" transform="translate(-333.145 -187.469)" fill="#965d7b"/>
    <path id="Path_530" data-name="Path 530" d="M640.23,478.208a16.323,16.323,0,0,1,3.361,6.729c.556,2.37.6,4.836,1.106,7.206,1.124,5.048,4.468,9.292,7.95,13.113a14.311,14.311,0,0,0,4.069,3.422,5.326,5.326,0,0,0,5.1,0,9.14,9.14,0,0,1-2.666-4.655,23.851,23.851,0,0,1-.931-7.5c.151-4.232,1.39-8.7-.369-12.557a15.5,15.5,0,0,0-4.836-5.441,26.056,26.056,0,0,0-4.317-2.835,26.836,26.836,0,0,0-9.268-2.358C635.333,472.912,638.918,476.66,640.23,478.208Z" transform="translate(-369.513 -230.059)" opacity="0.1"/>
    <path id="Path_531" data-name="Path 531" d="M640.23,477.07a16.234,16.234,0,0,1,3.361,6.723c.556,2.37.6,4.836,1.106,7.206,1.124,5.048,4.468,9.292,7.95,13.113a14.312,14.312,0,0,0,4.069,3.422,5.326,5.326,0,0,0,5.1,0,9.115,9.115,0,0,1-2.666-4.655,23.851,23.851,0,0,1-.931-7.5c.151-4.232,1.39-8.7-.369-12.557a15.6,15.6,0,0,0-4.836-5.441,25.708,25.708,0,0,0-4.317-2.841,26.829,26.829,0,0,0-9.268-2.358C635.333,471.768,638.918,475.517,640.23,477.07Z" transform="translate(-369.513 -229.604)" fill="#965d7b"/>
  </g>
</svg>
